<?xml version="1.0" encoding="UTF-8"?>
<svg xmlns="http://www.w3.org/2000/svg" xmlns:xlink="http://www.w3.org/1999/xlink" viewBox="0 0 66.8 49.31">
  <defs>
    <style>
      .cls-1 {
        fill: #787983;
      }

      .cls-2 {
        fill: #7e8b84;
      }

      .cls-3 {
        fill: #e8e7df;
      }

      .cls-4 {
        fill: #3f404f;
      }

      .cls-5 {
        fill: #b5b8b1;
      }

      .cls-6 {
        fill: #e4e3d1;
      }

      .cls-7 {
        fill: #7e7e7e;
      }

      .cls-8 {
        fill: #5e5e5e;
      }

      .cls-9 {
        fill: #dddedf;
      }

      .cls-10 {
        fill: #c1bfa9;
      }

      .cls-11 {
        fill: #595c5d;
      }

      .cls-11, .cls-12, .cls-13 {
        mix-blend-mode: screen;
      }

      .cls-12, .cls-14 {
        fill: #949494;
      }

      .cls-15 {
        fill: #b4b8b1;
      }

      .cls-16 {
        fill: url(#_Áåçûìÿííûé_ãðàäèåíò_743);
      }

      .cls-17 {
        fill: #797d71;
      }

      .cls-18 {
        fill: #aaa8a1;
      }

      .cls-19 {
        fill: url(#_Áåçûìÿííûé_ãðàäèåíò_849);
      }

      .cls-20 {
        fill: #eb4c4c;
      }

      .cls-21 {
        isolation: isolate;
      }

      .cls-22, .cls-23 {
        fill: #ff594f;
      }

      .cls-24 {
        fill: #848177;
      }

      .cls-25 {
        fill: #5b605c;
      }

      .cls-26 {
        fill: #cccec9;
      }

      .cls-27 {
        fill: #a5a9a1;
      }

      .cls-28 {
        fill: #c7c8bb;
      }

      .cls-29 {
        fill: #75787a;
      }

      .cls-30 {
        fill: #1d1d1d;
      }

      .cls-31 {
        fill: #4b5357;
      }

      .cls-32, .cls-33, .cls-23 {
        mix-blend-mode: multiply;
      }

      .cls-34 {
        fill: #515151;
      }

      .cls-35 {
        fill: #919191;
      }

      .cls-33 {
        fill: #c7c7c7;
      }

      .cls-36 {
        fill: #ffffeb;
      }

      .cls-37 {
        fill: #363c3c;
      }

      .cls-38 {
        fill: #525361;
      }

      .cls-39 {
        fill: #101010;
      }

      .cls-40 {
        fill: #f6f5e2;
      }

      .cls-41 {
        fill: #a2a2a2;
      }
    </style>
    <linearGradient id="_Áåçûìÿííûé_ãðàäèåíò_849" data-name="Áåçûìÿííûé ãðàäèåíò 849" x1="42.13" y1="29.12" x2="36.93" y2="38.14" gradientUnits="userSpaceOnUse">
      <stop offset="0" stop-color="#f9f9e5"/>
      <stop offset=".09" stop-color="#ffffeb"/>
      <stop offset=".15" stop-color="#fbfbe7"/>
      <stop offset=".16" stop-color="#fafae6"/>
      <stop offset=".37" stop-color="#f4f3e0"/>
      <stop offset=".63" stop-color="#e5e4d2"/>
      <stop offset=".69" stop-color="#dddccc"/>
      <stop offset=".79" stop-color="#c8c8bb"/>
      <stop offset=".91" stop-color="#a5a8a1"/>
      <stop offset="1" stop-color="#858988"/>
    </linearGradient>
    <linearGradient id="_Áåçûìÿííûé_ãðàäèåíò_743" data-name="Áåçûìÿííûé ãðàäèåíò 743" x1="25.9" y1="20.31" x2="22.91" y2="25.49" gradientUnits="userSpaceOnUse">
      <stop offset="0" stop-color="#f0f1e5"/>
      <stop offset=".13" stop-color="#f9f9e8"/>
      <stop offset=".28" stop-color="#ffffeb"/>
      <stop offset=".45" stop-color="#fbfbe8"/>
      <stop offset=".59" stop-color="#f2f1de"/>
      <stop offset=".69" stop-color="#e5e4d2"/>
      <stop offset=".96" stop-color="#c7c8bb"/>
    </linearGradient>
  </defs>
  <g class="cls-21">
    <g id="Layer_2">
      <g id="_Ñëîé_3" data-name="Ñëîé_3">
        <g>
          <g>
            <polygon class="cls-24" points="35.35 42.04 30.9 39.52 29.93 37.8 34.39 40.32 35.35 42.04"/>
            <g>
              <path class="cls-30" d="M31.49,42.6c0,.74.52,1.64,1.17,2.02.23.13-.26.51-.08.49.06,0,.77-.41.83-.44.23-.11.38-.38.38-.77,0-.74-.52-1.65-1.17-2.02-.34-.19-.64-.21-.85-.07-.07.05-.8.38-.85.47-.08.14.58.1.58.33Z"/>
              <path class="cls-39" d="M30.63,42.98c0,.74.52,1.64,1.17,2.02.65.37,1.17.07,1.17-.67s-.52-1.64-1.17-2.02c-.65-.37-1.17-.07-1.17.67Z"/>
              <path class="cls-8" d="M31.1,43.24c0,.45.32.99.7,1.22.39.22.7.04.7-.4s-.32-.99-.7-1.22c-.39-.22-.7-.04-.7.4Z"/>
              <path class="cls-35" d="M33.63,41.96l-1.35,2.04s-.35.22-.36.19c-.12-.5-.2-2.51-.2-2.51l-1.06-1.58.36-.19,2.61,1.34v.71Z"/>
              <path class="cls-29" d="M33.28,42.16l-1.35,2.04s-.61-.5-.61-.5l-.65-2.57v-1.02l2.61,1.34v.71Z"/>
              <path class="cls-30" d="M30.12,43.36c0,.74.52,1.64,1.17,2.02.23.13-.26.51-.08.49.06,0,.77-.41.83-.44.23-.11.38-.38.38-.77,0-.74-.52-1.65-1.17-2.02-.34-.19-.64-.21-.85-.07-.07.05-.8.38-.85.47-.08.14.58.1.58.33Z"/>
              <path class="cls-39" d="M29.27,43.74c0,.74.52,1.65,1.17,2.02.65.37,1.17.07,1.17-.67s-.52-1.64-1.17-2.02c-.65-.37-1.17-.07-1.17.67Z"/>
              <path class="cls-8" d="M29.74,44.01c0,.45.32.99.7,1.22.39.22.7.04.7-.4s-.32-.99-.7-1.22c-.39-.22-.7-.04-.7.4Z"/>
              <path class="cls-35" d="M33.14,38.09l-.22,2.61s-.35.22-.36.19c-.12-.5-.08-2.01-.08-2.01l-.33-1.61.36-.19.63.31v.71Z"/>
              <path class="cls-29" d="M32.78,38.28l-.22,2.61s-.61-.5-.61-.5l.2-2.1v-1.02l.63.31v.71Z"/>
            </g>
            <polygon class="cls-18" points="32.44 42.68 27.99 40.16 28.89 38.07 33.34 40.59 32.44 42.68"/>
          </g>
          <g>
            <g>
              <path class="cls-30" d="M49.95,47.14c0,.5.35,1.11.79,1.36.15.09-.18.35-.06.33.04,0,.52-.28.56-.3.16-.07.26-.25.26-.52,0-.5-.35-1.11-.79-1.36-.23-.13-.43-.14-.57-.05-.05.03-.54.26-.57.31-.06.09.39.07.39.22Z"/>
              <path class="cls-39" d="M49.38,47.39c0,.5.35,1.11.79,1.36.43.25.79.05.79-.45s-.35-1.11-.79-1.36c-.43-.25-.79-.05-.79.45Z"/>
              <path class="cls-8" d="M49.69,47.57c0,.3.21.67.47.82.26.15.47.03.47-.27s-.21-.67-.47-.82c-.26-.15-.47-.03-.47.27Z"/>
              <path class="cls-35" d="M50.95,45.69l-.46,1.93s-.23.15-.24.13c-.08-.34.29-1.96.29-1.96l-.71-1.06.24-.13.58.27.31.81Z"/>
              <path class="cls-29" d="M50.71,45.81l-.46,1.93s-.41-.34-.41-.34l.45-1.61-.46-1.07.58.27.31.81Z"/>
            </g>
            <polygon class="cls-18" points="51.59 46.75 48.59 45.06 49.19 43.65 52.19 45.35 51.59 46.75"/>
          </g>
          <g>
            <g>
              <polygon class="cls-10" points="15.14 15.29 26.52 21.5 27.46 14.62 27.38 14.32 27.23 14.05 15.14 15.29"/>
              <path class="cls-10" d="M48.62,16.92l2.12,17.45s-9.45-4.74-14.56-7.6c-5.11-2.86-7.25-4.3-7.25-4.3l16.25-7.6,3.44,2.06Z"/>
              <path class="cls-6" d="M50.51,33.82c-1.34-1.2-11.4-4.7-15.93-7.24-4.03-2.26-4.52-3.86-5.25-4.33l15.85-7.42,3.15,2.23,2.18,16.76Z"/>
              <path class="cls-40" d="M39.59,28.11c2.38,1.2,5.02,2.48,7.13,3.55l1.47-13.6.13-.99-1.03-.47-.34-.1-13.03,8.98,5.66,2.63Z"/>
              <polygon class="cls-22" points="42.87 17.37 45.9 18.3 48.04 19.43 49.08 20.68 49.25 22.08 47.92 20.44 45.15 18.96 41.79 17.91 42.87 17.37"/>
              <polygon class="cls-36" points="48.62 16.92 50.71 34.04 50.27 33.84 48.55 16.87 48.62 16.92"/>
              <g class="cls-32">
                <rect class="cls-9" x="41.59" y="27.5" width="6.92" height=".15" transform="translate(.98 56.69) rotate(-64.92)"/>
              </g>
              <g class="cls-32">
                <polygon class="cls-9" points="35.7 26.96 35.61 26.84 41.4 22.2 47.87 16.44 47.97 16.55 41.5 22.31 35.7 26.96"/>
              </g>
              <path class="cls-5" d="M66.8,49.25s-1.7-2.34-5.29-5.45c-3.59-3.11-4.22-3.61-4.22-3.61,0,0-.43.52-1.73-.38-1.3-.9-5.19-3.42-7.63-5.73-2.44-2.31-4.81-2.93-5.97-3.45-1.15-.53-6.39-3.15-9.21-4.65s-8.9-4.66-10.34-5.53c-1.44-.87-9.93-3.96-9.93-3.96,0,0-.1,1.51.56,3.46.65,1.95-1.69,3.93-1.69,3.93,0,0,2.55,1.77,6.28,4.21,3.73,2.43,29.39,15.62,31.82,16.84.74.37,1.06.55,1.26.66,0,0,.22-.14.19-.14-.08,0,2.01-.79,2.07-.83.23-.16.53-.06.53-.38,0-.39.26-.49.26-.49,0,0,4.42,2.07,7.19,3.49,2.77,1.42,5.2,2.28,5.86,2.01Z"/>
              <path class="cls-2" d="M66.8,49.25s0,0,0,0c-.67.27-3.09-.6-5.86-2.01-2.77-1.42-7.19-3.49-7.19-3.49,0,0-.25.1-.26.49,0,.18-.06.31-.15.42-.07.09-.57-.05-.67.02-.06.04-.12.08-.19.12-.31.2-.81.32-1.48,0-.97-.47-5.82-2.8-11.56-5.6-1.97-.96-4.04-1.98-6.09-2.99-7.09-3.5-13.98-6.97-15.72-8.11-3.73-2.43-6.28-4.21-6.28-4.21,0,0-1.18-1.52-.92-1.79.64-.69,3.08-.75,2.61-2.14-.25-.76-.39-1.45-.47-2.01-.12-.88-.09-1.45-.09-1.45,0,0,.62.23,1.56.57,2.52.93,7.33,2.75,8.38,3.39,1.44.87,7.52,4.04,10.34,5.53,2.82,1.49,8.06,4.12,9.21,4.65,1.15.53,3.53,1.14,5.97,3.45,2.44,2.31,6.33,4.83,7.63,5.73.7.48,1.15.56,1.41.52,1.3.98,2.81,2.14,4.51,3.44.01,0,.02.02.03.03,3.54,3.06,5.24,5.37,5.29,5.45,0,0,0,0,0,0Z"/>
              <polygon class="cls-36" points="51.44 44.33 51 44.8 40.46 39.69 51.44 44.33"/>
              <g>
                <g>
                  <polygon class="cls-6" points="27.23 14.05 26.52 20.97 15.14 14.76 18.01 13.87 21.73 12.73 23.76 12.11 27.23 14.05"/>
                  <g class="cls-32">
                    <rect class="cls-9" x="19.14" y="15.44" width="7.25" height=".15" transform="translate(-4.42 20.01) rotate(-43.68)"/>
                  </g>
                  <g class="cls-32">
                    <polygon class="cls-9" points="26.75 18.51 21.99 16.3 22.05 16.16 26.81 18.37 26.75 18.51"/>
                  </g>
                  <polygon class="cls-12" points="22.32 13.17 17.82 15.4 16.69 14.49 18.01 13.87 21.73 12.73 22.32 13.17"/>
                  <path class="cls-19" d="M66.8,49.25c-.01-.07-.4-1.71-3.8-4.31-.52-.4-1.03-.79-1.52-1.16-3.57-3.08-4.19-3.58-4.19-3.58,0,0-.14.06-.32.13-.83-.63-1.57-1.18-2.22-1.64-1.94-1.39-6.43-5.97-8.31-7.05-1.08-.62-9.08-4.02-14.77-7.05-4.2-2.24-6.65-4.41-6.65-4.41l-8.44-4.61-2.54,1.51-1.47.88-.41.24-1.73,3.91,5.37,3.48s11.98,7.29,17.56,10.63c1.31.79,2.27,1.36,2.63,1.56.63.35,1.92.86,3.46,1.43,3.12,1.15,7.24,2.52,8.88,3.26,1.31.59,3,1.34,5.02,2.21,1.76.76,3.76,1.59,5.94,2.46.75.3,1.43.56,2.04.79,4.68,1.73,5.42,1.37,5.48,1.34,0,0,0,0,0,0,0,0,0,0,0,0Z"/>
                  <g class="cls-32">
                    <rect class="cls-9" x="42.36" y="25.9" width=".15" height="8.34" transform="translate(-2.02 57.05) rotate(-66.57)"/>
                  </g>
                  <path class="cls-28" d="M66.78,49.26c-.13.06-1.02.29-5.46-1.35-.61-.23-1.29-.49-2.04-.79-2.18-.88-4.18-1.71-5.94-2.46-2.01-.86-3.71-1.62-5.02-2.21-1.64-.74-5.76-2.11-8.88-3.26-1.54-.57-2.83-1.08-3.46-1.43-.36-.2-1.32-.77-2.63-1.56-5.58-3.34-17.56-10.63-17.56-10.63l-5.37-3.48,1.36-3.06c2.67.76,11.6,6.65,11.6,6.65,0,0,9.34,6.67,18.64,12.01,7.95,4.56,15.93,7.85,17.47,8.58,3.36,1.58,7.29,2.99,7.29,2.99Z"/>
                  <g class="cls-32">
                    <path class="cls-9" d="M59.78,45.35c-.14-.06-14.54-5.98-17.54-7.75-3.03-1.78-7.51-4.41-7.51-4.41l-3.33-1.4-8.96-6.15-4-1.5.05-.14,4.02,1.51,8.96,6.15,3.32,1.4s4.48,2.63,7.52,4.41c2.99,1.76,17.38,7.68,17.52,7.74l-.06.14Z"/>
                  </g>
                  <path class="cls-17" d="M66.8,49.25s-.01,0-.02.01c-.01,0-.02.01-.03.01h-.02s-.01.01-.02.01h-.03s-.04,0-.07,0c-.02,0-.04,0-.07,0-.48,0-1.79-.21-5.15-1.64-.56-.24-1.17-.51-1.86-.83-.03-.1-.04-.21-.04-.34,0-.87.61-1.94,1.38-2.38.31-.18.6-.22.83-.15h.01c.42.32.85.65,1.29.99,3.4,2.59,3.79,4.24,3.8,4.31Z"/>
                  <path class="cls-12" d="M66.8,49.25s-2.09-1.84-3.97-3.2c-1.89-1.37-8.18-5.21-8.18-5.21,0,0-12.65-8.77-22.98-12.86-10.33-4.09-1.2-3.37-1.2-3.37,0,0,15.95,7.64,16.53,7.89s14.13,11.64,16.16,12.99c2.04,1.36,3.3,2.79,3.66,3.75Z"/>
                  <path class="cls-12" d="M47.87,32.25s-1.93-1.31-4.29-.89c.64,3.42,4.82,6.2,6.79,7.57,1.96,1.37,3.97,2.47,5.43,2.61,1.45.14,1.67-.54,1.67-.54,0,0,.44-.45-.28-1.07-.72-.62-9.32-7.69-9.32-7.69Z"/>
                  <path class="cls-37" d="M66.54,49.29c-.47.03-1.79-.11-5.22-1.38-.15-.06-.31-.12-.47-.18-.16-.06-.33-.12-.5-.19-.16-.06-.33-.13-.5-.19h0c-.14-.1-.25-.25-.31-.46-.01-.02-.01-.04-.01-.07.69.32,1.3.59,1.86.83,3.36,1.43,4.67,1.64,5.15,1.64Z"/>
                  <path class="cls-28" d="M59.85,47.34h0c-.19-.07-.38-.14-.57-.22-2.19-.88-4.18-1.71-5.94-2.46-2.01-.87-3.71-1.62-5.02-2.21-1.64-.74-5.76-2.11-8.88-3.26-1.53-.57-2.83-1.08-3.46-1.43-.36-.2-1.32-.77-2.63-1.56-5.58-3.34-17.56-10.63-17.56-10.63l-3.64-2.36-.36-3.79,5.17,2.08s.49,1.3,3.92,3.79c.7.52,4.92,2.85,5.71,3.39,2.93,2,5.32,3.05,7.42,4.45,1.28.85,4.44,3.01,5.94,3.65,3.06,1.29,7.08,3.96,8.72,4.79,1.27.65,2.93,1.49,4.9,2.45,1.72.84,3.68,1.76,5.82,2.74.05.02.1.04.14.06,0,.03,0,.05.01.07.06.21.17.36.31.45Z"/>
                  <path class="cls-33" d="M62.36,48.11c-.61-.23-1.29-.49-2.04-.79-2.18-.88-4.18-1.95-5.94-2.7-2.01-.86-3.71-1.56-5.02-2.15-1.64-.74-4.27-1.95-7.38-3.09-1.54-.57-4.33-2.29-4.96-2.64-.36-.2-1.32-.77-2.63-1.56-5.58-3.34-17.56-10.63-17.56-10.63l-5.37-3.48,1.48-3.34-.38.23-.41.24-1.73,3.91,5.37,3.48s11.98,7.29,17.56,10.63c1.31.79,2.27,1.36,2.63,1.56.63.35,1.92.86,3.46,1.43,3.12,1.15,7.24,2.52,8.88,3.26,1.31.59,3,1.34,5.02,2.21,1.76.76,3.76,1.59,5.94,2.46.75.3,1.43.56,2.04.79,2.44.9,3.81,1.23,4.57,1.34-.63-.15-1.7-.47-3.53-1.15Z"/>
                  <path class="cls-31" d="M9.06,16.8c-1.56,1.9-.66,4.09-.66,4.09l4.91,3.55c-1.74-5.11,2.45-4.21,2.73-4.56.62-.16,3.08-.88,1.51-1.59l-6.22-2.78s-1.13-.09-2.27,1.3Z"/>
                  <path class="cls-3" d="M12.27,0l-.29.15,3.42,16.38,16.27,8.05.12-.06s-7.66-6.26-9.23-8.12c-1.57-1.85-5.28-13.6-5.28-13.6L12.27,0Z"/>
                  <path class="cls-5" d="M31.66,24.58l-3.97-1.89-12.59-6L12.14,1.02l-.16-.86,5,2.81s3.71,11.75,5.28,13.6c1.56,1.84,9.29,7.93,9.41,8.02Z"/>
                  <path class="cls-26" d="M31.66,24.58l-3.97-1.89-6.99-5.86-4.52-13.48-4.03-2.34-.16-.86,5,2.81s3.71,11.75,5.28,13.6c1.56,1.84,9.29,7.93,9.41,8.02Z"/>
                  <g>
                    <polygon class="cls-10" points="6.36 20.44 17.3 26.38 17.75 26.77 17.3 26.91 5.33 27.43 1.91 25.46 1.73 25.3 1.91 24.93 6.36 20.44"/>
                    <path class="cls-10" d="M10.53,39.26l30.78.61s-.46-.42-.86-.64c-2.09-1.15-8.85-4.86-13.08-7.3-5.03-2.91-7.56-4.12-7.56-4.12l-12.91,9.5,3.63,1.95Z"/>
                    <polygon class="cls-36" points="40.46 39.23 10.58 38.84 10.53 39.26 41.31 39.87 40.46 39.23"/>
                    <path class="cls-6" d="M10.58,38.84l-3.32-1.79,12.58-9.25c.52.26,3.03.33,7.45,2.88,4.18,2.41,11.03,7.38,13.17,8.56l-29.88-.39Z"/>
                    <polygon class="cls-6" points="17.3 26.38 5.33 26.9 1.91 24.93 3.15 23.53 5.88 20.45 6.36 19.91 17.3 26.38"/>
                  </g>
                </g>
                <path class="cls-16" d="M33.83,28.26l-.07-.27c-.33-1.2-1.59-4.23-6.23-6.73-5.93-3.19-8.51-4.12-8.51-4.12-.95-.31-2.69-.34-3.26.01-.6.34-1.76,1.89-1.85,2.37,0,0,2.08,1.84,7.7,5.21,4.4,2.64,9.68,3.32,11.76,3.49l.47.03Z"/>
                <path class="cls-3" d="M.4,6.42l-.4.31,9.16,13.44,15.6,9.14.4-.31s-7.6-6.37-9.12-8.26S5.28,9.32,5.28,9.32L.4,6.42Z"/>
                <path class="cls-27" d="M24.75,29.31l-2.94-1.62-13.06-7.21L.83,8.03h0s-.83-1.3-.83-1.3l4.88,2.9s9.24,9.53,10.76,11.42c1.51,1.87,9,8.16,9.12,8.25Z"/>
              </g>
              <polygon class="cls-25" points="53.34 44.66 52.02 44.09 51.44 44.33 51 44.8 50.71 45.59 53.66 44.8 53.34 44.66"/>
              <path class="cls-15" d="M24.75,29.31l-2.94-1.62-5.71-4.44L4.74,10.31l-3.91-2.28h0s-.83-1.3-.83-1.3l4.88,2.9s9.24,9.53,10.76,11.42c1.51,1.87,9,8.16,9.12,8.25Z"/>
              <path class="cls-1" d="M44.05,31.53s1.24-.23,4.51,1.08,7.09,4.31,8.72,7.58c.11,2.23-3.74.45-6.92-1.75-3.19-2.2-6.31-6.91-6.31-6.91Z"/>
              <path class="cls-38" d="M57.28,40.57c-.03.29-.22.47-.4.56h0c-.27.15-.85.26-1.76,0,0,0,0,0,0,0-.28-.08-.6-.2-.94-.36-1.47-.7-4.79-3.05-7.31-5.11-2.52-2.06-3.01-4.01-3.01-4.01l.19-.11s.08.02.22.05c0,0,0,0,0,0,.4.1,1.33.36,2.47.82.96.39,1.77.56,2.65,1.53.76.83,2.67,2.49,4.05,3.6.9.73,2.98,1.47,3.32,1.88.42.5.54.88.51,1.15Z"/>
              <path class="cls-4" d="M55.13,41.13c-.28-.08-.6-.2-.94-.36-1.47-.7-4.71-2.81-7.24-4.87-2.52-2.06-3.08-4.25-3.08-4.25l.19-.11s.08.02.22.05c0,0,0,0,0,0,.4.1,1.33.36,2.47.82-.42-.03-.63.02-.63.02,0,0,1.13,2.89,3.83,5.02,2.66,2.1,5.1,3.63,5.18,3.67Z"/>
              <path class="cls-11" d="M56.89,41.13h0c-.27.15-.85.26-1.76,0-.75-1.71-1.71-3.32-3.78-5.09-3.56-3.04-6.41-4.21-7.07-4.46,0,0,0,0,0,0-.1-.03-.14-.05-.14-.05,0,0,1.81.21,5.01,1.67,1.77.81,4.16,2.6,5.87,4.35,1.14,1.16,1.87,2.36,2.28,3.01-.03.29-.22.47-.4.56Z"/>
              <polygon class="cls-40" points="25.51 30.26 9.19 38.09 10.58 38.84 11.9 38.85 37.57 37.66 25.51 30.26"/>
              <polygon class="cls-23" points="11.17 35.95 13.9 36.96 16.32 38.65 16.52 39.38 18.16 39.41 17.95 38.57 15.14 36.58 12 35.37 11.17 35.95"/>
              <g class="cls-13">
                <polygon class="cls-14" points="10.62 36.33 15.23 33.12 13.51 32.45 8.94 35.81 10.62 36.33"/>
                <polygon class="cls-14" points="15.99 32.6 20.61 29.39 18.7 28.63 14.29 31.87 15.99 32.6"/>
              </g>
              <g>
                <polygon class="cls-12" points="43.58 17.02 38.14 19.71 36.92 18.72 42.63 16.05 43.58 17.02"/>
                <polygon class="cls-12" points="37.25 20.15 31.81 22.85 30.45 21.75 35.95 19.18 37.25 20.15"/>
                <polygon class="cls-12" points="7.09 21.41 3.27 24.07 2.84 23.88 5.56 20.81 7.09 21.41"/>
              </g>
              <path class="cls-12" d="M33.81,28.24c-2.91.02-3.4-1.03-5.03-1.82-2.06-1.01-5.89-2.13-8.17-3.44-3.94-2.26-6.31-4.22-6.31-4.22,0,0,.34-.59.81-1.04.47-.45.37-.58.89-.68.52-.1.58-.15.58-.15,0,0,5.15,1.71,8.69,3.85,1.94,1.18,4.6,3.2,6.11,4.3,1.34.98,1.89,1.73,2.63,3.21h0l-.2-.02Z"/>
              <g class="cls-32">
                <path class="cls-9" d="M16.11,20.75l-.15-.02c.22-1.74,1.15-2.56,1.65-3.01l.07-.06c.51-.46,1.58-.48,1.62-.48v.15s-1.05.02-1.52.44l-.07.06c-.52.46-1.39,1.23-1.6,2.91Z"/>
              </g>
            </g>
            <polygon class="cls-7" points="2.96 11.38 4.89 12.29 9.38 19.71 8.39 19.91 2.96 11.38"/>
            <polygon class="cls-7" points="12.97 5.38 14.59 6.14 16.07 15.14 14.86 15.38 12.97 5.38"/>
            <path class="cls-36" d="M50.39,33.49s-.58-.44-1.41.11c-.89.59-1.55,2.98-1.55,2.98l-.29-.16-.2-.2s.55-2.18,1.59-2.95c.68-.42.96-.24.96-.24,0,0,.78.19.9.46Z"/>
          </g>
          <g class="cls-32">
            <rect class="cls-9" x="9.32" y="34.9" width="20" height=".15" transform="translate(-10.88 8.82) rotate(-20.19)"/>
          </g>
          <g class="cls-32">
            <polygon class="cls-9" points="3.67 25.99 3.61 25.86 11.3 22.78 11.35 22.91 3.67 25.99"/>
          </g>
          <g class="cls-32">
            <polygon class="cls-9" points="13.04 27.11 12.9 26.62 8.24 24.14 8.31 24 13.03 26.51 13.18 27.07 13.04 27.11"/>
          </g>
          <g class="cls-32">
            <polygon class="cls-9" points="16.09 23.33 16.08 23.32 9.88 20.27 9.87 20.25 3.56 9.68 3.77 9 3.91 9.04 3.72 9.66 9.99 20.15 16.13 23.18 17.77 23.13 17.77 23.28 16.09 23.33"/>
          </g>
          <g class="cls-32">
            <polygon class="cls-9" points="11.3 17.86 11.27 17.85 7.69 16.57 7.74 16.43 11.3 17.7 12.35 17.27 12.4 17.41 11.3 17.86"/>
          </g>
          <g class="cls-32">
            <polygon class="cls-9" points="20.69 16.91 20.67 16.9 16.82 15.46 16.82 15.41 14.83 2.6 15.48 1.79 15.6 1.88 14.99 2.64 16.96 15.35 20.7 16.75 22.24 16.48 22.27 16.63 20.69 16.91"/>
          </g>
          <g class="cls-32">
            <polygon class="cls-9" points="18.62 10.69 18.59 10.69 16.04 10.11 16.08 9.96 18.6 10.53 19.69 9.97 19.76 10.1 18.62 10.69"/>
          </g>
          <g class="cls-32">
            <polygon class="cls-9" points="49.78 26.95 47.41 24.91 41.42 22.32 41.48 22.19 47.5 24.79 49.88 26.84 49.78 26.95"/>
          </g>
          <g class="cls-32">
            <polygon class="cls-9" points="28.16 39.65 27.4 38.18 21.46 34.23 21.54 34.11 27.53 38.1 28.29 39.58 28.16 39.65"/>
          </g>
          <g class="cls-32">
            <polygon class="cls-9" points="25.04 36.6 25.03 36.46 34.76 35.3 34.78 35.45 25.04 36.6"/>
          </g>
          <g class="cls-32">
            <path class="cls-9" d="M34.5,35.37s-.05-1.3.19-2.79c.25-1.57,1.46-2.99,2.51-3.8,1.12-.86,2.6-.25,2.67-.23l-.06.14s-1.47-.6-2.52.21c-1.02.79-2.2,2.17-2.45,3.7-.24,1.48-.19,2.75-.19,2.76h-.15Z"/>
          </g>
          <g class="cls-32">
            <path class="cls-9" d="M59.52,47.28s-.41-.82.23-2.04c.91-1.73,1.94-1.38,1.99-1.36l-.05.14s-.96-.32-1.8,1.29c-.6,1.14-.23,1.89-.23,1.9l-.13.07Z"/>
          </g>
          <g class="cls-32">
            <path class="cls-9" d="M55.35,45.56c-.22-1.31.31-2.46.72-2.92.22-.24.62-.36,1.02-.48.35-.11.68-.21.81-.37.27-.35.2-.84.2-.84l.15-.02s.08.56-.23.96c-.16.2-.51.31-.89.42-.37.11-.76.23-.95.44-.39.43-.89,1.53-.68,2.79l-.15.03Z"/>
          </g>
          <g class="cls-32">
            <path class="cls-9" d="M56.39,42.55s-3.16-1.49-6.26-3.26c-3.11-1.77-7.7-6.83-7.75-6.88-.02-.02-.62-.55-.5-1.15.08-.41.48-.75,1.2-.99l.05.14c-.66.22-1.03.52-1.1.87-.1.51.45,1.01.46,1.01.05.06,4.62,5.09,7.72,6.85,3.1,1.76,6.22,3.24,6.25,3.25l-.06.14Z"/>
          </g>
          <g class="cls-32">
            <path class="cls-9" d="M36.47,29.58l-2.52-1.27s-3.62-4.15-6.3-5.56c-2.38-1.26-8.44-4.25-9.63-4.84-.39-.19-.81-.29-1.24-.3l-1.55-.02v-.15s1.55.02,1.55.02c.46,0,.9.11,1.31.32,1.19.59,7.25,3.58,9.64,4.84,2.63,1.39,6.12,5.34,6.33,5.58l2.48,1.24-.07.13Z"/>
          </g>
          <g class="cls-32">
            <path class="cls-9" d="M42.38,40.32c-.95-1.19-.18-2.8-.17-2.81l.13.07s-.74,1.54.15,2.65l-.12.09Z"/>
          </g>
          <g class="cls-32">
            <rect class="cls-9" x="41.02" y="17.94" width=".15" height="4.18" transform="translate(6.41 49.81) rotate(-66.64)"/>
          </g>
          <g class="cls-32">
            <rect class="cls-9" x="14.79" y="33.55" width=".15" height="3.36" transform="translate(-23.07 30.44) rotate(-59.92)"/>
          </g>
          <g class="cls-32">
            <path class="cls-9" d="M22.41,25.59c0-.1-.17-2.56.91-4.02,1.09-1.48,2.35-1.35,2.4-1.34l-.02.15s-1.24-.12-2.27,1.28c-1.04,1.42-.88,3.9-.88,3.92h-.15Z"/>
          </g>
          <polygon class="cls-20" points="43.32 36.94 42.2 38.3 43.69 38.98 43.32 36.94"/>
          <g>
            <path class="cls-34" d="M37.4,34.78l-.13.35-.28-.17.13-.35-.06-.98.28.17.03.58.37-.33.28.17-.63.55Z"/>
            <path class="cls-34" d="M38.38,34.44l-.17.44.34.21.17-.44.28.17-.42,1.11-.28-.17.16-.41-.34-.21-.16.41-.28-.17.42-1.11.28.17Z"/>
            <path class="cls-34" d="M39.56,36.1c-.08.22-.29.27-.53.13-.14-.09-.27-.24-.33-.38l.21-.18c.04.14.11.24.19.3.09.06.15.04.18-.03.03-.08,0-.15-.09-.2l-.17-.1.07-.17.29-.1-.34-.21.09-.24.68.41-.07.19-.34.11.04.04c.13.11.19.28.12.45Z"/>
            <path class="cls-34" d="M40.25,36c.02-.05,0-.1-.06-.13-.07-.05-.19-.05-.31-.02l-.02-.3c.17-.03.33,0,.47.08.19.12.29.33.23.5-.05.13-.17.2-.33.26l-.25.1.38.23-.1.26-.73-.45.08-.21.49-.2c.07-.03.13-.07.14-.11Z"/>
            <path class="cls-34" d="M40.97,36.68l-.08.2-.37-.23.08-.2.37.23Z"/>
            <path class="cls-34" d="M41.43,37.36c.09.06.19.02.24-.11l.24-.64.28.17-.24.64c-.11.29-.36.38-.63.21-.27-.17-.38-.46-.27-.76l.24-.64.28.17-.24.64c-.05.13,0,.25.09.31Z"/>
          </g>
          <g>
            <path class="cls-41" d="M24.54,31.47l-.3-.2.28-.14.29.2.99.27-.28.14-.59-.16.18.36-.28.14-.29-.6Z"/>
            <path class="cls-41" d="M24.48,32.24l-.37-.25-.34.16.37.25-.28.14-.94-.64.28-.14.35.24.34-.16-.35-.24.28-.14.94.64-.28.14Z"/>
            <path class="cls-41" d="M22.35,32.51c-.18-.12-.16-.28.08-.4.14-.07.34-.11.51-.11l.1.2c-.16-.02-.28,0-.37.04-.09.04-.1.09-.04.13.07.05.15.05.24,0l.17-.08.15.1v.23s.34-.17.34-.17l.21.14-.68.33-.16-.11.02-.26-.05.02c-.16.05-.36.04-.5-.06Z"/>
            <path class="cls-41" d="M22.18,33.02s.1.03.15,0c.08-.04.13-.11.14-.21l.31.09c-.04.12-.12.23-.27.3-.19.09-.44.09-.59,0-.11-.07-.13-.18-.13-.31v-.2s-.38.18-.38.18l-.22-.15.74-.35.18.12v.4c0,.05.02.11.06.13Z"/>
            <path class="cls-41" d="M21.22,33.29l-.17-.11.37-.18.17.11-.37.18Z"/>
            <path class="cls-41" d="M20.36,33.38c-.09.04-.1.12.01.2l.54.37-.28.14-.54-.37c-.25-.17-.23-.36.04-.49.27-.13.61-.11.86.06l.54.37-.28.14-.54-.37c-.11-.07-.25-.08-.34-.04Z"/>
          </g>
          <g>
            <path class="cls-41" d="M39.41,22.52l-.33-.15.26-.18.32.15,1.03.1-.26.18-.61-.06.24.32-.26.18-.39-.54Z"/>
            <path class="cls-41" d="M39.48,23.29l-.41-.19-.31.22.41.19-.26.18-1.03-.47.26-.18.38.18.31-.22-.38-.18.26-.18,1.03.47-.26.18Z"/>
            <path class="cls-41" d="M37.43,23.92c-.2-.09-.2-.25.01-.41.13-.09.32-.16.48-.19l.13.18c-.16,0-.28.04-.36.1-.08.06-.09.11-.02.14.07.03.15.02.23-.04l.15-.11.16.07.03.23.31-.22.23.1-.62.44-.17-.08-.02-.26-.05.03c-.15.08-.34.1-.5.02Z"/>
            <path class="cls-41" d="M37.35,24.45s.1.01.15-.02c.07-.05.1-.13.11-.23l.32.03c-.02.13-.08.24-.21.34-.18.12-.42.17-.58.09-.12-.05-.16-.16-.18-.28l-.03-.2-.34.24-.24-.11.67-.48.2.09.07.39c0,.05.04.1.07.12Z"/>
            <path class="cls-41" d="M36.45,24.88l-.18-.08.34-.24.19.08-.34.24Z"/>
            <path class="cls-41" d="M35.61,25.12c-.09.06-.07.14.05.19l.6.27-.26.18-.6-.27c-.27-.13-.29-.32-.04-.49.25-.18.58-.21.86-.09l.6.27-.26.18-.6-.27c-.12-.05-.26-.04-.35.02Z"/>
          </g>
          <path class="cls-36" d="M55.19,37.24s-.41-.25-.82-.07c-.41.19-.85.59-1,.96-.48,1.2-.61,2-.61,2l.55.3s-.02-.57.59-2.03c.12-.28.44-.7.86-.86.42-.16.69,0,.69,0l-.26-.29Z"/>
          <polygon class="cls-36" points="47.95 34.57 53.41 38.67 53.53 38.46 48.12 34.37 47.95 34.57"/>
          <polygon class="cls-36" points="49 33.36 43.75 31.43 44.06 31.37 49.13 33.23 49 33.36"/>
        </g>
      </g>
    </g>
  </g>
</svg>