<?xml version="1.0" encoding="UTF-8"?>
<svg id="Layer_2" xmlns="http://www.w3.org/2000/svg" viewBox="0 0 118.14 34.52">
  <defs>
    <style>
      .cls-1 {
        fill: #fff;
      }
    </style>
  </defs>
  <g id="_x31_1">
    <path class="cls-1" d="M15.5,29.78c-.39-.02-.76-.04-1.13-.06-1.17-.26-2.49-.3-3.55-.6-.3-.03-.59-.07-.89-.11-.48-.17-1.02-.61-1.47-.78H2.49c-.11-.09-.24-.18-.35-.28v-5.14c0-.74-.11-1.78.18-2.25h6.07c.82-.18,1.73-.21,2.62-.41.56-.15,1.23-.3,1.87-.3-.22-.15-.87-.05-1.23-.05-1.09,0-2.32-.02-3.32.05-.15-.17-.39-.35-.58-.48v-3.06c-.3-.93-.98-1.86-1.37-2.73-.98-2.25-2.15-4.4-3.14-6.61-.67-1.54-1.47-3.01-2.12-4.49C.78,1.69.52.73,0,.06v-.06h9.77c.2.09.37.39.52.54.43.39.91.89,1.37,1.23,1.34,1.02,2.43,2.31,3.77,3.32.39.3.69.77,1.08,1.06,2.86,2.16,5.16,4.99,8.04,7.15.85.65,1.54,1.52,2.41,2.19.13.17.28.32.41.48.43.26,1.04.24,1.54.41,1.17.37,2.4.67,3.6,1.06,2.49.82,5.12,1.62,7.63,2.3,15.24.46,38.59-6.85,50.35.42.74.45,1.5.93,2.26,1.41.24.17.52.48.82.59.7.07,1.41.15,2.14.24,1.74.41,3.47.47,5.14.95,1.3.33,2.6.71,3.9,1.06.63.19,1.2.19,1.82.41,1.11.41,2.32.87,3.43,1.35.5.22,1.08.61,1.6.78l6.55.77-38.11.29c.26.18,1.37.43,1.76.46-.04.11,0,.05-.06.13-.24.21-1.39.54-1.76.59v.06h-.07c.02.63,0,1.34-.11,1.89-.07.32.09.77-.06,1-.02.29-.08.33-.19.52h-1.17c-.02.15-.02.16-.06.24-.02.18-.02.32-.07.43-.69.02-.85-.15-.95-.73h-1.41v1.71h-12.23v-1.6c.06-.07.34-.18.43-.28h.06v-.05c-23.67-.09-13.92-.5-29.96-1.08-.59.63-1.43,1.08-2.14,1.6-.69.5-1.3,1.21-2.06,1.59-.15.09-1.39-.33-1.67-.41-1.69-.43-3.38-.87-5.07-1.3v-2.38c-2.93,0-5.38-.11-7.74-.65h0Z"/>
  </g>
</svg>