<?xml version="1.0" encoding="UTF-8"?>
<svg id="Layer_2" xmlns="http://www.w3.org/2000/svg" viewBox="0 0 773.12 784.38">
  <defs>
    <style>
      .cls-1 {
        fill: #5dc90b;
      }
    </style>
  </defs>
  <g id="Layer_1-2" data-name="Layer_1">
    <g>
      <path class="cls-1" d="M315.7,463.79c4.56-9.8,8.34-17.73,11.95-25.73,36.78-81.46,82.78-157.23,139.48-226.44,58.18-71.01,122.41-135.66,198.78-187.24,13.41-9.06,28.44-16.93,43.86-21.55,32.3-9.68,55.35,5.91,61.56,39.3,7.14,38.39-7.78,70.06-33.57,96.16-22.01,22.28-47.24,41.36-71,61.93-23.41,20.27-48.03,39.36-69.79,61.29-23.06,23.25-43.95,48.75-64.74,74.12-37.86,46.19-72.53,94.85-99.81,148-22.61,44.05-42.29,89.65-62.22,135.02-8.04,18.31-25.06,37.72-45.75,35.08-12.24-1.56-21.86-7-28.71-16.53-34.58-48.1-69.09-96.25-103.01-144.82-16.53-23.67-33.44-47.34-47.06-72.69-14.94-27.82-15.96-57.47.39-86.1,13.98-24.49,40.05-27.41,57.98-5.77,35.09,42.34,69.68,85.08,104.49,127.64,1.77,2.16,3.63,4.25,7.14,8.34Z"/>
      <path d="M44.52,147.55v591.96h592.48v-13.33c0-133,0-266.01,0-399.01,0-3.93-.22-7.91.29-11.78,1.42-10.89,10.42-18.9,21.15-19.21,10.3-.3,19.41,6.64,21.72,17.13.91,4.13.97,8.51.97,12.77.04,142.66.04,285.32.02,427.97,0,23.32-6.89,30.32-29.82,30.32-207.37.01-414.75.01-622.12,0-22.37,0-29.21-6.95-29.21-29.67C0,547.34,0,339.96,0,132.59c0-21.84,6.96-28.81,28.88-28.81,127.28-.02,254.57.03,381.85-.09,11.48-.01,21.5,1.84,26.36,13.87,5.35,13.24-3.02,27.8-17.18,29.68-3.87.51-7.85.3-11.78.3-116.2.01-232.4.01-348.6.01h-15.01Z"/>
    </g>
  </g>
</svg>