<?xml version="1.0" encoding="UTF-8"?>
<svg id="Layer_2" xmlns="http://www.w3.org/2000/svg" xmlns:xlink="http://www.w3.org/1999/xlink" viewBox="0 0 3814.28 2745.31">
  <defs>
    <style>
      .cls-1 {
        fill: url(#_12-2);
      }

      .cls-2 {
        fill: #c1c7d6;
      }

      .cls-3 {
        fill: url(#_117);
      }

      .cls-4 {
        fill: #fff;
      }

      .cls-5 {
        fill: url(#_72);
      }

      .cls-6 {
        fill: #e8f3f9;
      }

      .cls-7 {
        fill: url(#_21-2);
      }

      .cls-8 {
        fill: url(#_12);
      }

      .cls-9 {
        fill: url(#_21);
      }

      .cls-10 {
        fill: #313438;
      }

      .cls-11 {
        fill: #2e2e2e;
      }
    </style>
    <linearGradient id="_12" data-name="  12" x1="2029.52" y1="1963.48" x2="3585.71" y2="1963.48" gradientUnits="userSpaceOnUse">
      <stop offset="0" stop-color="#546dff"/>
      <stop offset=".99" stop-color="#5850f2"/>
    </linearGradient>
    <linearGradient id="_117" data-name="  117" x1="5.97" y1="1818.25" x2="1705.12" y2="1818.25" gradientUnits="userSpaceOnUse">
      <stop offset="0" stop-color="#74aae0"/>
      <stop offset="1" stop-color="#a5d1fe"/>
    </linearGradient>
    <linearGradient id="_21" data-name="  21" x1="1514.88" y1="886.19" x2="2271.35" y2="886.19" gradientUnits="userSpaceOnUse">
      <stop offset="0" stop-color="#ffbf31"/>
      <stop offset="1" stop-color="#ff8031"/>
    </linearGradient>
    <linearGradient id="_72" data-name="  72" x1="-752.8" y1="189.24" x2="-605.76" y2="288.93" gradientTransform="translate(2145.47 216.32) rotate(-42.77) scale(1 -1)" gradientUnits="userSpaceOnUse">
      <stop offset="0" stop-color="#c1c7d6"/>
      <stop offset="1" stop-color="#a5a9b8"/>
    </linearGradient>
    <linearGradient id="_21-2" data-name="  21" x1="3526.88" y1="1547.95" x2="3696.97" y2="1547.95" xlink:href="#_21"/>
    <linearGradient id="_12-2" data-name="  12" x1="541.84" y1="322.21" x2="702.97" y2="322.21" xlink:href="#_12"/>
  </defs>
  <g id="illustration">
    <path id="die" class="cls-6" d="M2013.38,305.27c432.85,25.83,725.09-377.92,1229.98-171.23,653.32,267.46,778.41,1534.19,205.63,2129.98-543.97,565.83-2037.88,581.33-2591.86,311.1C236.55,2272.4,33.49,1432.89,165.63,751.75,284.13,140.9,733.78-24.82,1061.91,2.89c375.66,31.72,462.16,273.18,951.48,302.38Z"/>
    <g id="qestions">
      <g>
        <path class="cls-4" d="M2777.99,474.55c-9.5,1.36-18.3-5.23-19.66-14.73l-.61-4.23c-2.66-18.53-1.01-35.21,4.93-50.04,5.95-14.84,18.33-31.48,37.15-49.94,18.19-17.38,29.86-31.07,35.02-41.07,5.16-10,6.94-20.59,5.34-31.78-1.8-12.54-7.8-21.43-18.01-26.66-10.2-5.23-23.6-6.66-40.2-4.28-25,3.59-52.02,14.66-81.05,33.23-7.85,5.02-18.3,2.93-23.6-4.74l-21.23-30.74c-5.5-7.96-3.44-18.91,4.57-24.34,35.78-24.26,74.93-39.43,117.45-45.53,39.75-5.7,72.72-.68,98.91,15.06,26.19,15.74,41.56,39.53,46.13,71.37,3.05,21.23.85,40.25-6.58,57.07s-23.27,36.82-47.52,59.99c-16.56,16.36-26.79,28.46-30.68,36.31-3.9,7.85-5.01,17.56-3.35,29.14l.02.17c1.36,9.5-5.23,18.3-14.73,19.66l-42.32,6.07ZM2765.74,577.34c-2.33-16.21.26-29.09,7.75-38.63,7.49-9.54,19.54-15.51,36.13-17.89,16.02-2.3,29.02.17,39.02,7.4,10,7.23,16.13,18.76,18.4,34.58,2.19,15.24-.53,27.89-8.15,37.95-7.62,10.05-19.34,16.22-35.16,18.49-16.21,2.33-29.37-.17-39.48-7.48-10.11-7.31-16.28-18.79-18.53-34.42Z"/>
        <path d="M2812.6,625.08c-12.27,0-22.75-3.1-31.27-9.27-11.2-8.1-18.11-20.81-20.54-37.76-2.52-17.54.43-31.81,8.77-42.43,8.28-10.55,21.52-17.19,39.36-19.75,17.27-2.48,31.62.31,42.66,8.3,11.09,8.02,17.96,20.78,20.42,37.92,2.37,16.54-.69,30.57-9.11,41.68-8.41,11.09-21.34,17.96-38.44,20.42-4.11.59-8.07.89-11.85.89ZM2820.59,525c-3.25,0-6.67.26-10.25.77-15.2,2.18-26.27,7.57-32.91,16.03-6.58,8.38-8.85,20.1-6.74,34.83h0c2.06,14.37,7.46,24.53,16.51,31.08,8.97,6.49,21.03,8.71,35.84,6.58,14.6-2.1,25.03-7.51,31.89-16.56,6.84-9.03,9.19-20.22,7.18-34.22-2.09-14.56-7.45-24.78-16.38-31.24-6.69-4.84-15.12-7.27-25.13-7.27ZM2775.48,479.73c-4.8,0-9.45-1.54-13.36-4.47-4.78-3.58-7.88-8.81-8.73-14.73l-.61-4.23c-2.77-19.32-1.01-37.02,5.24-52.61,6.18-15.41,19.06-32.79,38.29-51.65,17.75-16.96,29.2-30.33,34.08-39.79,4.72-9.13,6.3-18.55,4.83-28.78-1.57-10.94-6.58-18.44-15.34-22.92-9.22-4.73-21.74-6-37.21-3.78-24.18,3.47-50.78,14.4-79.06,32.49-10.19,6.51-23.54,3.83-30.41-6.11l-21.22-30.74c-3.42-4.95-4.69-10.95-3.58-16.88,1.11-5.93,4.47-11.06,9.46-14.44,36.25-24.57,76.47-40.16,119.55-46.34,40.74-5.85,75.12-.55,102.19,15.72,27.42,16.48,43.74,41.69,48.5,74.95,3.17,22.07.83,42.19-6.96,59.8-7.67,17.35-24.03,38.07-48.64,61.59-16.03,15.84-26.03,27.6-29.66,34.92-3.42,6.88-4.39,15.7-2.88,26.2l.03.19c.85,5.9-.66,11.79-4.24,16.57-3.58,4.78-8.81,7.88-14.73,8.73l-42.32,6.07c-1.08.15-2.15.23-3.22.23ZM2796.5,245.73c10.88,0,20.24,1.98,27.94,5.93,11.68,5.99,18.64,16.22,20.67,30.4,1.75,12.19-.22,23.89-5.84,34.79-5.47,10.59-17.25,24.46-36.01,42.39-18.19,17.84-30.3,34.06-35.96,48.18-5.59,13.94-7.14,29.91-4.62,47.47l.61,4.23c.47,3.27,2.18,6.16,4.83,8.14,2.64,1.98,5.9,2.81,9.17,2.34l42.32-6.07c3.27-.47,6.16-2.18,8.14-4.83,1.98-2.64,2.81-5.9,2.34-9.17l-.03-.19c-1.8-12.53-.51-23.32,3.83-32.06,4.18-8.42,14.54-20.73,31.65-37.64,23.72-22.67,39.33-42.31,46.46-58.46,7.01-15.87,9.1-34.16,6.21-54.34-4.38-30.56-18.7-52.73-43.76-67.8-25.05-15.06-57.22-19.9-95.62-14.39-41.56,5.96-80.38,21.01-115.36,44.72-2.76,1.87-4.62,4.72-5.24,8.01-.62,3.29.09,6.61,1.98,9.35l21.22,30.74c3.79,5.49,11.17,6.97,16.79,3.37,29.5-18.87,57.43-30.29,83.03-33.97,5.37-.77,10.46-1.16,15.25-1.16Z"/>
      </g>
      <g>
        <path class="cls-4" d="M3272.24,432.4c-6.22,21.34-20.64,34.44-24.77,37.97-17.22,14.71-41.54,21.29-54.7,25.59-17.46,5.71-28.95,10.65-34.46,14.81-5.52,4.16-9.73,10.63-12.64,19.39l-.04.13c-2.39,7.18-10.15,11.07-17.33,8.69l-32.02-10.64c-7.18-2.39-11.07-10.15-8.69-17.33l1.06-3.2c4.66-14.02,11.7-25.21,21.13-33.59,9.43-8.38,24.04-15.76,43.83-22.15,18.97-5.86,32.04-11.4,39.21-16.64,7.17-5.24,12.16-12.09,14.98-20.56,3.15-9.49,2.05-17.88-3.31-25.17-5.36-7.29-14.32-13.02-26.87-17.2-18.92-6.28-41.89-7.99-68.93-5.12-7.32.78-13.95-4.38-14.99-11.67l-4.14-29.18c-1.07-7.56,4.24-14.56,11.81-15.57,17.98-2.4,35.72-2.64,53.24-.74,21.76,2.36,32.4,5.28,45.74,10.02,15.68,5.57,29.61,10.52,42.46,21.65,22.5,19.5,39.49,56.06,29.46,90.51ZM3051.37,596.58c4.07-12.26,10.44-20.44,19.09-24.54,8.66-4.09,19.26-4.06,31.82.12,12.12,4.03,20.43,10.35,24.94,18.98,4.51,8.63,4.77,18.93.8,30.9-3.83,11.53-10.21,19.51-19.13,23.92-8.92,4.41-19.37,4.63-31.34.65-12.26-4.07-20.67-10.48-25.23-19.2s-4.87-19-.94-30.83Z"/>
        <path d="M3093.55,654.44c-5.54,0-11.41-1.03-17.58-3.08-13.48-4.48-22.93-11.76-28.09-21.63-5.19-9.93-5.61-21.61-1.25-34.72l4.75,1.58-4.75-1.58c4.5-13.55,11.8-22.8,21.7-27.48,9.81-4.64,21.77-4.68,35.53-.11,13.33,4.43,22.69,11.64,27.79,21.41,5.14,9.84,5.51,21.54,1.11,34.79-4.25,12.79-11.54,21.82-21.66,26.82-5.38,2.66-11.25,3.99-17.55,3.99ZM3084.78,574.02c-4.52,0-8.59.85-12.18,2.55-7.33,3.47-12.88,10.73-16.49,21.59-3.52,10.58-3.31,19.39.63,26.94,3.91,7.5,11.44,13.14,22.37,16.77,10.77,3.58,19.78,3.45,27.55-.39,7.75-3.83,13.18-10.7,16.6-21.01,3.57-10.73,3.41-19.56-.48-27.01-3.87-7.4-11.29-12.97-22.08-16.56-5.79-1.92-11.11-2.89-15.92-2.89ZM3132.63,544.69c-1.98,0-3.98-.32-5.92-.96l-32.01-10.64c-9.79-3.25-15.11-13.86-11.85-23.65l1.06-3.2c4.92-14.79,12.5-26.82,22.55-35.75,9.91-8.8,25.25-16.6,45.62-23.17,18.41-5.68,31.1-11.03,37.79-15.92,6.37-4.65,10.68-10.57,13.18-18.09,2.63-7.93,1.79-14.68-2.59-20.63-4.71-6.41-12.92-11.59-24.42-15.41-18.15-6.03-40.63-7.68-66.83-4.89-10.05,1.07-19.05-5.93-20.47-15.94l-4.14-29.19c-.71-4.98.58-9.94,3.63-13.96,3.05-4.02,7.48-6.6,12.47-7.27,18.29-2.44,36.61-2.69,54.44-.76,21.83,2.37,32.91,5.32,46.87,10.28,15.68,5.57,30.5,10.83,44.06,22.59,22.63,19.61,41.98,57.92,30.98,95.68h0c-6.26,21.49-20.5,35.39-26.33,40.37-16.13,13.78-37.6,20.58-51.81,25.08-1.64.52-3.18,1.01-4.59,1.47-20.99,6.86-29.53,11.43-33.01,14.05-4.67,3.52-8.34,9.23-10.91,16.97l-.05.14c-1.57,4.73-4.9,8.58-9.37,10.82-2.64,1.32-5.49,1.99-8.36,1.99ZM3132.78,361.05c17.42,0,32.95,2.24,46.41,6.71,13.5,4.48,23.36,10.87,29.32,18.98,6.35,8.64,7.7,18.64,4.02,29.71-3.13,9.44-8.78,17.18-16.77,23.02-7.69,5.62-21,11.3-40.68,17.38-18.98,6.13-33.12,13.24-41.99,21.11-8.72,7.75-15.35,18.32-19.71,31.43l-1.06,3.2c-1.51,4.56.96,9.5,5.52,11.01l32.02,10.64c2.21.73,4.57.56,6.65-.48,2.08-1.04,3.63-2.83,4.36-5.04l.05-.14c3.22-9.69,8.05-17.02,14.37-21.79,6.02-4.54,17.77-9.64,35.92-15.57,1.44-.47,3-.97,4.68-1.5,13.44-4.25,33.74-10.68,48.33-23.15,5.15-4.4,17.71-16.66,23.22-35.57,9.77-33.53-7.63-67.74-27.93-85.33-12.14-10.52-25.45-15.25-40.86-20.72-13.51-4.8-23.63-7.48-44.6-9.76-17.03-1.85-34.54-1.6-52.04.73-2.33.31-4.4,1.52-5.82,3.4-1.42,1.88-2.03,4.19-1.7,6.51l4.14,29.19c.66,4.65,4.84,7.9,9.51,7.4,8.57-.91,16.79-1.36,24.63-1.36Z"/>
      </g>
      <g>
        <path class="cls-4" d="M2604.38,354.98c9.99,19.85,8.37,39.27,7.75,44.67-2.58,22.5-15.89,43.89-22.59,56.01-8.88,16.08-13.93,27.52-15.13,34.33-1.2,6.81.12,14.41,3.96,22.8l.06.13c3.15,6.88.12,15.02-6.76,18.17l-30.68,14.04c-6.88,3.15-15.02.12-18.17-6.76l-1.4-3.06c-6.14-13.43-8.62-26.42-7.43-38.98,1.19-12.56,6.85-27.92,16.98-46.09,9.89-17.21,15.67-30.18,17.35-38.9,1.68-8.72.66-17.14-3.05-25.25-4.16-9.09-10.69-14.48-19.58-16.16-8.89-1.68-19.35.23-31.38,5.73-18.13,8.29-36.1,22.71-53.93,43.23-4.82,5.55-13.2,6.3-18.92,1.68l-22.92-18.53c-5.94-4.8-6.82-13.55-1.97-19.44,11.52-14.01,24.34-26.28,38.45-36.83,17.53-13.1,27.31-18.22,40.29-23.84,15.27-6.61,28.83-12.48,45.83-13.09,29.75-1.07,67.11,14.11,83.24,46.15ZM2554.66,625.66c-5.38-11.75-6.29-22.07-2.75-30.97,3.54-8.9,11.33-16.1,23.36-21.6,11.61-5.31,22.01-6.35,31.19-3.11s16.4,10.6,21.65,22.07c5.06,11.05,5.82,21.23,2.3,30.54s-11.02,16.59-22.49,21.84c-11.75,5.38-22.27,6.42-31.55,3.14s-16.52-10.59-21.7-21.92Z"/>
        <path d="M2587.42,654.44c-4.43,0-8.68-.71-12.73-2.14-10.57-3.73-18.84-11.99-24.58-24.55h0c-5.94-12.99-6.9-24.73-2.85-34.9,4.02-10.09,12.74-18.26,25.92-24.3,12.78-5.85,24.53-6.95,34.93-3.27,10.46,3.7,18.72,12.01,24.53,24.7,5.61,12.26,6.43,23.83,2.43,34.39-3.99,10.54-12.43,18.82-25.09,24.61-7.94,3.63-15.49,5.46-22.57,5.46ZM2595.52,573.16c-5.58,0-11.66,1.49-18.17,4.48-10.76,4.93-17.76,11.29-20.79,18.9-3,7.54-2.11,16.63,2.65,27.04h0c4.64,10.14,10.8,16.45,18.82,19.28,7.97,2.82,17.33,1.82,27.8-2.98,10.32-4.72,16.83-10.96,19.89-19.06,3.06-8.08,2.35-16.81-2.17-26.69-4.7-10.28-10.84-16.64-18.76-19.44-2.91-1.03-6-1.54-9.27-1.54ZM2535.33,551.37c-7.1,0-13.9-4.06-17.04-10.92l-1.4-3.06c-6.49-14.17-9.13-28.15-7.86-41.53,1.25-13.19,7.17-29.36,17.59-48.05,9.6-16.71,15.24-29.27,16.8-37.41,1.49-7.74.61-15.01-2.69-22.22-3.47-7.6-8.7-11.96-15.96-13.33-7.81-1.48-17.36.33-28.37,5.37-17.39,7.96-34.96,22.07-52.24,41.97-6.63,7.63-17.98,8.64-25.84,2.29l-22.92-18.53c-3.91-3.16-6.35-7.67-6.86-12.69-.51-5.02.97-9.93,4.17-13.82,11.72-14.25,24.95-26.92,39.32-37.66,17.59-13.15,27.71-18.54,41.3-24.43,15.27-6.61,29.7-12.86,47.63-13.5,29.93-1.07,70.2,13.77,87.89,48.9h0c10.07,20,9.12,39.87,8.25,47.49-2.41,21.08-13.49,40.69-20.82,53.66-.85,1.5-1.64,2.91-2.36,4.2-10.68,19.33-13.82,28.49-14.58,32.78-1.01,5.76.19,12.44,3.59,19.85l.06.13c4.29,9.38.15,20.5-9.23,24.79l-30.68,14.04c-2.51,1.15-5.16,1.69-7.75,1.69ZM2519.26,364.34c2.55,0,5.01.22,7.37.67,10.54,2,18.34,8.39,23.19,19,4.14,9.04,5.29,18.55,3.42,28.27-1.8,9.35-7.66,22.58-17.92,40.44-9.71,17.42-15.22,32.26-16.33,44.07-1.1,11.61,1.25,23.87,7,36.43l1.4,3.06c2,4.36,7.17,6.29,11.54,4.29l30.68-14.04c4.37-2,6.29-7.17,4.29-11.54l-.06-.13c-4.25-9.29-5.71-17.95-4.34-25.75,1.31-7.42,6.43-19.16,15.67-35.88.73-1.32,1.54-2.75,2.4-4.28,6.93-12.27,17.41-30.81,19.59-49.88.77-6.72,1.61-24.26-7.25-41.85h0c-15.7-31.19-51.73-44.35-78.6-43.4-16.05.58-29.01,6.19-44.02,12.68-13.16,5.7-22.39,10.63-39.29,23.26-13.72,10.26-26.37,22.37-37.58,36-1.49,1.81-2.18,4.11-1.95,6.45.24,2.34,1.37,4.45,3.2,5.92l22.92,18.53c3.65,2.95,8.92,2.48,12-1.07,18.22-20.98,36.93-35.95,55.63-44.5,9.84-4.5,18.9-6.77,27.02-6.77Z"/>
      </g>
    </g>
    <g id="man">
      <g>
        <path class="cls-4" d="M2695.52,905.96s-2.88,146.53-3.3,165.85c-.42,19.31.01,93.08,1.65,122.21s12.43,62.38,29.72,85.2c17.29,22.82,69.02,41.67,69.02,41.67,0,0,61.71,204.94,61.71,208.16s139.22-22.14,153.7-33.31c14.47-11.17,94.12-72.61,94.12-72.61,0,0-18.1-36.61-16.47-60.87,1.63-24.27-6.2-126.13-4.2-149.29,2.01-23.17,6.64-59.1,6.64-59.1,0,0,28.84-4.28,40.41-12.03,11.57-7.76,26.26-30.59,26.83-49.91s-13.78-51.87-37.2-54.34c-23.43-2.47-51.49-8.45-51.49-8.45l-25.29-131.76s-116.76,16.1-131.15,2.15c-14.39-13.95-16.6-71.38-69.72-58.5-53.12,12.88-144.97,64.94-144.97,64.94Z"/>
        <path d="M2855.65,1535.32c-2.34,0-3.06-.36-3.86-.75-1.91-.94-3.17-2.72-3.42-4.77-1.64-7.59-36.75-124.98-60.64-204.35-11.37-4.41-52.97-21.58-68.91-42.61-17.29-22.82-29.15-56.73-30.93-88.49-1.7-30.18-2.06-104.22-1.66-122.67.41-19.09,3.27-164.37,3.3-165.84l.07-3.42,2.97-1.69c3.78-2.14,93.19-52.62,146.51-65.55,43.46-10.53,57.16,21.66,66.23,42.96,3.08,7.23,5.99,14.07,9.08,17.06.72.7,8.73,6.72,66.35,2.48,30.45-2.24,59.51-6.23,59.8-6.27l5.64-.78,25.61,133.41c8.46,1.7,29.21,5.68,46.98,7.56,12.41,1.31,23.82,9.75,32.13,23.76,6.77,11.41,10.77,25.48,10.44,36.72-.61,21.01-16.03,45.7-29.48,54.72-9.85,6.61-29.34,10.65-38.36,12.25-1.29,10.31-4.49,36.41-6.05,54.42-1,11.5.58,44.32,2.1,76.05,1.5,31.36,2.92,60.98,2.11,73.12-1.5,22.4,15.69,57.46,15.87,57.81l2.18,4.41-98.01,75.61c-8.84,6.82-49.96,16.17-82.9,22.81-17.29,3.49-35.32,6.79-49.48,9.07-14.03,2.26-20.4,2.95-23.65,2.95ZM2848.32,1529.04h0s0,0,0,0ZM2859.89,1526.81c.39,1.59.43,1.96.43,2.18,0-.8-.17-1.53-.43-2.18ZM2701.45,909.51c-.44,22.24-2.85,144.97-3.23,162.42-.4,18.74.02,92.98,1.64,121.74,1.66,29.5,12.59,60.89,28.52,81.91,16.04,21.16,65.79,39.48,66.3,39.66l2.82,1.03.87,2.88c44.52,147.84,57.05,191.01,60.58,204.01,23.12-2.11,134.42-23.7,145.41-32.18l90.31-69.67c-4.88-10.81-16.37-38.79-14.99-59.46.77-11.45-.7-42.1-2.12-71.75-1.61-33.61-3.13-65.36-2.07-77.66,1.99-23.02,6.62-58.99,6.67-59.35l.58-4.5,4.49-.67c7.65-1.14,29.39-5.35,37.95-11.08,9.5-6.37,23.65-27.11,24.17-45.1.51-17.58-12.92-46.2-31.83-48.2-23.47-2.48-50.95-8.3-52.11-8.55l-3.89-.83-24.98-130.11c-10.04,1.28-32.1,3.93-54.91,5.61-57.31,4.22-70.5-.9-75.59-5.84-4.83-4.68-8.04-12.23-11.77-20.98-9.24-21.7-18.8-44.14-52.37-36-46.41,11.25-124.31,53.71-140.45,62.67Z"/>
      </g>
      <path class="cls-8" d="M3584.76,2076.94c-.01.12-.01.23-.03.35-6.43,58.32-28.4,102.28-48.73,126.73,0,.03-.01.04-.03.04-.07.09-.14.17-.22.26-2.77,3.32-6.04,6.55-9.71,9.68-.13.13-.27.25-.4.35-21.63,18.27-56.55,32.98-82.55,40.13-.01.01-.04.01-.06.01-2.11.59-4.14,1.12-6.11,1.6-30.72,7.44-85.53-9.59-85.53-9.59l5.39,257.33h-867.75c11.61-152.2,45.37-541.34,45.37-541.34l-1.59,1.12-93.78,66.11-117.23,82.65,2.12,6.78,100.91,322.03-5.03,2.88-23.09,13.22s-.03.01-.06.03l-81.26,46.52h-131.59l-51.8-107.6-24.86-51.6c-.09-.2-.19-.4-.27-.59-.03-.06-.06-.12-.07-.17-3.39-8.39-76.26-189-77.18-235.14-.94-47.23,6.55-74.49,28.09-114.45,5.73-10.61,12.19-20.9,19.05-30.72,20.98-30.03,45.69-55.78,64.13-73.49,7.6-7.28,14.13-13.21,18.91-17.51,13.15-16.21,27.03-32.74,41.65-49.49,36.86-42.23,78.47-85.89,125.34-129.76,6.53-6.11,13.17-12.23,19.9-18.34,35.71-32.43,71.01-61.85,105.32-88.52,0,0,20.75-20.67,73.92-55.33.03-.03.04-.04.07-.06,30.53-19.92,90.15-35.52,135.95-45.21,11.52-2.44,22.18-4.5,31.28-6.14.14-.03.26-.06.39-.07h.01s0-.01,0-.01c.88-.16,1.74-.32,2.61-.48,16.07-2.88,26.61-4.41,27.36-4.41l48.18,9.71,74.15,14.94,85.55,17.25h.03l34.03,6.85,27.96-20.54h.01s2.93-2.16,2.93-2.16h.01s104.57-76.79,104.57-76.79l1.13-.87,55.49,24.1.07.03,44.46,19.31-.42,1.36-1.46,4.7s.85.55,2.42,1.54c5.67,3.61,20.64,13.18,38.06,24.56.07.03.13.07.2.13,22.27,14.49,48.48,31.87,64.39,43.41.06.04.12.09.17.13,3.87,2.8,7.12,5.26,9.55,7.24.01.01.04.03.06.06,11.9,9.72,46.34,38.76,79.82,71.05,29.85,28.76,58.94,60.06,70.69,82.59,2.06,3.97,4.3,8.31,6.65,12.94,22.94,45.15,57.77,118.41,73.58,147.01h.01c2.13,3.89,3.92,6.95,5.29,9,6.85,10.3,18.2,53.14,26,99.43,0,.1.03.2.04.29,4.02,23.91,7.1,48.72,8.12,70.42,0,.16.01.32.01.48.59,12.69.45,24.31-.61,34.05Z"/>
      <g>
        <path class="cls-2" d="M2934.79,2429.65s-25.66,35.52-53.75,74.18h-146.82c-27-35.27-50.91-66.67-50.91-66.67l121.67-644.6-18.37-89.4-.36-1.75,7.21-7.01,18.08-17.58,26.35,19.35-3.19,6.35h0s-1.99,3.98-1.99,3.98l58.84,82.43-1.79,2.71-.99,1.51-4.8,7.27,50.82,629.21Z"/>
        <path d="M2884.1,2509.83h-152.84l-1.8-2.35c-26.69-34.88-50.68-66.37-50.92-66.68l-1.62-2.12.5-2.62,121.45-643.44-19.16-93.2,31.29-30.42,34.53,25.36-5.83,11.62,59.13,82.84-8.71,13.21,50.83,629.35-1.29,1.79c-.26.35-25.98,35.97-53.76,74.2l-1.8,2.47ZM2737.19,2497.83h140.8c23.54-32.4,45.22-62.4,50.65-69.9l-50.81-629.07,6.46-9.78-58.55-82.03,4.53-9.03-18.17-13.35-19.3,18.76,18.31,89.08-.22,1.16-121.18,641.98c5.67,7.44,25.48,33.44,47.48,62.18Z"/>
      </g>
      <g>
        <path class="cls-4" d="M2488.05,2487.94c-1.77,3.69-2.39,9.46-2.49,15.89h-175.84c32.14-18.91,66.03-37.81,86.93-46.52.03-.01.04-.03.06-.03,2.36-.99,4.56-1.85,6.56-2.55,3.49-1.24,6.4-2.03,8.65-2.31h.01c1.67-.2,2.96-.13,3.84.26,2.05.92,5.44,2.54,9.88,4.67h.01c13.41,6.45,36.21,17.65,59.27,29.03.01.01.03.03.04.03,1.02.52,2.05,1.02,3.07,1.53Z"/>
        <path d="M2491.47,2509.83h-203.78l19-11.17c39.76-23.38,69.1-39.09,87.22-46.7l1.07-.67h.52c2.03-.84,3.97-1.58,5.79-2.22,4.02-1.43,7.27-2.28,9.92-2.6l.4-.04c2.68-.28,4.78-.03,6.6.77,1.95.88,4.93,2.3,8.81,4.16h0l1.25.59c11.28,5.42,30.3,14.74,58.13,28.47h.02l.73.37c.15.07.3.15.45.22l.83.42c.76.38,1.52.76,2.29,1.13l5.33,2.63-2.57,5.35c-.8,1.66-1.78,5.33-1.9,13.39l-.09,5.91ZM2331.98,2497.83h147.84c.2-2.56.52-4.82.95-6.81-26.74-13.19-45.29-22.28-56.61-27.73l-1.12-.53c-4.15-1.99-7.36-3.53-9.39-4.45-.17,0-.49,0-1.01.07l-.21.02c-1.24.17-3.46.66-7.17,1.98-1.88.66-3.91,1.45-6.06,2.35l-.26.11c-14.6,6.09-37.08,17.83-66.98,34.98Z"/>
      </g>
      <path d="M2830.39,1256.78c-1.15,0-2.31-.33-3.33-1.01-2.75-1.84-3.49-5.57-1.65-8.32,19.2-28.69,56.84-44.59,93.63-39.58,3.28.45,5.58,3.47,5.14,6.76-.45,3.28-3.48,5.58-6.75,5.14-32.36-4.41-65.33,9.4-82.04,34.36-1.16,1.73-3.06,2.66-4.99,2.66Z"/>
      <path d="M2881.04,2509.83c-1.22,0-2.46-.37-3.52-1.15-2.68-1.95-3.27-5.7-1.33-8.38,24.22-33.33,46.88-64.68,52.44-72.38l-50.81-629.07,5.94-9c1.83-2.76,5.55-3.53,8.31-1.7,2.76,1.83,3.53,5.55,1.7,8.31l-3.66,5.54,50.83,629.35-1.29,1.79c-.26.36-25.98,35.97-53.76,74.2-1.17,1.62-3,2.47-4.86,2.47Z"/>
      <path d="M2734.23,2509.83c-1.8,0-3.59-.81-4.77-2.35-26.69-34.88-50.68-66.37-50.92-66.68l-1.62-2.12.5-2.62,121.44-643.4-18.7-85.32c-.71-3.24,1.34-6.44,4.58-7.15,3.23-.71,6.44,1.34,7.15,4.58l19.23,87.71-.23,1.2-121.18,641.98c5.83,7.65,26.57,34.86,49.28,64.53,2.01,2.63,1.51,6.4-1.12,8.41-1.09.83-2.37,1.24-3.64,1.24Z"/>
      <g>
        <ellipse class="cls-11" cx="2739.44" cy="1044.13" rx="22.71" ry="13.74" transform="translate(1653.84 3767.41) rotate(-89.13)"/>
        <path d="M2739.23,1072.84c-.07,0-.13,0-.2,0-5.77-.08-11.13-3.63-14.71-9.75-3.08-5.26-4.71-12.09-4.61-19.23.23-16,8.98-28.43,19.95-28.43.07,0,.13,0,.2,0,5.77.08,11.13,3.63,14.71,9.75,3.08,5.26,4.71,12.09,4.61,19.23h0c-.23,15.99-8.98,28.43-19.95,28.43ZM2739.66,1027.43c-3.08,0-7.81,6.59-7.96,16.6-.07,4.91,1.01,9.65,2.97,12.99,1.39,2.37,3.08,3.8,4.52,3.82,3.1.04,7.84-6.56,7.99-16.6h0c.07-4.91-1.01-9.65-2.97-12.99-1.39-2.37-3.08-3.8-4.52-3.82,0,0-.02,0-.03,0Z"/>
      </g>
      <path d="M2736.02,987.22c-14.73,0-29.51-2.73-42.81-8.25-3.06-1.27-4.51-4.78-3.24-7.84,1.27-3.06,4.79-4.51,7.84-3.24,25.71,10.68,58.97,9.46,82.76-3.02,2.93-1.54,6.56-.41,8.1,2.53,1.54,2.93.41,6.56-2.53,8.1-14.84,7.78-32.44,11.73-50.13,11.73Z"/>
      <g>
        <ellipse class="cls-11" cx="2935.16" cy="1046.84" rx="22.71" ry="13.74" transform="translate(1843.89 3965.77) rotate(-89.13)"/>
        <path d="M2934.95,1075.54c-.07,0-.13,0-.2,0-5.77-.08-11.13-3.63-14.71-9.75-3.08-5.26-4.71-12.09-4.61-19.23h0c.24-16.09,9.11-28.58,20.15-28.43,5.77.08,11.13,3.63,14.71,9.75,3.08,5.26,4.71,12.09,4.61,19.23-.24,16-8.98,28.43-19.95,28.43ZM2927.43,1046.73c-.07,4.91,1.01,9.65,2.97,12.99,1.39,2.37,3.08,3.8,4.52,3.82,0,0,.02,0,.03,0,3.08,0,7.81-6.59,7.96-16.61.07-4.91-1.01-9.65-2.97-12.99-1.39-2.37-3.08-3.8-4.52-3.82,0,0-.02,0-.03,0-3.08,0-7.81,6.59-7.96,16.6h0Z"/>
      </g>
      <path d="M2919.22,973.49c-12.84,0-25.17-1.26-35.42-3.52-3.24-.71-5.28-3.91-4.57-7.15.71-3.24,3.91-5.28,7.15-4.57,26.76,5.89,68.35,4.18,91.63-8.89,2.89-1.62,6.55-.59,8.17,2.3,1.62,2.89.59,6.55-2.3,8.17-17.15,9.62-41.72,13.66-64.67,13.66Z"/>
      <path d="M2809.4,1148.45c-11.63,0-20.46-2.79-26.27-8.32-5.03-4.78-7.58-11.31-7.58-19.41,0-16.64,16.17-31.07,31.38-36.19,10-3.37,14.99-23.41,13.68-54.99-.14-3.31,2.44-6.11,5.75-6.24,3.31-.17,6.11,2.43,6.24,5.75,1.62,38.93-5.73,61.43-21.83,66.86-11.16,3.76-23.21,14.32-23.22,24.83,0,4.74,1.26,8.24,3.85,10.71,2.74,2.61,8.68,5.58,21.38,4.93,3.29-.17,6.13,2.38,6.3,5.69.17,3.31-2.38,6.13-5.69,6.3-1.36.07-2.69.1-3.99.1Z"/>
      <path d="M3097.09,1420.08c-2.34,0-4.57-1.38-5.53-3.68-16.02-38.09-20.13-126.54-12.22-262.89.19-3.31,3.05-5.83,6.34-5.64,3.31.19,5.83,3.03,5.64,6.34-9.72,167.54.78,232.53,11.3,257.55,1.29,3.05-.15,6.57-3.2,7.86-.76.32-1.55.47-2.32.47Z"/>
      <path d="M2854.11,1335.29c-.69,0-1.25,0-1.67-.01-8.56-.11-46.56-2.05-62.23-8.9-3.04-1.33-4.42-4.86-3.1-7.9,1.33-3.04,4.86-4.42,7.9-3.1,11.75,5.13,43.82,7.71,57.58,7.9,2.98.03,29.73.18,48.28-7.2,3.08-1.22,6.57.28,7.79,3.36,1.22,3.08-.28,6.57-3.36,7.79-18.65,7.42-43.28,8.06-51.2,8.06Z"/>
      <path d="M2719.46,1277.29c-1.98,0-3.91-.98-5.06-2.77-27.92-43.62-30.08-106.57-29.72-131.61.49-22.63,4.75-220.79,4.84-222.66.15-3.31,2.96-5.89,6.27-5.72,3.3.15,5.85,2.94,5.72,6.23-.12,3.47-4.78,220.17-4.83,222.36-.27,18.65.92,82.9,27.83,124.93,1.79,2.79.97,6.5-1.82,8.29-1,.64-2.12.95-3.23.95Z"/>
      <path d="M3126.31,1615.46c-1,0-2.01-.25-2.94-.78-2.88-1.63-3.9-5.29-2.27-8.17l75.79-134.25-92.4-43.37-101.84,78.57c-2.62,2.02-6.39,1.54-8.42-1.09-2.02-2.62-1.54-6.39,1.09-8.42l107.64-83.04,110.74,51.98-82.15,145.51c-1.1,1.95-3.14,3.05-5.23,3.05Z"/>
      <path d="M2742.22,1769.64l-5.75-133.39c-.14-3.31,2.42-6.11,5.74-6.25,3.3-.15,6.11,2.42,6.25,5.74l4.35,100.91,49.69-63.5c2.04-2.61,5.82-3.07,8.42-1.03,2.61,2.04,3.07,5.81,1.03,8.42l-69.73,89.1Z"/>
      <path d="M2486.01,2525.51c-.12,0-.25,0-.37-.01-3.31-.2-5.83-3.05-5.62-6.35.3-4.97.63-10.2.98-15.69.33-5.09.69-10.41,1.07-15.92,7.81-112.69,25.54-310.14,39.78-468.8,1.72-19.19,3.39-37.82,4.99-55.66.23-2.45.45-4.85.65-7.22,6.27-69.96,10.93-122.83,13.31-153.53.26-3.3,3.15-5.77,6.45-5.52,3.3.26,5.77,3.14,5.52,6.45-2.39,30.76-7.05,83.67-13.32,153.64-.2,2.38-.42,4.83-.65,7.28-1.6,17.81-3.27,36.44-4.99,55.63-14.24,158.6-31.96,355.98-39.76,468.55-.37,5.5-.73,10.8-1.07,15.87-.35,5.46-.68,10.69-.98,15.65-.19,3.18-2.84,5.63-5.98,5.63Z"/>
      <path d="M3356.29,2509.83c-3.22,0-5.88-2.56-5.99-5.8l-1.1-32.78-5.76-225.8c-.08-3.31,2.53-6.07,5.84-6.15.05,0,.1,0,.16,0,3.24,0,5.91,2.59,6,5.85l5.75,225.75,1.09,32.73c.11,3.31-2.48,6.09-5.8,6.2-.07,0-.14,0-.2,0Z"/>
      <path d="M2486.63,2493.51c-1.14,0-2.29-.33-3.32-1-28.47-18.93-65.58-31.88-76.28-35.39-3.15-1.04-4.86-4.43-3.83-7.57,1.04-3.15,4.43-4.86,7.57-3.83,14.17,4.66,50.26,17.58,79.18,36.8,2.76,1.83,3.51,5.56,1.67,8.32-1.16,1.74-3.06,2.68-5,2.68Z"/>
      <g>
        <path class="cls-4" d="M2841.59,1690s-82.63-42.56-112.72-64.2c-30.1-21.64-46.49-44.8-49.77-58.43-3.28-13.62,3.28-31.79,12.33-35.42s12.25-8.8,12.25-8.8c0,0-14.12-13.9-12.87-31.77,1.25-17.86,15.2-30.28,23.1-31.79,7.9-1.51,14.36-5.45,14.36-5.45,0,0-10.93-19.07-3.12-34.21,7.8-15.14,28.12-22.1,28.12-22.1l6.22-5.45s-62.64-58.67-74.61-71.49c-11.97-12.83-27.47-30.54-22.79-38.11,4.68-7.57,7.78-22.89,22.15-19.92,14.37,2.97,63.07,27.79,69.63,32.34s86.79,69.34,88.66,71.15c1.87,1.82,50.89,40.27,50.89,40.27,0,0,17.48-89.02,23.73-101.43,6.24-12.41,15.3-26.34,38.09-22.71,22.79,3.63,27.47,18.47,28.41,32.7.94,14.23,2.5,93.25,2.81,107.18.31,13.93-4.68,52.08-.31,65.7s29.97,49.1,29.97,49.1l-174.51,152.84Z"/>
        <path d="M2842.47,1697.21l-3.63-1.87c-3.39-1.75-83.37-43.01-113.48-64.66-33.21-23.87-48.82-48.26-52.1-61.9-3.99-16.57,3.9-37.57,15.93-42.4,2.81-1.13,4.89-2.4,6.36-3.51-4.67-6.11-11.72-17.83-10.74-31.91,1.46-20.82,17.46-35.25,27.96-37.26,2.82-.54,5.46-1.46,7.57-2.34-3.1-7.69-6.94-21.76-.54-34.18,7.75-15.03,25.54-22.74,30.33-24.59l.41-.36c-15.02-14.1-59.92-56.38-70.07-67.25-19.14-20.51-29.75-35.26-23.5-45.36.8-1.3,1.64-3.06,2.52-4.93,3.72-7.86,9.95-21.02,25.95-17.72,15.38,3.18,64.43,28.15,71.83,33.28,6.52,4.51,86.37,68.97,89.38,71.74l-.04-.04c1.81,1.63,24.37,19.41,42.81,33.9,4.86-24.16,16.96-82.67,22.34-93.37,4.99-9.92,15.37-30.57,44.39-25.94,31.26,4.98,32.91,30.01,33.45,38.23.81,12.3,2.07,72.11,2.61,97.65.09,4.37.16,7.77.21,9.79.11,4.78-.35,11.87-.88,20.08-.98,15.11-2.32,35.81.29,43.93,3.35,10.43,22.16,37.77,29.12,47.43l3.19,4.43-181.69,159.13ZM2667.24,1285.84c-.05.38-.22,3.41,5.78,11.82,4.64,6.5,11.12,13.64,16.24,19.13,11.7,12.53,73.7,70.62,74.33,71.21l4.83,4.53-12.09,10.6-1.12.38c-.17.06-18.16,6.42-24.74,19.18-6.14,11.91,2.9,28.32,2.99,28.48l2.9,5.07-4.99,3.04c-.3.18-7.49,4.52-16.35,6.22-4.97.95-17.18,11.06-18.25,26.32-1.04,14.93,10.98,26.95,11.1,27.07l3.41,3.36-2.52,4.07c-.43.7-4.54,6.97-15.12,11.22-5.34,2.14-11.56,16.72-8.73,28.45,3.02,12.55,18.86,34.41,47.44,54.96,25.84,18.58,92.12,53.41,108.35,61.86l167.35-146.57c-7.27-10.33-23.92-34.71-27.65-46.33-3.3-10.29-1.99-30.52-.83-48.37.49-7.6.96-14.77.86-19.03-.05-2.03-.12-5.43-.21-9.81-.54-25.46-1.8-85.09-2.59-97.12-.81-12.3-4.2-24.11-23.37-27.17-17.02-2.71-24.54,5.09-31.78,19.48-4.31,8.57-16.23,64.43-23.2,99.89l-1.89,9.61-7.7-6.04c-14.66-11.5-48.75-38.29-51.29-40.62l.03.03c-3.45-3.09-82.12-66.55-88-70.62-6.09-4.22-54.12-28.65-67.43-31.39-5.78-1.19-8.23,1.72-12.67,11.1-1.02,2.15-1.98,4.17-3.11,6.01Z"/>
      </g>
      <g>
        <path d="M2843.11,1698.51c-.94,0-1.9-.22-2.79-.69l-9.85-5.17c-57.73-30.27-99.44-52.15-133.65-87.01-1.27-1.29-2.54-2.55-3.78-3.79-9.21-9.13-18.73-18.57-21.06-35.95l-.11-.83c-1.36-9.99-4.75-34.99,23.51-45.62-9.23-12.36-11.32-27.14-5.43-41.01,5.81-13.7,18.05-23.61,31.69-26.48-7.33-15.5-5.85-31.88-1.08-38.81,9.5-13.81,20.19-18.73,31.43-20.56-11.84-11.27-23.39-21.72-33.84-31.18-36.17-32.73-62.3-56.38-61.41-77.72.34-8.26,4.7-15.65,12.95-21.96,17.85-13.65,53.31.66,111.59,45.01,44.3,33.72,90.59,76.73,112.83,97.41l2.47,2.29c2.43,2.25,2.57,6.05.31,8.48-2.26,2.43-6.05,2.57-8.48.31l-2.47-2.3c-22.1-20.54-68.09-63.29-111.93-96.65-70.52-53.68-91.35-49.37-97.03-45.03-5.36,4.1-8.06,8.32-8.25,12.92-.65,15.72,25,38.93,57.48,68.32,13.33,12.06,28.44,25.73,43.74,40.72l10.16,9.95-14.22.33c-16.63.39-26.17,2.95-35.44,16.42-2.71,3.94-3.9,20.14,6.09,33.66l7.65,10.35-12.85-.8c-12.34-.76-25.1,7.63-30.34,19.97-5.14,12.11-1.74,24.87,9.34,35l8.62,7.89-11.43,2.41c-27.72,5.85-25.34,23.42-23.76,35.04l.12.85c1.79,13.33,8.77,20.25,17.62,29.02,1.29,1.27,2.59,2.57,3.9,3.9,32.89,33.52,73.9,55.03,130.66,84.79l9.85,5.17c2.93,1.54,4.06,5.17,2.52,8.1-1.07,2.04-3.16,3.21-5.32,3.21Z"/>
        <path d="M3019.97,1543.16c-1.78,0-3.54-.79-4.72-2.29-1.98-2.53-4.07-5.16-6.2-7.84-18.13-22.87-30.17-38.54-32.2-47.59-1.92-8.51-.36-56.9,1.71-114.53.41-11.42.77-21.28.95-27.75,1.04-36.43-6-52.02-25.12-55.62-10.3-1.94-21.33,5.31-30.26,19.87-6.55,10.69-11.13,35.83-15.17,58.01-3.35,18.38-6.51,35.75-10.84,47.51-1.15,3.11-4.59,4.7-7.7,3.56-3.11-1.15-4.7-4.59-3.56-7.7,3.97-10.79,7.05-27.65,10.3-45.51,4.44-24.35,9.03-49.53,16.75-62.13,11.68-19.05,27.24-28.3,42.71-25.39,32.29,6.08,35.76,37.66,34.9,67.76-.19,6.52-.54,16.4-.95,27.84-1.3,36.27-3.73,103.77-2,111.46,1.59,7.05,17.95,27.7,29.9,42.77,2.14,2.7,4.23,5.34,6.23,7.88,2.05,2.61,1.59,6.38-1.01,8.42-1.1.86-2.41,1.28-3.7,1.28Z"/>
      </g>
      <path d="M2774.83,1492.54c-1.16,0-2.34-.34-3.37-1.04l-43.13-29.37c-2.74-1.87-3.45-5.6-1.58-8.34,1.86-2.74,5.59-3.45,8.34-1.58l43.13,29.37c2.74,1.87,3.45,5.6,1.58,8.34-1.16,1.7-3.05,2.62-4.97,2.62Z"/>
      <path d="M2742.45,1551.28c-1.12,0-2.25-.31-3.26-.97l-33.54-21.8c-2.78-1.81-3.57-5.52-1.76-8.3,1.8-2.78,5.52-3.57,8.3-1.76l33.54,21.8c2.78,1.81,3.57,5.52,1.76,8.3-1.15,1.77-3.07,2.73-5.04,2.73Z"/>
      <path d="M2800.07,1430.17c-1.29,0-2.58-.41-3.67-1.26l-34.34-26.64c-2.62-2.03-3.09-5.8-1.06-8.42,2.03-2.62,5.8-3.09,8.42-1.06l34.34,26.64c2.62,2.03,3.09,5.8,1.06,8.42-1.18,1.52-2.95,2.32-4.74,2.32Z"/>
      <path d="M3420.57,2262.1c-23.63,0-48.86-4.88-75.51-14.62-46.55-17.03-96.78-48.63-149.31-93.92-78.2-67.43-175.26-184.04-242.92-269.99-73.22-93.02-128.74-171.18-129.3-171.95l-3.11-4.38,218.61-194.77,301.71,305.83c2.33,2.36,2.3,6.16-.06,8.49-2.36,2.33-6.16,2.3-8.49-.06l-293.71-297.71-202.06,180.02c27.42,38.22,228.42,315.82,367.14,435.44,51.42,44.34,100.41,75.21,145.59,91.74,48.41,17.71,91.54,18.48,128.17,2.27,42.65-18.87,72.43-51.41,88.51-96.71,31.62-89.09,7.94-222.08-64.97-364.85-60.2-117.89-166.97-222.47-300.63-294.47-2.92-1.57-4.01-5.21-2.44-8.13,1.57-2.92,5.21-4.01,8.13-2.44,68.19,36.73,129.32,81.47,181.68,132.97,51.82,50.96,93.52,107.02,123.95,166.6,74.41,145.7,98.31,282.14,65.59,374.33-17.23,48.54-49.18,83.42-94.96,103.67-19.07,8.43-39.67,12.65-61.64,12.65Z"/>
      <path d="M2186.02,2509.84c-2.18,0-4.29-1.19-5.35-3.27-14.03-27.44-34.79-68.4-54.07-107.68-9.47-19.26-17.85-36.66-24.91-51.69l-.25-.54c-.06-.12-.12-.26-.19-.43-9.23-19.64-16.3-35.52-21.03-47.21-32.96-81.5-55.61-146.61-58.96-199.46-3.33-52.52,11.24-93.59,48.73-137.33.71-.84,1.46-1.71,2.21-2.57,21.83-25.42,43.43-50.18,64.18-73.55,20.6-23.21,41-45.78,60.63-67.08,44.46-48.29,86.7-92.03,125.55-129.99,81.57-79.69,148.77-134.45,199.74-162.77l.09-.09.69-.36c11.33-6.27,22.08-11.32,31.94-15.02,30.8-11.57,69.29-22.79,105.6-30.79,10.78-2.38,21.36-4.46,31.45-6.18.23-.05.43-.08.62-.11l.29-.05c3.26-.61,6.39,1.56,6.99,4.81.6,3.26-1.56,6.39-4.82,6.99l-1.03.19c-9.91,1.69-20.31,3.74-30.92,6.08-35.78,7.88-73.67,18.92-103.97,30.3-9.13,3.43-19.12,8.11-29.7,13.93l-.03.03-.71.4c-50.11,27.68-116.67,81.93-197.85,161.24-38.71,37.81-80.8,81.39-125.11,129.53-19.58,21.25-39.93,43.77-60.48,66.92-20.71,23.33-42.26,48.03-64.07,73.42-.74.85-1.46,1.69-2.17,2.53-69.19,80.71-57.63,151.81,12.22,324.5,4.66,11.53,11.68,27.28,20.86,46.81l.25.56c.04.09.09.19.13.28,7.02,14.95,15.36,32.26,24.78,51.43,19.24,39.21,39.97,80.11,53.98,107.51,1.51,2.95.34,6.57-2.61,8.07-.87.45-1.81.66-2.73.66Z"/>
      <path d="M2320.17,2509.84c-2.05,0-4.05-1.05-5.17-2.95-1.69-2.85-.74-6.53,2.11-8.22l83.11-49.1,12.73-7.51-96.19-324.98,3.53-2.7,210.16-163.26c2.63-2.02,6.39-1.52,8.41,1.11,2.02,2.63,1.52,6.4-1.11,8.41l-.62.48-206.52,160.44,96.51,326.06-20.8,12.28-83.1,49.1c-.96.57-2.01.84-3.05.84Z"/>
      <g>
        <path class="cls-11" d="M3069.22,1039.73c-21.45-31.37-28.14-79.06-29.95-119.2h-159.54s-10.59-57.16-26.76-57.09c-16.1.07-26.15,57.09-26.15,57.09,0,0-121.53-3.11-156.96,0-4.47-86.42,18.3-159.41,61.62-202.43,45.09-44.77,153.61-90.31,259.02-29.07,127.64-7.53,187.85,93.69,199.08,153.64,27.94,149.03-42.99,220.59-42.99,220.59l-77.39-23.53Z"/>
        <path d="M3148.32,1070.05l-82.87-25.2-1.19-1.74c-17.46-25.54-27.78-64.74-30.7-116.59h-158.83s-.91-4.91-.91-4.91c-.03-.14-2.65-14.16-7.15-27.9-6.53-19.93-12.08-24.29-13.68-24.29h0c-1.58,0-7.06,4.38-13.39,24.29-4.36,13.73-6.85,27.71-6.88,27.85l-.9,5.09-5.16-.13c-1.21-.03-121.6-3.07-156.28-.02l-6.2.54-.32-6.21c-4.51-87.08,18.6-162.52,63.39-206.99,26.63-26.44,67.73-47.34,109.92-55.91,37.45-7.6,94.58-9.36,154.78,25.01,57.02-2.92,107.46,15.5,145.95,53.32,29.05,28.55,50.58,67.91,57.58,105.29,14.69,78.38,1.95,135.42-11.32,169.47-14.52,37.25-32.54,55.69-33.3,56.45l-2.55,2.57ZM3073.01,1034.61l71.67,21.79c5.17-6.12,17.95-22.92,28.56-50.4,12.55-32.49,24.55-87.02,10.45-162.23-11.94-63.66-73.15-155.81-192.83-148.75l-1.8.11-1.56-.91c-102.69-59.67-208.93-14.41-251.78,28.14-41.34,41.04-63.11,110.68-60.13,191.75,36.6-2.1,124.03-.23,146.32.3,1.14-5.52,3.25-14.81,6.23-24.21,7.08-22.31,14.96-32.72,24.81-32.76h.06c9.85,0,17.83,10.38,25.11,32.66,3.11,9.52,5.33,18.93,6.51,24.44h160.38s.26,5.73.26,5.73c2.31,51.22,11.65,89.67,27.75,114.36Z"/>
      </g>
      <path d="M3146.6,1069.26c-1.53,0-3.05-.58-4.22-1.74-2.35-2.33-2.37-6.13-.04-8.49.16-.17,17.31-17.85,30.9-53.03,12.55-32.49,24.55-87.02,10.45-162.23-3.17-16.9-14.56-60.17-51.81-96.91-35.79-35.29-83.3-52.74-141.28-51.83l-1.67.03-1.44-.84c-102.69-59.67-208.93-14.41-251.78,28.14-41.34,41.04-63.11,110.68-60.13,191.75,36.6-2.1,124.03-.23,146.32.3,1.14-5.52,3.25-14.81,6.23-24.21,7.08-22.31,14.96-32.72,24.81-32.76h.06c9.85,0,17.83,10.38,25.11,32.66,3.11,9.52,5.33,18.93,6.51,24.44h160.38s.26,5.73.26,5.73c2.37,52.43,12.09,91.49,28.91,116.09,1.87,2.74,1.17,6.47-1.57,8.34-2.74,1.87-6.47,1.17-8.34-1.57-17.46-25.54-27.78-64.74-30.7-116.59h-158.83s-.91-4.91-.91-4.91c-.03-.14-2.65-14.16-7.15-27.9-6.53-19.93-12.08-24.29-13.68-24.29h0c-1.58,0-7.06,4.38-13.39,24.29-4.36,13.73-6.85,27.71-6.88,27.85l-.9,5.09-5.16-.13c-1.21-.03-121.6-3.07-156.28-.02l-6.2.54-.32-6.21c-4.51-87.08,18.6-162.52,63.39-206.99,26.63-26.44,67.73-47.34,109.92-55.91,37.48-7.61,94.65-9.37,154.9,25.08,31.67-.3,60.82,4.79,86.72,15.15,23.19,9.27,43.89,22.78,61.5,40.16,39.67,39.12,51.81,85.23,55.18,103.24,14.69,78.38,1.95,135.42-11.32,169.47-14.52,37.25-32.54,55.69-33.3,56.45-1.17,1.18-2.72,1.78-4.26,1.78Z"/>
      <path class="cls-4" d="M3070.18,1039.67c7.54-3.05,15.84-4.69,24.53-4.57,33.96.47,61.11,27.55,60.62,60.49-.48,32.94-28.41,59.26-62.37,58.8-9.45-.13-18.36-2.32-26.31-6.12l3.53-108.6Z"/>
      <path d="M3093.85,1160.4c-.33,0-.65,0-.97,0-10.11-.14-19.8-2.4-28.81-6.71-2.99-1.43-4.25-5.01-2.82-8,1.43-2.99,5.02-4.25,8-2.82,7.43,3.56,15.44,5.42,23.8,5.53,30.6.41,55.86-23.3,56.29-52.88.21-14.29-5.34-27.82-15.63-38.09-10.34-10.32-24.22-16.11-39.08-16.32-7.68-.11-15.16,1.28-22.2,4.13-3.07,1.24-6.57-.24-7.81-3.31-1.24-3.07.24-6.57,3.31-7.81,8.53-3.45,17.59-5.13,26.86-5,18,.25,34.82,7.29,47.38,19.82,12.61,12.58,19.41,29.19,19.15,46.76-.53,35.88-30.71,64.71-67.48,64.71Z"/>
      <path d="M3124.52,1099.24c-.05,0-.11,0-.16,0-3.31-.09-5.93-2.85-5.84-6.16.21-7.81-2-14.13-6.39-18.3-5.08-4.82-13.23-6.94-23.55-6.12-3.31.27-6.19-2.2-6.46-5.51-.26-3.3,2.2-6.19,5.51-6.46,13.81-1.09,25.14,2.15,32.76,9.38,6.93,6.57,10.43,16.02,10.13,27.32-.09,3.26-2.76,5.84-6,5.84Z"/>
    </g>
    <g id="woman">
      <g>
        <path class="cls-10" d="M890.68,1330.19c13.12,14.88,267.06,95.83,246.35,100.81-126.22,30.38-429.26,51.09-511.51,44.14-17.69-1.49-24.15-16.46-21.26-34.86,7.37-46.91,34.15-128.96,15.26-197.46-17.23-62.5-13.78-181.04,51.91-236.94,6.98-90.92,44.96-139.33,127.6-176.29,67.15-30.03,180.94-63.49,263.53-7,57.85,39.57,119.67,115.99,133.79,239.13l-305.68,268.46Z"/>
        <path d="M668.76,1482.5c-17.89,0-32.75-.45-43.75-1.38-8.71-.74-15.85-4.36-20.65-10.48-5.89-7.5-8.03-18.62-6.04-31.3,1.63-10.39,4.23-22.6,6.98-35.52,9.63-45.27,22.81-107.27,8.43-159.41-9.81-35.57-11.79-81.73-5.29-123.46,5.59-35.87,20.05-85.17,57.2-118,3.83-45.87,15.41-80.56,36.38-109.02,20.65-28.03,50.7-50.22,94.55-69.83,30.5-13.64,77.43-31.03,127.79-36.43,56.09-6.01,103.72,4.07,141.58,29.96,33.17,22.69,62.56,53.81,85.01,90.02,27.49,44.35,44.77,95.96,51.36,153.38l.36,3.12-302.13,265.35c18.23,9.28,75.08,29.92,118.1,45.54,30.1,10.93,61.23,22.23,84.08,31.18,12.38,4.85,21.49,8.68,27.83,11.69,9.49,4.51,13.95,7.53,13.67,12.52-.14,2.45-1.73,5.41-5.79,6.39-57.08,13.74-156.65,26.94-273.17,36.22-76.78,6.11-147.84,9.45-196.5,9.45ZM954.75,797.85c-58.18,0-115.88,20.49-153.27,37.21-82.66,36.97-117.45,84.99-124.07,171.27l-.19,2.49-1.9,1.62c-62.8,53.44-66.97,169.3-50.02,230.77,15.16,54.97,1.62,118.62-8.26,165.1-2.71,12.76-5.28,24.82-6.86,34.89-1.47,9.35-.18,17.18,3.62,22.03,2.73,3.48,6.84,5.47,12.22,5.93,39.71,3.35,135.47.11,238.28-8.08,108.16-8.61,201.48-20.59,259.39-33.2-20.59-9.41-68.84-26.92-109.16-41.56-82.35-29.9-121.85-44.79-128.37-52.18l-3.98-4.51,307.82-270.35c-16.46-134.96-88.91-203.07-130.85-231.76-31.8-21.75-68.21-29.69-104.43-29.69Z"/>
      </g>
      <g>
        <path class="cls-3" d="M1425.08,2167.7c-.88,112.49-1.76,224.98-2.64,337.46,94.23,1.39,188.45,2.78,282.68,4.17.24-307.41-45.29-535.31-84.54-680.48-23.89-88.36-51.59-168.79-124.17-222.2-115.34-84.88-265.36-43.64-310.64-29.3,0,0-7.2,57.58-68.99,73.08-55.19,13.84-120.52,2.31-161.53-18.96-60.09-31.16-102.5-78.81-102.5-78.81-149.14,1.33-298.27,2.66-447.41,3.99,61.2-57.4,122.4-114.8,183.61-172.2-50.46-85.76-100.92-171.51-151.38-257.27-27.93,23.31-262.4,268.19-402.95,436.8-52.35,62.8-30.11,161.31,43.71,192.13,206.83,86.36,579.27,187.43,579.27,187.43,48.95,260.25,23.76,411.63,2.02,557.46,135.91,0,625.66,0,722.19-1.6-1.4-49.15.34-107.77,9.21-173.14,8.25-60.81,20.86-114.07,34.08-158.56Z"/>
        <path d="M1711.11,2515.42l-294.72-4.34,2.33-297.31c-9.31,37.31-16.61,75.26-21.77,113.31-7.71,56.83-10.79,114.75-9.16,172.16l.17,6.07-6.07.1c-64.09,1.06-307.1,1.6-722.29,1.6h-6.96l2.87-19.25c21.31-142.46,43.33-289.75-3.14-539.41-39.12-10.73-382.44-105.72-576.37-186.69-36.18-15.1-62.48-46.47-72.18-86.06-9.96-40.68-.18-83.84,26.18-115.46,142.11-170.48,375.03-413.62,403.72-437.56l5.43-4.53,157.4,267.5-175.9,164.97,434.76-3.88,1.81,2.03c.42.47,42.44,47.21,100.78,77.47,36.26,18.8,100.95,32.6,157.31,18.46,23.83-5.98,41.89-19.15,53.7-39.14,8.93-15.13,10.78-28.74,10.8-28.88l.49-3.79,3.65-1.17c43.77-13.85,88.97-21.75,130.71-22.83,72.6-1.89,134.94,15.96,185.3,53.02,34.03,25.04,60.9,57.8,82.15,100.13,19.76,39.38,32.95,83.51,44.26,125.33,56.43,208.7,84.94,438.18,84.75,682.05v6.08ZM1428.49,2499.25l270.63,3.99c-.28-240.55-28.65-466.89-84.33-672.83-22.98-85-49.6-165.7-121.93-218.93-101.69-74.84-231.34-51.26-301.83-29.49-1.21,5.69-4.27,16.89-11.4,29.11-9.27,15.9-27.45,36.64-61.39,45.15-59.71,14.98-126.27,1.03-165.75-19.45-54.04-28.03-93.43-68.51-102.36-78.11l-460.1,4.11,191.32-179.43-145.23-246.82c-44.51,41.54-264.96,273.01-396.89,431.28-23.93,28.7-32.8,67.92-23.74,104.92,8.78,35.85,32.52,64.22,65.15,77.84,204.1,85.22,574.81,186.17,578.53,187.18l3.63.98.7,3.7c47.76,253.9,25.47,402.95,3.91,547.09l-.82,5.48c398.82,0,637.21-.51,709.07-1.51-1.28-56.07,1.89-112.57,9.42-168.03,7.31-53.86,18.84-107.51,34.27-159.46l12.08-40.68-2.93,373.95Z"/>
      </g>
      <g>
        <path class="cls-10" d="M1227.92,1313.01c7.26,42.63,3.3,77.19.63,92.76-.91,5.3-5.2,8.36-10.08,9.98-43.65,14.47-115.52,23.04-115.52,23.04,0,0-18.74-105.48,26.85-112.12,45.59-6.64,98.12-13.66,98.12-13.66Z"/>
        <path d="M1098.03,1445.42l-.99-5.58c-.54-3.02-12.88-74.3,9.27-105,5.79-8.02,13.4-12.76,22.62-14.11,45.1-6.57,97.67-13.6,98.19-13.67l5.74-.77.97,5.71c7.32,42.98,3.54,77.83.63,94.78-1.17,6.83-6.18,12.03-14.11,14.66-43.72,14.5-113.74,22.95-116.7,23.31l-5.63.67ZM1222.92,1319.74c-14.92,2.01-56.01,7.59-92.26,12.87-5.97.87-10.75,3.9-14.62,9.25-15.95,22.09-10.44,73.19-8.06,90.24,17.84-2.36,73.12-10.28,108.59-22.05,3.62-1.2,5.66-2.98,6.06-5.3,2.65-15.44,6.05-46.45.28-85.02Z"/>
      </g>
      <g>
        <path class="cls-4" d="M869.66,1552.35s10.32-3.55,18.04-16.77c9.67-16.57,7.89-93.92-5.51-198.59-26.7,14.37-57.81,11.44-77.93-6.86-25.83-23.49-29.14-66.5-7.69-93.72,16.01-20.33,43.43-28.84,69.78-21.59-.79-24.99-3.17-53.33-8.36-84.17-7.08-42.1-17.63-78.41-28.35-108.11,36.91-14.47,124.91-44.92,210.34-52.61,83.06-7.47,117.39,10.28,121.86,17.99,21.72,37.42,30.04,63.87,53,119.79,39.02,95.04,39.48,176.74,1.12,223.28-13.8,16.75-35.22,31.65-63.56,42.22-.72,30.28,2.34,137.84,21.59,190.71,2.97,8.15,10.52,13.43,18.81,13.05h.24c.19,16.94-14.02,56.84-58.97,70.09-61.25,18.06-112.77,10.32-150.42-3.75-52.18-19.5-99.65-49.89-130.89-90.66,2.74-.05,12.96-.1,16.91-.31Z"/>
        <path d="M1063.28,1663.54c-33.53,0-61.37-6.99-81.74-14.61-57.36-21.44-103.54-53.47-133.56-92.63l-7.21-9.41,11.86-.24c.78-.02,2.16-.03,3.82-.05,3.61-.04,8.87-.1,11.89-.21,2.15-.99,8.79-4.62,14.17-13.85,7.19-12.32,8.49-75.84-5.25-186.6-26.88,11.08-56.97,6.88-77.05-11.39-27.98-25.45-31.81-72.11-8.37-101.87,15.93-20.23,42.05-29.74,68.2-25.4-1.12-25.33-3.8-50.74-7.99-75.65-6.12-36.38-15.57-72.4-28.08-107.06l-1.98-5.49,5.44-2.13c26.35-10.33,119.53-44.68,211.99-53,36.3-3.27,68.2-2.08,92.28,3.43,18.15,4.15,31.35,10.71,35.31,17.52,16.65,28.67,25.46,50.81,38.79,84.33,4.21,10.58,8.98,22.58,14.57,36.19,39.99,97.4,40.07,181,.2,229.37-14.39,17.46-35.86,32.12-62.25,42.56-.41,36.53,3.59,135.88,21.3,184.5,2.08,5.71,7.29,9.36,12.9,9.11l6.44-.3.07,6.21c.21,18.62-14.99,61.69-63.27,75.92-26.25,7.74-50.58,10.72-72.48,10.72ZM865.24,1558.49c28.61,33.09,70,60.33,120.51,79.21,31.97,11.95,83.35,22.27,146.62,3.61,36.99-10.91,51.71-41.78,54.26-58.91-8.22-1.85-15.18-7.91-18.28-16.42-20.46-56.19-22.53-168.19-21.95-192.9l.1-4.06,3.8-1.42c26.18-9.77,47.28-23.75,61.02-40.42,18.17-22.04,27.28-52.19,27.09-89.6-.19-37.53-10.27-81.64-29.13-127.58-5.61-13.67-10.4-25.7-14.62-36.32-13.14-33.02-21.82-54.84-38.02-82.74-2.39-3.98-32.18-22.58-116.13-15.03-85.38,7.68-171.61,38.04-203.27,50.12,11.78,33.63,20.74,68.46,26.66,103.62,4.71,27.97,7.55,56.56,8.44,84.97l.26,8.13-7.85-2.16c-24.02-6.61-48.93,1.05-63.47,19.52-19.7,25.01-16.48,64.2,7.02,85.57,18.29,16.64,46.84,19.06,71.05,6.02l7.69-4.14,1.11,8.66c10.68,83.46,17.54,180.46,4.74,202.38-8.74,14.98-20.76,19.24-21.27,19.42l-.8.27-.84.05c-1.19.06-2.87.11-4.74.15Z"/>
      </g>
      <path d="M808.73,1271.64c-3.08,0-5.7-2.36-5.97-5.48-.69-7.89,3.85-16.95,12.13-24.24,11.16-9.81,26.27-13.81,40.43-10.72,3.24.71,5.29,3.91,4.58,7.14-.71,3.24-3.91,5.29-7.14,4.58-10.44-2.28-21.64.71-29.94,8.01-5.99,5.26-8.38,10.92-8.1,14.18.29,3.3-2.16,6.21-5.46,6.5-.18.02-.35.02-.53.02Z"/>
      <g>
        <path class="cls-10" d="M1127.76,1063.7c5.88,11.84,16,18.5,22.61,14.87,6.61-3.63,7.2-16.16,1.32-28-5.88-11.84-16-18.5-22.61-14.87-6.61,3.63-7.2,16.16-1.32,28Z"/>
        <path d="M1146.41,1085.57c-1.67,0-3.39-.27-5.14-.82-7.23-2.27-14.29-9.14-18.88-18.37-7.53-15.16-5.89-30.61,3.81-35.93,3.54-1.95,7.69-2.26,11.99-.91,7.23,2.27,14.29,9.14,18.88,18.37,7.53,15.16,5.89,30.61-3.81,35.93-2.1,1.15-4.41,1.73-6.85,1.73ZM1133.07,1040.71c-.43,0-.8.08-1.1.25-2.75,1.51-3.69,10.29,1.17,20.07,3.73,7.5,8.64,11.3,11.72,12.26,1.12.35,2,.36,2.62.02,2.75-1.51,3.69-10.29-1.17-20.07-3.73-7.5-8.64-11.3-11.72-12.26-.57-.18-1.08-.27-1.52-.27Z"/>
      </g>
      <g>
        <path class="cls-10" d="M973.74,1128.08c5.88,11.84,5.29,24.38-1.32,28s-16.73-3.03-22.61-14.87c-5.88-11.84-5.29-24.38,1.32-28s16.73,3.03,22.61,14.87Z"/>
        <path d="M968.46,1163.08c-1.67,0-3.39-.27-5.14-.82-7.23-2.27-14.29-9.14-18.88-18.37-7.53-15.16-5.89-30.61,3.81-35.93,3.54-1.94,7.69-2.26,11.99-.91,7.23,2.27,14.29,9.14,18.88,18.37,7.53,15.16,5.89,30.61-3.81,35.93-2.1,1.15-4.41,1.73-6.85,1.73ZM955.12,1118.22c-.43,0-.8.08-1.1.25-2.75,1.51-3.69,10.29,1.17,20.07,3.73,7.5,8.64,11.3,11.72,12.26,1.12.35,2.01.36,2.62.02,2.75-1.51,3.69-10.29-1.17-20.07-3.73-7.5-8.64-11.3-11.72-12.26-.57-.18-1.08-.27-1.52-.27Z"/>
      </g>
      <path d="M881.96,1112.42c-.32,0-.65-.03-.97-.08-3.27-.53-5.49-3.62-4.96-6.89,7.39-45.36,44.06-73.51,77.13-81.28,3.23-.75,6.46,1.24,7.21,4.47.76,3.23-1.24,6.46-4.47,7.21-21.77,5.12-60.61,25.94-68.03,71.53-.48,2.94-3.03,5.04-5.91,5.04Z"/>
      <path d="M1131.05,1198.4c-2.3,0-4.49-1.33-5.49-3.56-1.35-3.03.02-6.57,3.04-7.92,10.68-4.75,16.21-9.09,17.92-14.08,1.32-3.86.45-8.58-2.69-14.44-3.46-6.47-12.32-7.79-22.58-9.32-4.01-.6-8.16-1.22-12.11-2.21-24.67-6.22-37.51-26.89-50.22-58.23-1.25-3.07.23-6.57,3.3-7.82,3.07-1.24,6.57.23,7.82,3.3,13.51,33.31,24.51,46.68,42.04,51.1,3.37.85,7.05,1.4,10.95,1.98,11.76,1.75,25.09,3.74,31.39,15.53,4.72,8.84,5.89,16.91,3.45,24-3.7,10.77-14.98,16.96-24.39,21.15-.79.35-1.62.52-2.44.52Z"/>
      <path d="M1071.8,1015.43c-1.71,0-3.4-.72-4.59-2.13-2.14-2.53-1.82-6.32.71-8.46,20.17-17.04,56.67-27.35,87.39-14.08,3.04,1.31,4.44,4.85,3.13,7.89-1.31,3.04-4.85,4.44-7.89,3.13-26.24-11.34-57.54-2.43-74.89,12.23-1.13.95-2.5,1.42-3.87,1.42Z"/>
      <path d="M1382.15,2499.36c-3.27,0-5.94-2.62-6-5.9-1.53-94.12,7.86-183.88,27.91-266.76,2.93-12.13,5.85-23.12,8.67-33.74,7.68-28.94,14.93-56.28,20.27-98.91,10.39-82.87,4.47-148.56.01-180.35-7.26-51.82-20.94-102.79-40.66-151.51-1.24-3.07.24-6.57,3.31-7.81,3.07-1.25,6.57.24,7.81,3.31,20.08,49.63,34.02,101.56,41.42,154.35,4.54,32.37,10.57,99.26.01,183.5-5.44,43.43-12.8,71.15-20.58,100.5-2.8,10.56-5.7,21.48-8.6,33.49-19.81,81.9-29.09,170.63-27.57,263.74.05,3.31-2.59,6.04-5.9,6.1-.03,0-.07,0-.1,0Z"/>
      <path d="M1127.6,1284.01c-2.32,0-4.54-1.36-5.51-3.63-7.79-18.11-37.14-16.12-60.39-11.25-3.24.68-6.42-1.4-7.1-4.64-.68-3.24,1.4-6.42,4.64-7.1,50.05-10.47,67.8,4.15,73.87,18.26,1.31,3.04-.1,6.57-3.14,7.88-.77.33-1.58.49-2.37.49Z"/>
      <g>
        <g>
          <path class="cls-4" d="M440.2,1131.24c18-15.06,34.59-33.54,42.39-42.08,21.87-23.94,105.17-117.21,150.41-168.09,25.72-28.93,37.74-39.45,64.26-56.8,17.98-11.76,44.63-19.54,62.87-17.35,32.73,3.93,35.39,19.14,29.38,37.22-6.67,20.06-32.79,8.18-61.31,29.41-19.08,14.2-21.95,27.36-31.43,37.45,21.09-5.59,39.96-5.84,50.45-.71,14.3,6.99,22.8,25.51,13.45,41.48,26.24,13.11,21.29,44.4,3.59,52.11,33.93,13.85,34.23,45.78,12.09,67.54s-43.35,22.02-59.51,18.86c-4.39,4.91-34,45.64-56.77,63.21-16.22,12.51-37.51,27.8-62.34,29.36-13.28,9.56-50.01,43.69-67.84,61.27l-89.67-152.87Z"/>
          <path d="M528.6,1293.8l-96.14-163.9,3.89-3.26c16.65-13.93,32.07-30.85,40.36-39.94l1.45-1.59c21.71-23.76,104.87-116.87,150.36-168.03,25.93-29.16,38.16-39.97,65.46-57.83,19.7-12.89,47.82-20.58,66.87-18.29,17.04,2.05,27.97,7.22,33.41,15.8,4.71,7.43,5.02,17,.94,29.26-4.59,13.81-16.22,16.12-28.52,18.56-10.49,2.09-22.39,4.45-34.9,13.76-11.18,8.32-16.24,16.07-21.02,23.56,16.17-2.48,29.96-1.49,39.1,2.98,9.11,4.46,16.31,12.93,19.25,22.67,2.2,7.28,1.94,14.83-.67,21.8,10.75,7.27,16.83,18.49,16.5,30.93-.23,8.82-3.62,16.91-9.14,22.67,11.42,6.95,18.78,16.73,21.05,28.25,2.94,14.93-3.15,31.56-16.29,44.49-18.01,17.7-38.09,24.62-61.29,21.09-.87,1.1-1.92,2.44-3.04,3.87-10.92,13.97-33.64,43.03-52.49,57.58-12.78,9.86-36.33,28.03-63.83,30.46-13.52,10.21-47.94,42.08-65.81,59.69l-5.49,5.41ZM447.92,1132.54l83.25,141.93c18.26-17.65,50.36-47.36,63.04-56.49l1.4-1.01,1.73-.11c22.71-1.43,42.39-15.27,59.05-28.12,17.66-13.62,39.75-41.88,50.37-55.47,2.76-3.53,4.59-5.87,5.59-6.99l2.27-2.54,3.35.65c13.11,2.56,32.99,3.56,54.16-17.25,10.26-10.08,15.09-22.65,12.93-33.61-2.06-10.45-10.04-18.78-23.08-24.1l-13.16-5.37,13.03-5.68c6.41-2.79,10.87-10.19,11.08-18.4.25-9.65-5.2-17.97-14.95-22.85l-5.73-2.87,3.24-5.53c4.07-6.95,3.4-13.46,2.12-17.7-1.99-6.6-6.86-12.34-13.03-15.36-9.12-4.46-26.85-4.03-46.27,1.12l-20.27,5.37,14.36-15.28c2.98-3.17,5.28-6.78,7.94-10.94,4.94-7.75,11.09-17.4,24.28-27.21,14.69-10.93,28.57-13.69,39.73-15.91,11.85-2.35,17.18-3.69,19.48-10.58,2.91-8.75,3.01-14.8.31-19.05-3.35-5.28-11.66-8.75-24.71-10.32-16.27-1.95-41.58,5.1-58.87,16.42-26.21,17.15-38,27.57-63.06,55.77-45.51,51.18-128.73,144.36-150.47,168.15l-1.44,1.58c-7.84,8.6-21.93,24.05-37.66,37.75Z"/>
        </g>
        <path d="M673.23,965.18c-2.32,0-4.53-1.36-5.51-3.62-1.31-3.04.09-6.57,3.13-7.89,6.99-3.02,14.14-5.58,21.26-7.62,3.18-.91,6.51.93,7.42,4.12.91,3.19-.93,6.51-4.12,7.42-6.62,1.9-13.29,4.28-19.81,7.1-.77.34-1.58.49-2.38.49Z"/>
        <path d="M718.14,1133.17c-1.44,0-2.87-.51-4.02-1.55-2.46-2.22-2.65-6.02-.43-8.47,13.12-14.51,27.69-24.07,43.29-28.41,3.19-.89,6.5.98,7.39,4.17.89,3.19-.98,6.5-4.17,7.39-13.38,3.72-26.03,12.1-37.6,24.9-1.18,1.31-2.82,1.98-4.45,1.98Z"/>
        <path d="M688.97,1002.63c-2.3,0-4.49-1.33-5.49-3.56-1.35-3.03.02-6.57,3.05-7.92,19.25-8.55,44.44-10.78,74.88-6.63,3.28.45,5.58,3.47,5.13,6.76-.45,3.28-3.47,5.58-6.76,5.13-28.19-3.85-51.2-1.93-68.38,5.7-.79.35-1.62.52-2.43.52Z"/>
        <path d="M703.93,1058.1c-2.26,0-4.42-1.28-5.44-3.46-1.4-3-.11-6.57,2.9-7.98,14.6-6.82,33.61-13.23,63.94-9.09,3.28.45,5.58,3.47,5.13,6.76s-3.48,5.58-6.76,5.13c-27.24-3.72-44.22,1.99-57.24,8.07-.82.38-1.69.57-2.54.57Z"/>
      </g>
      <path d="M308.32,1630.11c-1.91,0-3.79-.91-4.95-2.61-1.87-2.73-1.18-6.47,1.56-8.34l100.77-69.07c2.73-1.88,6.47-1.18,8.34,1.56,1.87,2.73,1.18,6.47-1.56,8.34l-100.77,69.07c-1.04.71-2.22,1.05-3.39,1.05Z"/>
      <path d="M1086.84,1390.67c-15.44,0-31.02-1.99-46.34-5.98-3.21-.83-5.13-4.11-4.3-7.32.83-3.21,4.11-5.13,7.32-4.3,21.12,5.49,53.97,9.72,90.54-1.33,59.11-17.86,84.46-51.09,95.31-75.83,13.07-29.79,10.01-57.58,6.13-92.75-4.71-42.7-17.2-73.06-37.89-123.36-12.51-30.4-26.65-60.6-42.03-89.75-1.55-2.93-.42-6.56,2.51-8.11,2.93-1.55,6.56-.42,8.11,2.51,15.56,29.49,29.86,60.03,42.51,90.79,20.37,49.52,33.83,82.23,38.72,126.61,4.07,36.96,7.29,66.15-7.07,98.89-11.87,27.05-39.34,63.31-102.82,82.49-16.38,4.95-33.46,7.43-50.7,7.43Z"/>
    </g>
    <g id="decor">
      <g>
        <g>
          <path class="cls-11" d="M3646.11,968.68c.11-9.32,7.8-16.8,17.14-16.69,9.32.11,16.82,7.78,16.7,17.1-.11,9.33-7.8,16.81-17.12,16.69-9.34-.11-16.84-7.78-16.72-17.11Z"/>
          <path d="M3663.04,990.79c-.09,0-.18,0-.27,0-5.85-.07-11.33-2.42-15.42-6.61-4.1-4.19-6.31-9.72-6.24-15.57h0c.07-5.84,2.42-11.31,6.62-15.4,4.13-4.02,9.55-6.22,15.3-6.22.09,0,.18,0,.28,0,12.08.15,21.79,10.09,21.64,22.16-.15,11.99-9.95,21.63-21.91,21.63ZM3663.03,956.99c-3.13,0-6.08,1.2-8.33,3.39-2.28,2.22-3.56,5.19-3.6,8.36h0c-.04,3.17,1.17,6.18,3.39,8.45,2.23,2.28,5.21,3.56,8.39,3.6,6.61.09,11.98-5.19,12.06-11.76.08-6.56-5.2-11.96-11.77-12.04-.05,0-.1,0-.15,0Z"/>
        </g>
        <g>
          <path class="cls-11" d="M3643.87,1149.92c.11-9.32,7.8-16.8,17.14-16.69,9.32.11,16.82,7.78,16.7,17.1-.11,9.32-7.8,16.8-17.12,16.69-9.34-.11-16.84-7.78-16.72-17.1Z"/>
          <path d="M3660.81,1172.02c-.09,0-.18,0-.28,0-5.85-.07-11.32-2.42-15.42-6.6-4.1-4.19-6.31-9.72-6.24-15.56h0c.07-5.84,2.42-11.31,6.62-15.4,4.13-4.02,9.55-6.22,15.3-6.22.09,0,.18,0,.28,0,5.84.07,11.31,2.42,15.4,6.61,4.09,4.19,6.31,9.72,6.24,15.56-.07,5.84-2.42,11.31-6.62,15.4-4.13,4.02-9.55,6.23-15.29,6.23ZM3660.8,1138.23c-3.13,0-6.08,1.2-8.33,3.39-2.28,2.22-3.56,5.19-3.6,8.36h0c-.04,3.17,1.16,6.17,3.39,8.45,2.23,2.28,5.21,3.56,8.39,3.6,3.15.01,6.18-1.16,8.46-3.39,2.28-2.22,3.56-5.19,3.6-8.36.04-3.17-1.17-6.17-3.39-8.45-2.23-2.28-5.2-3.56-8.37-3.59-.05,0-.1,0-.15,0Z"/>
        </g>
        <g>
          <path class="cls-11" d="M3641.64,1331.16c.11-9.33,7.8-16.81,17.14-16.69,9.32.11,16.82,7.78,16.7,17.11-.11,9.32-7.8,16.8-17.12,16.69-9.34-.11-16.84-7.78-16.72-17.1Z"/>
          <path d="M3658.58,1353.26c-.09,0-.18,0-.28,0-12.09-.15-21.81-10.09-21.66-22.16h0c.15-12.08,10.13-21.8,22.2-21.63,12.08.15,21.79,10.1,21.64,22.17-.07,5.84-2.42,11.31-6.62,15.4-4.13,4.02-9.55,6.23-15.28,6.23ZM3646.64,1331.22c-.08,6.56,5.21,11.96,11.78,12.04,3.21.06,6.18-1.16,8.46-3.39,2.28-2.22,3.56-5.19,3.6-8.36.08-6.56-5.2-11.97-11.77-12.05-.05,0-.1,0-.15,0-6.51,0-11.85,5.24-11.93,11.76h0Z"/>
        </g>
        <g>
          <path class="cls-11" d="M3466.87,966.47c.11-9.32,7.8-16.8,17.12-16.69,9.32.11,16.82,7.78,16.7,17.1-.11,9.33-7.8,16.81-17.12,16.69-9.32-.11-16.82-7.78-16.7-17.11Z"/>
          <path d="M3483.78,988.58c-.09,0-.18,0-.27,0-12.08-.15-21.79-10.1-21.64-22.17h0c.15-11.98,9.95-21.63,21.91-21.63.09,0,.18,0,.27,0,12.08.15,21.79,10.09,21.64,22.16-.15,11.99-9.95,21.63-21.91,21.63ZM3471.87,966.53c-.08,6.56,5.2,11.97,11.77,12.05,6.56.05,11.98-5.19,12.06-11.76.08-6.56-5.2-11.96-11.77-12.04-6.58-.04-11.98,5.19-12.06,11.75h0Z"/>
        </g>
        <g>
          <path class="cls-11" d="M3464.64,1147.71c.11-9.32,7.8-16.8,17.12-16.69,9.32.11,16.82,7.78,16.7,17.1-.11,9.32-7.8,16.8-17.12,16.69-9.32-.11-16.82-7.78-16.7-17.1Z"/>
          <path d="M3481.55,1169.82c-.09,0-.18,0-.28,0-12.08-.15-21.79-10.09-21.64-22.16.07-5.84,2.42-11.31,6.62-15.4,4.13-4.02,9.55-6.23,15.29-6.23.09,0,.18,0,.28,0,5.84.07,11.31,2.42,15.4,6.61,4.09,4.19,6.31,9.72,6.24,15.56-.07,5.84-2.42,11.31-6.62,15.4-4.13,4.02-9.55,6.23-15.29,6.23ZM3481.54,1136.02c-3.12,0-6.06,1.2-8.31,3.39-2.28,2.22-3.56,5.19-3.6,8.36h0c-.08,6.56,5.2,11.96,11.76,12.04,3.14.01,6.18-1.16,8.46-3.39,2.28-2.22,3.56-5.19,3.6-8.36.04-3.17-1.17-6.17-3.39-8.45-2.23-2.28-5.2-3.56-8.38-3.59-.05,0-.1,0-.15,0Z"/>
        </g>
        <g>
          <path class="cls-11" d="M3462.4,1328.95c.11-9.33,7.8-16.81,17.12-16.69,9.32.11,16.82,7.78,16.7,17.11-.11,9.32-7.8,16.8-17.12,16.69-9.32-.11-16.82-7.78-16.7-17.1Z"/>
          <path d="M3479.32,1351.05c-.09,0-.18,0-.28,0-12.08-.15-21.79-10.09-21.64-22.16h0c.07-5.85,2.42-11.32,6.62-15.41,4.19-4.09,9.75-6.27,15.56-6.23,12.08.15,21.79,10.09,21.64,22.17-.07,5.84-2.42,11.31-6.62,15.4-4.13,4.02-9.55,6.22-15.28,6.22ZM3467.4,1329.01c-.04,3.17,1.17,6.17,3.39,8.45,2.23,2.28,5.2,3.56,8.37,3.59,3.13.06,6.18-1.16,8.46-3.39,2.28-2.22,3.56-5.19,3.6-8.36.08-6.56-5.2-11.97-11.77-12.05-3.18-.05-6.18,1.16-8.46,3.39-2.28,2.22-3.56,5.2-3.6,8.37h0Z"/>
        </g>
        <g>
          <path class="cls-11" d="M3287.33,964.26c.11-9.32,7.8-16.8,17.14-16.69,9.32.11,16.82,7.78,16.7,17.1-.11,9.33-7.8,16.81-17.12,16.69-9.34-.11-16.84-7.78-16.72-17.11Z"/>
          <path d="M3304.27,986.37c-.09,0-.18,0-.28,0-5.85-.07-11.33-2.42-15.42-6.61-4.1-4.19-6.31-9.72-6.24-15.57h0c.07-5.84,2.42-11.31,6.62-15.4,4.2-4.08,9.72-6.31,15.58-6.22,5.84.07,11.31,2.42,15.4,6.61,4.09,4.19,6.31,9.72,6.24,15.56-.07,5.85-2.42,11.32-6.62,15.41-4.13,4.02-9.55,6.23-15.29,6.23ZM3304.26,952.57c-3.13,0-6.08,1.2-8.33,3.39-2.28,2.22-3.56,5.19-3.6,8.36h0c-.04,3.17,1.17,6.18,3.39,8.45,2.23,2.28,5.21,3.56,8.39,3.6,3.18.04,6.18-1.16,8.46-3.39,2.28-2.22,3.56-5.2,3.6-8.37.04-3.17-1.17-6.17-3.39-8.45-2.23-2.28-5.2-3.56-8.37-3.59-.05,0-.1,0-.15,0Z"/>
        </g>
        <g>
          <path class="cls-11" d="M3285.1,1145.5c.11-9.32,7.8-16.8,17.14-16.69,9.32.11,16.82,7.78,16.7,17.1-.11,9.32-7.8,16.8-17.12,16.69-9.34-.11-16.84-7.78-16.72-17.1Z"/>
          <path d="M3302.04,1167.6c-.09,0-.18,0-.27,0-12.09-.15-21.81-10.09-21.66-22.16h0c.15-11.98,9.96-21.63,21.92-21.63.09,0,.18,0,.27,0,12.08.15,21.79,10.09,21.64,22.16-.15,11.98-9.95,21.63-21.91,21.63ZM3290.1,1145.56c-.08,6.56,5.2,11.96,11.78,12.04,6.55.08,11.98-5.19,12.06-11.75.08-6.56-5.2-11.96-11.77-12.04-6.59-.08-12,5.19-12.08,11.75h0Z"/>
        </g>
        <g>
          <path class="cls-11" d="M3282.87,1326.74c.11-9.33,7.8-16.81,17.14-16.69,9.32.11,16.82,7.78,16.7,17.11-.11,9.32-7.8,16.8-17.12,16.69-9.34-.12-16.84-7.78-16.72-17.1Z"/>
          <path d="M3299.8,1348.84c-.09,0-.18,0-.27,0-5.85-.07-11.32-2.42-15.42-6.61-4.1-4.19-6.31-9.72-6.24-15.56.07-5.85,2.42-11.32,6.62-15.41,4.2-4.09,9.76-6.29,15.58-6.22,5.84.07,11.31,2.42,15.41,6.61,4.09,4.19,6.31,9.72,6.24,15.57-.15,11.98-9.95,21.63-21.91,21.63ZM3299.79,1315.04c-3.13,0-6.08,1.2-8.33,3.39-2.28,2.22-3.56,5.19-3.6,8.37h0c-.04,3.17,1.17,6.17,3.39,8.45,2.23,2.28,5.21,3.56,8.39,3.6.05,0,.1,0,.15,0,6.5,0,11.83-5.24,11.91-11.75.04-3.17-1.16-6.18-3.39-8.46-2.23-2.28-5.2-3.56-8.37-3.59-.05,0-.1,0-.15,0Z"/>
        </g>
      </g>
      <g>
        <g>
          <path class="cls-4" d="M1893.12,1364.17h-540.34c-21.67,0-35.21-23.46-24.38-42.22l270.17-467.95,270.17-467.95c10.83-18.77,37.92-18.77,48.75,0l270.17,467.95,270.17,467.95c10.83,18.77-2.71,42.22-24.38,42.22h-540.34Z"/>
          <path d="M2433.46,1369.17h-1080.68c-11.98,0-22.72-6.2-28.71-16.57-5.99-10.38-5.99-22.77,0-33.15l540.34-935.9c5.99-10.38,16.72-16.57,28.71-16.57s22.72,6.2,28.71,16.57l540.34,935.9c5.99,10.38,5.99,22.77,0,33.15-5.99,10.38-16.72,16.57-28.71,16.57ZM1893.12,376.97c-8.37,0-15.86,4.33-20.05,11.57l-540.34,935.9c-4.18,7.25-4.18,15.9,0,23.15,4.18,7.25,11.68,11.57,20.05,11.57h1080.68c8.37,0,15.86-4.33,20.05-11.57,4.18-7.25,4.18-15.9,0-23.15l-540.34-935.9c-4.18-7.25-11.68-11.57-20.05-11.57Z"/>
        </g>
        <g>
          <path class="cls-9" d="M1893.12,1216.23h-359.48c-14.42,0-23.43-15.61-16.22-28.09l179.74-311.32,179.74-311.32c7.21-12.48,25.23-12.48,32.44,0l179.74,311.32,179.74,311.32c7.21,12.48-1.8,28.09-16.22,28.09h-359.48Z"/>
          <path d="M2252.6,1221.23h-718.96c-8.58,0-16.26-4.44-20.55-11.86-4.29-7.43-4.29-16.3,0-23.73l359.48-622.64c4.29-7.43,11.97-11.86,20.55-11.86,0,0,0,0,0,0,8.58,0,16.26,4.43,20.55,11.86l359.48,622.64c4.29,7.43,4.29,16.3,0,23.73-4.29,7.43-11.97,11.86-20.55,11.86ZM1893.12,561.14c-4.96,0-9.41,2.57-11.89,6.86l-359.48,622.64c-2.48,4.3-2.48,9.43,0,13.73,2.48,4.3,6.93,6.86,11.89,6.86h718.96c4.96,0,9.41-2.57,11.89-6.86,2.48-4.3,2.48-9.43,0-13.73l-359.48-622.64c-2.48-4.3-6.92-6.86-11.89-6.86Z"/>
        </g>
        <g>
          <path class="cls-4" d="M1845.89,1139.03c-2.36-29.14,16.45-50.91,42.85-51.72,24.92-.77,45.1,19.54,46.07,44.46,1.07,27.4-16.26,48.91-43.89,49.24-23.64.28-43.13-18.41-45.04-41.97ZM1864.22,1013.53l-9.83-336.92c-.21-7.29,5.64-13.31,12.92-13.31h45.93c7.29,0,13.14,6.02,12.92,13.31l-9.83,336.92c-.2,6.99-5.93,12.55-12.93,12.55h-26.27c-6.99,0-12.72-5.56-12.92-12.55Z"/>
          <path d="M1890.4,1186.01c-25.69,0-47.37-20.35-49.5-46.57h0c-1.29-15.94,3.25-30.59,12.78-41.24,8.78-9.82,21.18-15.46,34.9-15.88,27.16-.84,50.13,21.26,51.22,49.26.61,15.65-4.31,29.8-13.86,39.84-8.91,9.38-21.01,14.42-34.97,14.59-.19,0-.39,0-.58,0ZM1890.08,1092.29c-.39,0-.79,0-1.18.02-10.96.34-20.82,4.79-27.75,12.55-7.69,8.6-11.34,20.59-10.27,33.77h0c1.7,21.05,19.02,37.38,39.53,37.38.15,0,.31,0,.46,0,11.2-.13,20.83-4.1,27.84-11.48,7.67-8.07,11.62-19.63,11.11-32.57-.86-22.12-18.57-39.67-39.74-39.67ZM1903.41,1031.08h-26.27c-9.77,0-17.64-7.65-17.92-17.41l-9.83-336.92c-.14-4.89,1.65-9.51,5.06-13.02,3.41-3.51,7.97-5.44,12.86-5.44h45.93c4.89,0,9.46,1.93,12.86,5.44,3.41,3.51,5.2,8.13,5.06,13.02l-9.83,336.92c-.29,9.76-8.16,17.41-17.92,17.41ZM1869.22,1013.38c.13,4.32,3.61,7.7,7.93,7.7h26.27c4.32,0,7.8-3.38,7.93-7.7l9.83-336.92c.06-2.16-.73-4.21-2.24-5.76-1.51-1.55-3.53-2.41-5.69-2.41h-45.93c-2.16,0-4.18.85-5.69,2.41-1.51,1.55-2.3,3.6-2.24,5.76l9.83,336.92Z"/>
        </g>
      </g>
      <g>
        <g>
          <g>
            <path class="cls-5" d="M1474.99,415.65l-83.67-66.88c-.76-.64-.37-1.89.63-1.97l262.13-24.01c.99-.08,1.58,1.07.95,1.83l-172.88,198.78c-.69.82-2.02.3-1.97-.77l-4.79-106.07c.02-.35-.13-.68-.4-.91Z"/>
            <path d="M1481.29,528.8c-.75,0-1.5-.14-2.22-.42-2.35-.92-3.88-3.17-3.89-5.67l-4.71-104.28-82.36-65.84c-1.9-1.6-2.64-4.17-1.89-6.54.76-2.37,2.85-4.03,5.33-4.23l262.08-24.01c2.51-.2,4.84,1.08,5.98,3.28,1.14,2.19.85,4.84-.73,6.73l-.07.08-172.86,198.75c-1.19,1.39-2.9,2.15-4.65,2.15ZM1480.38,416.47l4.35,96.33,160.16-184.14-242.89,22.25,76.2,60.92c1.37,1.15,2.17,2.87,2.18,4.64ZM1392.48,351.78h-.07s.05,0,.07,0Z"/>
          </g>
          <path d="M1481.29,528.8c-.75,0-1.5-.14-2.22-.42-2.35-.92-3.88-3.17-3.9-5.67l-4.71-104.28-82.36-65.84c-1.9-1.6-2.64-4.17-1.89-6.54.76-2.37,2.85-4.03,5.33-4.23l262.13-24.01c2.47-.2,4.79,1.09,5.93,3.29,1.13,2.19.85,4.83-.73,6.73l-.07.08-172.86,198.75c-1.19,1.39-2.9,2.15-4.65,2.15ZM1480.38,416.47l4.35,96.33,160.16-184.14-242.89,22.25,76.2,60.92c1.37,1.15,2.17,2.87,2.18,4.64ZM1392.48,351.78h-.07s.05,0,.07,0Z"/>
          <path d="M1475.41,421.01c-1.82,0-3.57-.99-4.45-2.72-1.26-2.46-.29-5.47,2.17-6.73l94.59-48.51c2.46-1.26,5.47-.29,6.73,2.17,1.26,2.46.29,5.47-2.17,6.73l-94.59,48.51c-.73.37-1.51.55-2.28.55Z"/>
        </g>
        <path d="M831.9,688.07c-4.28,0-8.62-.07-12.92-.21-2.76-.09-4.92-2.4-4.83-5.16.09-2.76,2.39-4.94,5.16-4.83,8.76.29,17.63.27,26.3-.04,2.74-.09,5.08,2.05,5.18,4.81.1,2.76-2.05,5.08-4.81,5.18-4.65.17-9.39.26-14.08.26ZM792.57,686.08c-.17,0-.34,0-.51-.03-8.86-.9-17.86-2.1-26.73-3.59-2.72-.46-4.56-3.04-4.1-5.76.46-2.72,3.03-4.56,5.76-4.1,8.66,1.45,17.44,2.63,26.08,3.51,2.75.28,4.75,2.73,4.47,5.48-.26,2.58-2.43,4.5-4.97,4.5ZM872.36,685.89c-2.52,0-4.69-1.9-4.96-4.46-.3-2.75,1.68-5.21,4.43-5.51,8.25-.9,16.53-2.1,24.62-3.56l1.37-.25c2.72-.5,5.32,1.3,5.82,4.01.5,2.72-1.3,5.32-4.01,5.82l-1.4.26c-8.32,1.5-16.84,2.74-25.32,3.66-.18.02-.37.03-.55.03ZM740.03,677.28c-.38,0-.76-.04-1.15-.13-8.69-2.04-17.45-4.38-26.04-6.97-2.64-.8-4.14-3.59-3.34-6.23.8-2.64,3.59-4.14,6.23-3.34,8.4,2.53,16.96,4.82,25.44,6.81,2.69.63,4.36,3.32,3.73,6.01-.54,2.3-2.59,3.86-4.86,3.86ZM924.76,676.41c-2.24,0-4.28-1.52-4.85-3.8-.66-2.68.97-5.39,3.65-6.06,8.48-2.1,17.01-4.49,25.36-7.11,2.64-.83,5.44.64,6.27,3.28.83,2.64-.64,5.44-3.28,6.27-8.54,2.68-17.27,5.12-25.94,7.27-.4.1-.81.15-1.21.15ZM689.02,661.91c-.58,0-1.16-.1-1.73-.31-8.39-3.11-16.8-6.51-24.99-10.13-2.53-1.12-3.67-4.07-2.56-6.59,1.12-2.53,4.07-3.67,6.59-2.55,8,3.53,16.22,6.86,24.42,9.9,2.59.96,3.91,3.83,2.95,6.42-.75,2.02-2.66,3.27-4.69,3.27ZM975.6,660.5c-2.02,0-3.91-1.23-4.67-3.22-.98-2.58.31-5.47,2.9-6.45,8.18-3.11,16.36-6.51,24.33-10.1,2.52-1.14,5.48-.01,6.61,2.5s.01,5.48-2.5,6.61c-8.15,3.67-16.52,7.15-24.89,10.33-.59.22-1.19.33-1.78.33ZM640.26,640.39c-.77,0-1.56-.18-2.29-.56-7.98-4.12-15.91-8.54-23.56-13.12-2.37-1.42-3.14-4.49-1.72-6.86,1.42-2.37,4.49-3.14,6.86-1.72,7.48,4.48,15.23,8.79,23.02,12.82,2.45,1.27,3.41,4.28,2.15,6.74-.89,1.72-2.64,2.71-4.45,2.71ZM1024.16,638.6c-1.8,0-3.54-.97-4.43-2.68-1.28-2.44-.34-5.47,2.1-6.75,7.76-4.08,15.48-8.44,22.93-12.96,2.36-1.43,5.44-.68,6.87,1.68,1.43,2.36.68,5.44-1.68,6.87-7.63,4.62-15.52,9.08-23.47,13.26-.74.39-1.54.57-2.32.57ZM594.54,613.01c-.98,0-1.96-.29-2.83-.88-7.43-5.11-14.74-10.5-21.72-16.02-2.17-1.71-2.54-4.86-.82-7.02,1.71-2.17,4.86-2.54,7.02-.82,6.82,5.38,13.95,10.64,21.2,15.63,2.28,1.57,2.85,4.68,1.28,6.95-.97,1.41-2.53,2.17-4.12,2.17ZM1069.7,610.98c-1.58,0-3.14-.75-4.11-2.15-1.58-2.27-1.02-5.38,1.25-6.96,7.22-5.02,14.33-10.31,21.12-15.71,2.16-1.72,5.31-1.36,7.03.8,1.72,2.16,1.36,5.31-.8,7.03-6.96,5.54-14.24,10.96-21.64,16.1-.87.61-1.87.9-2.85.9ZM552.75,579.96c-1.2,0-2.4-.43-3.36-1.3-2.84-2.57-5.66-5.22-8.39-7.86-1.99-1.92-2.04-5.08-.13-7.07,1.92-1.99,5.08-2.04,7.07-.13,2.66,2.57,5.41,5.14,8.17,7.65,2.04,1.86,2.2,5.02.34,7.06-.99,1.09-2.34,1.64-3.7,1.64ZM1111.36,577.79c-1.36,0-2.71-.55-3.69-1.63-1.86-2.04-1.72-5.2.32-7.06,6.52-5.95,12.83-12.14,18.77-18.4,1.9-2,5.07-2.09,7.07-.19,2,1.9,2.09,5.07.19,7.07-6.1,6.43-12.59,12.79-19.28,18.9-.96.88-2.17,1.31-3.37,1.31ZM1147.97,539.12c-1.11,0-2.22-.37-3.15-1.12-2.14-1.74-2.47-4.89-.73-7.03,1.38-1.7,2.74-3.41,4.08-5.14-5.5-.07-10.98-.25-16.34-.54-2.76-.15-4.87-2.51-4.72-5.27.15-2.76,2.5-4.87,5.27-4.72,7.6.42,15.42.6,23.25.54,1.41-1.96,2.78-3.93,4.13-5.9,1.56-2.28,4.67-2.87,6.95-1.32,2.28,1.55,2.87,4.66,1.32,6.95-1.42,2.09-2.89,4.18-4.38,6.27-.3,1.41-1.19,2.61-2.41,3.31-3.01,4.08-6.15,8.13-9.38,12.11-.99,1.22-2.43,1.85-3.88,1.85ZM1185.36,524.57c-2.58,0-4.77-1.99-4.98-4.61-.22-2.75,1.84-5.16,4.59-5.38,8.62-.68,17.43-1.63,26.2-2.84,2.74-.38,5.26,1.54,5.64,4.27.38,2.74-1.54,5.26-4.27,5.64-8.96,1.23-17.97,2.21-26.78,2.9-.13.01-.27.02-.4.02ZM1105.59,522.83c-.22,0-.44-.01-.67-.04-9.09-1.21-18.06-2.79-26.66-4.7-2.7-.6-4.39-3.27-3.79-5.97.6-2.7,3.27-4.39,5.97-3.79,8.32,1.85,17,3.38,25.8,4.55,2.74.36,4.66,2.88,4.3,5.62-.33,2.51-2.48,4.34-4.95,4.34ZM1238.15,517.33c-2.35,0-4.44-1.66-4.9-4.05-.53-2.71,1.24-5.34,3.95-5.86,8.54-1.66,17.21-3.59,25.77-5.73,2.68-.67,5.39.96,6.06,3.64.67,2.68-.96,5.39-3.64,6.06-8.72,2.18-17.57,4.15-26.28,5.84-.32.06-.64.09-.96.09ZM1053.67,511.17c-.52,0-1.04-.08-1.56-.25-8.76-2.88-17.28-6.2-25.32-9.89-2.51-1.15-3.62-4.12-2.47-6.63,1.15-2.51,4.12-3.62,6.63-2.47,7.71,3.53,15.88,6.72,24.28,9.48,2.62.86,4.05,3.69,3.19,6.31-.69,2.11-2.65,3.44-4.75,3.44ZM1289.87,504.41c-2.14,0-4.12-1.39-4.78-3.54-.81-2.64.68-5.44,3.32-6.24,8.37-2.55,16.8-5.36,25.05-8.34,2.6-.94,5.46.41,6.4,3,.94,2.6-.41,5.46-3,6.4-8.41,3.04-17,5.9-25.52,8.5-.49.15-.98.22-1.46.22ZM1177.87,495.09c-.82,0-1.65-.2-2.42-.63-2.42-1.34-3.29-4.38-1.95-6.8,4.28-7.74,8.14-15.63,11.46-23.46,1.08-2.54,4.02-3.73,6.56-2.65,2.54,1.08,3.73,4.02,2.65,6.56-3.46,8.15-7.47,16.35-11.92,24.39-.91,1.65-2.62,2.58-4.38,2.58ZM1005.36,488.94c-.9,0-1.81-.24-2.63-.75-7.82-4.84-15.28-10.2-22.17-15.93-2.12-1.76-2.42-4.92-.65-7.04,1.76-2.13,4.92-2.42,7.04-.65,6.54,5.43,13.63,10.52,21.05,15.12,2.35,1.45,3.07,4.54,1.62,6.88-.95,1.53-2.58,2.37-4.25,2.37ZM1339.98,486.3c-1.95,0-3.81-1.15-4.61-3.07-1.07-2.55.13-5.48,2.68-6.55,8.11-3.4,16.2-7.05,24.06-10.83,2.49-1.2,5.48-.15,6.67,2.34,1.2,2.49.15,5.48-2.33,6.67-8.01,3.86-16.26,7.57-24.53,11.04-.63.27-1.29.39-1.93.39ZM1387.96,463.18c-1.77,0-3.48-.94-4.39-2.59-1.33-2.42-.44-5.46,1.98-6.79,7.74-4.25,15.39-8.73,22.74-13.32,2.34-1.46,5.43-.75,6.89,1.59,1.46,2.34.75,5.43-1.59,6.89-7.5,4.68-15.32,9.26-23.22,13.6-.76.42-1.59.62-2.4.62ZM964.58,454.97c-1.37,0-2.74-.56-3.72-1.66-6.06-6.76-11.68-14.04-16.7-21.65-1.52-2.31-.88-5.41,1.42-6.93,2.31-1.52,5.41-.88,6.93,1.42,4.75,7.2,10.06,14.09,15.8,20.48,1.84,2.06,1.67,5.22-.38,7.06-.96.86-2.15,1.28-3.34,1.28ZM1198.57,446.11c-.47,0-.94-.07-1.41-.2-2.65-.78-4.17-3.56-3.39-6.21,2.48-8.44,4.4-16.96,5.71-25.33.43-2.73,2.99-4.59,5.71-4.17,2.73.43,4.59,2.98,4.17,5.71-1.38,8.79-3.39,17.74-5.99,26.6-.64,2.18-2.63,3.59-4.79,3.59ZM935.31,410.7c-1.88,0-3.67-1.06-4.53-2.87-3.8-8.06-7.16-16.59-9.97-25.37-.84-2.63.6-5.44,3.23-6.29,2.63-.84,5.44.61,6.29,3.23,2.68,8.37,5.88,16.5,9.49,24.16,1.18,2.5.11,5.48-2.39,6.66-.69.33-1.42.48-2.13.48ZM1206.66,393.64s-.04,0-.06,0c-2.76-.03-4.97-2.29-4.94-5.06,0-.64.01-1.27.01-1.91,0-8.03-.58-16.06-1.71-23.88-.4-2.73,1.5-5.27,4.23-5.67,2.73-.39,5.27,1.5,5.67,4.23,1.2,8.29,1.81,16.8,1.81,25.31,0,.67,0,1.35-.01,2.02-.03,2.74-2.26,4.94-5,4.94ZM920.59,359.85c-2.67,0-4.88-2.1-4.99-4.79-.06-1.32-.08-2.67-.08-3.99,0-7.89.99-15.9,2.95-23.81.66-2.68,3.38-4.32,6.05-3.65,2.68.66,4.32,3.37,3.65,6.05-1.76,7.13-2.66,14.33-2.66,21.41,0,1.19.03,2.39.08,3.57.12,2.76-2.03,5.09-4.79,5.21-.07,0-.14,0-.21,0ZM1199,341.13c-2.13,0-4.1-1.37-4.77-3.51-2.55-8.14-5.8-16.2-9.65-23.97-1.23-2.47-.21-5.47,2.26-6.7,2.47-1.23,5.47-.21,6.7,2.26,4.08,8.24,7.52,16.79,10.23,25.42.83,2.64-.64,5.44-3.28,6.27-.5.16-1,.23-1.5.23ZM932.88,308.67c-.79,0-1.59-.19-2.34-.58-2.44-1.29-3.37-4.32-2.08-6.76,4.2-7.93,9.39-15.64,15.43-22.92,1.76-2.13,4.91-2.42,7.04-.66,2.12,1.76,2.42,4.91.66,7.04-5.6,6.75-10.41,13.89-14.29,21.21-.9,1.69-2.63,2.66-4.42,2.66ZM1175.52,293.51c-1.59,0-3.15-.75-4.12-2.15-3.06-4.42-6.4-8.83-9.92-13.1-2.02-2.45-4.12-4.84-6.25-7.12-1.89-2.02-1.78-5.18.24-7.07,2.02-1.88,5.18-1.78,7.07.24,2.27,2.43,4.51,4.98,6.66,7.59,3.7,4.48,7.2,9.12,10.43,13.77,1.57,2.27,1,5.39-1.27,6.96-.87.6-1.86.89-2.84.89ZM966.53,267.75c-1.42,0-2.84-.61-3.83-1.78-1.78-2.11-1.51-5.27.61-7.04,6.95-5.85,14.49-11.18,22.41-15.85,2.38-1.4,5.44-.61,6.85,1.77,1.4,2.38.61,5.44-1.77,6.85-7.44,4.39-14.53,9.4-21.06,14.89-.94.79-2.08,1.17-3.22,1.17ZM1139.01,255.04c-1.02,0-2.06-.31-2.95-.96-6.97-5.09-14.39-9.41-22.07-12.85-2.52-1.13-3.65-4.09-2.52-6.61,1.13-2.52,4.09-3.65,6.61-2.52,8.32,3.73,16.36,8.4,23.89,13.91,2.23,1.63,2.72,4.76,1.09,6.99-.98,1.34-2.5,2.05-4.04,2.05ZM1012.23,240.8c-2.01,0-3.9-1.22-4.67-3.21-.99-2.58.3-5.47,2.87-6.46,8.64-3.32,17.53-5.88,26.41-7.61,2.71-.53,5.34,1.24,5.86,3.95.53,2.71-1.24,5.34-3.95,5.86-8.31,1.62-16.63,4.02-24.73,7.13-.59.23-1.2.33-1.79.33ZM1090.74,233.47c-.34,0-.68-.03-1.02-.11-8.16-1.7-16.63-2.56-25.18-2.56h-.26c-2.76,0-5-2.24-5-5s2.24-5,5-5h.24c9.25,0,18.41.93,27.24,2.77,2.7.56,4.44,3.21,3.88,5.91-.49,2.36-2.57,3.98-4.89,3.98Z"/>
      </g>
      <path class="cls-11" d="M1920.59,1985.51c-8.78,0-17.64-.85-26.34-2.52-2.71-.52-4.49-3.14-3.97-5.85.52-2.71,3.14-4.49,5.85-3.97,8.07,1.55,16.3,2.34,24.45,2.34h.55s.02,0,.03,0c2.75,0,4.99,2.22,5,4.97.01,2.76-2.21,5.01-4.97,5.03h-.6ZM1947.1,1982.79c-2.32,0-4.39-1.62-4.89-3.97-.57-2.7,1.16-5.35,3.87-5.92,8.26-1.73,16.25-4.33,23.76-7.71,2.52-1.13,5.48-.01,6.61,2.5,1.13,2.52.01,5.48-2.5,6.61-8.17,3.68-16.85,6.5-25.82,8.38-.35.07-.69.11-1.03.11ZM1870.17,1975.73c-.62,0-1.25-.12-1.86-.36-8.4-3.38-16.48-7.58-24.01-12.49-2.31-1.51-2.97-4.61-1.46-6.92,1.51-2.31,4.6-2.97,6.92-1.46,6.98,4.55,14.48,8.45,22.28,11.58,2.56,1.03,3.8,3.94,2.78,6.5-.78,1.95-2.66,3.14-4.64,3.14ZM1994.28,1961.4c-1.5,0-2.99-.67-3.97-1.96-1.68-2.19-1.26-5.33.93-7.01,6.58-5.04,12.59-10.87,17.84-17.34,1.74-2.14,4.89-2.46,7.03-.72,2.14,1.74,2.47,4.89.72,7.03-5.75,7.07-12.32,13.45-19.52,18.97-.91.69-1.98,1.03-3.04,1.03ZM1826.71,1947.34c-1.27,0-2.54-.48-3.51-1.44-6.42-6.33-12.23-13.34-17.27-20.85-1.54-2.29-.93-5.4,1.36-6.94,2.29-1.54,5.4-.93,6.94,1.36,4.67,6.95,10.05,13.45,15.99,19.3,1.97,1.94,1.99,5.1.05,7.07-.98.99-2.27,1.49-3.56,1.49ZM2027.02,1921.31c-.75,0-1.5-.17-2.22-.52-2.47-1.23-3.48-4.23-2.26-6.7,3.61-7.29,6.59-15.19,8.83-23.48.72-2.67,3.47-4.24,6.13-3.52,2.67.72,4.24,3.47,3.52,6.13-2.42,8.92-5.62,17.44-9.53,25.31-.87,1.76-2.64,2.78-4.48,2.78ZM1797.74,1904.3c-1.96,0-3.81-1.15-4.61-3.07-3.41-8.14-6.14-16.8-8.11-25.72-.6-2.7,1.11-5.37,3.8-5.96,2.7-.59,5.37,1.11,5.96,3.8,1.84,8.34,4.39,16.42,7.57,24.02,1.07,2.55-.13,5.48-2.68,6.54-.63.26-1.28.39-1.93.39ZM2040.87,1871.27c-.17,0-.34,0-.51-.03-2.75-.28-4.75-2.73-4.47-5.48.53-5.23.83-10.68.9-16.19,0-.44,0-.89,0-1.33,0-2.54-.09-5.13-.27-7.71-.19-2.75,1.89-5.14,4.65-5.33,2.75-.17,5.14,1.89,5.33,4.65.19,2.81.29,5.63.29,8.4,0,.49,0,.97,0,1.45-.07,5.8-.39,11.54-.95,17.07-.26,2.58-2.43,4.5-4.97,4.5ZM1785.98,1853.62c-2.56,0-4.74-1.95-4.97-4.54-.68-7.44-1.03-15.15-1.03-22.92,0-1.23,0-2.46.02-3.7.04-2.76,2.34-4.97,5.07-4.93,2.76.04,4.97,2.31,4.93,5.07-.02,1.19-.02,2.38-.02,3.56,0,7.47.33,14.87.98,22.01.25,2.75-1.77,5.18-4.52,5.43-.15.01-.31.02-.46.02ZM2037.03,1819.51c-2.19,0-4.2-1.45-4.81-3.66-2.22-7.93-5.24-15.85-8.98-23.53-1.21-2.48-.17-5.48,2.31-6.68,2.49-1.21,5.48-.18,6.68,2.31,4,8.22,7.24,16.7,9.61,25.22.74,2.66-.81,5.42-3.47,6.16-.45.13-.9.19-1.35.19ZM1786.6,1801.46c-.18,0-.35,0-.53-.03-2.75-.29-4.74-2.75-4.44-5.5.91-8.6,2.22-17.43,3.89-26.24.51-2.71,3.13-4.49,5.84-3.98,2.71.51,4.5,3.13,3.98,5.84-1.62,8.54-2.89,17.1-3.77,25.43-.27,2.57-2.44,4.47-4.97,4.47ZM2014.41,1772.71c-1.57,0-3.11-.73-4.08-2.11-4.83-6.8-10.28-13.35-16.21-19.46-1.92-1.98-1.87-5.15.11-7.07,1.98-1.92,5.15-1.88,7.07.11,6.29,6.48,12.07,13.42,17.19,20.64,1.6,2.25,1.07,5.37-1.18,6.97-.88.62-1.89.92-2.89.92ZM1796.25,1750.17c-.43,0-.86-.05-1.29-.17-2.67-.71-4.25-3.45-3.54-6.12,2.24-8.37,4.83-16.88,7.7-25.31.89-2.61,3.73-4.01,6.35-3.12,2.61.89,4.01,3.73,3.12,6.35-2.8,8.21-5.33,16.51-7.51,24.66-.6,2.23-2.62,3.71-4.83,3.71ZM1656.36,1741.76c-1.83,0-3.59-1-4.47-2.74-1.25-2.46-.26-5.47,2.21-6.72,7.93-4.01,15.93-7.84,23.76-11.37,2.52-1.14,5.48-.01,6.61,2.5,1.13,2.52.01,5.48-2.5,6.61-7.7,3.47-15.56,7.23-23.36,11.18-.72.37-1.49.54-2.25.54ZM1978.23,1735.29c-1.07,0-2.14-.34-3.05-1.04-6.63-5.11-13.75-9.85-21.15-14.09-2.4-1.37-3.23-4.43-1.85-6.82,1.37-2.4,4.43-3.23,6.82-1.85,7.8,4.47,15.29,9.46,22.28,14.85,2.19,1.69,2.59,4.83.91,7.01-.99,1.28-2.47,1.95-3.96,1.95ZM1703.98,1720.33c-2,0-3.88-1.2-4.66-3.17-1.01-2.57.26-5.47,2.83-6.48,8.29-3.26,16.64-6.28,24.81-8.99,2.62-.86,5.45.55,6.32,3.18.87,2.62-.55,5.45-3.18,6.32-8,2.65-16.17,5.61-24.3,8.8-.6.24-1.22.35-1.83.35ZM1933.08,1709.35c-.64,0-1.28-.12-1.91-.38-7.74-3.2-15.85-5.98-24.11-8.29-2.66-.74-4.22-3.5-3.47-6.16.74-2.66,3.5-4.21,6.16-3.47,8.65,2.41,17.14,5.33,25.25,8.68,2.55,1.05,3.77,3.98,2.71,6.53-.8,1.93-2.66,3.09-4.62,3.09ZM1753.56,1703.97c-2.21,0-4.24-1.48-4.83-3.72-.71-2.67.88-5.41,3.55-6.11,8.64-2.29,17.31-4.28,25.78-5.92,2.71-.53,5.33,1.25,5.86,3.96.53,2.71-1.25,5.34-3.96,5.86-8.25,1.6-16.7,3.54-25.12,5.77-.43.11-.86.17-1.28.17ZM1813.05,1700.74c-.63,0-1.28-.12-1.9-.38-2.55-1.05-3.77-3.97-2.72-6.53.02-.04.03-.08.05-.12-1.03.11-2.06.23-3.08.35-2.74.33-5.23-1.64-5.55-4.38-.32-2.74,1.64-5.23,4.38-5.55,2.91-.34,5.83-.64,8.73-.91,2-4.52,4.08-9.03,6.24-13.5,1.2-2.49,4.19-3.53,6.67-2.34,2.49,1.2,3.53,4.19,2.34,6.67-1.33,2.77-2.64,5.56-3.92,8.35,2.14-.12,4.27-.21,6.39-.28,2.75-.09,5.07,2.07,5.16,4.83.09,2.76-2.07,5.07-4.83,5.16-3.72.12-7.48.32-11.27.59-.7,1.65-1.39,3.29-2.07,4.93-.79,1.93-2.66,3.1-4.62,3.1ZM1882.91,1695.29c-.27,0-.54-.02-.81-.07-8.26-1.34-16.82-2.28-25.44-2.79-2.76-.16-4.86-2.53-4.7-5.29.16-2.76,2.52-4.86,5.29-4.7,8.96.53,17.86,1.51,26.45,2.9,2.73.44,4.58,3.01,4.14,5.74-.4,2.45-2.52,4.2-4.93,4.2ZM1835.68,1653.68c-.82,0-1.64-.2-2.41-.62-2.42-1.33-3.3-4.37-1.97-6.79,4.18-7.6,8.66-15.26,13.32-22.77,1.45-2.35,4.54-3.07,6.88-1.62,2.35,1.45,3.07,4.54,1.62,6.88-4.57,7.37-8.96,14.88-13.06,22.32-.91,1.65-2.62,2.59-4.38,2.59ZM1863.17,1609.28c-.98,0-1.97-.29-2.83-.88-2.27-1.57-2.84-4.68-1.28-6.96,4.93-7.15,10.14-14.33,15.47-21.33,1.67-2.2,4.81-2.62,7.01-.95,2.2,1.67,2.62,4.81.95,7.01-5.24,6.88-10.35,13.93-15.2,20.95-.97,1.41-2.53,2.16-4.12,2.16ZM1894.79,1567.72c-1.13,0-2.27-.38-3.2-1.16-2.12-1.77-2.4-4.92-.63-7.04,5.57-6.67,11.4-13.34,17.32-19.84,1.86-2.04,5.02-2.19,7.06-.33s2.19,5.02.33,7.06c-5.82,6.39-11.55,12.96-17.03,19.51-.99,1.18-2.41,1.79-3.84,1.79ZM1929.97,1529.11c-1.27,0-2.54-.48-3.52-1.45-1.96-1.94-1.98-5.11-.03-7.07,6.1-6.16,12.46-12.32,18.9-18.32,2.02-1.88,5.18-1.77,7.07.25,1.88,2.02,1.77,5.19-.25,7.07-6.35,5.91-12.61,11.97-18.61,18.03-.98.99-2.26,1.48-3.55,1.48ZM1968.19,1493.52c-1.41,0-2.8-.59-3.79-1.74-1.8-2.09-1.56-5.25.53-7.05,6.59-5.66,13.41-11.31,20.27-16.77,2.16-1.72,5.31-1.36,7.03.8,1.72,2.16,1.36,5.31-.8,7.03-6.76,5.38-13.49,10.95-19.98,16.53-.94.81-2.1,1.21-3.26,1.21ZM2009.05,1460.98c-1.53,0-3.05-.7-4.03-2.03-1.64-2.22-1.17-5.35,1.05-6.99,6.99-5.16,14.21-10.28,21.44-15.23,2.28-1.56,5.39-.98,6.95,1.3,1.56,2.28.97,5.39-1.3,6.95-7.13,4.88-14.25,9.93-21.15,15.02-.89.66-1.93.98-2.96.98ZM2052.15,1431.49c-1.66,0-3.28-.82-4.23-2.32-1.48-2.33-.79-5.42,1.55-6.9,7.34-4.65,14.89-9.26,22.43-13.7,2.38-1.4,5.44-.61,6.84,1.78,1.4,2.38.61,5.44-1.78,6.84-7.45,4.38-14.9,8.93-22.15,13.53-.83.53-1.76.78-2.67.78Z"/>
      <g>
        <path class="cls-7" d="M3526.88,1633h170.09v-170.09c-56.7,56.7-113.39,113.39-170.09,170.09Z"/>
        <path d="M3701.97,1638h-187.16l187.16-187.16v187.16ZM3538.95,1628h153.02v-153.02l-153.02,153.02Z"/>
      </g>
      <g>
        <path class="cls-4" d="M2372.38,966.61l131.32-133.5-121.26-119.28-10.06,252.78Z"/>
        <path d="M2366.87,979.35l11.03-277,132.87,130.71-143.9,146.29ZM2386.99,725.32l-9.1,228.56,118.74-120.71-109.64-107.85Z"/>
      </g>
      <g>
        <path class="cls-1" d="M596.31,214.41l-54.47,161.13,161.13,54.47c-35.55-71.87-71.11-143.74-106.66-215.6Z"/>
        <path d="M712.81,438.62l-177.31-59.94,59.94-177.31,117.37,237.24ZM548.18,372.41l144.96,49-95.96-193.96-49,144.96Z"/>
      </g>
      <path d="M3511.97,2527.88H555.97c-11.05,0-20-8.95-20-20s8.95-20,20-20h2956c11.05,0,20,8.95,20,20s-8.95,20-20,20Z"/>
    </g>
  </g>
</svg>