<?xml version="1.0" encoding="UTF-8"?>
<svg xmlns="http://www.w3.org/2000/svg" viewBox="0 0 437.15 419">
  <defs>
    <style>
      .cls-1, .cls-2 {
        fill: #d8d9da;
      }

      .cls-3 {
        fill: #e3fbff;
      }

      .cls-3, .cls-2, .cls-4, .cls-5, .cls-6 {
        mix-blend-mode: multiply;
      }

      .cls-7 {
        fill: #dbeced;
      }

      .cls-8 {
        stroke: #439dff;
        stroke-linecap: round;
        stroke-linejoin: round;
        stroke-width: 1.5px;
      }

      .cls-8, .cls-9, .cls-10, .cls-11, .cls-12 {
        fill: none;
      }

      .cls-13 {
        fill: #69a8d9;
      }

      .cls-14 {
        fill: #fff;
      }

      .cls-15 {
        fill: #9fd8ff;
      }

      .cls-9, .cls-10, .cls-11, .cls-12 {
        stroke-miterlimit: 10;
      }

      .cls-9, .cls-12 {
        stroke: #fff;
      }

      .cls-10, .cls-11 {
        stroke: #7dc1ff;
      }

      .cls-16 {
        fill: #b0b1b3;
      }

      .cls-2 {
        opacity: .5;
      }

      .cls-17 {
        fill: #ffd524;
      }

      .cls-18 {
        fill: #f5f6f6;
      }

      .cls-19 {
        fill: #a4ddea;
      }

      .cls-11 {
        stroke-dasharray: 6.19 6.19;
      }

      .cls-20 {
        fill: #0064cd;
      }

      .cls-21 {
        isolation: isolate;
      }

      .cls-22 {
        fill: #eefbff;
      }

      .cls-23 {
        fill: #58595a;
      }

      .cls-4 {
        fill: #defbff;
      }

      .cls-24 {
        fill: #ececed;
      }

      .cls-25 {
        fill: #c66454;
      }

      .cls-26 {
        fill: #9b9c9e;
      }

      .cls-12 {
        stroke-width: 2px;
      }

      .cls-27 {
        fill: #d96f57;
      }

      .cls-28 {
        fill: #dc931a;
      }

      .cls-5 {
        fill: #d9e5ed;
      }

      .cls-29 {
        fill: #d7e9f9;
      }

      .cls-30 {
        fill: #7dc1ff;
      }

      .cls-31 {
        fill: #ca5227;
      }

      .cls-6, .cls-32 {
        fill: #c5c5c7;
      }
    </style>
  </defs>
  <g class="cls-21">
    <g id="Layer_2">
      <g id="OBJECTS">
        <g>
          <g>
            <line class="cls-10" x1="251.57" y1="228.7" x2="254.2" y2="227.25"/>
            <line class="cls-11" x1="259.61" y1="224.25" x2="419.28" y2="135.78"/>
            <line class="cls-10" x1="421.99" y1="134.28" x2="424.61" y2="132.83"/>
          </g>
          <g>
            <line class="cls-10" x1="248.74" y1="224.52" x2="251.07" y2="222.62"/>
            <line class="cls-11" x1="255.87" y1="218.72" x2="397.41" y2="103.45"/>
            <line class="cls-10" x1="399.81" y1="101.49" x2="402.14" y2="99.6"/>
          </g>
          <g>
            <line class="cls-10" x1="245.22" y1="220.9" x2="247.17" y2="218.63"/>
            <line class="cls-11" x1="251.21" y1="213.93" x2="370.17" y2="75.48"/>
            <line class="cls-10" x1="372.19" y1="73.13" x2="374.15" y2="70.86"/>
          </g>
          <g>
            <line class="cls-10" x1="241.11" y1="217.96" x2="242.63" y2="215.38"/>
            <line class="cls-11" x1="245.77" y1="210.05" x2="338.43" y2="52.77"/>
            <line class="cls-10" x1="340" y1="50.1" x2="341.52" y2="47.51"/>
          </g>
          <g>
            <line class="cls-10" x1="236.55" y1="215.8" x2="237.59" y2="212.98"/>
            <line class="cls-11" x1="239.74" y1="207.18" x2="303.17" y2="36.01"/>
            <line class="cls-10" x1="304.24" y1="33.11" x2="305.29" y2="30.3"/>
          </g>
          <g>
            <line class="cls-10" x1="231.68" y1="214.47" x2="232.2" y2="211.52"/>
            <line class="cls-11" x1="233.3" y1="205.43" x2="265.51" y2="25.75"/>
            <line class="cls-10" x1="266.05" y1="22.7" x2="266.58" y2="19.75"/>
          </g>
          <g>
            <line class="cls-10" x1="226.64" y1="214.02" x2="226.64" y2="211.02"/>
            <line class="cls-11" x1="226.64" y1="204.84" x2="226.62" y2="22.29"/>
            <line class="cls-10" x1="226.62" y1="19.2" x2="226.62" y2="16.2"/>
          </g>
          <g>
            <line class="cls-10" x1="221.61" y1="214.47" x2="221.08" y2="211.52"/>
            <line class="cls-11" x1="219.99" y1="205.43" x2="187.74" y2="25.76"/>
            <line class="cls-10" x1="187.19" y1="22.71" x2="186.66" y2="19.76"/>
          </g>
          <g>
            <line class="cls-10" x1="216.74" y1="215.81" x2="215.7" y2="212.99"/>
            <line class="cls-11" x1="213.55" y1="207.19" x2="150.08" y2="36.04"/>
            <line class="cls-10" x1="149.01" y1="33.13" x2="147.96" y2="30.32"/>
          </g>
          <g>
            <line class="cls-10" x1="212.18" y1="217.98" x2="210.66" y2="215.39"/>
            <line class="cls-11" x1="207.52" y1="210.06" x2="114.83" y2="52.8"/>
            <line class="cls-10" x1="113.26" y1="50.13" x2="111.73" y2="47.55"/>
          </g>
          <g>
            <line class="cls-10" x1="208.08" y1="220.92" x2="206.12" y2="218.64"/>
            <line class="cls-11" x1="202.09" y1="213.95" x2="83.09" y2="75.53"/>
            <line class="cls-10" x1="81.07" y1="73.18" x2="79.11" y2="70.9"/>
          </g>
          <g>
            <line class="cls-10" x1="204.55" y1="224.54" x2="202.23" y2="222.64"/>
            <line class="cls-11" x1="197.43" y1="218.74" x2="55.86" y2="103.5"/>
            <line class="cls-10" x1="53.46" y1="101.54" x2="51.13" y2="99.65"/>
          </g>
          <g>
            <line class="cls-10" x1="201.73" y1="228.72" x2="199.1" y2="227.27"/>
            <line class="cls-11" x1="193.69" y1="224.27" x2="34" y2="135.84"/>
            <line class="cls-10" x1="31.29" y1="134.34" x2="28.67" y2="132.89"/>
          </g>
        </g>
        <g>
          <rect class="cls-23" x="113.17" y="234.87" width="226.97" height="151.6" rx="7.71" ry="7.71"/>
          <rect class="cls-24" x="119.97" y="241.67" width="213.37" height="117.02"/>
          <rect class="cls-16" x="134.36" y="263.01" width="59.29" height="5.5"/>
          <rect class="cls-16" x="134.36" y="273.02" width="45.71" height="5.5"/>
          <rect class="cls-19" x="119.97" y="241.67" width="213.37" height="11.94"/>
          <path class="cls-24" d="M113.17,367.33v11.43c0,4.26,3.45,7.71,7.71,7.71h211.55c4.26,0,7.71-3.45,7.71-7.71v-11.43H113.17Z"/>
          <circle class="cls-31" cx="127.33" cy="247.64" r="3.2"/>
          <circle class="cls-28" cx="137.16" cy="247.64" r="3.2"/>
          <polygon class="cls-32" points="254.55 408.37 198.77 408.37 203.7 386.47 249.61 386.47 254.55 408.37"/>
          <rect class="cls-24" x="172.78" y="408.37" width="107.75" height="2.81"/>
          <polygon class="cls-26" points="203.7 386.47 254.52 408.23 249.61 386.47 203.7 386.47"/>
          <g>
            <g>
              <path class="cls-14" d="M290.79,297.61h-47.36c-.59,0-1.07.43-1.07.96v33.73c0,.53.48.96,1.07.96h47.36c.59,0,1.07-.43,1.07-.96v-33.73c0-.53-.48-.96-1.07-.96Z"/>
              <rect class="cls-13" x="244.21" y="299.92" width="45.81" height="31.4"/>
              <polygon class="cls-15" points="244.21 331.32 254.62 315.75 265.03 331.32 244.21 331.32"/>
              <polygon class="cls-15" points="260.99 331.32 275.53 306.13 290.08 331.32 260.99 331.32"/>
              <path class="cls-7" d="M254.08,306.76c0,1.67-1.35,3.03-3.03,3.03s-3.03-1.35-3.03-3.03,1.35-3.03,3.03-3.03,3.03,1.35,3.03,3.03Z"/>
            </g>
            <g>
              <path class="cls-14" d="M175.39,314.34h-40.16c-.5,0-.91.36-.91.81v28.6c0,.45.41.81.91.81h40.16c.5,0,.91-.36.91-.81v-28.6c0-.45-.41-.81-.91-.81Z"/>
              <rect class="cls-13" x="135.89" y="316.3" width="38.84" height="26.62"/>
              <polygon class="cls-14" points="150.87 324.22 160.21 329.62 150.87 335.01 150.87 324.22"/>
            </g>
            <g>
              <rect class="cls-16" x="134.53" y="285.51" width="91.8" height="2.96"/>
              <rect class="cls-16" x="134.53" y="291.17" width="82.22" height="2.96"/>
              <rect class="cls-16" x="134.53" y="296.82" width="73.47" height="2.96"/>
              <rect class="cls-16" x="134.53" y="302.64" width="91.8" height="2.96"/>
              <rect class="cls-16" x="134.53" y="308.29" width="86.49" height="2.96"/>
              <rect class="cls-16" x="181.24" y="313.95" width="36.77" height="2.96"/>
              <rect class="cls-16" x="181.24" y="319.66" width="42.51" height="2.96"/>
              <rect class="cls-16" x="295.69" y="297.22" width="31.78" height="2.96"/>
              <rect class="cls-16" x="295.69" y="302.88" width="28.46" height="2.96"/>
              <rect class="cls-16" x="295.69" y="308.53" width="25.43" height="2.96"/>
              <rect class="cls-16" x="295.69" y="314.34" width="31.78" height="2.96"/>
              <rect class="cls-16" x="295.69" y="320" width="29.94" height="2.96"/>
              <rect class="cls-16" x="295.69" y="325.65" width="26.71" height="2.96"/>
              <rect class="cls-16" x="295.69" y="331.37" width="30.88" height="2.96"/>
              <rect class="cls-16" x="181.24" y="336.78" width="35.01" height="2.96"/>
              <rect class="cls-16" x="181.24" y="342.44" width="42.14" height="2.96"/>
              <rect class="cls-16" x="134.53" y="348.09" width="82.22" height="2.96"/>
              <rect class="cls-16" x="241.88" y="285.51" width="59.2" height="2.96"/>
              <rect class="cls-16" x="241.88" y="349.08" width="59.2" height="2.96"/>
              <rect class="cls-16" x="241.88" y="291.17" width="76.65" height="2.96"/>
              <rect class="cls-16" x="241.88" y="285.51" width="76.65" height="2.96"/>
              <rect class="cls-16" x="241.88" y="279.51" width="57.15" height="2.96"/>
              <rect class="cls-16" x="241.88" y="273.86" width="64.28" height="2.96"/>
              <rect class="cls-16" x="241.88" y="337.32" width="85.59" height="2.96"/>
              <rect class="cls-16" x="241.88" y="343.13" width="85.59" height="2.96"/>
            </g>
          </g>
          <path class="cls-5" d="M332.43,234.87H120.88c-2.78,0-5.22,1.48-6.57,3.69l225.83,123.86v-119.84c0-4.26-3.45-7.71-7.71-7.71Z"/>
        </g>
        <path class="cls-6" d="M256.96,234.87v9.88c0,9.44-7.68,17.12-17.12,17.12s-17.12-7.68-17.12-17.12v-9.88h-23.51v9.88c0,22.41,18.23,40.63,40.63,40.63s40.63-18.23,40.63-40.63v-9.88h-23.51Z"/>
        <g>
          <g>
            <path class="cls-27" d="M242.96,216.75c0,9.44-7.68,17.12-17.12,17.12s-17.12-7.68-17.12-17.12v-31.97h-23.51v31.97c0,22.41,18.23,40.63,40.63,40.63s40.63-18.23,40.63-40.63v-31.97h-23.51v31.97Z"/>
            <g>
              <rect class="cls-18" x="185.21" y="165.46" width="23.51" height="19.32"/>
              <rect class="cls-18" x="242.96" y="165.46" width="23.51" height="19.32"/>
            </g>
            <path class="cls-25" d="M242.96,216.75c0,9.44-7.68,17.12-17.12,17.12s-17.12-7.68-17.12-17.12v-31.97h-11.76v31.97c0,15.92,12.95,28.88,28.88,28.88s28.88-12.95,28.88-28.88v-31.97h-11.76v31.97Z"/>
            <rect class="cls-1" x="242.96" y="165.46" width="11.76" height="19.32"/>
            <rect class="cls-1" x="196.96" y="165.46" width="11.76" height="19.32"/>
          </g>
          <polygon class="cls-17" points="246.62 140.99 263.51 115.08 259.24 133.95 268.67 133.95 251.46 161.18 254.95 141.07 246.62 140.99"/>
          <polygon class="cls-17" points="206.69 140.99 189.8 115.08 194.07 133.95 184.65 133.95 201.85 161.18 198.36 141.07 206.69 140.99"/>
        </g>
        <g>
          <circle class="cls-9" cx="387.21" cy="250.69" r="25.35" transform="translate(-63.86 347.23) rotate(-45)"/>
          <g>
            <rect class="cls-14" x="373.66" y="247.51" width="7" height="15" rx=".71" ry=".71"/>
            <path class="cls-14" d="M400.36,251.92c0-.83-.29-1.55-.72-1.89.56-.32.96-1.65.96-2.69,0-1.32-.64-2.82-1.42-2.82h-.38l-7.58.53s.87-1.46,1.04-2.39.48-4.69-.29-6.41c-.77-1.72-4.31-1.49-4.31,1.14v1.72c0,1.1-1.45,2.89-2.35,3.72-.54.42-2.65,4.22-2.65,5.73v11.73c0,.62,1.65,1.23.88,1.23h14.48c.7,0,1.27-1.17,1.27-2.22,0-.68-.23-1.42-.59-1.76.72,0,1.3-.9,1.3-1.92,0-.66-.25-1.28-.62-1.6.56-.24.97-1.1.97-2.08ZM398.38,253.75v-.02s0,0,.01.01c0,0,0,0-.01,0Z"/>
          </g>
        </g>
        <g>
          <line class="cls-12" x1="37.78" y1="275.39" x2="67.54" y2="260.27"/>
          <g>
            <circle class="cls-14" cx="67.54" cy="260.27" r="7.73"/>
            <path class="cls-8" d="M67.54,254.91c2.96,0,5.36,2.4,5.36,5.36"/>
          </g>
          <line class="cls-12" x1="37.78" y1="275.64" x2="67.54" y2="290.76"/>
          <g>
            <circle class="cls-14" cx="67.54" cy="290.76" r="7.73"/>
            <path class="cls-8" d="M72.89,290.76c0-2.96-2.4-5.36-5.36-5.36"/>
          </g>
          <g>
            <circle class="cls-14" cx="37.78" cy="275.39" r="7.73" transform="translate(-102.51 35.42) rotate(-22.5)"/>
            <path class="cls-8" d="M37.78,270.03c2.96,0,5.36,2.4,5.36,5.36"/>
          </g>
        </g>
        <circle class="cls-9" cx="56.66" cy="275.51" r="37.99" transform="translate(-178.22 120.76) rotate(-45)"/>
        <g>
          <circle class="cls-9" cx="71.77" cy="381.6" r="25.11" transform="translate(-291.41 244.22) rotate(-58.63)"/>
          <path class="cls-14" d="M77.16,373.69c-2.45,0-4.51,1.12-5.22,3.26-.7-2.15-2.77-3.26-5.22-3.26-3.03,0-5.48,2.45-5.48,5.48,0,3.76,1.92,7.91,10.69,13.24,8.77-5.33,10.69-9.48,10.69-13.24,0-3.03-2.45-5.48-5.48-5.48Z"/>
        </g>
        <g>
          <g>
            <rect class="cls-14" x="377.73" y="349.83" width="4.87" height="20.58"/>
            <rect class="cls-29" x="385.28" y="338.41" width="4.87" height="32.01"/>
            <rect class="cls-14" x="392.82" y="346.1" width="4.87" height="24.31"/>
            <rect class="cls-29" x="400.37" y="339.95" width="4.87" height="30.47"/>
            <rect class="cls-14" x="407.92" y="356.31" width="4.87" height="14.1"/>
          </g>
          <circle class="cls-9" cx="395.26" cy="355.51" r="32.02" transform="translate(-83.99 585.6) rotate(-67.62)"/>
        </g>
        <g>
          <rect class="cls-14" x="13.86" y="343.57" width="3.52" height="13.53"/>
          <rect class="cls-14" x="8.85" y="348.58" width="13.53" height="3.52"/>
        </g>
        <g>
          <rect class="cls-30" x="86.84" y="218.64" width="2.1" height="13.53"/>
          <rect class="cls-30" x="81.12" y="224.35" width="13.53" height="2.1"/>
        </g>
        <g>
          <rect class="cls-30" x="352.27" y="406.71" width="2.1" height="13.53" transform="translate(-188.88 370.94) rotate(-45)"/>
          <rect class="cls-30" x="346.56" y="412.42" width="13.53" height="2.1" transform="translate(-188.88 370.92) rotate(-45)"/>
        </g>
        <g>
          <rect class="cls-30" x="126.79" y="399.94" width="2.1" height="13.53"/>
          <rect class="cls-30" x="121.08" y="405.66" width="13.53" height="2.1"/>
        </g>
        <g>
          <rect class="cls-14" x="427.74" y="282.42" width="3.52" height="13.53"/>
          <rect class="cls-14" x="422.73" y="287.43" width="13.53" height="3.52"/>
        </g>
        <circle class="cls-30" cx="63.66" cy="332.13" r="4.96"/>
        <path class="cls-30" d="M366.87,300.49c0,1.6-1.3,2.9-2.9,2.9s-2.9-1.3-2.9-2.9,1.3-2.9,2.9-2.9,2.9,1.3,2.9,2.9Z"/>
        <circle class="cls-10" cx="429.5" cy="237.47" r="7.16"/>
        <path class="cls-9" d="M358.91,203.47c0,3.09-2.5,5.59-5.59,5.59s-5.59-2.5-5.59-5.59,2.5-5.59,5.59-5.59,5.59,2.5,5.59,5.59Z"/>
        <path class="cls-9" d="M11.68,305.3c0,3.09-2.5,5.59-5.59,5.59s-5.59-2.5-5.59-5.59,2.5-5.59,5.59-5.59,5.59,2.5,5.59,5.59Z"/>
        <circle class="cls-9" cx="304.79" cy="394.59" r="5.59"/>
        <circle class="cls-9" cx="43.13" cy="207.15" r="3.64"/>
        <g>
          <g>
            <path class="cls-20" d="M230.92,70.82h-8.52c-9.49,0-17.18,7.69-17.18,17.18v10.92h42.88v-10.92c0-9.49-7.69-17.18-17.18-17.18Z"/>
            <circle class="cls-22" cx="226.66" cy="53.1" r="15.72" transform="translate(139.09 268.8) rotate(-81.09)"/>
            <path class="cls-3" d="M242.38,53.1c0-8.68-7.04-15.72-15.72-15.72v31.45c8.68,0,15.72-7.04,15.72-15.72Z"/>
            <path class="cls-2" d="M230.92,70.82h-4.26v28.1h21.44v-10.92c0-9.49-7.69-17.18-17.18-17.18Z"/>
            <path class="cls-4" d="M211.01,51.59c1.54.4,3.15.64,4.81.64,8.42,0,15.55-5.51,18-13.12-2.15-1.11-4.58-1.74-7.17-1.74-8.17,0-14.89,6.24-15.65,14.21Z"/>
          </g>
          <g>
            <path class="cls-20" d="M313.21,27.52h-6.81c-7.59,0-13.74,6.15-13.74,13.74v8.73h34.28v-8.73c0-7.59-6.15-13.74-13.74-13.74Z"/>
            <circle class="cls-22" cx="309.81" cy="13.35" r="12.57" transform="translate(18.82 120.5) rotate(-22.68)"/>
            <path class="cls-3" d="M322.38,13.35c0-6.94-5.63-12.57-12.57-12.57v25.14c6.94,0,12.57-5.63,12.57-12.57Z"/>
            <path class="cls-2" d="M313.21,27.52h-3.4v22.47h17.14v-8.73c0-7.59-6.15-13.74-13.74-13.74Z"/>
            <path class="cls-4" d="M297.3,12.14c1.23.32,2.52.51,3.85.51,6.73,0,12.43-4.4,14.39-10.49-1.72-.88-3.66-1.39-5.73-1.39-6.54,0-11.9,4.99-12.51,11.36Z"/>
          </g>
          <g>
            <path class="cls-20" d="M313.06,93.44h-5.47c-6.09,0-11.03,4.94-11.03,11.03v7.01h27.53v-7.01c0-6.09-4.94-11.03-11.03-11.03Z"/>
            <circle class="cls-22" cx="310.33" cy="82.06" r="10.09" transform="translate(158.88 365.08) rotate(-76.66)"/>
            <path class="cls-3" d="M320.43,82.06c0-5.57-4.52-10.09-10.09-10.09v20.19c5.57,0,10.09-4.52,10.09-10.09Z"/>
            <path class="cls-2" d="M313.06,93.44h-2.73v18.04h13.76v-7.01c0-6.09-4.94-11.03-11.03-11.03Z"/>
            <path class="cls-4" d="M300.29,81.09c.99.26,2.02.41,3.09.41,5.41,0,9.98-3.54,11.56-8.42-1.38-.71-2.94-1.12-4.6-1.12-5.25,0-9.56,4.01-10.05,9.13Z"/>
          </g>
          <g>
            <path class="cls-20" d="M379.32,55.21h-5.09c-5.67,0-10.26,4.59-10.26,10.26v6.52h25.61v-6.52c0-5.67-4.59-10.26-10.26-10.26Z"/>
            <circle class="cls-22" cx="376.77" cy="44.62" r="9.39"/>
            <path class="cls-3" d="M386.16,44.62c0-5.19-4.2-9.39-9.39-9.39v18.78c5.19,0,9.39-4.2,9.39-9.39Z"/>
            <path class="cls-2" d="M379.32,55.21h-2.54v16.78h12.81v-6.52c0-5.67-4.59-10.26-10.26-10.26Z"/>
            <path class="cls-4" d="M367.43,43.72c.92.24,1.88.38,2.87.38,5.03,0,9.29-3.29,10.75-7.83-1.28-.66-2.74-1.04-4.28-1.04-4.88,0-8.89,3.73-9.35,8.49Z"/>
          </g>
          <g>
            <path class="cls-20" d="M131.76,94h-6.39c-7.12,0-12.89,5.77-12.89,12.89v8.19h32.17v-8.19c0-7.12-5.77-12.89-12.89-12.89Z"/>
            <circle class="cls-22" cx="128.57" cy="80.71" r="11.79" transform="translate(-19.41 114.55) rotate(-45)"/>
            <path class="cls-3" d="M140.36,80.71c0-6.51-5.28-11.79-11.79-11.79v23.59c6.51,0,11.79-5.28,11.79-11.8Z"/>
            <path class="cls-2" d="M131.76,94h-3.19v21.08h16.08v-8.19c0-7.12-5.77-12.89-12.89-12.89Z"/>
            <path class="cls-4" d="M116.83,79.57c1.15.3,2.36.48,3.61.48,6.32,0,11.67-4.13,13.5-9.84-1.61-.83-3.44-1.31-5.38-1.31-6.13,0-11.17,4.68-11.74,10.66Z"/>
          </g>
          <g>
            <path class="cls-20" d="M141.91,46.45h-4.66c-5.2,0-9.41,4.21-9.41,9.41v5.98h23.48v-5.98c0-5.2-4.21-9.41-9.41-9.41Z"/>
            <circle class="cls-22" cx="139.58" cy="36.75" r="8.61"/>
            <path class="cls-3" d="M148.19,36.75c0-4.75-3.85-8.61-8.61-8.61v17.22c4.75,0,8.61-3.85,8.61-8.61Z"/>
            <path class="cls-2" d="M141.91,46.45h-2.33v15.38h11.74v-5.98c0-5.2-4.21-9.41-9.41-9.41Z"/>
            <path class="cls-4" d="M131.01,35.92c.84.22,1.72.35,2.64.35,4.61,0,8.51-3.02,9.86-7.18-1.18-.61-2.51-.95-3.93-.95-4.48,0-8.15,3.42-8.57,7.78Z"/>
          </g>
          <g>
            <path class="cls-20" d="M88.42,25.76h-5.83c-6.49,0-11.76,5.26-11.76,11.76v7.47h29.34v-7.47c0-6.49-5.26-11.76-11.76-11.76Z"/>
            <circle class="cls-22" cx="85.51" cy="13.63" r="10.76"/>
            <path class="cls-3" d="M96.27,13.63c0-5.94-4.82-10.76-10.76-10.76v21.52c5.94,0,10.76-4.82,10.76-10.76Z"/>
            <path class="cls-2" d="M88.42,25.76h-2.91v19.23h14.67v-7.47c0-6.49-5.26-11.76-11.76-11.76Z"/>
            <path class="cls-4" d="M74.8,12.6c1.05.28,2.15.44,3.29.44,5.76,0,10.64-3.77,12.32-8.97-1.47-.76-3.14-1.19-4.91-1.19-5.59,0-10.19,4.27-10.71,9.73Z"/>
          </g>
          <g>
            <path class="cls-20" d="M190.2,18.32h-4.67c-5.2,0-9.41,4.21-9.41,9.41v5.98h23.49v-5.98c0-5.2-4.21-9.41-9.41-9.41Z"/>
            <circle class="cls-22" cx="187.87" cy="8.61" r="8.61"/>
            <path class="cls-3" d="M196.48,8.61c0-4.76-3.86-8.61-8.61-8.61v17.22c4.76,0,8.61-3.86,8.61-8.61Z"/>
            <path class="cls-2" d="M190.2,18.32h-2.33v15.39h11.74v-5.98c0-5.2-4.21-9.41-9.41-9.41Z"/>
            <path class="cls-4" d="M179.3,7.79c.84.22,1.72.35,2.64.35,4.61,0,8.52-3.02,9.86-7.18-1.18-.61-2.51-.95-3.93-.95-4.48,0-8.15,3.42-8.57,7.79Z"/>
          </g>
        </g>
      </g>
    </g>
  </g>
</svg>