<?xml version="1.0" encoding="UTF-8"?>
<svg id="Layer_2" xmlns="http://www.w3.org/2000/svg" viewBox="0 0 4063.01 3795.09">
  <defs>
    <style>
      .cls-1, .cls-2 {
        fill: #3c3e98;
      }

      .cls-3 {
        fill: #fcd7d6;
      }

      .cls-3, .cls-4, .cls-5, .cls-6, .cls-7, .cls-8, .cls-9, .cls-10, .cls-11, .cls-12, .cls-13, .cls-14, .cls-15, .cls-16, .cls-2, .cls-17, .cls-18, .cls-19, .cls-20, .cls-21, .cls-22 {
        fill-rule: evenodd;
      }

      .cls-4 {
        fill: #f4ce14;
      }

      .cls-5 {
        fill: #6862ac;
      }

      .cls-6 {
        fill: #e9846c;
      }

      .cls-7 {
        fill: #5e55a4;
      }

      .cls-8 {
        fill: #e08a27;
      }

      .cls-23 {
        fill: #fff;
      }

      .cls-9, .cls-24 {
        fill: #40bda9;
      }

      .cls-10 {
        fill: #fbcecf;
      }

      .cls-11 {
        fill: #fbcece;
      }

      .cls-25 {
        fill: #1d283e;
      }

      .cls-12 {
        fill: #3b303b;
      }

      .cls-13 {
        fill: #372d38;
      }

      .cls-14, .cls-26 {
        fill: #00bbea;
      }

      .cls-27, .cls-15 {
        fill: #f79d83;
      }

      .cls-28, .cls-18 {
        fill: #e5dbed;
      }

      .cls-16 {
        fill: #f9f9fa;
      }

      .cls-17 {
        fill: #f05169;
      }

      .cls-19 {
        fill: #fcf27e;
      }

      .cls-20 {
        fill: #f9e900;
      }

      .cls-21 {
        fill: #413d82;
      }

      .cls-22 {
        fill: #fcdddc;
      }
    </style>
  </defs>
  <g id="Layer_1-2" data-name="Layer_1">
    <g>
      <path class="cls-18" d="M1046.83,2227.48c4.25,70.64,23.79,139.99,46.69,207.61,6.02,17.77,20.05,32.51,19.42,52.6,1.73-6.6,3.16-13.24,4.34-19.88,32.65,51.51,251.15,393.3,425.44,592.61,43.89-13.06,85.72-30.02,117.62-65.73-.18-.4-.36-.78-.54-1.17,52.21-30.01,141.46-126.39,163.66-126.39,127.79,0,729.65-212.8,769.8-233.77,7.27-11.77,5.57-24.99,6.3-37.83,2.97-72.92,21.53-96.45,91.97-116.18,160.5-44.99,321.21-89.33,481.13-136.34,15.87-8.75,21.24-25.25,28.73-39.97,45.87-90.43,91.1-181.15,133.03-273.46,11.12-24.5,26.37-38.05,54.44-30.85,40.51,11.58,80.58,24.58,121.22,35.59,11.2,3.05,22.94,10.57,34.38.1-8.82-21.65-16.94-43.61-26.62-64.86-42.37-93.11,9.44-146.16,71.04-173.66,47.05-21.02,98.36-27.33,149.89-29.34,71.32-2.79,142.99,6.75,214.04-6.62,26.9-5.07,51.53-15.89,73.85-30.55,38.75-25.39,47.32-86.31,21.84-143.37-17.9-40.1-42.76-76.3-71.83-108.48-95.55-105.76-204.67-195.95-325.49-271.45-133.92-83.66-274.42-154.09-425.04-202.95-89.17-28.93-181.28-43.73-273.88-56.51-45.19-6.23-90.37-12.58-135.66-17.65-203.46-72.35-545.75-27.45-755.69,44.97-243.5,84.01-460.54,176.92-590.74,309.86-.31-.85-.61-1.71-.92-2.58-63.37,61.36-118.94,129.19-168.58,202.03-9.92,14.55-16.36,32.12-33.18,41.19,30.37,99.08,70.45,194.67,105.35,292.1,16.92,47.23,35.36,93.91,51.99,141.22,3.58,10.19,15.98,22.98,1.29,32.82-12.51,8.39-20.19-5.55-28.15-11.73-70.08-54.31-146.48-92.81-236.37-101.5-23.93-2.33-46.63.62-69.69,4.47-.11,32.13-56.57,155.07-45.08,345.66ZM1521.68,1960.73c-3.67-1.12-7.34-2.21-11.01-3.41,0-1.04.04-1.99.03-3.04-.2-1.46-.47-2.88-.68-4.32,3.84,3.64,7.73,7.23,11.66,10.77Z"/>
      <path class="cls-5" d="M1112.94,2487.69s151.49-428.63,927.29-144.54c23.9,7.71,47.8,15.42,71.71,23.13-37.13,12.56-65.6,31.61-86.67,55.56l-42.66,224.62c9.3,61.9,26.8,121.74,42.67,182.15-1.35,6.74-.02,13.45.86,20.03,15.09,112.2,43.42,221.62,69.46,331.56,15.38,64.98,34.77,129.91,24.33,198.24-152.13-42.2-292.61-107.94-423.92-192.13h-.02s-33.89-15.96-91.58-62.7c-.59-.43-1.2-.85-1.79-1.3.03-.01.09-.03.13-.06-108.69-88.47-280.85-232.48-489.8-634.56Z"/>
      <path class="cls-15" d="M2415.18,2566.36c-35.58-99.09-95.17-173.91-203.12-198.67-33.01-7.55-66.7-3.95-100.12-1.4-67.63,3.99-101.77,50.44-126.69,104.55-25.14,54.6-21.01,113.16-13.05,171.18,8.67,63.3,24.79,124.8,44.89,185.31,63.81,191.98,156.4,370.32,258.17,544.31,13.2,15.89,23.5,34.25,39.82,47.57,42.03,57.65,83.14,116,126.39,172.71,36.56,47.9,75.77,93.64,120.83,134.19,109.68,98.78,221.95,91.22,320.99-21.03,81.12-91.96,134-199.64,178.09-312.51,3.62-9.22,8.41-17.97,12.66-26.93,41.54-55.18,61.08-121.15,88.76-183.03,28.23-63.16,51.38-128.46,77.47-192.52,5.51-22.57,14.5-44.03,21.28-66.18,16.79-43.96,29.55-89.31,46.15-133.3,5.98-15.86,13.02-30.53,29.36-39.27,43.71-23.36,75.74-58.65,100.37-101.14,9.63-17.7,19.47-35.47,24.07-55.16,13.02-55.86,40.57-103.25,79.38-145.19,27.28-29.49,21.89-48.91-15.31-65.82-8.43-1.2-16.85-1-25.23.3-38.51,8.47-61.5,37.43-85.55,64.97-2.52,1.7-4.89,3.6-7.21,5.55-6.75,5.79-12.95,12.21-19.27,18.5-3.16,3.01-6.18,6.17-9.21,9.3-5.16,5.2-10.59,10.08-16.68,14.2-40.72,27.15-77.39,58.21-99.33,103.4-9.67,21.04-25.38,11.64-39.87,7.81-33.79-8.87-65.55-26.57-102.1-23.69-10.56,16.54,2.72,28.74,7.94,42.28,5.85,15.16,20.24,26.1,21.66,43.47-27.34,57.56-66.87,107.21-102.58,159.33-10.76,18.62-24.86,34.74-38.64,51.09-12.12,23.01-26.86,44.33-42.01,65.39-31.71,42.26-60.21,86.83-92.38,128.77-27.36,43.46-56.83,85.52-87.04,127.05-20.17,26.82-37.92,55.85-68.49,72.93-11.71,21.29-21.66,43.77-42.76,63.63-23.72-54.23-41.84-107.79-60.28-161-64.06-184.93-129.2-369.52-184.13-557.46-5.27-18.03-17.08-33.88-17.22-53.48Z"/>
      <path class="cls-20" d="M3430.87,2646.46c-28.25,43.25-59.94,82.83-109.75,103.2-12.02,4.92-13.5,17.17-17.04,27.27-17.2,49.18-33.74,98.58-50.5,147.92-2.81,16.57,10.41,20.96,21.04,25.7,105.66,47,209.66,97.52,315.14,144.89,9.38,4.2,18.92,5.98,28.91,6.63,108.29-82.18,187.9-183.34,212.21-321.03-19.03-19.43-45.47-28.12-65.83-45.84-11.81-10.28-24.12-19.95-34-32.18-42.14-52.25-38.86-94.15,7.36-142.25,19.27-20.05,49.21-27.72,61.47-55.09-18.23-70.55-53.67-133.51-87.32-197.16-15.04-28.49-33.47-55.2-47.78-84.01-10.75-21.6-24.39-26.63-45.18-16.62-29.92,13.33-35.09,40.81-39.46,68.8,15.06,38.22,32.45,75.91,35.6,117.62,8.27,109.03-38.66,184.57-143.27,231.3-14.2,6.33-28.97,11.42-41.6,20.86Z"/>
      <path class="cls-10" d="M3236.14,2988.05c-27.32,41.39-37.66,90.05-57.32,134.71-35.5,80.71-69.92,161.89-104.79,242.88,129.67-41.66,256.37-90.75,376.63-155.09,41.13-22.01,80.24-47.77,120.29-71.82-45.95-34.35-101.18-50.4-151.74-75.55-48.81-24.25-97.91-48.45-148.59-68.89-11.01-4.44-21.35-13.31-34.48-6.24Z"/>
      <path class="cls-18" d="M3913.88,2000.78c6.71-75.49-67.28-128.31-126-127.4-55.8.89-126.12,51.41-123.98,130.74,1.96,71.82,58.2,124.22,125.51,125.02,70.61.83,131.73-61.9,124.47-128.35Z"/>
      <path class="cls-21" d="M2025.28,2828.6c-15.33,34.24.43,67.61,4.86,100.58,14.95,111.25,51.41,217.94,73.4,327.85,8.07,40.36,4.08,81.92,16.39,121.4,42.07,11.12,84.13,22.25,126.19,33.39,18.47-7.56,33.81-17.84,35.18-40.31-14.75-45-44.13-82.17-66.44-123.1-72.1-132.35-137.91-267.41-184.43-411.2-1.01-3.09-3.41-5.74-5.15-8.61Z"/>
      <path class="cls-4" d="M3799.88,2505.67c-23.65,16.26-48.58,30.44-69.01,51.46-47,48.35-51.49,85.94-12.58,141.51,27.97,39.95,66.24,66.97,112.59,82.41,17.17-94.9,3.83-186.35-31-275.37Z"/>
      <path class="cls-2" d="M1285.82,85.89c-43.64,0-87.3.45-130.92-.16-26.92-.38-39.58,13.4-39.85,38.66-.26,25.58,12.67,38.7,39.57,38.57,87.29-.48,174.58-.26,261.87-.07,25.99.07,39.48-11.23,39.36-38.32-.13-26.61-12.69-38.94-39.09-38.76-43.64.29-87.29.07-130.94.09Z"/>
      <path class="cls-8" d="M3236.14,2988.05c100.15,46.24,200.26,92.51,300.41,138.68,11.07,5.11,21.48,12.2,34.41,11.99,15.89-12.21,31.8-24.42,47.71-36.65-108.84-51.03-217.73-101.95-326.45-153.23-13.69-6.46-30.56-8.33-38.62-24.02-5.97,21.05-20.79,39.63-17.45,63.22Z"/>
      <path class="cls-2" d="M989.9,127.98c-.2,26.54,19.87,47.88,45.75,46.54,26.97-1.38,43.42-15.79,45.05-43.7,1.54-26.2-18.57-48.1-43.92-49.06-24.79-.93-46.7,20.66-46.88,46.21Z"/>
      <path class="cls-3" d="M2281.29,3371.51c-11.73,13.44-23.45,26.87-35.17,40.31,23.21.34,45.3,11.18,68.96,7.39-7.03-18.9-16.14-36.32-33.79-47.7Z"/>
      <path class="cls-19" d="M3159.45,2673.22c7.84-17.92-10-24.75-15.83-36.77-8.06-16.63-21.35-31-22.26-50.77,2.49-7.35-.57-14.07-5.54-18.05-31.41-25.28-23.63-51.78-6.55-81.86,21.38-37.62,39.6-77.04,58.2-116.16,4.84-10.16,15.32-20.33,5.79-33.39-113.55,31.48-227.12,62.94-340.67,94.45-50.35,13.98-100.63,28.34-151.07,42.01-67.24,18.18-91.44,50.35-89.68,120.46,5.51,29.36,21.16,51.59,48.37,63.97,75.18,34.23,149.65,69.93,225.23,103.24,9.22,4.04,18.71,7.55,29.16,6.14,11.32-1.83,20.55-8.19,30-14.03,61.63-38.05,129.12-59.11,200.39-69.14,12.04-1.71,24.65-1.05,34.48-10.12Z"/>
      <path class="cls-22" d="M2725.75,3270.19c6.5,6.18,12.31,7.41,18.77-.73,16.77-21.1,36.12-40.25,48.43-64.68-1.88-11.71-9.99-19.92-16.74-28.65-52.73-68.26-54.98-141.79-22.37-218.45,18.57-43.62,46.58-81.47,76.24-118.11,7.64-9.44,18-17.21,19.08-30.72-3.56-17.27-18.88-20.79-31.85-26.5-47.07-20.72-92.69-44.83-140.3-64.1-41.6-16.82-71.58-43.25-87.78-85.08-43.09,6.53-81.73,29.7-125.55,33.56-7.3,13.14,1.54,23.77,6.22,34.43,60.27,136.74,122.84,272.45,181.8,409.75,18.49,43.04,36.08,86.45,54.2,129.66,4.64,11.06,6.92,23.99,19.85,29.61Z"/>
      <path class="cls-6" d="M2725.75,3270.19c-68.38-176.65-148.25-348.3-225.33-521.17-12.25-27.44-24.5-54.85-36.74-82.28-16.17-33.45-32.34-66.91-48.51-100.38-4.75,30.47,8.94,57.85,17.34,85.21,71.69,233.35,152.29,463.73,235.05,693.36,1.1,3.06,3.31,5.74,7.83,13.35,20.54-29.2,45.99-51.93,50.35-88.09Z"/>
      <path class="cls-8" d="M2589.23,2633.18c2.29,39.77,23.79,64.51,59.35,80.67,66.26,30.14,131.78,61.92,197.61,93.02,1.76,4.54,3.05,9.4,7.56,12.27,39.92,16.55,79.58,33.68,117.68,54.26,13.46,5.17,26.09,13.99,41.74,9.61,19.6-10.35,27.48-30.58,39.68-47.15-49.72-32.66-102.57-58.45-160.41-73.36-83.23-37.95-166.37-76.13-249.77-113.68-25.32-11.4-35.15-35.97-50.85-55.65-.85,13.34-1.71,26.67-2.59,40.01Z"/>
      <path class="cls-12" d="M3643.14,2082.88c-8-26-32.89-25.26-52.4-32.76-15.2-5.83-30.84-10.52-46.28-15.71-51.77-14.79-103.52-29.59-155.29-44.38-29.83-11.68-45.07,3.35-57.56,28.73-52.25,106.09-105.48,211.7-158.37,317.47-22.26,45.94-44.33,91.96-66.84,137.77q-29.98,60.95,14.95,111.68c38.11,11.79,76.75,22.07,114.1,35.92,23.96,8.86,33.08,2.2,33.93-21.51-22.68-22.51-53.71-25.91-82.09-34.16-87.81-25.54-88.03-24.85-46.64-107.54,69.98-139.79,140.09-279.52,208.92-419.9,8.04-16.39,18.07-30.51,31.68-42.35.46-.36.93-.71,1.4-1.07-.8,1.74-.94,3.85.2,6.65,8.29,10.18,20.57,12.84,32.15,16.33,70.21,21.22,141,40.42,210.35,64.49,3.51,1.23,7.04,1.54,10.57.62-.51.42-1.02.84-1.49,1.45-41.86,91.62-86.96,181.7-132.06,271.77-5.18,10.35-14.39,21.14-4.87,34.04,8.85-.33,17.71-.67,26.57-1.02,33.73-30.6,47.39-71.93,60.68-113.46,8.68-24.2,20.33-46.86,34.85-68.07,8.39-17.86,15.97-36.16,25.38-53.48,13.32-24.55,14.45-48.06-1.83-71.51Z"/>
      <path class="cls-11" d="M2855.07,2812.12c-2.97-1.75-5.93-3.5-8.88-5.26-38.75,46.01-75.93,92.95-101.25,148.25-40.58,88.63-20.43,195.17,48,249.65,33.09-39.16,62.38-80.91,86.45-126.24,15.85-31.24,2.78-63.37,1.19-94.65-2.29-45.16-8.75-90.19-11.6-135.41-.88-13.95-5.93-25.53-13.9-36.34Z"/>
      <path class="cls-19" d="M3584.75,2275.95c-20.23,37.84-40.46,75.66-60.69,113.48,33.06,17.11,35.86,29,11.58,54.28-38.61,40.23-66.82,85.77-79.91,140.8-5.1,21.43-16.38,41.35-24.85,61.96,181.55-43.46,246.33-209.18,153.88-370.52Z"/>
      <path class="cls-20" d="M2892.44,2762.5c52.38,26.84,105.21,52.73,160.43,73.36,37.32-53.01,76.96-104.54,106.58-162.64-98.47,1.42-186.1,35.3-267.01,89.28Z"/>
      <path class="cls-13" d="M2855.07,2812.12c8.1,88.79,16.2,177.58,24.31,266.38,37.26-39.2,62.85-86.83,94.33-130.22,9.72-27.07,16.88-54.15-.18-81.17-37.73-22.13-77.31-40.23-118.46-54.99Z"/>
      <path class="cls-11" d="M2973.54,2867.11c.05,27.07.12,54.12.18,81.18,14.77-20.78,34.13-38.78,39.45-65.29-13.21-5.3-26.41-10.6-39.62-15.89Z"/>
      <path class="cls-2" d="M444.29,246.2c109.68-.84,219.33-3.46,329-4.85,171.19-2.21,342.38-3.96,513.58-5.91,47.88-.98,95.81-1.06,143.65-3.36,20.13-.98,29.66,5.98,36.46,24.88,27.46,76.45,56.49,152.32,84.96,228.41,6.88,4.34,11.61,10.56,14.47,17.98,43.31,112.62,85.6,225.62,125.78,339.39,10.56,29.91-.95,43.26-33.65,45.9-91.17,7.38-182.65,10.63-273.69,20.13-14.57,1.51-29.08.41-42.32-7.07-50.89.2-50.57.23-56.01,50.85-3.34,31.12-7.53,62.16-12.03,93.13-1.49,10.26,3.32,24.79-11.27,28.55-13.15,3.4-19.02-9.73-26.6-17.18-42.32-41.57-84.64-83.09-125.95-125.65-13.56-13.96-27.7-19.48-47.17-19.02-114.1,2.72-228.21,4.41-342.31,6.23q-76.52,1.21-99.11-72.1c-.64-2.08-.43-4.43-.61-6.65-1.77-2.82-4.13-5.43-5.22-8.49-64.95-184.49-129.58-369.09-194.89-553.43-8.53-24.1-2.4-31.56,22.94-31.75Z"/>
      <path class="cls-16" d="M3106.64,2507.8c81.2-162.39,161.73-325.13,242.18-487.91,6.96-14.09,15.14-24.64,32.43-23.74,48.44,15.47,97.13,30.21,145.24,46.65,37.41,12.74,77.58,17.86,111.77,39.64,1.82,14.14-5.01,25.62-10.84,37.68-43.48,90.03-86.65,180.2-129.92,270.31-36.78,11.3-55.73,44.62-83.18,67.43,0,0-1.34-.22-1.37-.23-7.25,7.41-14.5,14.81-21.76,22.2v.03c-2.46,1.99-4.92,3.99-7.37,5.97-2.52,7.12-8.15,10.67-14.85,12.98-36.9,30.14-75.83,58.23-99.6,101.27-46.79-14.59-93.35-29.92-140.43-43.46-28.01-8.05-36.05-21.35-22.3-48.83Z"/>
      <g>
        <path class="cls-9" d="M3.63,1271.26c60.49,204.72,120.33,409.75,180.38,614.69,5.78,19.75,12.96,39.01,17.12,59.35,4.89,23.83,14.43,31.19,32.94,29.14,71.35-7.86,142.83-13.78,214.25-20.71,4.86-.48,9.59-3.28,14.39-4.99,112.48-10.58,224.99-21.13,337.48-31.77,79.76-7.54,159.52-15.33,239.29-22.83,45.9-4.31,168.89-11.45,184.64-9.26,63.14,8.82,118.46,41.14,169.22,90.13,11.5,11.13,23.63,33.85,39.25,18.83,16.12-15.5,2.39-36.95-2.37-54.77-31.75-118.92-188.44-652.08-221.62-771.2-7.28-26.11-15.89-36.45-37.99-34.34-174.17,16.55-348.41,31.51-522.64,46.8-114.48,10.05-228.98,19.83-343.47,29.74-59.68,4.86-119.38,9.46-179.05,14.67-34.45,3.02-68.82,8.51-103.3,9.99-21.68.93-26.54,9.43-18.52,36.53ZM680.01,1431.56h0c.15-.01.31-.01.48-.01-.04.15-.06.31-.09.47-.13-.16-.27-.29-.39-.46ZM734.32,1543.69s-.02,0-.03.01v-.02s.02,0,.03,0ZM694.33,1762.72c-.31-.57-.64-1.1-.94-1.68.22-.11.4-.26.61-.38.09.73.21,1.37.33,2.06ZM578.44,1599.79c.21.01.42.03.62.05h0c-.26.1-.49.24-.75.37.03-.15.07-.29.12-.42Z"/>
        <path class="cls-9" d="M254.97,2041.96c50.34-4.67,100.73-8.37,151.1-12.44,114.25-10.53,228.5-21.1,342.77-31.57,19.75-1.81,30.12,11.86,31.61,36.93,1.4,23.65-6.83,39.33-25.41,40.97-107.55,9.44-215.14,18.36-322.72,27.46-7.28,3.88-14.82,2.5-22.3,2.31-51.13,5.31-102.23,11.02-153.41,14.64-16.89,1.18-24.33-15.62-24.42-38.34-.08-21.82,4.61-38.28,22.78-39.96Z"/>
      </g>
      <path class="cls-7" d="M2569.97,2889.7l-450.11,245.43s-300.05-573.15-125.69-717.98c137.12-113.88,413.09-103.86,575.79,472.55Z"/>
      <g>
        <path class="cls-17" d="M2330.78,122.88c49.69,234.37,98.72,469.09,147.98,703.67,4.74,22.65,10.81,44.73,14.02,67.96,3.75,27.23,12.46,35.85,29.92,34.06,67.34-6.84,134.71-11.53,202.06-17.35,4.57-.39,9.14-3.44,13.7-5.23,106.07-8.76,212.15-17.51,318.23-26.35,75.22-6.27,384.75-27.13,399.49-24.18,59.02,11.84,109.86,50.18,155.86,107.32,10.43,12.96,21.03,39.14,36.2,22.54,15.7-17.17,3.54-41.93-.31-62.32-25.65-136.05-154.23-746.4-181.25-882.71-5.93-29.87-13.64-41.87-34.51-40.12-164.23,13.76-328.5,25.71-492.74,38.04-107.93,8.1-215.86,15.92-323.79,23.86-56.25,3.78-112.51,7.28-168.75,11.5-32.5,2.41-64.98,7.67-97.42,8.34-20.4.42-25.28,9.95-18.69,40.98ZM2960.74,324.63h0c.15,0,.29,0,.43-.02-.01.17-.05.33-.07.52-.14-.18-.24-.33-.36-.5ZM3007.85,453.59s0,0,0,.02c-.01,0-.01-.04-.01-.04.01,0,.02,0,.02.02ZM2962.61,701.33c-.27-.67-.56-1.26-.82-1.95.21-.11.39-.28.59-.4.06.81.17,1.54.23,2.34ZM2859.42,512.84c.21,0,.39.04.56.06h0c-.23.12-.44.28-.68.41.03-.17.06-.33.12-.47Z"/>
        <path class="cls-17" d="M2539.98,1005.91c47.46-3.87,94.96-6.58,142.42-9.76,107.74-8.66,215.46-17.37,323.2-25.95,18.64-1.49,27.9,14.33,28.43,42.87.45,26.91-7.83,44.51-25.33,45.81-101.38,7.63-202.81,14.64-304.2,21.88-6.99,4.19-14.03,2.42-21.04,1.97-48.23,4.56-96.44,9.57-144.65,12.19-15.93.85-22.34-18.44-21.63-44.28.7-24.81,5.66-43.35,22.81-44.73Z"/>
      </g>
      <g>
        <path class="cls-23" d="M2854.04,228.37c-75.83,9.55-129.75,79-120.2,154.83l24.35,193.57c9.54,75.82,78.99,129.74,154.82,120.21l219.65-27.63c75.83-9.55,129.74-79,120.2-154.82l-24.35-193.56c-9.55-75.84-78.99-129.76-154.83-120.22l-219.64,27.63h0ZM3137.58,708.61l-219.64,27.65c-97.49,12.26-186.8-57.05-199.07-154.54l-24.35-193.58c-12.28-97.49,57.08-186.79,154.58-199.05l219.65-27.65c97.49-12.27,186.79,57.09,199.07,154.57l24.35,193.58c12.27,97.48-57.06,186.77-154.58,199.02h0Z"/>
        <path class="cls-23" d="M2978.51,330.77c-65.12,8.2-111.44,67.83-103.25,132.94,8.2,65.12,67.84,111.44,132.96,103.26,65.1-8.21,111.4-67.84,103.22-132.96-8.2-65.12-67.84-111.43-132.93-103.24h0ZM3013.16,606.24c-86.8,10.9-166.28-50.8-177.19-137.58-10.92-86.77,50.79-166.27,137.57-177.17,86.78-10.92,166.29,50.79,177.2,137.56,10.9,86.77-50.81,166.26-137.57,177.19h0Z"/>
        <path class="cls-23" d="M3161.77,272.72c2.28,18.02-10.5,34.49-28.53,36.74-18.04,2.27-34.5-10.49-36.77-28.53-2.27-18.04,10.52-34.5,28.55-36.77,18.04-2.28,34.49,10.51,36.75,28.55h0Z"/>
      </g>
      <path class="cls-27" d="M2093.05,1748.67c0-89.58,85.09-67.18,188.24-44.79,17.61,3.83,35.05,4.85,51.93,4.03-8.29,20.16-44.3,115.99-44.3,257.65,0,3.13-.11,6.1-.17,9.11-17.88,2.19-37.21,8.44-56.85,21.42-76.14,50.34-138.85-157.84-138.85-247.43Z"/>
      <path class="cls-14" d="M1342.51,901.71c28.09,80.12,56.19,160.24,84.29,240.35,14.15,46.39,55.74,210.46,74.2,242.47,13.83,1.52,1109.05-112.68,1243.02-115.7,38.79-.88,40.8-3.62,28.87-40.7-33.76-104.98-67.49-209.97-101.24-314.95-43.28-130.91-86.39-261.85-130.13-392.59-3.68-11-2.81-25.13-16.06-31.57-9.96-7.51-21.55-4.36-32.39-4.36-313.71.11-627.42.41-941.13.71,43.29,117.26,86.62,234.5,129.85,351.79,14.44,39.16,12.75,40.51-28.23,43.12-103.72,6.64-207.38,14.22-311.05,21.41ZM2060.23,892.98c-.3-.04-.63-.06-.93-.12.22-.07.43-.12.63-.2.1.09.2.22.3.31ZM2052.74,1013.79c.03.13.08.27.12.41-.1-.11-.15-.2-.22-.31h0s.07-.06.11-.11Z"/>
      <path class="cls-27" d="M1695.99,1968.14c203.14,99.1,294.04-53.75,294.04-53.75,0,0-1.56-26.88-23.95-76.14-22.39-49.27,32.92-80.63,65.43-45.99,32.51,34.63,48.11,184.83,61.55,256.42,13.43,71.58,29.82,71.64,29.82,71.64-73.11,0-87.15,223.28-87.15,223.28l-399.55-97.72s59.81-116.5,59.81-218.37c0-16.47-2.06-37.66-5.49-62.28,1.84.98,3.67,2.01,5.49,2.9Z"/>
      <path class="cls-28" d="M2288.74,1974.67c51.48-6.27,90.97,21.42,90.97,21.42,0,0-39.55,187.39-207.9,131.23l-48.94-7c71.68,0,162.34,4.97,165.87-145.65Z"/>
      <path class="cls-25" d="M2093.05,2048.69c-13.44-71.59-29.04-221.79-61.55-256.42-32.51-34.64-87.82-3.28-65.43,45.99,22.4,49.26,23.95,76.14,23.95,76.14,0,0-90.89,152.85-294.04,53.75-1.82-.89-3.65-1.92-5.49-2.9-17.75-127.48-72.6-347.84-72.6-494.24,0-174.63,228.8-219.52,430.92-189.78,202.11,29.73,393.6-38.69,393.6-38.69,0,0,40.32,71.67,40.32,228.46s-147.81,232.88-147.81,232.88c0,0-.64,1.41-1.7,4.03-16.88.83-34.32-.2-51.93-4.03-103.15-22.39-188.24-44.79-188.24,44.79s62.71,297.77,138.85,247.43c19.63-12.98,38.96-19.24,56.85-21.42-3.53,150.62-94.19,145.65-165.87,145.65,0,0-16.4-.06-29.82-71.64Z"/>
      <g>
        <path class="cls-1" d="M1305.24,491.7c-32.27-143.57-174.82-233.78-318.36-201.51-143.58,32.27-233.8,174.81-201.52,318.36,32.27,143.56,174.8,233.79,318.37,201.52.74-.16,1.45-.4,2.21-.56l-40.76-181.35-62.6,14.08-16.3-72.48,62.6-14.07-12.02-53.46c-13.95-62.02,16.36-104.31,71.66-116.75,26.53-5.96,49.76-9.1,56.59-9.71l14.57,64.81-38.38,8.64c-30.09,6.77-32.7,22.38-27.98,43.36l10.4,46.27,71.76-16.13,6.96,74.58-62.43,14.04,38.17,169.78c98.52-56.65,153.29-172.7,127.05-289.42h0Z"/>
        <path class="cls-23" d="M1202.44,597.31l-6.96-74.58-71.76,16.13-10.4-46.27c-4.73-20.98-2.12-36.59,27.98-43.36l38.38-8.64-14.57-64.81c-6.83.61-30.06,3.75-56.59,9.71-55.3,12.44-85.61,54.73-71.66,116.75l12.02,53.46-62.6,14.07,16.3,72.48,62.6-14.08,40.76,181.35c25.99-6.07,50.22-15.74,72.25-28.39l-38.17-169.78,62.43-14.04h0Z"/>
      </g>
      <g>
        <path class="cls-24" d="M707.01,1874.72c-59.06,0-116.94-15.59-168.23-45.26l-131.4,45.26,27-139.13c-42.33-58.04-64.66-126.31-64.66-198.12,0-185.99,151.32-337.28,337.29-337.28s337.27,151.29,337.27,337.28-151.28,337.25-337.27,337.25h0Z"/>
        <path class="cls-23" d="M601.06,1692.18l6.64,4.16c29.94,18.77,64.28,28.69,99.32,28.69,103.43,0,187.56-84.14,187.56-187.59s-84.13-187.53-187.56-187.53-187.56,84.14-187.56,187.53c0,42.09,13.78,81.96,39.82,115.31l4.62,5.88-9.66,49.68,46.83-16.14h0ZM707.01,1757.79c-38.58,0-76.41-10.2-109.9-29.59l-85.84,29.59,17.63-90.9c-27.64-37.91-42.24-82.49-42.24-129.45,0-121.49,98.86-220.31,220.35-220.31s220.34,98.82,220.34,220.31-98.86,220.35-220.34,220.35h0Z"/>
        <path class="cls-23" d="M595.76,1452.8s12.93-22.6,23.47-23.89c10.55-1.29,24.1-1.29,27.78,5.6,3.66,6.88,20,46.9,20,46.9,0,0,2.8,6.9-1.49,13.58-4.31,6.65-14.01,16.34-14.01,16.34,0,0-5.38,6.9,0,14.19,5.38,7.34,13.73,20.78,31.01,38.03,17.24,17.26,50.36,29.57,50.36,29.57,0,0,4.73.64,7.76-2.37,3-3.02,19.36-23.45,19.36-23.45,0,0,5.26-6.79,13.99-2.8,8.72,3.97,46.48,22.82,46.48,22.82,0,0,4.43,1.6,4.43,8.28s-2.7,23.01-8.22,28.51c-5.53,5.54-21.66,22.55-45.93,22.55s-82.01-19.74-112.79-50.5c-30.78-30.81-58.12-62.02-64.57-90.42-6.45-28.42-5.58-41.25,2.36-52.95h0Z"/>
      </g>
      <g>
        <path class="cls-26" d="M2401.77,863.04c16.12,188.24-123.42,353.92-311.67,370.04-188.23,16.13-353.9-123.42-370.03-311.65-16.12-188.25,123.41-353.94,311.66-370.05,188.24-16.13,353.91,123.41,370.05,311.66h0Z"/>
        <path class="cls-23" d="M2252.82,757.04c-8.6,3.2-15.56,3.4-15.56,3.4l.14-1.68c7.63-7.27,26.58-29.18,28.51-38.82.82-4.16-.7-5.46-.72-5.58l-25.42,13.47-21.24,11.87h0c-16.63-14.86-40.61-23.16-66.4-20.95-45.93,3.94-80.36,39.66-76.93,79.78.62,7.36,2.87,20.65,5.74,27.13.17,2.11-.08-2.12,0,0-29.64,1.74-68.55-7.14-103.79-21.36-69.47-28.04-75.63-51.02-75.63-51.02-9.49,11.98-11.76,49.21,1.33,77.14,8.35,17.86,33.09,32.44,33.09,32.44h0s-10.4,1.06-21.65-1.69c-11.22-2.75-15.68-6.04-15.68-6.04-5.14,16.39,10.33,43.55,34.57,61.93,14.15,10.72,38.77,16.08,38.77,16.08l-37.36,4.27c1,36.6,81.33,51.51,81.33,51.51h0c-21.48,19.67-47.24,32.72-75.86,35.17-14.83,1.27-29.34.27-43.28-2.63,40.45,27.9,90.87,45.25,143.46,37.93,139.48-19.34,208.27-146.58,201.9-265.2l.22.23s6.29-3.85,19.11-19.07c12.8-15.24,20.14-32.42,20.14-32.42,0,0-20.21,10.93-28.8,14.1h0Z"/>
      </g>
    </g>
  </g>
</svg>