<?xml version="1.0" encoding="UTF-8"?>
<svg id="Layer_2" xmlns="http://www.w3.org/2000/svg" viewBox="0 0 114.97 56.29">
  <defs>
    <style>
      .cls-1 {
        fill: #fff;
      }
    </style>
  </defs>
  <g id="_x31_1">
    <path class="cls-1" d="M16.3,27.9l.04.85h.26l-.02-.19.35-.02.02.28,2.84-.09.37-.33-.08-2h-.13v-.41l.26-.02-.02-.28.24-.02-.13-3.56-.26.02-.02-.87.46-.02V0h.26v21.22l.44-.02.04.93h-.22l.13,3.49.2-.02.02.24h.15l.02.56h-.19l.04.67.98-.04v.3h.45l-.02-.7.61-.02.02.67.3.28.46-.02.11-.13,9.26-.32-.04-.91.5-.02.78.73.02.35,1.37-.04-.02-.54,1.02-.04-.06-1.23.56-.59.8-.04v.26l2.04-.08.02.19.58-.02v-.41l-.17.02-.02-.35-.72.02-.02-.28-.5.02-.04-.67.5-.02-.02-.67.41-.02.02.5,2.02-.07v-.43l2.36-.07v-.34l.19-.2s.39-.32.45-.35c.07-.06.52-.02.52-.02l.02.3,4.38-.5s.13-.15.37-.15c.11.06.06.22.06.22,0,0,2.34-.24,2.45-.22.13.02.13.3.13.3l6.39-.78-.04-.17.78-.09.22-.22.02.74-.93.17c-.04-.11-6.42.76-6.42.76l-.06.33-.82.11-.02.52-1.04.37-.43.06v.33l-1.67.06-.07-.11-.33.07-2.34.11-1.56,1.48.06.78,1.28.95,2.58-.09,1.23-1.5,4.29-.15.07,2.19,10.47.28,1.24-.87,1.3-.06.02.48-1.11.04-1.21.86.26.37,1.39-.19.06.37,2.67-.35-.04-.22,2.51-.33.09.63,2.19-.28-.08-.52,2.62-.35.07.52,3.86-.5v-.06l.41-.06-.04-.32.95-.13,1.06-.82,5.59-.74.04.26.52-.07.04.32.31-.04.95-.13.04.37.69-.09.04.32,16.56-2.19-.09-.78,2.14-.28.09.7,1.23-.93s.65-.26.7.13c.54-.07,1.87-.24,2.08-.28.2-.02.31.3.39.8.06.48.22,1.76.26,1.95.02.19-.06.43-.37.46-.3.04-2.06.26-2.06.26,0,0-.09.26-.43.28-.19,0-.65-.22-1.02-.41l.02.15-.95.13.04.15-.74.09-.02-.15-.52.07.02.15-16.99,2.25.04.26-.69.09.04.2-.95.13.02.09-.32.05.02.15-.52.08.04.26-5.59.73h-1.17l-.95.13-.02-.11-.41.05-.06-.35-3.86.5.06.46-2.6.35-.08-.47-4.49.59.06.36-2.88.39.06.35-1.65.22-.41.56,4.42,4.23h11.64l1.58.76,2.9,3.67-2.49.11.26.67.41-.11.11.48-.43.17s.19.54.28,1.21h.48l-.02.54-.48.06s-.04.84-.13,1.11l.37.13-.2.61-.37-.05s-.3.74-.45.96l.37.24-.31.44-.32-.2s-.22.39-.43.56l.32.62-.07.06.02.04-.22.11v-.04l-.15.09-.26-.45s-.26.15-.73.34l.02.22.13.3-.35.17-.22.11h0l-.26-.57c-.26.07-.56.15-.89.2l.04.54.13.3-.35.17-.22.09h0l-.33-.71v-.02l-.13-.28c-.24.02-.48.04-.72.04l.07,1.15.13.3-.35.17-.22.09h0l-.33-.73h0l-.41-.85-.48.22.11,1.54.13.28-.35.19-.22.09h0l-.33-.72h0l-.41-.85-.48.22.11,1.54.13.28-.35.18-.22.09h0l-.33-.72h0l-.41-.85-.48.22.11,1.54.13.28-.35.17-.22.11h0l-.33-.73h0l-.09-.2c-.2.28-.45.54-.71.76l.02.33.13.3-.33.17-.2.09-.04.02-.22-.5c-.28.15-.58.24-.89.31l.02.36.15.28-.43.2v.06h-.13l-.02.02-.02-.02h-.07v-.17l-.26-.54.26-.11v-.02h-.19c-.22,0-.44-.02-.67-.06l-.24.58v.32h-.63v-.8h.06v-.37c-.22-.09-.43-.22-.61-.35l-.48,1.21v.32h-.65v-.8h.02v-.95h-.54l-.56,1.43v.32h-.63v-.8h0v-.95h-.17c-.15.15-.33.28-.52.39l-.41,1.04v.32h-.63v-.8h0v-.13c-.26.05-.52.09-.8.09h-.09l-.2.52v.32h-.63v-.8h0v-.15c-.26-.08-.5-.17-.72-.3l-.37.93v.32h-.63v-.8h0v-.95h-.52l-.58,1.43v.32h-.63v-.8h0v-.95h-.52l-.58,1.43v.32h-.63v-.8h0v-.24c-.28.09-.58.17-.87.19l-.22.54v.32h-.63v-.8h.04v-.07c-.28-.04-.56-.09-.8-.2l-.3.76v.32h-.65v-.8h.02v-.82c-.06-.04-.11-.08-.17-.13h-.37l-.56,1.43v.32h-.63v-.8h0v-.95h-.54l-.56,1.43v.32h-.63v-.8h0v-.54c-.26.17-.54.28-.84.37l-.26.65v.32h-.63v-.8h0v-.04h-.09c-.26,0-.52-.02-.76-.07l-.24.59v.32h-.63v-.8h0v-.45c-.2-.09-.41-.22-.58-.37l-.52,1.3v.32h-.63v-.8h0v-.95h-.52l-.58,1.43v.32h-.63v-.8h0v-.95h-.17c-.17.15-.34.28-.5.39l-.43,1.04v.32h-.65v-.93c-.26.07-.52.09-.8.09h-.09l-.2.52v.32h-.63v-.8h.02v-.15c-.26-.08-.5-.17-.72-.3l-.37.93v.32h-.63v-.8h0v-.95h-.52l-.57,1.43v.32h-.63v-.8h0v-.95h-.52l-.58,1.43v.32h-.63v-.8h0v-.32c-.26.11-.56.21-.87.24l-.22.56v.32h-.63v-.8h0v-.06c-.28-.02-.54-.07-.8-.17l-.28.71v.32h-.65v-.8h0v-.71c-.09-.07-.21-.15-.3-.24h-.22l-.56,1.43v.32h-.65v-.8h.02v-.95h-.54l-.56,1.43v.32h-.65v-.8h.02v-.52c-.26.15-.54.26-.84.36l-.26.65v.32h-.65v-.8h.09v-.04h-.15c-.24,0-.48-.02-.71-.07l-.24.59v.32h-.63v-.8h0v-.41c-.2-.1-.41-.23-.59-.37l-.5,1.26v.32h-.63v-.8h0v-.95h-.52l-.57,1.43v.32h-.63v-.8h0v-.95h-.07c-.19.17-.41.33-.63.46l-.39.97v.32h-.63v-.8h0v-.11c-.22.06-.46.07-.72.07h-.17l-.2.52v.32h-.63v-.8h.21l.04-.11c-.3-.07-.58-.17-.82-.3l-.37.52-.08.29-.61-.13.19-.78.11.02.09-.35c-.17-.15-.35-.32-.5-.5l-.76,1.04-.07.29-.32-.07-.22-.05h0l-.07-.02.21-.78.07.02.24-.91-.52-.14-.91,1.24-.08.32-.61-.15.21-.78h0l.24-.93-.52-.13-.91,1.24-.07.32-.28-.07h0l-.04-.02-.3-.08.2-.76.13.02.26-.91-.5-.15-.95,1.21-.09.31-.37-.11-.24-.07h0l.22-.76h.02l.22-.82c-.26.09-.54.15-.82.19l-.26.33v.21c0,.13-.08.22-.15.22h-.19v.02l-.09.3-.39-.11h0l-.13-.04-.09-.02.04-.15h0c-.09,0-.17-.09-.17-.22v-.5c-.19-.02-.37-.05-.56-.09l-.26.33-.09.32-.61-.18.2-.69c-.06-.02-.13-.06-.19-.08l-.24.43c-.06.11-.17.15-.24.11l-.74-.43c-.07-.03-.09-.16-.04-.26l.24-.43c-.43-.3-.82-.67-1.15-1.08l-.37.22c-.09.05-.22.04-.26-.04l-.43-.74c-.04-.08,0-.19.11-.24l.33-.19c-.24-.48-.41-1.02-.48-1.56h-.33c-.11,0-.2-.07-.2-.17v-.85c0-.09.09-.15.2-.15h.28c.04-.59.17-1.15.37-1.67l-.17-.09c-.11-.06-.15-.17-.11-.24l.43-.75c.04-.07.17-.07.26-.02l.13.07c.33-.5.74-.93,1.21-1.28l-.06-.07c-.06-.11-.04-.22.04-.28l.69-.39-4.75.93-.41-.21,4.6-3.53s-.17-.5-.39-1.17l9.95-6.42-.09-2.79-.22.02-.04-1.04,2.49-.07ZM110.83,24.08l.19,1.47c.22.07.46.17.56.18.17.04.24-.13.22-.33-.04-.2-.15-1.32-.19-1.58-.04-.26-.22-.19-.37-.08-.07.04-.26.19-.41.34h0ZM112.7,25.58h0s1.47-.24,1.54-.24c.07-.02.07-.21,0-.8-.07-.58-.13-1.21-.33-1.19-.2.04-1.47.2-1.47.2l.26,2.02ZM9.08,41.42l-.02-.02-.83.17c.07,0,.15.09.15.22v.04c.26.02.5.06.74.11l-.04-.52ZM79.62,51.03h0l.31-.15-.02-.09c-.13.02-.26.04-.39.04l.09.2ZM78.06,51.78h0l.32-.15-.06-.74c-.24-.02-.48-.04-.71-.05l.44.94ZM73.39,54.01h0l.32-.15-.07-1.21c-.09.35-.22.69-.39,1l.15.36ZM73.7,51.89h0c0,.24-.02.46-.07.69l.82-.39.5,1.08.32-.15-.09-1.28.84-.39.5,1.07.32-.15-.09-1.28.65-.3c-1.67-.28-2.45-1.1-2.45-1.1h-1.99c.46.61.76,1.38.76,2.19h0ZM68.89,55.47h.3l.06-.15c-.11-.04-.24-.08-.35-.11v.26ZM65.44,54.3h0v1.17h.33l.48-1.17h.91v1.17h.33l.35-.89c-.45-.37-.8-.87-1.02-1.44h-.83c-.15.42-.39.83-.71,1.17h.15ZM63.71,55.47h.35l.15-.37c-.17.08-.34.13-.5.19v.18ZM61.99,55.47h.35l.02-.06c-.13,0-.24-.02-.37-.04v.09ZM60.28,55.47h.33l.22-.56c-.2-.13-.39-.28-.56-.43v.98ZM58.55,54.3h0v1.17h.33l.46-1.17h.73c-.58-.63-.93-1.48-.93-2.41,0-.26.04-.52.09-.78h-.41c.06.26.07.52.07.78,0,.93-.35,1.78-.93,2.41h.58ZM56.82,55.47h.33l.28-.71c-.18.15-.41.26-.61.35v.35ZM55.12,55.47h.32l.02-.04h-.34v.04ZM53.39,55.47h.34l.15-.37c-.17-.07-.33-.17-.48-.26v.63ZM49.94,55.47h.33l.48-1.17h.91v1.17h.33l.48-1.17h.28c-.28-.31-.5-.67-.67-1.07h-.91c-.26.63-.69,1.17-1.24,1.56v.69ZM48.21,55.47h.33l.06-.11c-.13.04-.26.06-.39.06v.06ZM46.5,55.47h.34l.07-.18c-.15-.04-.28-.08-.41-.13v.32ZM43.05,54.3h0v1.17h.34l.46-1.17h.93v1.17h.33l.39-.97c-.71-.65-1.15-1.58-1.15-2.62,0-.35.06-.7.17-1.04h-.85c.09.34.15.69.15,1.04,0,.93-.35,1.78-.93,2.41h.17ZM41.29,55.47h.37l.15-.39c-.17.09-.34.15-.52.2v.18ZM39.6,55.47h.3l.04-.06c-.11,0-.22-.02-.33-.04v.09ZM37.87,55.47h.33l.22-.56c-.2-.11-.39-.26-.56-.43v.98ZM36.14,54.3h0v1.17h.33l.46-1.17h.73c-.28-.31-.52-.67-.67-1.07h-.93c-.15.41-.37.76-.67,1.07h.74ZM34.42,55.47h.33l.35-.89c-.21.19-.45.34-.69.47v.43ZM32.69,55.47h.33l.02-.04h-.35v.04ZM30.97,55.47h.33l.13-.32c-.17-.05-.32-.15-.46-.22v.54ZM27.51,55.47h.33l.48-1.17h.91v1.17h.33l.48-1.17h.15c-.59-.63-.95-1.48-.95-2.41,0-.28.04-.55.11-.84h-.45c.08.28.11.56.11.84,0,1.21-.61,2.27-1.52,2.92v.67ZM25.86,55.47h.26l.06-.09c-.11.02-.2.02-.32.04v.06ZM24.15,55.47h.33l.06-.17c-.13-.04-.26-.08-.39-.13v.29ZM20.7,54.3h0v1.17h.33l.46-1.17h.93v1.17h.33l.37-.93c-.39-.36-.71-.78-.91-1.27h-.95c-.17.37-.39.73-.65,1.02h.07ZM18.97,55.47h.33l.13-.33c-.15.07-.3.13-.46.17v.17ZM17.58,55.47h0l.02-.06s-.09-.02-.13-.02l-.02.07h.13ZM16.11,55.1h0l.11-.15c-.09-.05-.17-.11-.26-.17l-.06.26.2.06ZM12.09,48.69h0l-1.45-.56c-.02.09-.06.17-.09.26l1.34.76c.07-.15.15-.3.21-.47h0ZM9.89,49.36h0c-.07.07-.15.13-.22.18l.76,1.36c.32-.22.58-.48.82-.76l-1.36-.78ZM7.2,44.31h0v-1.56c-.43.08-.85.19-1.24.37l.76,1.34c.17-.06.32-.11.48-.15h0ZM8.37,42.75h0v1.56c.17.04.33.08.48.13l.35-.61-.04-.89c-.26-.09-.52-.15-.8-.19h0ZM11.1,53.8h0l.2.03.74-1.02.89.22-.3,1.15.33.09.74-1.04.89.22-.3,1.15.24.08.56-.76c-.41-.57-.63-1.28-.63-2.04s.22-1.45.63-2.02l-2.15-.83c-.07.2-.17.41-.26.59l.31.19c.09.06.15.17.11.24l-.45.74c-.04.07-.15.09-.26.04l-.35-.2c-.32.41-.72.78-1.15,1.08l.22.41c.06.09.06.22-.02.26l-.22.13.54.15-.33,1.15ZM9.45,53.3h0l.32.1.48-.6c-.06-.02-.09-.05-.11-.11l-.24-.41c-.06.02-.11.04-.17.06l-.28.96ZM9.41,51.46h0l-.78-1.38c-.09.04-.17.06-.26.08v1.54c.37-.04.71-.13,1.04-.24h0ZM7.04,51.68h0l.17-.22v-1.3c-.07-.02-.17-.06-.24-.08l-.78,1.36c.28.11.56.18.85.24h0ZM5.14,50.89h0l.78-1.34c-.07-.07-.15-.13-.2-.2l-1.37.78c.24.3.52.54.8.76h0ZM3.71,49.14h0l1.34-.76c-.04-.12-.07-.23-.09-.32h-1.6c.07.37.2.74.35,1.08h0ZM3.3,46.89h1.54c.02-.15.06-.28.07-.41l-1.36-.78c-.13.37-.22.78-.26,1.19h0ZM4.1,44.67h0l1.34.78c.09-.13.19-.24.3-.35l-.78-1.36c-.32.26-.61.57-.86.93h0ZM5.46,42.25h0l.02.06c.54-.26,1.11-.43,1.73-.48v-.06l-1.88.37s.09.06.13.11h0ZM4.34,50.12c.24.3.52.54.8.76l.78-1.34-.2-.2-1.37.78ZM7.2,51.46v-1.3l-.24-.08-.78,1.36c.28.11.56.18.85.24l.17-.22ZM9.41,51.46l-.78-1.38c-.09.04-.17.06-.26.08v1.54c.37-.04.71-.13,1.04-.24h0ZM11.25,50.14l-1.36-.78c-.07.07-.15.13-.22.18l.76,1.36c.32-.22.58-.48.82-.76h0ZM12.09,48.69l-1.45-.56c-.02.09-.06.17-.09.26l1.34.76c.07-.15.15-.3.21-.47h0ZM8.37,42.75v1.56c.17.04.33.08.48.13l.35-.61-.04-.89c-.26-.09-.52-.15-.8-.19h0ZM5.96,43.12l.76,1.34c.17-.06.32-.11.48-.15v-1.56c-.43.08-.85.19-1.24.37h0ZM4.1,44.67l1.34.78c.09-.13.19-.24.3-.35l-.78-1.36c-.32.26-.61.57-.86.93h0ZM3.3,46.89h1.54c.02-.15.06-.28.07-.41l-1.36-.78c-.13.37-.22.78-.26,1.19h0ZM3.71,49.14l1.34-.76c-.04-.12-.07-.23-.09-.32h-1.6c.07.37.2.74.35,1.08h0Z"/>
  </g>
</svg>