<svg width="635" height="140" viewBox="0 0 635 140" fill="none" xmlns="http://www.w3.org/2000/svg">
<path d="M626 8.99999C627 9.99999 627 9.99999 627.114 12.2248C627.106 13.6623 627.106 13.6623 627.098 15.1289C627.093 16.6806 627.093 16.6806 627.088 18.2637C627.075 19.8966 627.075 19.8966 627.062 21.5625C627.058 22.655 627.053 23.7475 627.049 24.873C627.037 27.5821 627.021 30.291 627 33C622.678 31.565 618.358 30.1273 614.051 28.6484C612.817 28.2282 611.584 27.808 610.312 27.375C609.071 26.9496 607.83 26.5242 606.551 26.0859C597.325 23.2643 585.837 21.9449 576.75 25.75C572.519 28.0456 572.519 28.0456 570 32C569.185 36.8994 569.209 39.8058 572.016 44.043C575.193 47.5875 578.902 49.1751 583.25 50.9375C584.036 51.2725 584.823 51.6075 585.633 51.9526C589.606 53.6352 593.606 55.2471 597.609 56.8555C611.7 62.5219 625.097 68.5216 632 83C635.596 93.3476 635.769 106.509 631.312 116.613C625.24 127.655 616.042 134.387 604 138C582.848 141.812 562.686 137.809 543 130C542 129 542 129 541.886 126.683C541.892 125.683 541.897 124.683 541.902 123.652C541.906 122.573 541.909 121.493 541.912 120.381C541.92 119.245 541.929 118.108 541.938 116.937C541.942 115.797 541.947 114.657 541.951 113.482C541.963 110.655 541.979 107.827 542 105C548.906 107.225 555.554 109.811 562.254 112.598C569.856 115.444 576.439 116.363 584.5 116.375C585.398 116.399 586.297 116.424 587.223 116.449C593.247 116.476 598.045 115.596 603 112C605.901 108.62 607.227 105.393 607.5 100.937C606.918 96.3522 606.063 94.446 603 91C596.638 86.0923 589.104 83.4481 581.688 80.5625C552.799 69.3057 552.799 69.3057 545 55C541.269 46.2229 541.453 34.3797 544.062 25.3047C549.624 13.4855 557.942 7.47575 570 2.99999C587.647 -3.08708 609.617 1.08733 626 8.99999Z" fill="black"/>
<path d="M495 137H432L463.5 47L495 137Z" fill="#FD914D"/>
<path d="M449 3C458.9 3 468.8 3 479 3C491.305 35.2599 503.572 67.5339 515.797 99.8239C516.914 102.773 518.032 105.722 519.149 108.671C520.638 112.599 522.124 116.529 523.605 120.46C524.113 121.805 524.621 123.149 525.131 124.493C525.807 126.276 526.478 128.06 527.148 129.844C527.511 130.805 527.874 131.766 528.248 132.756C529 135 529 135 529 137C520.75 137 512.5 137 504 137C500.023 127.726 496.501 118.34 493.068 108.855C491.433 104.338 489.787 99.8253 488.141 95.3125C487.802 94.3836 487.463 93.4547 487.114 92.4976C483.423 82.3944 479.657 72.3197 475.875 62.25C475.564 61.4204 475.252 60.5907 474.932 59.736C471.33 50.1407 467.698 40.5584 464 31C461.611 34.5835 460.287 38.3332 458.824 42.3516C458.506 43.2146 458.189 44.0776 457.861 44.9667C456.8 47.8515 455.744 50.7382 454.688 53.625C453.945 55.6455 453.202 57.6658 452.459 59.686C450.848 64.068 449.239 68.4507 447.631 72.834C444.829 80.4701 442.017 88.1025 439.203 95.7344C438.717 97.0522 438.231 98.3701 437.746 99.688C437.024 101.647 436.301 103.606 435.579 105.565C431.717 116.042 427.859 126.521 424 137C415.75 137 407.5 137 399 137C399.651 133.746 400.203 131.167 401.328 128.152C401.598 127.425 401.867 126.698 402.144 125.95C402.438 125.168 402.732 124.387 403.035 123.582C403.345 122.749 403.655 121.917 403.974 121.059C405 118.309 406.031 115.561 407.062 112.812C407.787 110.874 408.512 108.935 409.236 106.996C415.728 89.6461 422.316 72.3328 428.932 55.03C431.471 48.3887 434.001 41.7438 436.527 35.0977C437.273 33.1374 438.018 31.1772 438.764 29.217C439.844 26.3767 440.924 23.5363 442.003 20.6955C442.989 18.0987 443.977 15.5024 444.965 12.9062C445.259 12.1313 445.553 11.3564 445.856 10.558C447.886 5.2278 447.886 5.2278 449 3Z" fill="black"/>
<path d="M235 4C248.2 4 261.4 4 275 4C279.718 16.4049 284.336 28.8154 288.625 41.375C292.677 53.2342 296.827 65.0563 301.034 76.8616C301.719 78.7847 302.403 80.7082 303.086 82.632C304.045 85.3339 305.008 88.0343 305.973 90.7344C306.264 91.5559 306.555 92.3773 306.855 93.2237C307.943 96.891 307.943 96.891 310 100C310.376 98.8923 310.752 97.7846 311.139 96.6433C319.048 73.3447 327.028 50.0732 335.162 26.8523C335.465 25.988 335.768 25.1237 336.079 24.2332C336.638 22.6392 337.197 21.0454 337.756 19.4518C339.556 14.3162 341.279 9.16403 343 4C356.2 4 369.4 4 383 4C383 47.89 383 91.78 383 137C374.75 137 366.5 137 358 137C357.505 88.49 357.505 88.49 357 39C354.174 47.1881 351.349 55.3763 348.438 63.8125C340.008 88.2258 331.526 112.62 323 137C314.09 137 305.18 137 296 137C290.229 121.44 284.63 105.822 279.062 90.1875C277.766 86.5469 276.469 82.9064 275.171 79.2662C274.372 77.0255 273.574 74.7845 272.776 72.5433C268.902 61.6762 264.943 50.8432 261 40C260.67 72.01 260.34 104.02 260 137C251.75 137 243.5 137 235 137C235 93.11 235 49.22 235 4Z" fill="black"/>
<path d="M122 3C150.71 3 179.42 3 209 3C209 10.59 209 18.18 209 26C188.54 26 168.08 26 147 26C147 36.89 147 47.78 147 59C166.14 59 185.28 59 205 59C205 65.93 205 72.86 205 80C185.86 80 166.72 80 147 80C147 91.55 147 103.1 147 115C167.46 115 187.92 115 209 115C209 122.26 209 129.52 209 137C180.29 137 151.58 137 122 137C122 92.78 122 48.56 122 3Z" fill="black"/>
<path d="M101 33L67 67V33L101 33Z" fill="#FD914D"/>
<path d="M0 4C33.33 4 66.66 4 101 4C101 11.59 101 19.18 101 27C88.46 27 75.92 27 63 27C63 63.3 63 99.6 63 137C54.75 137 46.5 137 38 137C38 100.7 38 64.4 38 27C25.46 27 12.92 27 0 27C0 19.41 0 11.82 0 4Z" fill="black"/>
</svg>
