<?xml version="1.0" encoding="UTF-8"?>
<svg id="Layer_2" xmlns="http://www.w3.org/2000/svg" viewBox="0 0 118.57 35.5">
  <defs>
    <style>
      .cls-1 {
        fill: #fff;
      }
    </style>
  </defs>
  <g id="_x31_1">
    <path class="cls-1" d="M84.8,17.66l.13.18-1.78,1.26-.69.49-.02.13-.48.33-.04.24.06.09-1.54,1.08c.04.19.06.37.06.58v.02h2.14l-.02,4.31,1.91.02h.13c.24,0,.48-.02.72-.02h.28v-1.1c0-.55.3-1.04.74-1.33v-.24h1.32c.06-.02.09-.08.09-.13l.28-2.66s0-.07-.04-.11c-.02-.04-.07-.06-.11-.06h.04c.07,0,.15-.06.15-.15l.17-1.62s0-.07-.04-.11c-.02-.04-.07-.06-.11-.06h.04c.09,0,.15-.05.15-.15l.15-1.41s0-.1-.04-.13c-.02-.02-.08-.04-.11-.04h.04c.08,0,.15-.07.15-.15l.06-.52h.43l.06.52c0,.09.07.15.15.15h1.43-1.39s-.09.02-.13.05c-.02.02-.04.07-.04.11l.13,1.43c.02.07.08.13.17.13l1.93.02-1.89-.02h0c-.06,0-.09.02-.13.06-.02.04-.04.08-.04.13l.15,1.62c.02.07.08.13.17.13l2.32.02-2.3-.02h0s-.08.02-.11.06c-.04.04-.04.07-.04.13l.24,2.6c.02.07.07.13.17.13l3.38.02s.09-.02.11-.04c.04-.04.06-.07.06-.13v-.89c0-.09-.07-.17-.17-.17h-.39l.02-2.71h1.65l-.02,2.71h-.63c-.06.02-.08.02-.11.06-.02.02-.04.05-.04.11v.91c0,.07.06.15.15.15h1.71c.06,0,.09-.02.13-.06v.02s.07.04.11.04h.37c.06,0,.09-.02.13-.06.02.04.06.06.11.06l.78.02v.18h-.17c.41.21.73.59.84,1.06,2.84-.54,5.35-1.11,7.07-1.56,3.29-.87,11.27-2.39,13.65-2.82l-8.67,11.12h.02c-.15.24-.2.5-.17.76.09.83,1.04,1.5,1.37,1.71l.24,1.35-71.36-.24H1.39l-.02-.21-.78-3.71h.02c-.28-1.54-.54-4.34-.61-5.23h1.02v-3.84h.76l-.02,3.84,1.04.02h.26l.02-2.41h.22v2.41h1.39v-1.34h1.04v1.34h.26l3.75.02,2.15-2.04,3.68.02s.13-.03.19-.07c.04-.06.07-.13.07-.19l.02-4.79,2.82.02-.02,4.68c0,.07.02.15.07.18.06.06.11.09.19.09h1.04c.13,0,.24-.09.26-.22.5-2.68,1.28-5.31,1.3-8.02h0v-1.47h0v-.52h.5c.02-.3.09-.58.22-.82l-2.34-1.62.07-.09-.06-.24-.46-.33-.02-.13-.69-.48-1.8-1.26.13-.2,1.84,1.21.71.46.11-.02.98.65.41-.04.11-.15.07.06.09-.15.82.56.06-.09.13.07s.15-.22.26-.39c.11-.15.2-.04.2-.04l.13.08c.13.09.04.18.04.18l-.21.3.19.13.04.17-.09.13.32.22c.3-.13.63-.2.97-.2h0c1.17,0,2.15.91,2.25,2.06h.41l-.02,3.49.87.02h.26l.02-4.66,4.22.02,2.65,4.66h1.28c.15,0,.26-.11.26-.26v-3.4h0V0h7v12.74h0v1.95c0,.15.11.26.26.26h.09l.02-1.93h2.88l-.02,1.95h.3l.02-2.86h2.52l-.02,2.86h.32l.06-7.3h1.58l-.06,7.31h.43l.07-9.77,1.58.02-.09,9.75h.45l.06-7.31h1.56l-.06,7.31h1.35l-.02,2.27c0,.15.13.26.26.26l6.85.02.19,2.19c.02.13.13.24.26.24h2.73l1,2.28-.02,1.3-36.91-.11h0c-.07,0-.15.02-.2.09l-2.14,2.67h.67l1.8-2.25,41.82.13h0c.15,0,.26-.11.26-.26v-1.78h1.5v-.02c.02-1.6,1.28-2.88,2.86-2.88.85,0,1.64.39,2.15,1l.67-.47.09.13.09-.06.09.15.43.06.97-.67.11.02.71-.47,1.84-1.19Z"/>
  </g>
</svg>