<?xml version="1.0" encoding="UTF-8"?>
<svg xmlns="http://www.w3.org/2000/svg" viewBox="0 0 4016.24 2921.31">
  <defs>
    <style>
      .cls-1 {
        opacity: .22;
      }

      .cls-1, .cls-2 {
        fill: #003889;
        mix-blend-mode: multiply;
      }

      .cls-3 {
        fill: #efa37d;
      }

      .cls-4 {
        fill: #072542;
      }

      .cls-2 {
        opacity: .2;
      }

      .cls-5 {
        fill: #fff;
      }

      .cls-6 {
        fill: #33da82;
      }

      .cls-7 {
        fill: #ecf3fe;
      }

      .cls-8 {
        fill: #f4b545;
      }

      .cls-9 {
        fill: #fdc8aa;
      }

      .cls-10 {
        fill: #e59d29;
      }

      .cls-11 {
        fill: #224577;
      }

      .cls-12 {
        fill: #c4d7f2;
      }

      .cls-13 {
        isolation: isolate;
      }

      .cls-14 {
        fill: #1f3a6f;
      }

      .cls-15 {
        fill: #f7c959;
      }

      .cls-16 {
        fill: #1a71d8;
      }

      .cls-17 {
        fill: #15315e;
      }

      .cls-18 {
        fill: #36588e;
      }

      .cls-19 {
        fill: #acc6e5;
      }

      .cls-20 {
        fill: #3b82f4;
      }

      .cls-21 {
        fill: #d7e4f9;
      }
    </style>
  </defs>
  <g class="cls-13">
    <g id="Layer_2">
      <g id="Layer_1-2" data-name="Layer_1">
        <g>
          <path class="cls-7" d="M3609.76,2814.16c144.9-239.17,228.32-519.74,228.32-819.8,0-875.02-709.34-1584.37-1584.37-1584.37S669.35,1119.34,669.35,1994.36c0,300.06,83.42,580.63,228.32,819.8h2712.09Z"/>
          <path class="cls-5" d="M3442.18,2193.39l134.27-53.67q-4.47-115.5-8.94-231.3l-138.03-43.16c-30.43-66.12-45.8-99.51-76.26-165.64l57.01-132.91q-84.83-78.51-169.88-157.23l-128.12,67.08-171.04-63.22-53.69-134.28q-115.48,4.47-231.28,8.95l-43.16,138.03c-66.12,30.43-99.51,45.8-165.63,76.23l-132.92-56.99q-78.51,84.83-157.23,169.88l67.09,128.1-63.22,171.04-134.28,53.69q4.47,115.5,8.94,231.3l138.03,43.16c30.43,66.12,45.8,99.51,76.24,165.63l-56.99,132.92q84.83,78.51,169.86,157.22l128.12-67.08,171.04,63.22,53.69,134.28q115.5-4.47,231.3-8.94l43.14-138.04c66.14-30.42,99.54-45.8,165.65-76.23l132.92,56.99q78.51-84.83,157.23-169.88l-67.08-128.12,63.22-171.04ZM2697.98,2334.39c-154.92-57.26-234.11-229.27-176.84-384.22,57.26-154.92,229.29-234.08,384.21-176.82,154.93,57.26,234.11,229.27,176.85,384.2-57.27,154.95-229.29,234.11-384.22,176.85Z"/>
          <path class="cls-6" d="M4005.46,1623.41s-122.01-51.32-235.03,477.51c-63.28,296.1-101.3,449.48-122.52,527.14l-6.78-1.12c51.51-223.89,152.07-724.36,57.56-862.63,0,0-111.61-16.37-92.3,444.09,8.77,209.04,11.27,337.12,11.38,414.67l-7.29-1.21c-37.64-184.55-124.8-551.95-233.36-618.24,0,0-85.3,24.29,77.16,348.14,62.52,124.62,103.01,208.97,129.2,265.63l-54.22-8.98,20.55,148.74,105.2,21.19,61.95-138.83-52.86-8.76c110.58-209.08,412.71-810.08,341.35-1007.33Z"/>
          <circle class="cls-7" cx="1114.38" cy="1701.72" r="892.22"/>
          <path class="cls-12" d="M1958.02,1739.46l-1840.32,97.63c-33.6,1.78-62.29-24.01-64.07-57.62L.09,770.37c-1.78-33.6,24.01-62.29,57.62-64.07l1840.32-97.63c33.6-1.78,62.29,24.01,64.07,57.62l53.54,1009.11c1.78,33.6-24.01,62.29-57.62,64.08Z"/>
          <rect class="cls-20" x="78.33" y="592.08" width="1964.78" height="1132.39" rx="60.93" ry="60.93"/>
          <path class="cls-5" d="M1949.64,1661.6H171.79c-16.87,0-30.59-13.72-30.59-30.59v-945.46c0-16.87,13.72-30.59,30.59-30.59h1777.85c16.87,0,30.59,13.72,30.59,30.59v945.46c0,16.87-13.72,30.59-30.59,30.59ZM171.79,671.72c-7.62,0-13.82,6.2-13.82,13.82v945.46c0,7.62,6.2,13.82,13.82,13.82h1777.85c7.62,0,13.82-6.2,13.82-13.82v-945.46c0-7.62-6.2-13.82-13.82-13.82H171.79Z"/>
          <polygon class="cls-5" points="888.29 1304.07 428.98 1304.07 428.98 988.45 445.75 988.45 445.75 1287.31 888.29 1287.31 888.29 1304.07"/>
          <path class="cls-12" d="M2951.77,1151.61c-9.16-29.98-13.79-45.13-22.95-75.14l32.09-53.42q-31.67-38.46-63.39-77l-58.59,21.21-69.34-36.92-15.11-60.45q-49.57-4.81-99.27-9.61l-26.44,56.42c-29.98,9.13-45.16,13.76-75.14,22.89l-53.42-32.03q-38.46,31.64-77,63.36l21.21,58.59-36.92,69.34-60.45,15.11q-4.81,49.57-9.64,99.27l56.42,26.44c9.16,29.98,13.76,45.16,22.92,75.14l-32.06,53.42q31.67,38.46,63.39,77l58.59-21.21,69.34,36.92,15.11,60.45q49.57,4.81,99.27,9.64l26.44-56.42c29.99-9.16,45.13-13.76,75.14-22.92l53.42,32.06c17.31-14.24,26.83-22.08,35.57-29.29,10.73-8.83,20.28-16.67,41.43-34.1l-21.21-58.59,15.05-28.24,21.87-41.1,60.45-15.11q4.81-49.57,9.61-99.27l-56.39-26.44ZM2786.53,1256.19c-33.47,62.82-111.5,86.62-174.32,53.18-62.79-33.44-86.62-111.5-53.15-174.29,33.44-62.82,111.5-86.62,174.29-53.18,62.82,33.47,86.62,111.5,53.18,174.29Z"/>
          <ellipse class="cls-21" cx="2019.49" cy="2793.3" rx="1816.93" ry="128.01"/>
          <path class="cls-8" d="M1366.86,1205.19l59-27.76q-5.11-51.87-10.23-103.86l-63.28-15.72c-15.47-28.94-23.28-43.56-38.77-72.51l22.09-61.35q-40.29-33.06-80.68-66.21l-55.86,33.63-78.68-23.86-27.77-59q-51.86,5.11-103.85,10.23l-15.72,63.28c-28.94,15.47-43.56,23.28-72.5,38.75l-61.35-22.08q-33.06,40.29-66.21,80.68l33.63,55.85-23.86,78.68-59,27.77q5.11,51.87,10.23,103.86l63.28,15.72c15.47,28.94,23.28,43.56,38.76,72.5l-22.08,61.35q40.29,33.06,80.67,66.2l55.86-33.63,78.68,23.86,27.77,59q51.87-5.11,103.86-10.23l15.71-63.29c28.95-15.47,43.57-23.28,72.51-38.75l61.35,22.08q33.06-40.29,66.21-80.68l-33.63-55.86,23.86-78.68ZM1035.69,1288.61c-71.27-21.62-111.52-96.91-89.9-168.19,21.62-71.26,96.92-111.51,168.18-89.89,71.27,21.62,111.52,96.91,89.9,168.18-21.62,71.27-96.92,111.52-168.19,89.9Z"/>
          <path class="cls-2" d="M1717.52,1814.92c-26.83,0-51.87,7.65-73.1,20.84v-381.61c-19.52,10.5-41.83,16.43-65.54,16.43-76.59,0-138.65-62.07-138.65-138.64s62.07-138.64,138.65-138.64c23.7,0,46.02,5.94,65.54,16.44v-184.69h-.41c-356.33.26-647.38,290.52-648.47,646.81-.77,248.79,138.43,464.94,343.14,574.5,44.49,23.81,75.52,66.51,84.2,115.82h221.53v-290.83c21.22,13.2,46.26,20.84,73.1,20.84,76.57,0,138.64-62.07,138.64-138.64s-62.07-138.64-138.64-138.64Z"/>
          <path class="cls-5" d="M1660.31,1789.68c-26.83,0-51.87,7.65-73.09,20.84v-381.61c-19.52,10.5-41.83,16.43-65.54,16.43-76.59,0-138.65-62.07-138.65-138.64s62.07-138.64,138.65-138.64c23.7,0,46.02,5.94,65.54,16.43v-184.69h-.41c-356.33.26-647.38,290.52-648.47,646.81-.77,248.79,138.43,464.94,343.14,574.5,44.49,23.81,75.52,66.51,84.2,115.82h221.53v-290.83c21.22,13.2,46.26,20.84,73.09,20.84,76.57,0,138.64-62.07,138.64-138.64s-62.07-138.64-138.64-138.64Z"/>
          <path class="cls-8" d="M1890.69,796.32v184.69c-19.51-10.48-41.86-16.43-65.56-16.43-76.54,0-138.62,62.08-138.62,138.62s62.08,138.66,138.62,138.66c23.7,0,46.05-5.99,65.56-16.47v381.64c21.21-13.23,46.28-20.83,73.1-20.83,5.45,0,10.84.31,16.12.94,3.08.36,6.14.8,9.16,1.36,9.52,1.74,18.67,4.46,27.39,8.05,3,1.24,5.93,2.58,8.8,4,1.55.75,3.08,1.55,4.61,2.39,12.11,6.58,23.14,14.92,32.74,24.67,24.63,25.02,39.8,59.36,39.8,97.21,0,48.56-24.96,91.3-62.77,116.05-21.8,14.27-47.85,22.57-75.85,22.57-1.57,0-3.14-.02-4.69-.08-2.26-.08-4.51-.21-6.75-.38-22.51-1.84-43.49-9.03-61.66-20.35v290.8h224.39c1.51-9.18,3.81-18.13,6.81-26.79,2.98-8.53,6.64-16.79,10.96-24.67,11.7-21.4,28.13-40.07,48.23-54.49,3.35-2.43,6.79-4.72,10.35-6.87,2.43-1.51,4.93-2.93,7.44-4.3,7.86-4.25,15.61-8.66,23.26-13.23,3.44-2.03,6.87-4.13,10.27-6.25,184.81-114.64,307.7-319.58,307.17-553.08-.8-357.87-291.16-647.5-648.89-647.44ZM2070.31,882.53c17.42,0,31.54,14.13,31.54,31.54s-14.13,31.54-31.54,31.54-31.54-14.11-31.54-31.54,14.11-31.54,31.54-31.54Z"/>
          <path class="cls-18" d="M2101.85,914.08c0,3.27-.48,6.43-1.41,9.37v.03c-6.19,2.58-12.95,4.03-20.07,4.03-16.61,0-31.43-7.84-40.92-20.04-6.88-8.77-11-19.86-11-31.88,0-25.36,18.24-46.51,42.27-51.05v-39.78c0-5.32,4.33-9.64,9.64-9.64s9.67,4.33,9.67,9.64v48.52c0,5.35-4.33,9.67-9.67,9.67-17.97,0-32.6,14.63-32.6,32.63,0,4.9,1.08,9.52,3.03,13.7,5.17,11.15,16.49,18.9,29.56,18.9,7.12,0,13.7-2.28,19.08-6.19,1.56,3.7,2.4,7.78,2.4,12.08Z"/>
          <g>
            <path class="cls-18" d="M2108.02,608.58c2.78,0,5.03-2.25,5.03-5.02V236.23c0-2.77-2.25-5.02-5.03-5.02s-5.02,2.25-5.02,5.02v367.32c0,2.77,2.25,5.02,5.02,5.02Z"/>
            <path class="cls-18" d="M2052.74,608.58c2.78,0,5.03-2.25,5.03-5.02V236.23c0-2.77-2.25-5.02-5.03-5.02s-5.02,2.25-5.02,5.02v367.32c0,2.77,2.25,5.02,5.02,5.02Z"/>
          </g>
          <rect class="cls-19" x="2049.3" y="151.82" width="57.98" height="199.31" rx="2.46" ry="2.46" transform="translate(2329.76 -1826.82) rotate(90)"/>
          <path class="cls-18" d="M2119.06,794.08c14.22,0,26.22-10.19,28.53-24.22l28.27-172.22c1.38-8.39-.99-16.91-6.48-23.39-5.5-6.48-13.54-10.2-22.04-10.2h-133.91c-8.61,0-16.71,3.8-22.22,10.41-5.5,6.61-7.77,15.26-6.21,23.73l31.7,172.21c2.52,13.72,14.48,23.68,28.43,23.68h73.92Z"/>
          <g>
            <rect class="cls-16" x="771.6" y="2336.94" width="472.53" height="456.36"/>
            <rect class="cls-20" x="588.18" y="2336.94" width="472.53" height="456.36"/>
            <path class="cls-5" d="M719.58,2494.02c0-13.28,4.26-26.74,12.79-40.37,8.53-13.63,20.97-24.92,37.33-33.87,16.36-8.95,35.45-13.42,57.26-13.42,20.27,0,38.17,3.74,53.69,11.22,15.52,7.48,27.51,17.65,35.97,30.52,8.46,12.87,12.69,26.85,12.69,41.95,0,11.89-2.41,22.3-7.24,31.25-4.82,8.95-10.56,16.67-17.2,23.18-6.64,6.5-18.56,17.44-35.76,32.82-4.75,4.33-8.57,8.15-11.43,11.43-2.87,3.29-5,6.29-6.4,9.02-1.4,2.73-2.48,5.45-3.25,8.18-.77,2.72-1.92,7.52-3.46,14.37-2.66,14.54-10.98,21.81-24.96,21.81-7.27,0-13.39-2.38-18.35-7.13-4.97-4.75-7.45-11.81-7.45-21.18,0-11.74,1.81-21.92,5.45-30.52,3.64-8.6,8.46-16.15,14.47-22.65,6.01-6.5,14.12-14.22,24.33-23.17,8.95-7.83,15.42-13.74,19.4-17.72s7.34-8.42,10.07-13.32c2.73-4.89,4.09-10.21,4.09-15.94,0-11.18-4.16-20.62-12.48-28.31-8.32-7.69-19.05-11.54-32.2-11.54-15.38,0-26.71,3.88-33.97,11.64-7.27,7.76-13.42,19.19-18.46,34.29-4.75,15.8-13.77,23.7-27.05,23.7-7.83,0-14.44-2.76-19.82-8.28-5.38-5.52-8.08-11.5-8.08-17.93ZM821.93,2723.89c-8.53,0-15.98-2.76-22.34-8.28-6.36-5.52-9.54-13.25-9.54-23.18,0-8.81,3.07-16.22,9.23-22.23,6.15-6.01,13.7-9.02,22.65-9.02s16.22,3.01,22.23,9.02c6.01,6.01,9.02,13.42,9.02,22.23,0,9.79-3.15,17.48-9.44,23.07-6.29,5.59-13.57,8.39-21.81,8.39Z"/>
          </g>
          <circle class="cls-5" cx="534.28" cy="2030.71" r="69.97" transform="translate(-1564.86 2084.13) rotate(-76.72)"/>
          <g>
            <path class="cls-10" d="M2596.02,2788.05c-85.15,29.95-174.68,19.8-247.99-20.54-49.6-15.07-109.34-7-140.64-.82-12.59,2.5-25.22-4.83-29.52-17.07l-85.99-244.5c-4.31-12.24.96-25.85,12.34-31.8,3.85-2.01,8.11-4.32,12.69-6.92,29.19-16.52,71.2-44.76,96.47-81.74,31.91-77.37,95.37-141.33,180.52-171.27,158.69-55.81,332.57,27.59,388.38,186.28,11.9,33.83,17.47,68.33,17.34,102.24-.5,125.19-78.74,242.22-203.61,286.13Z"/>
            <path class="cls-8" d="M2607.98,2704.97c-11.83,4.16-23.74,7.54-35.72,10.13-60.61,15.78-119.05-2.26-173.34-25.86-7.99-2.59-16-4.96-24.09-7.16-16.13-4.4-32.43-8.06-48.94-11.27-9.92-1.92-19.88-3.68-29.87-5.37-66.41-1.3-117.85-48.81-143.68-108.17-3.64-7.98-7.02-16.11-10.18-24.34-9.71-21.19-19.52-44.15-25.25-66.52,29.19-16.52,71.2-44.76,96.47-81.74,31.91-77.37,95.37-141.33,180.52-171.27,158.69-55.81,332.57,27.59,388.38,186.28,11.9,33.83,17.47,68.33,17.34,102.24-26.4,91.39-95.08,169.09-191.65,203.05Z"/>
            <path class="cls-5" d="M2489.54,2601.55c-6.55-18.61-22.5-31.23-40.63-34.39l9.72-13.08-46.74-12.2,28.83-38.73-43.25-11.28c26.1-10.39,39.56-39.65,30.16-66.37-9.66-27.46-39.73-41.87-67.17-32.22-24,8.44-38.04,32.52-34.71,56.8l-310.86,141.42,12.54,27.58,310.87-141.44c8.52,9.74,20.37,15.99,33.13,17.6l-3.67,4.94,46.73,12.18-28.82,38.75,46.74,12.2-3.08,4.13c-2.32.47-4.64,1.11-6.95,1.92-20.9,7.35-34.24,26.57-35.14,47.46l-330.97,84.3,7.48,29.34,330.96-84.29c12.6,21.02,38.61,30.99,62.61,22.55,27.44-9.65,41.88-39.7,32.22-67.15ZM2347.73,2453.6c-5.87-16.69,2.88-34.97,19.57-40.84,16.69-5.87,34.98,2.9,40.85,19.59,2.72,7.73,2.29,15.83-.63,22.85-3.36,8.11-10.03,14.82-18.98,17.96-.31.11-.62.22-.93.31-16.43,5.24-34.13-3.51-39.89-19.87ZM2409.65,2629.65c-4.08-11.61-1.09-23.99,6.75-32.43,3.42-3.67,7.77-6.61,12.83-8.39,1.48-.52,2.97-.93,4.47-1.23,15.37-3.03,31.03,5.6,36.37,20.8,5.87,16.69-2.9,34.98-19.59,40.85-16.69,5.87-34.96-2.91-40.83-19.6Z"/>
            <g>
              <path class="cls-5" d="M2051.76,2805.18c-.23,1.6-.64,3.16-1.21,4.67-.84,2.26-2.04,4.4-3.56,6.29-2.54,3.15-5.94,5.66-10.01,7.09-11.64,4.09-24.54-2.08-28.64-13.72l-86.16-244.96c-2.05-5.84-1.53-11.97.97-17.17,2.5-5.18,6.95-9.43,12.77-11.48,6.52-2.29,13.43-1.37,18.95,1.94,1.39.82,2.69,1.77,3.87,2.88,1.67,1.57,4.45.59,4.77-1.68.3-2.01.84-3.96,1.64-5.81,2.41-5.54,7.02-10.09,13.14-12.24,6.35-2.23,13.07-1.41,18.52,1.69,1.54.87,2.99,1.92,4.29,3.14,1.67,1.57,4.45.59,4.77-1.68.26-1.85.76-3.65,1.48-5.34.81-2.02,1.92-3.92,3.29-5.61,2.54-3.15,5.94-5.66,10.01-7.09,6.35-2.23,13.07-1.41,18.52,1.69,1.56.86,3.01,1.91,4.31,3.14,1.7,1.6,4.45.52,4.79-1.8.26-1.77.73-3.52,1.44-5.18,2.58-6.39,8.08-11.58,15.46-13.39,11.34-2.77,22.85,4.02,26.72,15.03l85.69,243.64c3.87,11.01-.85,23.53-11.43,28.45-6.87,3.19-14.4,2.61-20.43-.75-1.57-.85-3.05-1.92-4.37-3.15-1.72-1.6-4.54-.72-4.86,1.59-.25,1.77-.72,3.49-1.39,5.14-.83,2.09-1.97,4.07-3.38,5.82-2.54,3.15-5.94,5.66-10.01,7.09-6.27,2.2-12.91,1.43-18.33-1.58-1.63-.89-3.15-1.98-4.5-3.24-1.67-1.57-4.45-.59-4.77,1.68-.25,1.77-.72,3.49-1.38,5.13-2.31,5.83-7.03,10.67-13.39,12.91-6.11,2.15-12.56,1.48-17.91-1.32-1.78-.95-3.43-2.11-4.92-3.5-1.67-1.57-4.45-.59-4.77,1.68Z"/>
              <path class="cls-19" d="M1920.48,2559.68l-9.54,125.45c-1.05,13.75,3.72,27.31,13.15,37.38l85.97,91.86-89.58-254.69Z"/>
              <path class="cls-12" d="M2136.5,2775.38c-.25,1.77-.72,3.49-1.39,5.14l-95.92-272.73c1.56.86,3.01,1.91,4.31,3.14,1.7,1.6,4.45.52,4.79-1.8.26-1.77.73-3.52,1.44-5.18l96.01,272.98c-1.57-.85-3.05-1.92-4.37-3.15-1.72-1.6-4.54-.72-4.86,1.59Z"/>
              <path class="cls-12" d="M2094.12,2790.28c-.25,1.77-.72,3.49-1.38,5.13l-95.92-272.73c1.54.87,2.99,1.92,4.29,3.14,1.67,1.57,4.45.59,4.77-1.68.26-1.85.76-3.65,1.48-5.34l96.03,273.03c-1.63-.89-3.15-1.98-4.5-3.24-1.67-1.57-4.45-.59-4.77,1.68Z"/>
              <path class="cls-12" d="M2051.76,2805.18c-.23,1.6-.64,3.16-1.21,4.67l-95.67-272c1.39.82,2.69,1.77,3.87,2.88,1.67,1.57,4.45.59,4.77-1.68.3-2.01.84-3.96,1.64-5.81l96.28,273.76c-1.78-.95-3.43-2.11-4.92-3.5-1.67-1.57-4.45-.59-4.77,1.68Z"/>
              <path class="cls-2" d="M2028.62,2723.91c1.49,1.39,3.13,2.54,4.92,3.5,5.35,2.81,11.79,3.47,17.91,1.32,6.35-2.23,11.07-7.08,13.38-12.91.66-1.64,1.13-3.37,1.38-5.13.32-2.27,3.1-3.25,4.77-1.68,1.35,1.26,2.87,2.35,4.5,3.24,5.42,3.01,12.06,3.79,18.33,1.58,4.07-1.43,7.47-3.94,10.01-7.09,1.41-1.75,2.55-3.73,3.38-5.82.68-1.65,1.15-3.37,1.39-5.14.32-2.31,3.14-3.19,4.86-1.59,1.32,1.23,2.8,2.3,4.37,3.15,6.03,3.36,13.56,3.93,20.43.75,10.58-4.92,15.3-17.44,11.43-28.45l-31.87-90.61c-3.87-11.01-15.39-17.8-26.72-15.03-7.37,1.8-12.88,7-15.46,13.39-.71,1.66-1.18,3.4-1.44,5.18-.34,2.32-3.09,3.4-4.79,1.8-1.3-1.22-2.75-2.28-4.31-3.14-5.45-3.1-12.17-3.92-18.52-1.69-4.07,1.43-7.47,3.94-10.01,7.09-1.37,1.7-2.48,3.59-3.29,5.62-.71,1.7-1.22,3.5-1.48,5.34-.32,2.27-3.1,3.25-4.77,1.68-1.3-1.22-2.75-2.27-4.29-3.14-5.45-3.1-12.16-3.92-18.52-1.69-6.11,2.15-10.72,6.7-13.14,12.24-.8,1.84-1.35,3.79-1.64,5.81-.32,2.27-3.1,3.25-4.77,1.68-1.18-1.11-2.48-2.06-3.87-2.88-5.52-3.31-12.43-4.23-18.95-1.94-5.82,2.05-10.27,6.29-12.77,11.48-2.49,5.2-3.02,11.33-.97,17.17l32.33,91.93c4.09,11.64,16.99,17.81,28.64,13.72,4.07-1.43,7.47-3.94,10.01-7.09,1.52-1.88,2.71-4.02,3.56-6.29.57-1.51.99-3.07,1.21-4.67.32-2.27,3.1-3.25,4.77-1.68Z"/>
            </g>
            <ellipse class="cls-15" cx="2548.98" cy="2347.45" rx="109.15" ry="160.79" transform="translate(-589.21 3817.01) rotate(-67.74)"/>
          </g>
          <g>
            <path class="cls-5" d="M1803.76,2586.01c2.37,1.43,4.57,3.16,6.61,5.15,3.07,2.96,5.74,6.47,7.85,10.4,3.52,6.57,5.56,14.3,5.56,22.54,0,23.58-16.68,42.92-37.06,42.92h-428.84c-10.22,0-19.48-4.83-26.21-12.63-6.7-7.79-10.88-18.5-10.88-30.3,0-13.22,5.23-25.08,13.41-32.94,2.04-1.98,4.24-3.72,6.61-5.15,3.37-2.02,3.37-7.65,0-9.67-2.98-1.81-5.71-4.03-8.15-6.64-7.3-7.86-11.87-19.06-11.87-31.44s4.96-24.45,12.78-32.31c2.19-2.23,4.63-4.17,7.24-5.74,3.37-2.02,3.37-7.65,0-9.67-2.74-1.64-5.26-3.69-7.52-6.05-2.7-2.75-5.05-5.95-6.94-9.5-3.52-6.57-5.56-14.3-5.56-22.54,0-12.87,4.96-24.45,12.78-32.31,2.19-2.26,4.63-4.21,7.24-5.77,3.43-2.05,3.25-7.69-.18-9.77-2.62-1.6-5.08-3.55-7.28-5.88-8.54-8.7-13.62-21.91-12.38-36.35,1.89-22.19,18.79-38.64,38.06-38.64h426.53c19.27,0,36.19,16.45,38.06,38.64,1.2,14.4-3.82,27.62-12.35,36.35-2.19,2.3-4.66,4.28-7.3,5.88-3.43,2.09-3.61,7.72-.18,9.77,2.62,1.57,5.05,3.51,7.24,5.77,2.8,2.82,5.26,6.12,7.21,9.77,3.52,6.57,5.56,14.3,5.56,22.54,0,12.7-4.84,24.17-12.51,32.03-2.28,2.37-4.81,4.42-7.52,6.05-3.37,2.02-3.37,7.65,0,9.67,2.62,1.57,5.05,3.51,7.24,5.74,7.82,7.86,12.78,19.44,12.78,32.31s-4.57,23.58-11.87,31.44c-2.46,2.61-5.17,4.83-8.15,6.64-3.37,2.02-3.37,7.65,0,9.67Z"/>
            <path class="cls-19" d="M1349.34,2667l190.22,96.73c20.85,10.6,44.59,10.6,65.44,0l190.22-96.73h-445.87Z"/>
            <path class="cls-12" d="M1803.76,2414.35c2.62,1.57,5.05,3.51,7.24,5.77h-477.45c2.19-2.26,4.63-4.21,7.24-5.77,3.43-2.05,3.25-7.69-.18-9.77-2.62-1.6-5.08-3.55-7.28-5.88h477.9c-2.19,2.3-4.66,4.28-7.3,5.88-3.43,2.09-3.61,7.72-.18,9.77Z"/>
            <path class="cls-12" d="M1803.76,2500.2c2.62,1.57,5.05,3.51,7.24,5.74h-477.45c2.19-2.23,4.63-4.17,7.24-5.74,3.37-2.02,3.37-7.65,0-9.67-2.74-1.64-5.26-3.69-7.52-6.05h477.99c-2.28,2.37-4.81,4.42-7.52,6.05-3.37,2.02-3.37,7.65,0,9.67Z"/>
            <path class="cls-12" d="M1803.76,2586.01c2.37,1.43,4.57,3.16,6.61,5.15h-476.19c2.04-1.98,4.24-3.72,6.61-5.15,3.37-2.02,3.37-7.65,0-9.67-2.98-1.81-5.71-4.03-8.15-6.64h479.25c-2.46,2.61-5.17,4.83-8.15,6.64-3.37,2.02-3.37,7.65,0,9.67Z"/>
            <path class="cls-2" d="M1664.47,2576.18c2.98-1.81,5.68-4.03,8.15-6.64,7.31-7.86,11.87-19.06,11.87-31.44s-4.96-24.45-12.78-32.31c-2.19-2.23-4.63-4.17-7.24-5.74-3.37-2.02-3.37-7.65,0-9.67,2.71-1.63,5.23-3.69,7.52-6.05,7.67-7.86,12.51-19.34,12.51-32.03,0-8.24-2.04-15.97-5.56-22.54-1.95-3.65-4.42-6.96-7.21-9.77-2.19-2.26-4.63-4.21-7.24-5.77-3.43-2.05-3.25-7.69.18-9.77,2.64-1.6,5.11-3.58,7.3-5.88,8.54-8.73,13.56-21.95,12.35-36.35-1.86-22.19-18.79-38.64-38.06-38.64h-158.63c-19.27,0-36.16,16.45-38.06,38.64-1.23,14.43,3.85,27.65,12.38,36.35,2.19,2.33,4.66,4.28,7.27,5.88,3.43,2.09,3.61,7.72.18,9.77-2.62,1.56-5.05,3.51-7.24,5.77-7.82,7.86-12.78,19.44-12.78,32.31,0,8.24,2.04,15.97,5.56,22.54,1.89,3.55,4.24,6.75,6.94,9.5,2.25,2.37,4.78,4.42,7.52,6.05,3.37,2.02,3.37,7.65,0,9.67-2.62,1.57-5.05,3.51-7.24,5.74-7.82,7.86-12.78,19.44-12.78,32.31s4.57,23.58,11.87,31.44c2.43,2.61,5.17,4.83,8.15,6.64,3.37,2.02,3.37,7.65,0,9.67-2.38,1.43-4.57,3.17-6.61,5.15-8.18,7.86-13.41,19.72-13.41,32.94,0,11.79,4.18,22.5,10.88,30.3,6.73,7.79,15.99,12.63,26.21,12.63h160.94c20.38,0,37.06-19.34,37.06-42.92,0-8.24-2.04-15.97-5.56-22.54-2.1-3.93-4.78-7.44-7.85-10.4-2.04-1.98-4.24-3.72-6.61-5.15-3.37-2.02-3.37-7.65,0-9.67Z"/>
          </g>
          <path class="cls-1" d="M1467.84,2496.15c-12.91-8.87-26.54-.5-51.27,16.09-16.62,11.15-32.44,9.56-41.03,7.31l-1.73,2.3-9.27-8.23,2.54-2.38-148.34-181.65-249.13-74.4c1.73-.2,2.69-.32,2.69-.32,0,0-1.65-13.57-1.78-30.73,10.47-28.55,45.32-63.84,70.81-134.23,3.73-10.3,6.52-19.65,8.6-28.22l130.43,37.9c4.27,1.24,9.03.34,12.85-2.41l142.8-103.28-5.66-9.09c3.03-1.9,5.75-3.48,8.06-4.61,31.53-15.42,50.18-32.9,51.7-58.24,1.52-25.34-26.56-1.75-38.68,11.32-12.12,13.07-3.62-5.15-9.72-15.22-6.1-10.07-22.29,40.6-22.29,40.6,0,0-1.37.91-3.79,2.51l-3.77-6.05-122.27,84.21c-3.25,2.24-7.31,2.63-10.63,1.02-25.51-12.35-133.92-64.85-152.21-73.69-.96-.55-1.82-.95-2.55-1.23-.01,0-.04-.02-.05-.03h0s0,0,0,0c0,0,0,0,0,0l1.64-8.78,3.17-16.96c26.44-.61,51.86-29.79,57.9-67.5.52-3.27.88-6.5,1.09-9.68.22-3.44.26-6.82.13-10.12,11.3-1.99,20.82-7.93,30.33-21.22,21.46-29.96,1.71-74.78-37.05-65.43-38.76,9.36-47.06,27.76-54.61,28.93-7.55,1.17-27.67-9.71-48.35,12.15-7.44,7.86-15.41,25.59-19.98,43.74-8,31.81-5.52,64.9,28.66,48.62.79,3.52,1.8,6.88,3.01,10.06l-3.96,6.08-22.06,33.85c-2.98,1.07-50.92-11-89.4,29.75-.32.34-.64.7-.96,1.05-.24.16-.39.26-.39.26l-136.79,153.14c-5.8,6.38-8.21,14.99-6.43,22.93l9.63,54.39c-3.65,4.09-7.17,8.31-10.47,12.71,0,.06.02.11.03.16-16.15,21.58-27.19,47.17-24.22,79.57l-.13.27s.08-.03.14-.05c0,.02,0,.04,0,.05,0,0,.08-.05.23-.14,2.81-1.02,22.92-8.15,48.5-13.08l7.13,40.24,5.71-1.89c.9,4.6,1.51,8.61,1.7,11.81,2.11,34.81,11.57,57.6,35.83,65.71,24.26,8.11,12.7-25.47,4.87-40.72-7.83-15.25,6.55-2.19,18.96-5.51,12.41-3.32-30.66-32.39-30.66-32.39,0,0-.65-3.16-1.73-8.46l3.09-1.02.25-32.5c6.36,0,12.66.38,18.77,1.18,13.89,90.8,230.52,150.67,230.52,150.67l-17.17,221.24h5.43l-2.27,18.25-3.13.3-9.67,40.59c-1.16,4.86,1.93,9.39,6.78,9.94,29.98,3.42,125.42,13.25,124.96-.36-.54-16.14-14.89-20.84-42.01-28.39-18.22-5.08-26.09-18.4-29.3-26.59l-2.78.26,1.15-14h5.85l51.7-257.19,40.44,5.28c59.54,83.06,150.56,140.51,150.56,140.51l2.56-2.4,14.58,14.19-1.94,2.58,24.81,30.83c2.97,3.69,8.63,3.92,12.44.49,23.51-21.18,97.51-89.2,86.63-96.68Z"/>
          <g>
            <polygon class="cls-5" points="1303.14 2532.15 1337.59 2563.34 1361.47 2524.95 1333.51 2501.72 1303.14 2532.15"/>
            <path class="cls-17" d="M1449.78,2496.15c-13.6-8.87-26.58-.5-50.02,16.09-15.75,11.15-31.7,9.56-40.47,7.31l-28.32,41.96,27.2,30.83c3.26,3.69,8.94,3.92,12.48.49,21.86-21.18,90.59-89.2,79.12-96.68Z"/>
            <polygon class="cls-5" points="1032.04 2636.93 1029.86 2683.35 1074.68 2677.39 1074.84 2641.04 1032.04 2636.93"/>
            <path class="cls-17" d="M1153.03,2727.27c-1.8-16.14-16.51-20.84-44.21-28.39-18.62-5.08-27.52-18.4-31.36-26.59l-50.39,4.81-6.52,40.59c-.78,4.86,2.66,9.39,7.55,9.94,30.25,3.42,126.44,13.25,124.93-.36Z"/>
            <path class="cls-9" d="M1244,1969.49c9.43-6.5,15.63-10.83,15.63-10.83,0,0,12.26-50.67,19.14-40.6,6.88,10.07-.2,28.29,10.9,15.22,11.1-13.07,37.35-36.66,37.8-11.32.45,25.34-16.85,42.82-47.18,58.24-6.6,3.36-16.34,10.43-27.89,19.33l-8.41-30.03Z"/>
            <path class="cls-9" d="M760.87,2308.52c3.16,11.4,5.3,18.91,5.3,18.91,0,0,45.33,29.07,33.18,32.39-12.15,3.32-27.55-9.74-18.53,5.51s23.18,48.83-1.71,40.72c-24.89-8.11-36.12-30.9-40.93-65.71-1.05-7.58-4.67-19.48-9.46-33.75l32.15,1.93Z"/>
            <path class="cls-18" d="M671.89,2303.39s76.08-29.11,128.48-13.2l-8.15-89.27-109.85,75.69-10.48,26.78Z"/>
            <path class="cls-17" d="M929.11,2254.1l258.63,75.49,162.44,181.65-35.52,35.9s-95.48-57.45-161.47-140.51l-114.12-14.75s-189.36-20.1-197.15-142.8l87.18,5.01Z"/>
            <path class="cls-14" d="M781.82,2275.56c4.34,96.98,243.78,161.74,243.78,161.74v221.24h55.02l33.77-273.64-188.02-132.75-139.03-5.04c-.38.9-.75,1.78-1.09,2.67-3.42,8.81-4.8,17.42-4.41,25.78Z"/>
            <path class="cls-4" d="M781.82,2275.56c26.99,16.84,130.13-18.03,130.13-18.03l-125.71-7.76c-3.42,8.81-4.8,17.42-4.41,25.78Z"/>
            <path class="cls-14" d="M964.87,1965.39c2.26,1.04,131.95,61.56,160.63,74.94,3.44,1.61,7.48,1.21,10.56-1.02l115.73-84.21,27.17,38.77-134.79,103.28c-3.6,2.76-8.29,3.65-12.66,2.41l-159.72-45.38-6.93-88.8Z"/>
            <path class="cls-17" d="M979.31,1978.51s38.04,21.35,12.42,111.4-71.03,122.66-60.94,157.2l-78.41-11.26,126.92-257.34Z"/>
            <path class="cls-5" d="M778.37,2228.99h0c.17,6.23.38,11.83.57,16.63.45,11.05.86,17.79.86,17.79,20.96,7.76,155.7-8.55,155.7-8.55,0,0-7.43-37.26-4.32-66.37,3.1-29.11,58.32-108.39,58.32-163.99s-26.88-59.77-26.88-59.77c0,0-39.51-14.36-59.31-15.23-19.8-.87-96.35,75.2-114.2,123.33-12.28,33.11-12.08,110.86-10.75,156.16Z"/>
            <path class="cls-19" d="M778.37,2228.99h0c.17,6.23.38,11.83.57,16.63,99.73-71.44,125.38-134.25,125.77-135.25l-118.18,91.49-8.16,27.13Z"/>
            <path class="cls-9" d="M901.87,1952.02s32.14,25.32,63,13.38l.95-8.78,3.3-30.22-40-21.83-6.16,10.72-21.09,36.73Z"/>
            <path class="cls-14" d="M672.04,2303.39s17.13-10.78,42.5-28.25c4.41-3.04,9.08-6.28,13.95-9.7,7.24-5.09,14.93-10.57,22.92-16.38,5.69-4.13,11.53-8.44,17.47-12.89,72.78-54.54,159.63-130.16,157.6-179.06-3.49-83.84-22.95-107.97-22.95-107.97-2.9,1.07-51.78-11-87.09,29.75-35.32,40.76-56.48,170.21-87.33,200.48-6.95,6.81-14.16,13.93-21.05,21.52-6.39,7.03-12.52,14.49-17.9,22.49-14.58,21.67-23.71,47.39-18.11,80.01Z"/>
            <path class="cls-4" d="M738.99,2178.57l12.27,70.48c5.69-4.13,11.53-8.44,17.47-12.89l5.19-66.52,91.27-113.7-10.92-14.39-115.28,137.02Z"/>
            <path class="cls-4" d="M690,2223.38c6.42,28.75,24.4,51.76,24.4,51.76,4.41-3.04,9.08-6.28,13.95-9.7l-20.45-64.55c-6.39,7.03-12.52,14.49-17.9,22.49Z"/>
            <path class="cls-14" d="M878,1972.1s34.35,41.34-12.81,83.84c-38.73,34.91-87.68,83.96-103.93,100.37-3.51,3.54-5.28,8.44-4.85,13.41l10.39,148.22-36.8,12.48-44.36-174.14c-2.4-7.94-.65-16.55,4.65-22.93l124.9-153.14s44.19-31.98,62.82-8.11Z"/>
            <path class="cls-3" d="M922.96,1915.29c13.46,34.82,34.76,40.48,42.86,41.33l3.3-30.22-40-21.83-6.16,10.72Z"/>
            <path class="cls-14" d="M924.24,1898.36l-5.53-40.37-28.49-7.47c-5.62,32.32-.33,66,34.02,47.84Z"/>
            <path class="cls-9" d="M919.13,1863.81c-3.25,39.54,16.76,73.44,44.7,75.75,27.96,2.3,53.24-27.88,56.51-67.41.27-3.27.38-6.5.34-9.68-.44-35.23-19.4-63.95-45.04-66.08-19.83-1.63-38.32,13.1-48.56,35.9-4.19,9.33-6.99,20.03-7.95,31.51Z"/>
            <path class="cls-3" d="M927.08,1832.3l5.51,35.26s4.17-16.72,48.86-6.8c18.64,4.14,31.06,3.68,39.23,1.72-.44-35.23-19.4-63.95-45.04-66.08-19.83-1.63-38.32,13.1-48.56,35.9Z"/>
            <path class="cls-14" d="M1006.58,1765.71c-38.03,9.36-44.9,27.76-52.36,28.93-7.46,1.17-28.43-9.71-47.41,12.15-6.83,7.86-13.43,25.59-16.59,43.74l28.49,7.47-.74-5.37s6.57,26.72,13.76,26.12c7.19-.6-9.14-37.05,33.35-31.01,42.49,6.03,64.49,13.35,83.62-16.6,19.13-29.96-4.1-74.78-42.13-65.43Z"/>
            <path class="cls-9" d="M928.38,1864.35c-1.2-4.9-4.3-9.22-8.88-11.33-3.76-1.73-8.86-2.15-14.2,3.1-10.68,10.5,4.9,35.21,18.03,30.27l5.5-7.13c.93-6.43.41-11.39-.45-14.9Z"/>
          </g>
          <g>
            <g>
              <path class="cls-12" d="M3206.6,2467.97h24.02c.8,0,1.45.65,1.45,1.45v336.3c0,.8-.65,1.45-1.45,1.45h-24.02c-.8,0-1.45-.65-1.45-1.45v-336.3c0-.8.65-1.45,1.45-1.45Z" transform="translate(5856.18 -581.04) rotate(90)"/>
              <path class="cls-12" d="M3397.78,290.97h-26.37v-83.67c0-.8-.65-1.45-1.45-1.45h-300.72c-.8,0-1.45.65-1.45,1.45v83.67h-26.37c-1.61,0-2.9,1.3-2.9,2.91v2403.35c0,1.6,1.3,2.9,2.9,2.9h40.12c1.6,0,2.9-1.3,2.9-2.91v-55.16l270.31-165.55v220.7c0,1.6,1.3,2.9,2.9,2.9h40.12c1.6,0,2.9-1.3,2.9-2.9V293.88c0-1.6-1.3-2.91-2.9-2.91ZM3114.54,364.27l221.4,135.6h-251.49v-135.6h30.09ZM3084.44,1662.62v-154.6l252.41,154.6h-252.41ZM3326.89,1689.54l-242.45,148.5v-148.5h242.45ZM3084.44,1297.59h249.87l-249.87,153.05v-153.05ZM3084.44,1270.67v-150.04l244.96,150.04h-244.96ZM3107.32,1078.48l247.43-151.55v151.55h-247.43ZM3354.75,1105.4v151.54l-247.43-151.54h247.43ZM3084.44,911.19h248.27l-248.27,152.06v-152.06ZM3084.44,884.27v-151.03l246.58,151.03h-246.58ZM3328.5,2075.95l-244.05,149.48v-149.48h244.05ZM3084.44,2049.03v-153.6l250.79,153.6h-250.79ZM3104.09,1878.21h250.66v153.52l-250.66-153.52ZM3110.55,1851.29l244.2-149.57v149.57h-244.2ZM3105.71,1491.81h249.04v152.53l-249.04-152.53ZM3354.75,1464.88h-245.81l245.81-150.56v150.56ZM3108.94,718.99h245.81v150.56l-245.81-150.56ZM3354.75,692.07h-249.05l249.05-152.54v152.54ZM3354.75,2089.12v148.59h-242.6l242.6-148.59ZM3084.44,675.85v-149.05h243.35l-243.35,149.05ZM3354.75,2264.63v154.51l-252.26-154.51h252.26ZM3084.44,2282.81l252.18,154.48h-252.18v-154.48ZM3354.75,482.16l-192.46-117.88h192.46v117.88ZM3084.44,2464.21h242.63l-242.63,148.61v-148.61Z"/>
              <rect class="cls-12" x="3142.89" y="2386.58" width="159.34" height="656.38" rx="7.55" ry="7.55" transform="translate(5937.33 -507.79) rotate(90)"/>
            </g>
            <path class="cls-12" d="M3585.72,184.38l-165.1-148.96-22.56-20.37-14.84-13.4-1.83-1.65h-1286.99c-2.43,0-4.84.78-6.82,2.34l-4.27,3.33-228.85,178.71-3.03,2.37c-2.7,2.07-4.27,5.32-4.27,8.71v15.92c0,4.27,2.43,8.14,6.25,9.97,1.53.75,3.18,1.11,4.84,1.11h1769.72l-42.24-38.1ZM3338.55,35.42l-162.09,146.32-162.6-146.32h324.69ZM2110.51,35.42h42.13l165.56,148.96h-207.69V35.42ZM2200.82,35.42h324.71l-162.08,146.32-162.63-146.32ZM2566.39,41.94l158.32,142.44h-316.09l157.77-142.44ZM2607.33,35.42h324.7l-162.07,146.32-162.64-146.32ZM2972.9,41.94l158.31,142.45h-316.08l157.77-142.45ZM2078.29,51.23v133.15h-168.09l168.09-133.15ZM3221.64,184.38l157.94-142.62,158.06,142.62h-316.01Z"/>
            <rect class="cls-12" x="3067.78" y="222.48" width="303.63" height="68.49"/>
          </g>
          <path class="cls-2" d="M2291.09,1205.76l-23.08,172.41h-222.35l22.43-167.61-37.16-4.8-51.01,381.39c3.08.36,6.14.8,9.16,1.36,9.52,1.74,18.67,4.46,27.39,8.05l25.91-193.74h222.33l-26.76,200.14h-208.06c12.11,6.58,23.14,14.92,32.74,24.67h172.03l-28.52,213.26h-166.48c-21.8,14.27-47.85,22.57-75.85,22.57-1.57,0-3.14-.02-4.69-.08-1.53.06-3.1.08-4.65.08-3.86,0-7.67-.17-11.44-.46l-36.17,270.45h37.81l3.58-26.79h173.66c2.98-8.53,6.64-16.79,10.96-24.67h-181.34l28.97-216.44h222.35l-21.76,161.95c3.35-2.43,6.79-4.72,10.35-6.87,2.43-1.51,4.93-2.93,7.44-4.3,7.86-4.25,15.61-8.66,23.26-13.23l106.11-792.54-37.16-4.8Z"/>
          <path class="cls-11" d="M2029.31,1204.57l737.95,1611.98,35.6-4.79-92.85-203.64h222.35l95.04,208.43,35.6-4.79-737.95-1611.98-35.6,4.79,76.77,167.61h-222.35l-78.97-172.41-35.6,4.79ZM2377.52,1396.85l91.67,200.14h-222.35l-91.67-200.14h222.35ZM2466.27,2076.02l-99.15-216.45h222.35l99.15,216.45h-222.35ZM2699.91,2100.68l104.23,227.55h-222.35l-104.23-227.55h222.35ZM2355.83,1834.91l-97.69-213.26h222.35l97.69,213.26h-222.35ZM2698.71,2583.47l-105.62-230.58h222.35l105.62,230.58h-222.35Z"/>
          <path class="cls-1" d="M2989.56,2522.67c-1.22-8.06-1.13-22.97-10.47-37.17-1.68-2.55-5.13-3.25-7.84-1.58-.62.39-1.32.8-2.05,1.24l-18.16-39.26,2.63-1.65-79.35-258.1s-33.03-155.35-39.93-172.66c-6.92-17.33,2.05-53.77-3.2-93.21-2.24-16.89-14.03-35.64-26.78-51.54-5.52-6.9-11.21-13.24-16.4-18.69.9.02,1.76.04,2.56.06,4.93.1,7.57-8.53,7.84-13.46.35-6.51-.2-15.69-4.35-24.52-.78-1.67-1.65-3.43-2.57-5.29,12.23,6.55,27.24,10.88,39.85,3.36,22.62-13.48,9.54-68.76,5.43-84.02,5.68-6.42,9.36-14.83,11.03-25.48,7.14-45.62-54.51-98.42-54.12-169.92.1-19.12-6.55-37.41-18.66-51.64-19.17-22.55-51.57-46.11-96.14-28.19-39.57,15.91-39.29,31.23-29.74,44.54-8.69,22.07-28.83,82.56,7.44,90.75-1.22,4.13-2.4,8.36-3.53,12.67-4.75.8-53.29,9.4-76.47,30.4-24.39,22.12-73.21,79.47-73.21,79.47l-114.58-75.89-4.22,5.42c-6.72-4.92-10.92-8.04-10.92-8.04,0,0-9.55-52.62-17.29-42.27-7.74,10.35-1.55,29.3-12.23,15.63-10.68-13.66-36.38-38.39-38.42-12.15-2.04,26.24,14.78,44.54,45.22,60.84,3.96,2.12,9.02,5.66,14.86,10.14l-4.41,5.67s114.91,117.71,143.74,114.71c28.82-2.99,88.31-58.56,88.31-58.56,0,0,2.13,33.63,15.8,46.91,1.68,1.65,3.55,2.98,5.6,3.89,18.72,8.35-6.6,61.53,7.59,64.53.86.18,2.3.39,4.19.61l.22,10.06.32,14.71s-208.5,109.65-197.48,152.66c11.04,43.01,211.3,223.46,211.3,223.46l2.72-2.11,14.01,24.05c-1.36-.62-2.69-1.34-3.97-2.18-2.75-1.8-6.57-.57-7.95,2.56-5.46,12.39-18.42,37.78-34.56,42.49-21.52,6.27-34.74,14.04-35,25.39h144.89s10.72-40.1-7.72-74.18c-.86-1.59-2.83-2.18-4.49-1.3-.6.32-1.29.68-2.04,1.06-6.47-12.06-18.63-34.22-25.64-46.98l4.49-3.48-49.55-78.46-53.01-83.9c-2.4-3.81-.11-9.04,4.44-10.08l113.38-26.01,41.99,130.41,8.26,25.65,14.42,44.79,142.41,264.08,5.36-3.37,13.77,28.48c-3.34-.06-6.69-.41-10-1.23-3.53-.87-7.07,1.88-7.01,5.55.21,12.6-.79,36.25-10.57,44.95-8.16,7.27-20.21,17.78-28.71,26.75-5.29,5.59-1.8,14.47,5.71,14.47h67.13s47.15-56.91,45.8-65.87Z"/>
          <g>
            <path class="cls-9" d="M2356.52,1651.04c-6.49,8-12.8,16.13-18.88,24.41-13.39-10.63-24.71-19.22-32.18-23.11-31.24-16.31-48.95-34.61-48.2-60.84.75-26.24,27.67-1.51,39.02,12.15,11.35,13.66,4.23-5.28,11.46-15.63,7.24-10.35,19.36,42.27,19.36,42.27,0,0,12.64,9.04,29.41,20.76Z"/>
            <polygon class="cls-5" points="2942.24 2441.57 2968.52 2492.95 2929.69 2510.27 2902.8 2459.79 2942.24 2441.57"/>
            <path class="cls-5" d="M2623.79,2233.95l21.51,34.06s50.49-1.79,50.49-2.69-38.54-65.12-38.54-65.12l-33.46,33.76Z"/>
            <path class="cls-14" d="M2665.01,1831.25v155.35l4.93,13.32,3.01,8.08,57.9,156.06,16.61,44.79,155.35,264.08,44.2-28.69-92-258.1s-40.64-155.35-48.39-172.66c-7.77-17.33-.59-53.77-7.77-93.21-3.07-16.89-15.77-35.64-29.3-51.54-17.22-20.26-35.76-35.93-37.49-37.37-.09-.08-.13-.12-.13-.12h-66.91Z"/>
            <polygon class="cls-4" points="2669.94 1999.92 2730.85 2164.07 2714.89 1994.36 2669.94 1999.92"/>
            <path class="cls-14" d="M2402.12,2017.67c13.15,43.01,222.25,223.46,222.25,223.46l43.03-34.67-53.39-78.46-57.12-83.9c-2.59-3.81-.55-9.04,3.95-10.08l112.12-26.01,61.37-14.24-26.44-128.44-6.93-33.63-.09-.45h-111.13l.12,1.6,1.23,17.44,1.04,14.71s-203.13,109.65-190,152.66Z"/>
            <path class="cls-17" d="M2966.54,2483.93c-9.24,5.88-31.88,18.14-53.42,12.88-3.58-.87-6.97,1.88-6.73,5.55.83,12.6.98,36.25-8.36,44.95-7.81,7.27-19.34,17.78-27.39,26.75-5.02,5.59-1.09,14.47,6.42,14.47h67.13s44.36-56.91,42.57-65.87c-1.61-8.06-2.26-22.97-12.29-37.17-1.8-2.55-5.28-3.25-7.92-1.58Z"/>
            <path class="cls-17" d="M2693.02,2255.86c-8.59,4.7-35.39,17.41-54.92,5.03-2.84-1.8-6.6-.57-7.82,2.56-4.85,12.39-16.56,37.78-32.48,42.49-21.21,6.27-34.06,14.04-33.76,25.39h144.89s8.75-40.1-11.35-74.18c-.94-1.59-2.94-2.18-4.55-1.3Z"/>
            <path class="cls-4" d="M2589.85,1832.85l1.23,17.44c12.66,1.92,41.86,6.22,73.93,10.2,14.12,1.76,28.79,3.44,42.87,4.84,24.38,2.4,46.94,3.95,61.66,3.41-17.22-20.26-35.76-35.93-37.49-37.37l-31.1.33-35.94.37-75.16.79Z"/>
            <path class="cls-9" d="M2598.95,1487.44s-46.38,114.17,31.67,98.19c78.05-15.98,14.21-86.55,14.21-86.55l-45.88-11.64Z"/>
            <path class="cls-16" d="M2729.54,1729.53v60.49s9.32,8.68,21.83,15.61c12.94,7.19,29.27,12.53,42.25,4.55,25.54-15.68,0-87.97,0-87.97l-64.08,7.31Z"/>
            <path class="cls-20" d="M2316.69,1668.15s120.68,117.71,149.36,114.71c28.68-2.99,85.44-58.56,85.44-58.56,0,0,3.78,33.63,18.1,46.91,1.76,1.65,3.69,2.98,5.79,3.89,19.12,8.35-3.58,61.53,10.75,64.53,12.37,2.57,135.58,9.83,168.65,10.49,4.94.1,7.15-8.53,7.18-13.46.03-6.51-.97-15.69-5.55-24.52-8.37-16.13-25.09-41.23-18.52-80.05,6.56-38.84-132.53-133.25-132.53-133.25,0,0-52.09,8.37-75.39,30.47-23.3,22.12-69.31,79.47-69.31,79.47l-118.3-75.89-25.69,35.26Z"/>
            <path class="cls-16" d="M2551.5,1724.3s3.78,33.63,18.1,46.91v-67.81l-18.1,20.9Z"/>
            <path class="cls-14" d="M2742.26,1530.77c-.83-19.12-8.39-37.41-21.19-51.64-20.28-22.55-53.83-46.11-97.52-28.19-74.5,30.55-2.14,58.95,0,75.03,2.14,16.08-71.82,176.33,26.26,200.98,98.08,24.65,149.53,23.58,154.89-26.26,4.91-45.62-59.33-98.42-62.44-169.92Z"/>
          </g>
          <path class="cls-2" d="M497.15,833.89c-9.9-4.29-20.69-6.99-32.08-7.75-53.41-3.57-99.6,36.82-103.18,90.23-1.92,28.66,8.83,55.24,27.46,74.27,7.65,12.03,10.64,27.86,11.81,38.46.18,1.67.33,3.2.43,4.58.26,3.38,2.61,6.17,5.75,7.18-2.78.64-5.07,2.81-5.55,5.73-.4,2.38.43,4.64,1.98,6.2.4.42.85.77,1.33,1.07.64.39.61,1.33-.07,1.63-.52.23-1.01.52-1.46.87-1.59,1.21-2.67,3.07-2.82,5.2-.09,1.37.22,2.68.82,3.82.32.61.74,1.18,1.23,1.67.41.42.87.8,1.38,1.1.63.38.56,1.31-.11,1.61-.52.23-1.01.52-1.46.86-1.59,1.21-2.67,3.07-2.82,5.2-.14,2.06.62,3.98,1.93,5.38.44.46.94.87,1.49,1.21.62.38.56,1.31-.11,1.61-.47.21-.91.47-1.33.77-1.66,1.2-2.8,3.1-2.94,5.3-.13,1.96.55,3.79,1.75,5.17,1.2,1.37,2.91,2.29,4.85,2.43l-1.59-.11,35.49,18.52c3.89,2.03,8.45,2.34,12.58.84l37.64-13.62-1.59-.11c3.9.23,7.29-2.75,7.55-6.65.09-1.37-.22-2.68-.82-3.82-.36-.68-.84-1.3-1.39-1.83-.37-.36-.77-.67-1.21-.94-.62-.38-.56-1.31.11-1.61.59-.26,1.14-.6,1.64-1,1.49-1.21,2.49-3.01,2.63-5.07.14-2.14-.68-4.13-2.1-5.53-.4-.4-.84-.75-1.33-1.05-.62-.38-.56-1.31.11-1.61.54-.24,1.05-.55,1.51-.91,1.56-1.21,2.62-3.05,2.76-5.16.09-1.37-.22-2.68-.82-3.82-.34-.63-.77-1.21-1.28-1.72-.4-.4-.84-.76-1.33-1.05-.64-.38-.54-1.32.14-1.62.53-.23,1.02-.53,1.47-.88,1.74-1.34,2.85-3.47,2.78-5.88-.09-2.96-2.07-5.41-4.74-6.42,3.25-.59,5.95-3.03,6.65-6.35,2.12-9.93,7.25-28.41,17.87-41.03,20.99-16.38,35.18-41.29,37.1-69.95,2.81-42.02-21.6-79.58-58.15-95.42Z"/>
          <g>
            <path class="cls-5" d="M469.89,814.14c-10.16-3.62-21.11-5.59-32.52-5.59-53.53,0-96.92,43.39-96.92,96.92,0,28.72,12.5,54.52,32.35,72.27,8.43,11.49,12.48,27.08,14.35,37.59.3,1.65.54,3.17.74,4.54.59,4.04,4.11,7.06,8.24,7.06h82.47c4.13,0,7.66-3.02,8.24-7.06,1.45-10.05,5.33-28.83,15.09-42.13,19.85-17.75,32.35-43.55,32.35-72.27,0-42.12-26.87-77.96-64.39-91.33Z"/>
            <path class="cls-20" d="M467.06,917.74c-6.28,0-11.75,3.46-14.61,8.57l-2.9-4.3-8.6,12.74-8.58-12.74-7.95,11.79c-.36-8.93-7.73-16.06-16.74-16.06s-16.76,7.51-16.76,16.76c0,8.1,5.75,14.85,13.39,16.41l9.63,108.24,9.6-.85-9.64-108.25c3.82-1.53,6.95-4.43,8.78-8.09l1.09,1.62,8.59-12.74,8.59,12.74,8.6-12.74.92,1.36c-.1.75-.16,1.51-.16,2.29,0,7.05,4.36,13.08,10.54,15.56l-9.64,108.25,9.6.85,9.64-108.24c7.64-1.56,13.38-8.32,13.38-16.41,0-9.26-7.49-16.76-16.76-16.76ZM407.67,944.69c-5.63,0-10.19-4.56-10.19-10.19s4.56-10.19,10.19-10.19c2.61,0,4.99.98,6.79,2.6,2.08,1.86,3.39,4.58,3.39,7.59,0,.1,0,.21,0,.31-.16,5.48-4.66,9.88-10.18,9.88ZM467.06,944.69c-3.92,0-7.32-2.21-9.02-5.45-.74-1.41-1.16-3.03-1.16-4.74,0-.5.03-.99.1-1.47.71-4.93,4.96-8.72,10.08-8.72,5.63,0,10.19,4.56,10.19,10.19s-4.56,10.19-10.19,10.19Z"/>
            <path class="cls-5" d="M481.96,1068.36c.57-.3,1.09-.67,1.57-1.11,1.41-1.31,2.29-3.17,2.29-5.24s-.96-4.07-2.46-5.38c-.42-.37-.89-.69-1.4-.96-.65-.34-.65-1.27,0-1.61.52-.27,1.01-.61,1.45-1.01,1.48-1.31,2.41-3.22,2.41-5.33,0-1.37-.39-2.66-1.07-3.75-.38-.61-.85-1.16-1.39-1.63-.42-.38-.89-.7-1.4-.96-.66-.34-.63-1.28.03-1.63.51-.27.98-.6,1.41-.98,1.64-1.45,2.61-3.65,2.38-6.05-.36-3.7-3.62-6.43-7.33-6.43h-26.27c-.19-.01-.38-.03-.57-.03h-30.56c-.19,0-.38.01-.57.03h-24.21c-3.71,0-6.97,2.74-7.33,6.43-.24,2.4.74,4.6,2.39,6.05.42.39.9.71,1.4.98.66.35.69,1.29.03,1.63-.5.26-.97.59-1.4.96-1.51,1.31-2.46,3.24-2.46,5.38,0,1.37.39,2.66,1.07,3.75.36.59.82,1.12,1.34,1.58.43.39.92.74,1.45,1.01.65.34.65,1.27,0,1.61-.5.26-.97.59-1.4.96-1.51,1.31-2.46,3.24-2.46,5.38s.88,3.93,2.29,5.24c.47.43,1,.81,1.57,1.11.65.34.65,1.27,0,1.61-.46.24-.88.53-1.27.86-1.58,1.31-2.58,3.28-2.58,5.48,0,1.96.81,3.75,2.1,5.04,1.29,1.29,3.05,2.09,5,2.1h-1.59l36.65,16.11c4.02,1.77,8.59,1.77,12.61,0l36.65-16.11h-1.59c3.9-.03,7.09-3.23,7.09-7.14,0-1.37-.39-2.66-1.07-3.75-.41-.65-.92-1.24-1.51-1.73-.39-.33-.82-.62-1.27-.86-.65-.34-.65-1.27,0-1.61Z"/>
          </g>
        </g>
      </g>
    </g>
  </g>
</svg>