<?xml version="1.0" encoding="UTF-8"?>
<svg id="Layer_2" xmlns="http://www.w3.org/2000/svg" viewBox="0 0 569.48 437.67">
  <defs>
    <style>
      .cls-1 {
        fill: #7460e6;
      }

      .cls-2 {
        fill: #bfef4b;
      }
    </style>
  </defs>
  <g id="Layer_1-2" data-name="Layer_1">
    <g>
      <path class="cls-1" d="M569.46,391.49c0-74.48.01-148.96,0-223.44,0-45.2-.01-90.4-.02-135.6,0-8.95-3.31-16.55-9.61-22.83C553.11,2.91,544.94,0,535.46,0c-46.67.08-93.34.05-140.01.05-77.64-.01-155.28-.02-232.92-.02C120,.03,77.47.06,34.94.01,28.51,0,22.32.86,16.74,4.2,6.01,10.61.17,20.07.1,32.67c-.12,21.59-.04,43.18-.04,64.77v253.37c0,18.59-.19,37.19.09,55.78.18,11.81,6.02,20.67,16.02,26.77,5.45,3.32,11.48,4.32,17.82,4.31,83.7-.04,167.39-.03,251.09-.03,83.14.01,166.29.01,249.44-.02,2.93,0,5.91-.07,8.78-.56,14.51-2.5,25.77-15.63,26.11-30.36.12-5.07.05-10.14.05-15.21ZM146.47,43.01c8.03.08,14.5,6.41,14.52,14.19.02,8.17-6.48,14.74-14.53,14.7-7.96-.04-14.51-6.58-14.45-14.44.05-7.94,6.64-14.52,14.46-14.45ZM102.64,43.02c8.13-.07,14.54,6.16,14.61,14.19.07,7.96-6.29,14.66-13.96,14.7-8.47.05-14.87-6.12-14.94-14.38-.06-8.02,6.26-14.43,14.29-14.51ZM59.2,43.01c8.24.13,14.47,6.57,14.31,14.78-.15,7.97-6.67,14.15-14.68,14.15-7.68-.01-14.64-6.81-14.28-15.05.35-7.64,6.87-14.01,14.65-13.88ZM537.87,391.7H31.57V94.9h506.3v296.8Z"/>
      <path class="cls-1" d="M323.35,257.32c3.79-1.64,7.48-3.22,11.15-4.82,15.91-6.93,31.82-13.88,47.74-20.81,6.02-2.62,12.04-5.25,18.09-7.82.57-.24,1.28-.27,1.91-.21,7.76.75,15.51,1.53,23.26,2.31,12.9,1.3,25.8,2.61,38.71,3.91,6.34.64,12.69,1.26,19.03,1.89.26.03.52.1.97.18-1.91,14.24-7.06,27.1-15.51,38.59-11.06,15.04-25.52,25.6-43.41,30.92-45.16,13.41-86.07-10.36-101.93-44.14Z"/>
      <path class="cls-1" d="M421.75,134.37c-.62,2.16-1.22,4.34-1.87,6.49-2.09,6.91-4.17,13.83-6.3,20.73-2.03,6.59-4.12,13.16-6.15,19.75-2.1,6.8-4.16,13.61-6.25,20.41-1.08,3.53-2.12,7.07-3.3,10.57-.18.54-.93,1.02-1.52,1.26-5.1,2.03-10.21,4.01-15.34,5.98-8.36,3.21-16.72,6.41-25.09,9.58-8.57,3.25-17.17,6.44-25.75,9.68-4.16,1.57-8.3,3.2-12.73,4.92-2.31-6.34-3.42-12.83-3.89-19.44-1.39-19.56,2.9-37.76,13.69-54.19,21.98-33.45,61.27-44.83,94.47-35.74Z"/>
      <path class="cls-2" d="M414.3,209.73c8.58-27.33,17.05-54.29,25.6-81.49,18.15,5.55,33.12,15.53,44.64,30.42,13.57,17.54,19.31,37.54,18,59.98-29.38-2.97-58.65-5.92-88.24-8.91Z"/>
      <path class="cls-1" d="M221.38,188.16h20.05c.05.4.11.71.11,1.02,0,52.94-.02,105.88-.03,158.82,0,2.02-.49,2.48-2.5,2.49-4.85,0-9.7,0-14.56.02-2.86.01-3.09-.11-3.1-3.02-.05-10.25-.04-20.5-.04-30.75,0-42.42,0-84.83.01-127.25,0-.42.03-.84.06-1.32Z"/>
      <path class="cls-2" d="M60.72,359.41c3.98,0,7.57,0,11.16,0,60.85,0,121.69,0,182.54-.01.82,0,1.66.11,2.45-.06,2.02-.44,3.54.77,5.16,1.51.55.25,1.19,1.48,1,1.96-.36.92-1.13,1.97-1.99,2.34-1.25.53-2.73.68-4.12.69-13.52.06-27.04.05-40.56.06-51.85.01-103.7.03-155.55.03-1.2,0-2.4.02-3.59-.13-2.04-.25-2.84-1.19-2.85-3.26-.02-7.31-.01-14.61-.01-21.92,0-62.92-.01-125.84-.01-188.75,0-1.14,0-2.29.05-3.43.08-1.86,1.3-3.18,2.97-3.26,1.68-.08,3.06,1.09,3.35,2.92.1.64.06,1.3.06,1.96-.01,67.99-.03,135.98-.05,203.97,0,1.77,0,3.55,0,5.39Z"/>
      <path class="cls-1" d="M143.78,219.46h20.13c.04.48.1.9.1,1.32-.04,41.26-.09,82.52-.14,123.78,0,1.31-.07,2.62-.08,3.92-.01,1.42-.71,2.08-2.12,2.07-5.18-.04-10.35-.08-15.53-.06-1.45,0-2.13-.63-2.2-2.01-.06-1.14-.13-2.29-.13-3.43-.04-41.48-.07-82.96-.1-124.43,0-.32.03-.64.06-1.16Z"/>
      <path class="cls-1" d="M195.46,222.53h20.02c.06.32.15.57.15.83,0,40.71-.02,81.43-.04,122.14,0,1.09-.03,2.18-.12,3.27-.1,1.12-.69,1.77-1.91,1.76-5.23-.03-10.46-.07-15.69-.04-1.48,0-2.27-.5-2.26-2.05,0-.98-.1-1.96-.1-2.94-.02-38.97-.03-77.94-.04-116.91,0-2,0-3.99,0-6.06Z"/>
      <path class="cls-1" d="M169.64,246.7h20.08c.04.55.1,1.02.1,1.49,0,32.21,0,64.43-.01,96.64,0,1.25.03,2.51-.08,3.76-.11,1.25-.78,1.95-2.15,1.94-5.18-.03-10.36-.05-15.53-.01-1.57,0-2.34-.64-2.35-2.21-.01-1.2-.09-2.4-.09-3.59-.01-32.21-.02-64.43-.02-96.64,0-.42.03-.85.06-1.37Z"/>
      <path class="cls-1" d="M118.15,253.83h20c0,.73,0,1.42,0,2.1,0,30.35,0,60.71,0,91.06,0,.6-.02,1.2-.05,1.8-.06,1.11-.67,1.71-1.77,1.71-5.45,0-10.9-.01-16.35-.03-1.12,0-1.73-.59-1.77-1.7-.07-1.69-.16-3.37-.16-5.06,0-29.59.03-59.18.05-88.77,0-.32.04-.63.07-1.11Z"/>
      <path class="cls-1" d="M92.31,270.08h20.06c0,.91,0,1.71,0,2.51,0,24.48-.03,48.96-.02,73.44,0,5.08-.55,4.51-4.54,4.43-4.41-.08-8.83-.06-13.25.02-1.61.03-2.24-.51-2.24-2.16.02-13.79-.01-27.59-.03-41.38-.02-12-.04-23.99-.06-35.99,0-.26.04-.52.07-.86Z"/>
      <path class="cls-2" d="M223.97,142.03c-1.1-1.19-2.23-2.36-3.28-3.59-.31-.36-.63-1.06-.48-1.38.2-.44.84-.91,1.32-.94,4.4-.32,8.81-.54,13.22-.79,1.09-.06,1.69.42,1.56,1.55-.47,4.22-.91,8.44-1.48,12.65-.19,1.38-.94,1.62-2.09.81-.89-.63-1.72-1.35-2.47-2.13-.81-.85-1.39-.89-2.25,0-3.94,4-7.95,7.93-11.92,11.9-12.21,12.22-24.42,24.46-36.63,36.68-1.78,1.78-1.78,1.76-3.92.5-6.05-3.56-12.12-7.09-18.14-10.69-.98-.58-1.38-.01-1.92.52-4.28,4.27-8.56,8.55-12.84,12.83-19.39,19.38-38.78,38.76-58.16,58.16-1.15,1.15-2.24,2.38-3.32,3.6-1.05,1.19-2.95,1.87-4.1,1.33-1.47-.68-1.91-2.05-1.59-3.43.3-1.32.82-2.78,1.72-3.73,3.88-4.13,7.91-8.12,11.92-12.13,17.03-17.04,34.07-34.07,51.11-51.11,4.7-4.7,9.41-9.4,14.07-14.15.77-.78,1.33-.79,2.23-.25,5.85,3.47,11.74,6.88,17.62,10.31.14.08.28.17.42.25,2.22,1.16,2.16,1.1,3.89-.65,7.05-7.13,14.15-14.22,21.21-21.34,8.02-8.08,16.03-16.19,24.04-24.28.11-.11.16-.27.28-.48Z"/>
      <path class="cls-1" d="M66.56,292.26h19.99c0,.64,0,1.28,0,1.92,0,17.54,0,35.08,0,52.63,0,.54-.04,1.09-.02,1.63.06,1.44-.62,2.08-2.06,2.07-5.23-.02-10.46-.02-15.69.03-1.44.01-2.12-.66-2.24-2.01-.05-.6-.06-1.2-.06-1.8,0-17.54,0-35.08,0-52.63,0-.59.05-1.17.08-1.85Z"/>
      <path class="cls-2" d="M348.8,342.94c-12.48,0-24.97,0-37.45,0-.82,0-1.63-.04-2.45-.09-1.79-.11-3.06-1.41-3.08-3.12-.01-1.72,1.22-3.02,3.14-3.03,8.5-.05,17.01-.05,25.51-.06,17.5,0,35,0,52.49,0,.49,0,.98-.01,1.47,0,1.97.07,3.27,1.27,3.31,3.06.04,1.77-1.38,3.18-3.37,3.18-13.19.02-26.38.01-39.57.01v.03Z"/>
      <path class="cls-2" d="M349.05,361.16c13.03,0,26.06.06,39.09-.06,1.97-.02,3.69,1.67,3.66,3.33-.03,1.86-1.42,3.09-3.61,3.09-24.31-.01-48.63-.03-72.94-.05-1.91,0-3.82.04-5.72,0-2.45-.05-3.78-1.17-3.78-3.11,0-1.98,1.3-3.13,3.74-3.14,7.14-.05,14.28-.06,21.42-.07,6.05-.01,12.1,0,18.15,0v.02Z"/>
      <path class="cls-1" d="M471.34,336.63c12.53,0,25.07,0,37.6,0,.76,0,1.53,0,2.29.05,1.82.14,2.92,1.31,2.93,3.06,0,1.76-1.06,3-2.89,3.05-4.47.11-8.93.14-13.4.15-21.14.02-42.29.02-63.43.01-.82,0-1.63-.04-2.45-.11-2.24-.18-3.31-1.25-3.26-3.23.05-1.8,1.19-2.88,3.38-2.9,6.87-.07,13.73-.07,20.6-.08,6.21,0,12.42,0,18.64,0h0Z"/>
      <path class="cls-1" d="M471.22,367.44c-13.03,0-26.05-.02-39.08.03-1.78,0-2.81-.8-3.3-2.34-.44-1.39.02-2.7,1.27-3.4.8-.44,1.86-.53,2.81-.54,10.74-.05,21.47-.06,32.21-.07,15.26,0,30.52.01,45.78,0,1.58,0,2.56.71,3.1,2.14.57,1.5.07,2.75-1.13,3.59-.64.45-1.61.61-2.43.61-13.08.04-26.16.03-39.24.03v-.06Z"/>
      <path class="cls-2" d="M348.7,355.27c-13.08,0-26.17.01-39.25-.03-.85,0-1.83-.31-2.53-.79-1.16-.79-1.34-2.1-.92-3.38.41-1.25,1.36-1.94,2.73-1.94,4.36-.01,8.72-.04,13.08-.04,21.97,0,43.94.01,65.92.06.98,0,2.14.16,2.89.71,1.1.8,1.45,2.06.9,3.51-.59,1.57-1.73,1.9-3.22,1.9-13.19-.02-26.39-.01-39.58-.01v.02Z"/>
      <path class="cls-1" d="M471.38,355.3c-11.88,0-23.77,0-35.65,0-1.25,0-2.51,0-3.76-.06-2.07-.09-3.3-1.36-3.23-3.27.06-1.69,1.36-2.86,3.28-2.87,4.91-.02,9.81,0,14.72,0,21.31,0,42.63.02,63.94-.02,1.56,0,2.61.54,3.3,1.89.64,1.25.32,2.46-.6,3.28-.65.58-1.71.98-2.58.98-13.14.06-26.28.04-39.41.04v.03Z"/>
      <path class="cls-1" d="M451.08,329.65c-6.32,0-12.65-.02-18.97.01-1.67,0-2.68-.83-3.21-2.28-.54-1.47-.02-2.76,1.25-3.54.68-.41,1.64-.5,2.47-.5,11.83-.02,23.66,0,35.48,0,.65,0,1.31-.04,1.96,0,1.85.09,3.1,1.35,3.11,3.09.01,1.89-1.18,3.17-3.14,3.19-6.32.04-12.65.01-18.97.01h0Z"/>
      <path class="cls-2" d="M327.93,323.36c6.16,0,12.32,0,18.48,0,2.16,0,3.62,1.26,3.63,3.08,0,1.95-1.28,3.19-3.52,3.19-12.48.03-24.97.03-37.45.02-1.96,0-3.31-1.41-3.28-3.3.02-1.77,1.37-3,3.34-3.01,6.27-.01,12.54,0,18.81,0h0Z"/>
    </g>
  </g>
</svg>