<?xml version="1.0" encoding="UTF-8"?>
<svg id="Layer_2" xmlns="http://www.w3.org/2000/svg" viewBox="0 0 451.63 386.75">
  <defs>
    <style>
      .cls-1 {
        fill: #7460e6;
      }

      .cls-2 {
        fill: #bfef4b;
      }
    </style>
  </defs>
  <g id="Layer_1-2" data-name="Layer_1">
    <g>
      <path class="cls-2" d="M428.71,105.66c-.01-24.34-.01-48.68-.05-73.02,0-4.4-.75-8.71-2.68-12.69C419.77,7.1,409.6.09,395.24.06c-56.63-.1-113.27-.04-169.91-.04v-.03h-31.62c-46.27.01-92.53.03-138.8.03-6.79,0-13.07,1.83-18.66,5.7-9.4,6.49-14.4,15.54-14.56,26.96-.19,12.73-.06,25.46-.06,38.19,0,17.94-.14,35.88.05,53.84.11,9.62,4.21,17.63,11.46,23.93,6.57,5.71,14.38,7.86,22.98,7.83,28.43-.05,56.86-.04,85.29-.04,15.76,0,31.51.03,47.27,0,1,0,1.62.29,2.19,1.14,2.96,4.36,5.99,8.67,9,12.99,6.78,9.68,13.53,19.39,20.38,29.03.69.98,1.88,1.82,3.01,2.22,3.16,1.12,5.32-.01,7.81-3.58,9.17-13.14,18.41-26.24,27.5-39.43,1.28-1.87,2.64-2.43,4.81-2.42,44.4.05,88.82.08,133.23-.01,3.03-.01,6.18-.51,9.08-1.39,13.52-4.1,22.8-16.65,22.98-30.82.09-6.18.03-12.34.03-18.51ZM156.08,67.12c-6.55,6.44-13.09,12.89-19.71,19.27-1.06,1.04-1.32,2.02-1.06,3.42,1.64,9.08,3.21,18.19,4.76,27.29.09.5-.08,1.05-.13,1.58-.56-.09-1.2-.04-1.68-.29-8.09-4.34-16.17-8.7-24.22-13.09-1.39-.76-2.52-.68-3.91.09-8.03,4.42-16.11,8.76-24.21,13.09-.36.19-1.06.29-1.3.08-.3-.24-.43-.9-.35-1.33,1.47-8.21,2.86-16.44,4.54-24.61.65-3.18.33-5.45-2.29-7.81-5.96-5.35-11.56-11.09-17.27-16.71-.64-.63-1.04-1.5-1.55-2.27.89-.26,1.74-.63,2.64-.76,7.48-1.1,14.96-2.18,22.44-3.25,1.05-.16,2.1-.34,3.16-.41,1.75-.1,2.68-1.17,3.37-2.62,3.8-8.01,7.62-16,11.44-23.98.35-.71.85-1.37,1.53-2.44.98,1.8,1.77,3.18,2.47,4.61,3.65,7.44,7.28,14.88,10.88,22.34.63,1.3,1.54,1.89,2.97,2.09,8.64,1.18,17.3,2.42,25.95,3.65.34.04.69.05.99.18.45.18.85.44,1.28.68-.24.4-.4.89-.73,1.22ZM268.87,67.43c-6.45,6.31-12.89,12.63-19.42,18.86-1.17,1.12-1.53,2.15-1.25,3.7,1.6,8.65,3.13,17.3,4.69,25.96.11.6.2,1.22.29,1.77,0,1.23-.55,1.47-1.8.8-3.32-1.75-6.64-3.51-9.94-5.27-4.94-2.66-9.87-5.3-14.78-7.99-1.1-.6-2-.58-3.12.04-8.04,4.41-16.11,8.77-24.19,13.11-.53.29-1.23.25-1.84.36-.09-.61-.33-1.27-.23-1.85,1.59-9.16,3.22-18.32,4.87-27.45.21-1.14-.11-1.87-.91-2.66-6.68-6.48-13.32-13.01-19.95-19.53-.36-.35-.55-.9-.83-1.37.54-.23,1.05-.6,1.62-.68,8.65-1.27,17.28-2.58,25.95-3.68,2.28-.29,3.45-1.37,4.36-3.3,3.77-7.97,7.63-15.9,11.49-23.84.28-.55.79-1,1.19-1.49.43.48.98.9,1.25,1.45,3.45,6.97,6.84,13.94,10.26,20.92.09.2.15.41.25.61,2.82,5.43,2.82,5.39,10.72,6.4,6.83.88,13.66,1.84,20.47,2.83.65.09,1.25.58,1.88.88-.34.48-.61,1.03-1.03,1.43ZM381,68.15c-6.08,5.96-12.17,11.93-18.34,17.79-1.33,1.27-1.77,2.51-1.45,4.28,1.32,7.28,2.54,14.57,3.81,21.85.31,1.82.68,3.63.95,5.45.05.38-.08.99-.34,1.15-.28.18-.86.06-1.2-.13-8.09-4.34-16.19-8.67-24.23-13.09-1.54-.86-2.78-.88-4.35-.01-7.93,4.37-15.92,8.65-23.89,12.94-1.28.69-1.94.4-1.94-.55.54-2.98,1.04-5.74,1.52-8.49,1.15-6.57,2.26-13.13,3.46-19.68.24-1.33-.09-2.22-1.03-3.13-6.33-6.11-12.62-12.27-18.87-18.46-.64-.63-1.04-1.49-1.54-2.24.88-.28,1.74-.66,2.64-.79,8.59-1.25,17.19-2.48,25.78-3.67,1.49-.2,2.24-1.1,2.83-2.32,2.88-5.98,5.76-11.95,8.66-17.93,1.17-2.41,2.32-4.82,3.53-7.2.68-1.33,1.23-1.34,1.9-.01,2.31,4.59,4.56,9.21,6.82,13.82,1.89,3.85,3.78,7.71,5.61,11.58.61,1.32,1.58,1.89,2.98,2.08,8.54,1.18,17.08,2.41,25.61,3.66.94.14,1.84.59,2.76.89-.55.74-1.01,1.58-1.68,2.22Z"/>
      <g>
        <path class="cls-1" d="M451.53,333.08c-.02-3.28-.66-6.82-2.05-9.75-2.78-5.92-7.93-8.45-14.49-8.44-20.79.05-41.59-.02-62.36-.02-15.34.02-30.71-.02-46.05.1-7.05.05-12.29,3.82-14.39,10.52-.87,2.73-1.11,5.76-1.11,8.66-.03,17.53-.05,35.06-.05,52.59h140.59c.02-17.88.02-35.77-.09-53.67Z"/>
        <path class="cls-1" d="M382.49,301.94c23.13-.2,41.01-18.64,41.42-40.86.44-24.11-18.95-42.58-41.62-42.63-23.15-.03-41.51,18.41-41.74,41.56-.23,22.62,17.71,42.14,41.95,41.93Z"/>
      </g>
      <g>
        <path class="cls-1" d="M123.81,314.89c-35.77.12-71.53.02-107.3.12-2.78.02-5.8.59-8.24,1.82C2.22,319.9-.02,325.35,0,331.97c.05,18.26.02,36.52.02,54.78h140.07c-.02-18.16-.03-36.31.02-54.45.03-10.24-6.87-17.44-16.3-17.41Z"/>
        <path class="cls-1" d="M70.73,302.01c22.86.01,41.77-18.85,41.76-41.66,0-23.26-18.62-41.86-41.91-41.89-22.81-.03-41.43,18.74-41.41,41.74.02,23.25,18.45,41.8,41.56,41.81Z"/>
      </g>
      <g>
        <path class="cls-1" d="M293.73,323.43c-2.97-6.04-8.18-8.56-14.93-8.54-29.89.07-59.78-.02-89.67-.02-6.47,0-12.93-.05-19.39.14-6.42.19-11.26,3.44-13.42,9.34-1.34,3.66-1.53,7.88-1.54,11.85-.05,16.84-.07,33.69-.07,50.54h141.1c.02-18.29.02-36.59-.1-54.88-.02-2.85-.73-5.9-1.98-8.44Z"/>
        <path class="cls-1" d="M227.01,301.97c22.61-.35,41.11-18.94,40.94-41.52.04-23.12-18.54-41.98-41.39-42.02-22.99-.04-41.83,18.63-41.84,41.47-.01,23.78,18.45,42.44,42.29,42.07Z"/>
      </g>
    </g>
  </g>
</svg>