<?xml version="1.0" encoding="UTF-8"?>
<svg id="Layer_2" xmlns="http://www.w3.org/2000/svg" viewBox="0 0 407.26 328.71">
  <defs>
    <style>
      .cls-1 {
        fill: #7460e6;
      }

      .cls-2 {
        fill: #bfef4b;
      }
    </style>
  </defs>
  <g id="Layer_1-2" data-name="Layer_1">
    <g>
      <path class="cls-1" d="M370.94,210.75c-4.08-2.39-8.04-4.7-11.97-7.05-.25-.15-.47-.59-.47-.9.02-5.62.13-11.25.13-16.87.01-44.05.01-88.1,0-132.15,0-3.15.21-2.57-2.55-2.57-56.28-.02-112.56-.02-168.84-.02-33.09,0-66.18.02-99.27.02-24.12,0-48.24,0-72.36,0-3.25,0-3.24,0-3.24,3.16,0,60.64,0,121.28,0,181.92,0,5.42-.06,10.83.02,16.25.09,6.08,4.06,10.81,10.01,12.03,1.15.23,2.35.25,3.53.25,51.75,0,103.51,0,155.26,0,38.08,0,76.17,0,114.25,0,2.96,0,2.99-.02,3.85,2.79.93,3.07,1.8,6.15,2.69,9.23.04.15,0,.33,0,.62-1.14,0-2.23,0-3.32,0-91.4,0-182.81,0-274.21,0-2.84,0-5.67.02-8.51,0-9.15-.05-15.88-6.73-15.91-15.87-.04-12.06,0-24.12,0-36.18,0-35.25-.01-70.5-.01-105.75,0-26.45,0-52.9,0-79.34,0-7.74.05-15.49-.04-23.23C-.07,10.65,2.22,5.54,7.77,2.09,10.58.35,13.69,0,16.91,0c17.27.02,34.53.01,51.8.01,58.82,0,117.64,0,176.46,0,36.01,0,72.02,0,108.03-.02,3.45,0,6.84.19,9.92,2.04,5.23,3.14,7.91,7.8,7.91,13.84.03,42.78,0,85.56,0,128.35,0,22,.02,44.01.02,66.01,0,.08-.03.16-.11.51ZM63.03,15.93c-5.94,0-10.83,4.77-10.83,10.59,0,6.04,4.71,10.76,10.76,10.79,5.98.03,10.86-4.8,10.85-10.72-.02-5.9-4.82-10.65-10.78-10.66ZM42.09,26.78c.05-6-4.68-10.78-10.72-10.83-5.95-.06-10.77,4.67-10.81,10.59-.05,5.98,4.68,10.71,10.79,10.78,5.82.07,10.7-4.72,10.75-10.54ZM94.66,15.93c-5.88-.03-10.86,4.86-10.84,10.64.02,6.06,4.77,10.72,10.97,10.74,5.71.02,10.6-4.84,10.64-10.56.04-5.95-4.78-10.8-10.77-10.82Z"/>
      <path class="cls-2" d="M251.28,145.26c-.01,36.8-29.84,66.57-66.7,66.57-36.68,0-66.4-29.86-66.45-66.61-.05-37.24,29.98-66.59,66.46-66.65,37.01-.06,66.71,29.71,66.7,66.68ZM161.61,145.9h.01c0,10.83,0,21.66,0,32.49,0,1.06.08,2.11.13,3.17.15,3.23,4.25,6.09,8.05,3.74,1.4-.87,2.8-1.74,4.21-2.59,14.8-8.94,29.6-17.86,44.4-26.8,2.97-1.79,5.98-3.52,8.85-5.46,3.21-2.16,3.12-6.41-.05-8.64-.48-.34-.99-.65-1.49-.96-11.72-7.16-23.44-14.32-35.17-21.48-6.85-4.18-13.71-8.37-20.57-12.54-2.64-1.61-5.25-1.21-7.18,1.03-1.11,1.29-1.2,2.83-1.2,4.41,0,11.21,0,22.42,0,33.64Z"/>
      <path class="cls-2" d="M344.65,277.74c-8.18,9.77-15.25,19.99-21.91,30.95-13.2-44.99-26.31-89.65-39.49-134.57,40.65,23.19,81.1,46.27,121.63,69.38-5.69,2.43-11.15,4.64-16.5,7.1-5.64,2.58-11.16,5.4-16.75,8.09-.88.43-.8.82-.28,1.54,11.33,15.65,22.64,31.32,33.95,46.99.64.88,1.27,1.77,1.97,2.74-8.74,6.24-17.43,12.45-26.24,18.75-12.11-16.97-24.18-33.88-36.37-50.97Z"/>
      <path class="cls-1" d="M62.18,230.29c1.75-5.96,7.12-10.02,13.29-10.17,6.23-.15,11.93,3.62,13.8,9.2.28.83.74.96,1.5.96,11.25-.01,22.51,0,33.76,0,53.52,0,107.04,0,160.56.01.96,0,1.98-.02,2.87.28,2.3.77,3.32,2.82,2.87,5.39-.33,1.93-2.3,3.37-4.63,3.37-29.36,0-58.73,0-88.09,0-35.67,0-71.33,0-107-.02-1.12,0-1.76.23-2.29,1.35-4.49,9.55-17.58,11.06-24.14,2.8-.75-.95-1.36-2.03-1.89-3.13-.34-.71-.72-.99-1.52-.99-4.74.03-9.48.02-14.22,0-2.13,0-3.85-1.19-4.42-2.98-.65-2.03.02-4.25,1.86-5.34.82-.48,1.91-.68,2.89-.7,4.14-.08,8.29-.04,12.44-.04.76,0,1.52,0,2.34,0Z"/>
    </g>
  </g>
</svg>