<?xml version="1.0" encoding="UTF-8"?>
<svg id="Layer_2" xmlns="http://www.w3.org/2000/svg" viewBox="0 0 321.9 489.72">
  <defs>
    <style>
      .cls-1 {
        fill: #7460e6;
      }

      .cls-2 {
        fill: #bfef4b;
      }
    </style>
  </defs>
  <g id="Layer_1-2" data-name="Layer_1">
    <g>
      <g>
        <path class="cls-1" d="M17.7,223.76h286.63c-1.13,1.58-2.13,3-3.15,4.4-6.75,9.23-13.51,18.44-20.24,27.68-10.78,14.79-21.53,29.59-32.3,44.38-10.56,14.51-21.13,29.01-31.7,43.51-7.9,10.85-15.81,21.7-23.67,32.58-.43.59-.67,1.45-.67,2.18-.03,25.05-.01,50.09-.03,75.14,0,4.88-.06,4.85-4.34,7.13-10.66,5.7-21.29,11.43-31.95,17.14-7.02,3.77-14.05,7.53-21.09,11.26-1.45.77-3.05.69-4.5.03-.57-.26-1-1.04-1.26-1.68-.22-.54-.15-1.22-.15-1.84,0-35.42,0-70.84.04-106.26,0-1.62-.42-2.89-1.4-4.21-7.57-10.22-15.06-20.5-22.54-30.78-14.71-20.2-29.38-40.43-44.09-60.63-9.44-12.97-18.91-25.91-28.37-38.87-5.01-6.87-10.02-13.74-15.02-20.62-.07-.1-.09-.24-.21-.56Z"/>
        <path class="cls-2" d="M160.93,210.01c-25.13,0-50.27,0-75.4,0-21.37,0-42.73-.03-64.1-.03-2.84,0-5.68-.12-8.51.08-9.93.68-15.86-9.77-11.44-18.4,1.91-3.73,4.9-6.08,9.15-6.35,3.44-.22,6.91-.14,10.37-.14,65.12,0,130.24,0,195.35,0,30.45,0,60.91-.02,91.36.04,2.26,0,4.68.17,6.76.97,5.13,1.96,8.02,7.67,7.31,13.17-.66,5.14-5.29,10.79-12.46,10.77-42.69-.14-85.38-.09-128.06-.1-6.78,0-13.56,0-20.35,0h0Z"/>
      </g>
      <g>
        <path class="cls-2" d="M197.93,114.06c0-12.82.01-25.63,0-38.45-.02-21.06,15.49-36.69,36.53-36.73,19.48-.03,38.96,0,58.44.03,4.61,0,7.75,2.98,7.76,7.18,0,4.02-3.27,7-7.79,7.01-19.43.02-38.86,0-58.3.02-13.43.01-22.47,9.11-22.46,22.57,0,26.52,0,53.03-.02,79.55,0,4.65-2.94,7.8-7.12,7.77-4.18-.03-7.05-3.22-7.05-7.85,0-13.7,0-27.4,0-41.1Z"/>
        <path class="cls-2" d="M123.46,114.14c0,13.74,0,27.49,0,41.23,0,4.57-2.87,7.64-7.07,7.65-4.14,0-7.06-3.14-7.06-7.69,0-26.7.03-53.39.01-80.09,0-10.47-5.46-18.04-15.43-21.23-2.21-.71-4.67-.85-7.02-.86-19.34-.06-38.67-.02-58.01-.03-3.7,0-6.38-1.88-7.33-5.08-.93-3.13.2-6.51,3.07-8.1,1.27-.71,2.91-1.03,4.39-1.03,19.66-.05,39.32-.1,58.98.01,19.95.11,35.41,15.74,35.46,35.66.03,13.19,0,26.37,0,39.56h-.01Z"/>
        <path class="cls-2" d="M153.77,86.05c0-26.23,0-52.47,0-78.7,0-3.4,1.75-5.86,4.82-6.94,2.74-.96,6.1-.19,7.7,2.4,1.02,1.67,1.58,3.9,1.58,5.87.09,38.96.07,77.91.07,116.87,0,12.86,0,25.72,0,38.58,0,4.75-2.85,7.9-7.12,7.88-4.24-.02-7.05-3.13-7.05-7.82,0-26.05,0-52.1,0-78.14Z"/>
      </g>
    </g>
  </g>
</svg>