<?xml version="1.0" encoding="UTF-8"?>
<svg id="Layer_2" xmlns="http://www.w3.org/2000/svg" viewBox="0 0 388.96 389.02">
  <defs>
    <style>
      .cls-1 {
        fill: #7460e6;
      }

      .cls-2 {
        fill: #bfef4b;
      }
    </style>
  </defs>
  <g id="Layer_1-2" data-name="Layer_1">
    <g id="_x23_1b1a19ff">
      <path class="cls-1" d="M171.09.92c15.59-1.25,31.3-1.18,46.9-.04,4.9,17.28,10.3,34.42,15.09,51.73,4.23,1.44,8.57,2.54,12.73,4.18,4.16,1.86,8.49,3.31,12.47,5.56,3.14,1.2,5.84,3.24,8.9,4.62,3.19-2.1,6.65-3.71,9.97-5.59,2.71-1.8,5.82-2.86,8.52-4.65,2.59-1.51,5.41-2.6,7.93-4.24,7.2-3.63,14.22-7.62,21.46-11.19,11.65,10.13,22.61,21.04,32.77,32.67-6.7,12.53-13.32,25.11-20.02,37.64-1.96,3.37-3.52,6.97-5.72,10.21,3.38,5.99,6.44,12.17,8.94,18.58,2.15,5.07,3.55,10.42,5.26,15.64,6.78,1.49,13.32,3.92,20.06,5.58,5.7,1.93,11.58,3.29,17.28,5.21,3.61,1.1,7.26,2.06,10.86,3.18,1.19.45,2.4.85,3.61,1.25,1.21,15.47,1.06,31.05.06,46.54-17.23,5.43-34.59,10.48-51.97,15.42-.84,3.06-1.89,6.05-2.8,9.09-1.08,3.72-2.86,7.18-4.19,10.81-2.08,4.85-4.51,9.53-7.08,14.13,3.78,6.33,7.07,12.94,10.57,19.43,1.08,2.17,2.46,4.19,3.42,6.44,1.26,2.75,3.09,5.2,4.23,8.01,1.16,2.63,2.93,4.94,4.03,7.59.97,2.24,2.24,4.33,3.51,6.41-8.53,9.42-17.25,18.71-26.72,27.2-1.9,1.88-4.08,3.46-5.93,5.41-.74-.2-1.46-.47-2.1-.87-2.56-1.62-5.44-2.62-8.02-4.2-12.1-6.47-24.23-12.92-36.28-19.48-.83-.35-1.69-1.35-2.59-.63-10,5.88-20.8,10.42-32.01,13.46-.48.2-1.24.17-1.32.83-3.09,11.75-6.78,23.33-10.08,35.03-1.79,5.4-3.25,10.9-4.94,16.34-9.73.86-19.52.89-29.28.8-5.89-.17-11.81-.23-17.68-.81-4.87-17.31-10.43-34.44-14.98-51.85-6-1.77-12.04-3.5-17.73-6.12-3.61-1.22-6.86-3.21-10.33-4.74-2.12-.94-3.98-2.34-6.08-3.3-10.46,5.91-21.12,11.46-31.69,17.15-5.41,2.87-10.81,5.74-16.28,8.49-11.56-10.21-22.62-21.01-32.63-32.75,8.36-16.05,16.76-32.08,25.61-47.86-1.14-2.45-2.76-4.63-3.83-7.1-1.47-3.43-3.35-6.67-4.59-10.21-2.37-5.41-3.97-11.09-5.73-16.71-1.5-.63-3.11-.93-4.67-1.33-15.78-4.47-31.46-9.29-47.2-13.89-1.12-15.56-1.05-31.21,0-46.77,4.64-1.71,9.49-2.71,14.19-4.23,5.17-1.85,10.56-2.94,15.73-4.78,5.11-1.49,10.25-2.85,15.32-4.49,2.25-.77,4.67-.92,6.83-1.95,2.93-11.87,7.97-23.15,13.9-33.81-3.18-5.78-6.35-11.56-9.37-17.43-1.83-2.84-3-6.03-4.79-8.89-3.82-7.24-7.7-14.44-11.42-21.73,10.16-11.56,21.07-22.45,32.67-32.56,11.27,5.68,22.39,11.67,33.51,17.64,2.74,1.25,5.18,3.06,7.93,4.27,2.24.97,4.15,2.54,6.36,3.56.98.21,1.74-.69,2.58-1.08,2.9-1.99,6.25-3.12,9.31-4.85,2.06-1.09,4.29-1.8,6.43-2.72,5.15-2.32,10.62-3.84,16.02-5.46,1.26-5.68,3.15-11.19,4.64-16.81,3.5-11.64,6.86-23.33,10.45-34.94M187.42,94.35c-11.8.77-23.42,3.75-34.17,8.65-16.37,7.29-30.6,19.18-40.94,33.79-7.12,10.18-12.38,21.65-15.36,33.73-2.39,9.57-3.13,19.53-2.7,29.37.56,16.04,5.65,31.73,13.62,45.59,2.43,3.58,4.58,7.35,7.3,10.73,7.36,8.9,15.72,17.18,25.66,23.16,2.5,1.91,5.43,3.09,8.13,4.67,2.75,1.55,5.74,2.59,8.6,3.91,2.87,1.35,5.98,2.01,8.96,3.04,7.75,2.51,15.91,3.32,24,3.8,9.23.25,18.54-.48,27.54-2.57,5.1-1.54,10.34-2.76,15.17-5.07,24.12-9.98,43.99-29.8,53.88-53.98,11.97-28.03,9.97-61.58-5.23-87.99-10.6-18.79-27.44-33.97-47.2-42.62-14.73-6.68-31.18-9.29-47.29-8.2Z"/>
      <path class="cls-2" d="M219.05,125.44c2.2-.56,4.15.83,5.96,1.86,2.59,1.57,5.43,2.68,7.99,4.3,2.5,1.62,5.43,2.5,7.8,4.35,1.33,1.19,1.65,3.26.74,4.8-5,9.27-10.11,18.49-15.04,27.79-1.88,2.92-3.13,6.18-5.01,9.09-4.74,9.03-9.81,17.88-14.52,26.93-1.94,3.03-3.29,6.4-5.25,9.42-1.7,3.72-4.01,7.1-5.77,10.79-4.88,8.73-9.48,17.61-14.39,26.32-.98,2.15-2.2,4.18-3.41,6.21-1.04,1.71-1.59,3.88-3.37,5.02-1.86,1.16-4.65,1.35-6.23-.36-12-11.6-23.85-23.35-35.8-35-1.79-2.13-4.26-3.66-5.72-6.07-.38-1.51-.05-3.23,1.13-4.3,4.44-4.36,8.82-8.78,13.24-13.15,1.43-1.62,4.13-1.63,5.6-.05,6.37,5.84,12.41,12.02,18.72,17.92,1.34-1.44,2.07-3.49,3.05-5.22,15.1-27.71,30.06-55.5,45.17-83.2,1.77-2.39,2.14-6.16,5.12-7.43Z"/>
    </g>
  </g>
</svg>