<?xml version="1.0" encoding="UTF-8"?>
<svg id="Layer_2" xmlns="http://www.w3.org/2000/svg" viewBox="0 0 407.53 302.5">
  <defs>
    <style>
       .cls-1 {
        fill: #7460e6;
      }

      .cls-2 {
        fill: #bfef4b;
      }
    </style>
  </defs>
  <g id="Layer_1-2" data-name="Layer_1">
    <g>
      <path class="cls-1" d="M407.52,22.35c-.18-9.09-6.3-17.63-14.79-20.82-3.09-1.14-6.4-1.58-9.68-1.52-100.06.04-200.13-.06-300.19.06-7.68.28-15.03,4.7-18.91,11.33-1.87,3.52-3.21,7.39-3.09,11.42-.01,35.02-.02,70.04-.02,105.06,1-.22,2.02-.41,3.04-.57,1.33-.23,2.58-.35,3.68-.46l.78-.08c.14-.02.29-.03.43-.04,1.18-.07,2.39-.11,3.57-.11.92,0,1.84.02,2.75.07v-52.09c.04-4.05-.09-8.09-.08-12.13,106.08-.04,212.15,0,318.23-.03-.05,62.66,0,125.32-.02,187.97.12,3.47-2.14,6.98-5.42,8.19-2.12.9-4.48.41-6.71.54-75.87,0-151.74.02-227.62,0,.93,3.15,1.43,6.44,1.42,9.75v4.36c76.38,0,152.77,0,229.15,0,5.08.04,10.31-1.41,14.29-4.66,5.84-4.27,9.43-11.46,9.18-18.7-.06-75.85-.03-151.69,0-227.54ZM104.58,39.83c-1.15,1.13-2.27,2.33-3.65,3.17-3.7,1.92-8.27,2.12-12.12.52-2.16-1.29-4.37-2.74-5.67-4.97-2.49-3.6-2.96-8.51-1.13-12.5,1.7-4.14,5.68-7.34,10.12-8,3.61-.57,7.56.15,10.37,2.61,5.94,4.26,6.82,13.7,2.08,19.17ZM142.09,40.2c-2.92,3.59-7.91,5.02-12.37,4.2-6.08-.87-11-6.62-10.93-12.77-.42-6.42,4.62-12.53,10.93-13.57,6.15-1.27,12.71,2.44,14.93,8.28,1.71,4.61.88,10.23-2.56,13.86ZM178.78,41.27c-4.72,4.49-13.05,4.49-17.67-.14-5.94-4.7-5.83-14.77-.21-19.68,1.62-1.39,3.45-2.63,5.57-3.13,3.99-1.02,8.53-.38,11.71,2.38,6.59,4.65,6.77,15.48.6,20.57Z"/>
      <g>
        <path class="cls-2" d="M245.23,116.4c3.22-1.03,7.1,1.45,7.4,4.86.31,1.99-.64,3.84-1.25,5.68-8.16,24.86-16.33,49.71-24.48,74.57-.74,2.32-3.02,4.12-5.5,4.03-2.52.25-4.67-1.62-5.64-3.8-.8-2.03-.04-4.19.68-6.11,8.25-25.23,16.52-50.46,24.82-75.68.55-1.81,2.25-2.97,3.96-3.55Z"/>
        <path class="cls-2" d="M193.57,130.62c1.61-1.57,4.11-1.65,6.16-1.1,2.3.94,3.97,3.4,3.63,5.92,0,3.01-2.86,4.65-5.05,6.12-8.56,6.19-17.12,12.36-25.73,18.48,2.53,2.08,5.31,3.83,7.98,5.73,4.32,3.38,8.97,6.31,13.31,9.66,1.78,1.11,3.35,2.52,5.14,3.62,1.46,1.07,3.2,2.03,4,3.73.85,2.28.42,5.12-1.48,6.77-1.53,1.54-3.97,1.87-5.98,1.22-1.11-.31-1.88-1.21-2.77-1.87-10.32-7.42-20.57-14.94-30.89-22.35-1.29-1.16-2.99-1.9-3.96-3.4-1.2-1.84-1.13-4.38.08-6.19,1.03-1.45,2.74-2.14,4.01-3.33,10.39-7.86,21.05-15.34,31.56-23.03Z"/>
        <path class="cls-2" d="M266.35,131.28c2-2.78,6.47-2.7,8.81-.39,5.29,3.68,10.37,7.62,15.68,11.28,5.61,4.27,11.45,8.19,17.02,12.52.82.64,1.8,1.11,2.44,1.97,1.69,2.38,1.28,6.16-1.19,7.87-11.6,8.58-23.43,16.83-34.92,25.55-2.3,1.61-5.91,1.4-7.68-.9-2.34-2.25-2.04-6.54.61-8.42,9.54-6.87,19.11-13.7,28.67-20.55-3.63-2.95-7.6-5.49-11.37-8.28-4.49-3.44-9.25-6.52-13.72-9.98-1.88-1.34-4.15-2.42-5.24-4.57-.86-1.97-.58-4.48.9-6.09Z"/>
      </g>
      <g id="_x23_000000ff">
        <path class="cls-1" d="M69.4,136.71c6.7-.42,13.54.58,19.74,3.23,10.66,4.43,19.41,13.36,23.32,24.26,4.21,11.3,3.16,24.19-1.89,35.04-4.55,9.91-12.21,18.59-22.04,23.48-6.13,3.06-13.13,4.39-19.95,3.62-9.79-1.06-18.75-6.38-25.32-13.56-8.23-9.04-13.34-21.04-13.44-33.33-.05-7.5,1.79-15.05,5.55-21.56,6.23-10.98,17.66-18.8,30.13-20.7,1.29-.23,2.6-.33,3.9-.47Z"/>
        <path class="cls-1" d="M20.48,243.49c9.09-4.02,18.4-7.55,27.91-10.43,4.51,4.54,10.21,7.97,16.47,9.43,11.23,2.8,23.69-1.06,31.61-9.45,9.61,2.93,19.01,6.48,28.19,10.56,3.48,1.63,7.09,3.09,10.18,5.41,6.28,4.51,10.07,12.15,10.05,19.86,0,8.6,0,17.2,0,25.79.45,3.94-2.81,7.9-6.85,7.84-43.73,0-87.47,0-131.2,0-3.67.05-6.86-3.28-6.85-6.91,0-8.91,0-17.82,0-26.73.06-5.14,1.65-10.28,4.69-14.44,1.56-2.21,3.56-4.08,5.72-5.69,3.12-2.16,6.64-3.66,10.08-5.24Z"/>
      </g>
    </g>
  </g>
</svg>