<?xml version="1.0" encoding="UTF-8"?>
<svg id="Layer_2" xmlns="http://www.w3.org/2000/svg" viewBox="0 0 353.48 369.45">
  <defs>
    <style>
      .cls-1 {
        fill: #7460e6;
      }

      .cls-2 {
        fill: #bfef4b;
      }
    </style>
  </defs>
  <g id="Layer_1-2" data-name="Layer_1">
    <g>
      <polygon class="cls-1" points="163.8 166.52 172.72 193.07 172.72 194.08 154.65 194.08 163.8 166.52"/>
      <path class="cls-1" d="M172.72,46.62v106.33l-1.89-5.05h-14.06l-27.41,73.65h16.13l5.06-15.18h22.17v47.06c0,23.82,0,47.63-.01,71.44-.11,4.81-.85,9.61-2.41,14.14-.95,4.04-3.19,7.51-5.17,11.04-1.94,2.58-3.77,5.3-6.18,7.42-1.95,2.32-4.61,3.73-6.86,5.68-4.14,2.36-8.44,4.65-13.12,5.5-7.86,1.54-16.18.87-23.62-2.26-2.34-1.39-5.03-2.02-7.21-3.72-2.07-1.64-4.49-2.78-6.31-4.76-3.92-3.31-7.09-7.5-9.46-12.16-1.53-4.06-2.97-8.22-3.42-12.6-.3-4.47.08-9.09,1.86-13.21,1.7-5.46,5.64-9.91,10.25-12.8,2.46-1.04,4.88-2.42,7.52-2.84,2.66,1.69,5.77,3.11,8.93,2.76,3.53-.68,5.33-5.47,3.35-8.6-1.66-2.72-4.82-3.38-7.46-4.51-2.29-1.4-4.29-3.4-5.79-5.7-1.4-2.9-2.73-5.91-3.22-9.15-.68-2.1-2.22-4.31-4.53-4.34-3.64-.65-6.88,3.44-6.04,7.15,1.03,4.68,2.25,9.52,5.08,13.38-6.96,3.11-12.98,8.71-16.44,15.86-1.88,2.78-2.69,6.13-3.45,9.41-1.49,5.84-1.61,12.1-.22,17.98-7.4,1.32-15.09.58-22.3-1.51-2.95-1.17-6.13-1.71-8.85-3.46-2.31-1.59-5.05-2.34-7.2-4.2-6.52-4.47-12.16-10.3-16.91-16.78-1.59-1.74-2.37-4.06-3.59-6.07-2.34-3.98-3.52-8.54-4.83-12.98-1.58-6.3-1.79-12.88-1.53-19.37.31-4.14.49-8.49,2.45-12.21,2.29-5.39,7.03-8.83,11.34-12.27,3.23-1.87,6.32-4.24,10.01-4.97,6.48-2.06,13.46-2.42,20.02-.54-1.45,2.71-2.65,5.57-3.9,8.4-2.63,8.91-3.4,18.55-1.39,27.7.55,2.5.94,5.44,3.11,7,2.83,2.31,7.48.72,8.67-2.78.85-3.38-1.11-6.5-1.41-9.8-1.21-7.35.32-14.83,2.93-21.64,2.65-5.3,6.16-10.27,10.93-13.63,3.2-2.89,7.27-4.22,11.16-5.7,4.28-1.44,8.88-1.39,13.31-.91,2.74.28,5.34,1.2,7.87,2.33,1.28.56,2.53,1.18,3.77,1.8,2.42,1.28,4.33,3.41,6.7,4.8,2.8,1.42,7.05-.04,7.74-3.48.35-2.04.34-4.5-1.32-5.92-1.96-1.45-3.62-3.34-5.76-4.49-1.94-1.1-3.78-2.37-5.77-3.35-1.77-.66-3.56-1.32-5.36-1.9-3.51-1.17-7.09-2.08-10.78-2.32-1.91,0-3.12-1.74-4.52-2.84-2.76-2.25-5.19-4.94-7.1-8.04-2.01-2.5-2.92-5.69-3.98-8.71-1.81-4.54-1.97-9.59-1.74-14.44.2-3.68-3.9-6.11-6.95-4.97-2.56.61-4.01,3.4-4.11,6.01-.78,13.19,4.13,26.7,13.2,35.8-2.91,1.02-5.92,1.9-8.45,3.83-3.56,1.77-6.46,4.65-9.47,7.27-8.68-3.58-18.36-3.83-27.43-1.84-3.49.66-6.69,2.34-9.96,3.72-2.6,1.08-4.76,2.97-7.13,4.48-1.07.67-1.99,1.56-2.89,2.45-1.56-1.41-3.35-2.54-4.8-4.11-2.2-2.03-3.94-4.54-5.77-6.92-2.18-4.02-4.45-8.11-5.4-12.69-2.46-9.14-1.55-19.06,1.8-27.81,1.55-3.27,2.94-6.71,5.32-9.43,2.01,2.88,4.37,5.43,6.83,7.87,2.6,1.95,4.91,4.36,7.88,5.67,3.43,2.27,7.27,3.66,11.15,4.75,3.05.55,6.15,1.85,9.26,1.03,1.95-.93,3.68-2.97,3.72-5.33.12-1.94-.77-3.97-2.35-4.99-1.39-1.02-3.15-.91-4.74-1.23-3.24-.49-6.21-1.98-9.27-3.1-2.71-1.01-4.83-3.16-7.26-4.72-6.77-5.78-11.81-13.85-13.8-22.85-2.15-10.47-1.69-21.88,2.83-31.61,2.27-5.57,5.92-10.42,10.01-14.62,3.19-2.78,6.42-6.1,10.72-6.65,2.42,2.94,3.8,6.73,6.59,9.38,2.59,3.16,5.76,5.67,9.03,7.98,2.89,1.57,5.85,3.11,8.98,4.09-.01.07-.04.23-.06.31,1.87.12,3.67.77,5.51,1.12.02,3.71,1.59,7.15,3.24,10.33,3.26,6.3,8.02,11.83,14.01,15.27,3.37,2.58,7.45,3.73,11.44,4.75,5.4,1.27,11.05,1.17,16.44-.15,9.7-2.37,18.57-8.66,23.63-17.85,1.68-2.38,2.65-5.2,3.59-7.97,1.32-3.58-1.54-8.29-5.3-7.87-2.22-.11-4.02,1.63-4.89,3.65-1.58,3.55-2.96,7.31-5.56,10.19-2.65,2.85-5.72,5.35-9.29,6.77-.71.37-1.44.69-2.18.97-5.31,2.06-11.27,2.03-16.65.23-2.83-1.4-5.88-2.43-8.27-4.65-2.82-2.03-4.8-5.01-6.72-7.94-.97-1.96-1.75-4.04-2.52-6.1,2.82-.53,5.68-1.09,8.26-2.47,2.78-1.48,5.73-2.69,8.08-4.91,2.23-2.04,5.31-3.94,5.64-7.36.22-2.21-.43-4.89-2.45-5.94-1.75-.65-3.8-.91-5.54-.1-1.67,1-2.61,2.9-4.25,3.94-2.11,1.37-4.06,3.07-6.45,3.86-6.4,2.46-13.58,2.04-19.87-.6-1.41-.64-2.63-1.63-3.96-2.43-3.3-1.87-5.63-5.09-8.14-7.94-1.4-2.33-2.67-4.75-3.9-7.2-2.52-6.81-3.7-14.3-2.5-21.57.83-4.53,1.8-9.15,4.12-13.13,2.03-4.58,5.14-8.53,8.61-11.97,2.25-2,4.42-4.17,7.08-5.53,2.32-1.3,4.54-2.88,7.1-3.58,3.14-.88,6.27-1.96,9.53-2.23,6.21-.63,12.54.39,18.37,2.7,11.75,6.4,18.31,21.11,16.78,34.82-.12,3.18-2.22,6.59-.18,9.56,2.12,3.69,8.03,3.1,9.53-.87,2.34-6.36,2.41-13.42,1.47-20.08-.23-2.1-1.09-4.02-1.52-6.06,3.02-.1,6.07-.22,9.03-.93,3.71-1.58,4.43-7.45,1.28-10.04-2.61-2.68-6.21-.39-9.3-.49-2.57-.21-5.34-.71-7.27-2.69-1.85-2.19-3.24-4.81-5.43-6.67-2.07-1.78-3.92-3.9-6.31-5.2-2.53-1.42-4.97-3.13-7.82-3.75.97-4.58,3.39-8.55,5.66-12.5,3.53-5.04,8.12-9.17,13.23-12.31,1.45-.75,3.05-1.11,4.45-1.95,2.56-1.64,5.57-2.08,8.45-2.68,6.72-.94,13.77-.63,20.14,2.03,2.82,1.44,5.91,2.4,8.35,4.58,4.44,2.91,8.06,6.99,11.08,11.45,1.28,2.77,2.97,5.33,3.93,8.26,2.37,6.29,3.21,13.08,2.92,19.82Z"/>
      <path class="cls-1" d="M350.29,191.48c-1.55-3.27-2.94-6.71-5.32-9.43-2.01,2.88-4.37,5.43-6.83,7.87-2.6,1.95-4.91,4.36-7.88,5.67-3.43,2.27-7.27,3.66-11.15,4.75-3.05.55-6.15,1.85-9.26,1.03-1.95-.93-3.68-2.97-3.72-5.33-.12-1.94.77-3.97,2.35-4.99,1.39-1.02,3.15-.91,4.75-1.23,3.23-.49,6.2-1.98,9.26-3.1,2.71-1.01,4.83-3.16,7.26-4.72,6.77-5.78,11.82-13.85,13.8-22.85,2.15-10.47,1.69-21.88-2.83-31.61-2.27-5.57-5.92-10.42-10.01-14.62-3.19-2.78-6.42-6.1-10.72-6.65-2.42,2.94-3.8,6.73-6.59,9.38-2.59,3.16-5.76,5.67-9.03,7.98-2.89,1.57-5.85,3.11-8.98,4.09.01.07.04.23.06.31-1.87.12-3.67.77-5.51,1.12-.02,3.71-1.59,7.15-3.24,10.33-3.25,6.3-8.02,11.83-14.01,15.27-3.37,2.58-7.45,3.73-11.44,4.75-4.97,1.17-10.16,1.17-15.16.13-10.2-2.11-19.63-8.54-24.91-18.13-1.68-2.38-2.65-5.2-3.59-7.97-1.32-3.58,1.54-8.29,5.3-7.87,2.22-.11,4.02,1.63,4.89,3.65,1.58,3.55,2.96,7.31,5.56,10.19,2.65,2.85,5.73,5.35,9.29,6.77,1.12.58,2.28,1.05,3.46,1.43,4.98,1.59,10.42,1.43,15.37-.23,2.83-1.4,5.88-2.43,8.27-4.65,2.82-2.03,4.8-5.01,6.72-7.94.97-1.96,1.75-4.04,2.52-6.1-2.82-.53-5.68-1.09-8.26-2.47-2.78-1.48-5.73-2.69-8.08-4.91-2.23-2.04-5.31-3.94-5.64-7.36-.21-2.21.43-4.89,2.45-5.94,1.75-.65,3.8-.91,5.54-.1,1.67,1,2.62,2.9,4.25,3.94,2.11,1.37,4.06,3.07,6.45,3.86,6.4,2.46,13.59,2.04,19.87-.6,1.41-.64,2.63-1.63,3.96-2.43,3.31-1.87,5.63-5.09,8.14-7.94,1.4-2.33,2.67-4.75,3.9-7.2,2.52-6.81,3.7-14.3,2.51-21.57-.83-4.53-1.81-9.15-4.13-13.13-2.03-4.58-5.14-8.53-8.61-11.97-2.25-2-4.42-4.17-7.08-5.53-2.32-1.3-4.54-2.88-7.1-3.58-3.14-.88-6.27-1.96-9.53-2.23-6.21-.63-12.54.39-18.37,2.7-11.75,6.4-18.31,21.11-16.78,34.82.12,3.18,2.23,6.59.18,9.56-2.11,3.69-8.03,3.1-9.53-.87-2.34-6.36-2.41-13.42-1.47-20.08.23-2.1,1.09-4.02,1.52-6.06-3.02-.1-6.07-.22-9.03-.93-3.71-1.58-4.43-7.45-1.28-10.04,2.61-2.68,6.22-.39,9.3-.49,2.57-.21,5.34-.71,7.27-2.69,1.85-2.19,3.24-4.81,5.43-6.67,2.07-1.78,3.92-3.9,6.31-5.2,2.53-1.42,4.98-3.13,7.82-3.75-.97-4.58-3.39-8.55-5.66-12.5-3.53-5.04-8.12-9.17-13.22-12.31-1.45-.75-3.06-1.11-4.46-1.95-2.56-1.64-5.57-2.08-8.45-2.68-6.72-.94-13.77-.63-20.14,2.03-2.82,1.44-5.91,2.4-8.35,4.58-4.44,2.91-8.06,6.99-11.08,11.45-1.28,2.77-2.97,5.33-3.93,8.26-2.37,6.29-3.21,13.08-2.92,19.82,0,23.14.01,46.27,0,69.4.01,19.49.01,38.98.01,58.46l17.62,47.07h-16.14l-1.48-4.4v107.72c.11,4.81.85,9.61,2.41,14.14.95,4.04,3.19,7.51,5.17,11.04,1.94,2.58,3.77,5.3,6.18,7.42,1.95,2.32,4.61,3.73,6.86,5.68,4.14,2.36,8.44,4.65,13.12,5.5,7.86,1.54,16.18.87,23.62-2.26,2.34-1.39,5.03-2.02,7.21-3.72,2.07-1.64,4.49-2.78,6.31-4.76,3.92-3.31,7.09-7.5,9.46-12.16,1.53-4.06,2.97-8.22,3.42-12.6.3-4.47-.08-9.09-1.86-13.21-1.7-5.46-5.64-9.91-10.25-12.8-2.46-1.04-4.88-2.42-7.52-2.84-2.66,1.69-5.77,3.11-8.93,2.76-3.53-.68-5.33-5.47-3.35-8.6,1.66-2.72,4.82-3.38,7.46-4.51,2.29-1.4,4.29-3.4,5.79-5.7,1.4-2.9,2.73-5.91,3.22-9.15.68-2.1,2.22-4.31,4.53-4.34,3.64-.65,6.89,3.44,6.04,7.15-1.02,4.68-2.25,9.52-5.08,13.38,6.97,3.11,12.98,8.71,16.44,15.86,1.88,2.78,2.69,6.13,3.45,9.41,1.49,5.84,1.61,12.1.22,17.98,7.4,1.32,15.09.58,22.3-1.51,2.95-1.17,6.13-1.71,8.85-3.46,2.31-1.59,5.05-2.34,7.2-4.2,6.52-4.47,12.16-10.3,16.91-16.78,1.59-1.74,2.37-4.06,3.59-6.07,2.34-3.98,3.52-8.54,4.83-12.98,1.58-6.3,1.79-12.88,1.53-19.37-.31-4.14-.49-8.49-2.45-12.21-2.29-5.39-7.03-8.83-11.34-12.27-3.23-1.87-6.32-4.24-10.01-4.97-6.48-2.06-13.46-2.42-20.02-.54,1.45,2.71,2.65,5.57,3.9,8.4,2.63,8.91,3.4,18.55,1.39,27.7-.55,2.5-.94,5.44-3.11,7-2.83,2.31-7.48.72-8.67-2.78-.85-3.38,1.11-6.5,1.41-9.8,1.21-7.35-.32-14.83-2.93-21.64-2.65-5.3-6.16-10.27-10.93-13.63-3.2-2.89-7.27-4.22-11.16-5.7-4.28-1.44-8.88-1.39-13.31-.91-2.28.23-4.47.91-6.59,1.78-1.71.7-3.39,1.52-5.05,2.35-2.42,1.28-4.33,3.41-6.7,4.8-2.8,1.42-7.05-.04-7.74-3.48-.35-2.04-.34-4.5,1.32-5.92,1.96-1.45,3.62-3.34,5.76-4.49,1.94-1.1,3.78-2.37,5.77-3.35,2.19-.82,4.4-1.63,6.64-2.32,3.1-.96,6.26-1.69,9.5-1.9,1.91,0,3.12-1.74,4.52-2.84,2.76-2.25,5.19-4.94,7.1-8.04,2.01-2.5,2.92-5.69,3.98-8.71,1.81-4.54,1.97-9.59,1.74-14.44-.2-3.68,3.9-6.11,6.96-4.97,2.55.61,4,3.4,4.1,6.01.78,13.19-4.13,26.7-13.2,35.8,2.91,1.02,5.92,1.9,8.45,3.83,3.57,1.77,6.46,4.65,9.47,7.27,8.68-3.58,18.36-3.83,27.43-1.84,3.49.66,6.69,2.34,9.96,3.72,2.6,1.08,4.76,2.97,7.14,4.48,1.06.67,1.98,1.56,2.88,2.45,1.56-1.41,3.35-2.54,4.8-4.11,2.2-2.03,3.94-4.54,5.77-6.92,2.18-4.02,4.46-8.11,5.4-12.69,2.46-9.14,1.56-19.06-1.8-27.81ZM221.41,147.9v73.65h-15.17v-73.65h15.17Z"/>
      <path class="cls-2" d="M234.09,116.02h-113.41c-6.6,0-12,5.4-12,12v113.41c0,6.6,5.4,12,12,12h113.41c6.6,0,12-5.4,12-12v-113.41c0-6.6-5.4-12-12-12ZM182.26,221.55l-1.48-4.4-3.63-10.78h-26.6l-5.06,15.18h-16.13l27.41-73.65h14.06l1.89,5.05,8.06,21.53,17.62,47.07h-16.14ZM221.41,221.55h-15.17v-73.65h15.17v73.65ZM163.8,166.52l-9.15,27.56h18.41l-.34-1.01-8.92-26.55Z"/>
    </g>
  </g>
</svg>