<?xml version="1.0" encoding="UTF-8"?>
<svg id="Layer_2" xmlns="http://www.w3.org/2000/svg" viewBox="0 0 388.75 357.61">
  <defs>
    <style>
       .cls-1 {
        fill: #7460e6;
      }

      .cls-2 {
        fill: #bfef4b;
      }
    </style>
  </defs>
  <g id="Layer_1-2" data-name="Layer_1">
    <g>
      <path class="cls-1" d="M72.98,193.38c-11.04,4.19-21.34,9.8-31.26,16.59,1.35,1.5,2.6,2.97,3.94,4.35,5.58,5.76,11.71,10.85,18.28,15.46,6.12,4.29,12.66,7.81,19.47,10.8,3.93,1.73,8.06,3.02,12.11,4.46,1.71.61,1.95.86,1.5,2.67-.79,3.11-1.11,6.24-.75,9.43.13,1.15-.66.88-1.24.71-2.43-.72-4.92-1.33-7.26-2.28-5.55-2.26-11.13-4.52-16.53-7.12-6.02-2.9-11.61-6.58-17.06-10.46-6.96-4.95-13.24-10.66-19.07-16.85-4.82-5.11-9.12-10.66-13.02-16.52-6.01-9.03-10.8-18.65-14.43-28.85-3.59-10.09-5.9-20.47-6.92-31.13-.64-6.62-.93-13.25-.6-19.9.56-11.29,2.35-22.36,5.78-33.15,3.25-10.24,7.66-19.96,13.25-29.11,5.93-9.7,12.92-18.62,21.3-26.36,3.69-3.41,7.39-6.86,11.43-9.83,4.92-3.62,10.11-6.89,15.33-10.07,6.96-4.24,14.48-7.33,22.2-9.86C100.94,2.58,112.76.41,124.91.07c9.26-.26,18.47.14,27.56,1.79,7.52,1.37,14.87,3.5,22.06,6.21,7.11,2.68,13.81,6.13,20.41,9.81,2.65,1.48,5.2,3.2,7.6,5.04,4.69,3.6,9.41,7.19,13.82,11.12,3.67,3.28,7.11,6.89,10.29,10.65,3.68,4.35,7.14,8.91,10.38,13.59,3.58,5.18,6.6,10.71,9.28,16.42,3.32,7.05,6.05,14.31,8.09,21.83,4.75,17.55,5.69,35.36,3.25,53.33-.61,4.47-1.71,8.88-2.56,13.31-.15.76-.59.75-1.22.68-3.1-.32-6.18-.19-9.14.88-1.09.4-2.1,1.02-3.45,1.69,3.17-9.58,4.56-19.22,5.13-29.05h-52.29c-.27,14.82-1.98,29.41-5.14,43.72,5.32,2.38,10.6,4.53,15.67,7.08,5.08,2.56,9.94,5.52,14.9,8.31.07.21.14.43.21.64-.54.38-1.09.76-1.62,1.16-2.7,2.04-5.37,4.11-8.12,6.08-.33.23-1.12.07-1.57-.16-4.8-2.49-9.53-5.12-14.36-7.54-2.6-1.3-5.35-2.29-8.21-3.5-.44,1.38-.77,2.59-1.21,3.75-2.12,5.51-4.28,11.01-6.42,16.52-.03.08-.1.14-.12.22-.61,3.42-2.83,4.49-6.09,4.59-3.24.1-6.47.68-9.71,1.03-.32.03-.64,0-1.12,0,6.12-9.3,9.76-19.51,13.13-29.94-12.59-3.98-25.49-5.86-38.8-6.48,0,.68,0,1.25,0,1.82.06,11.34.12,22.68.18,34.02,0,.59.03,1.13-.8,1.11-3.86-.11-7.69.06-11.56,1.48v-38.53c-13.23.73-26.08,2.65-38.74,6.56,4.86,15.62,11.28,30.31,21.8,43.09-3.13,2.77-5.89,5.87-7.65,10.02-.6-.6-1.14-1.05-1.57-1.59-8.83-11.08-15.54-23.34-20.4-36.63-1.3-3.56-2.53-7.15-3.83-10.83ZM64.55,137.41H12.57c.67,12.69,3.1,24.9,7.56,36.68,3.52,9.31,8.13,18.05,13.88,26.26,2.76-1.78,5.37-3.49,8.01-5.16,8.38-5.3,17.22-9.7,26.49-13.22,1.29-.49,1.47-1.15,1.19-2.35-2.04-8.58-3.2-17.29-3.97-26.06-.46-5.34-.78-10.7-1.17-16.14ZM12.36,125.02h52.31c.03-.57.06-1.03.07-1.49.17-10.51,1.33-20.93,3.02-31.29.54-3.33,1.34-6.62,2.01-9.94.1-.51.41-1.05-.41-1.35-1.82-.67-3.61-1.43-5.41-2.14-6.74-2.64-13.15-5.99-19.42-9.58-3.18-1.83-6.26-3.86-9.28-5.94-1.17-.81-1.77-.45-2.42.48-.1.14-.19.28-.28.42-2.06,3.49-4.2,6.94-6.17,10.48-4.18,7.51-7.15,15.52-9.64,23.73-1.77,5.86-2.65,11.88-3.51,17.9-.41,2.87-.59,5.78-.88,8.72ZM246.37,125.06c-1.11-22.93-8.24-43.69-21.28-62.51-11.31,7.68-23.25,13.93-36.18,18.65,3.3,14.46,4.98,29.04,5.2,43.86h52.26ZM123.27,137.42h-46.46c.33,13.54,2.05,26.78,4.64,40.03,13.77-3.92,27.55-6.62,41.83-6.73v-33.3ZM181.98,137.45h-46.44c0,.89,0,1.65,0,2.41.02,9.43.05,18.87.07,28.3,0,2.49-.02,2.51,2.55,2.6,12.15.43,24.05,2.49,35.77,5.61,1.11.3,2.19.71,3.36,1.1,2.98-13.26,4.18-26.54,4.7-40.02ZM123.35,91.9c-14.28-.21-28.13-2.83-41.94-6.68-2.54,13.34-4.28,26.5-4.65,39.82.32.04.44.07.56.07,14.94,0,29.88-.02,44.81,0,1.1,0,1.24-.41,1.24-1.33-.03-8.38-.02-16.76-.03-25.14,0-2.15,0-4.31,0-6.76ZM177.33,85.23c-13.69,4.11-27.56,6.45-41.69,6.7v33.09h46.41c-.58-13.4-1.64-26.64-4.71-39.79ZM84.52,73.29c12.77,3.93,25.64,5.81,38.73,6.47V15.52c-3.79,1.9-6.85,4.57-9.82,7.31-6.74,6.21-12.16,13.49-16.66,21.44-4.39,7.76-7.94,15.93-10.77,24.39-.5,1.51-.97,3.03-1.48,4.62ZM174.42,73.37c-.19-.38-.36-.66-.46-.96-1.68-4.69-3.2-9.44-5.04-14.07-4.96-12.46-11.83-23.75-21.22-33.39-3.27-3.36-6.74-6.53-10.86-8.87-.35-.2-.72-.37-1.21-.62v64.26c13.22-.61,26.13-2.39,38.8-6.34ZM185.82,69.41c11.17-4.35,21.78-9.7,31.71-16.59-16.88-19.09-37.42-31.82-62.16-37.73,15.03,15.33,24.41,33.79,30.45,54.32ZM103.31,15.34c-17.47,3.93-33,11.76-46.87,22.9-5.43,4.36-10.46,9.16-14.89,14.56,5.48,4.56,26.94,15.68,31.47,16.34,6.35-20.02,15.36-38.55,30.3-53.79Z"/>
      <path class="cls-2" d="M235.65,313.05c-.5-.38-.79-.59-1.07-.81-4.42-3.53-8.77-7.15-13.29-10.56-5.49-4.14-11.59-7.3-17.86-10.05-11.02-4.83-22.56-7.93-34.57-8.47-12.33-.55-24.69-.47-37.04-.43-4.51.01-5.96-1.8-5.94-6,.07-14.93.05-29.87.07-44.8,0-3.5,1.55-5.15,5.11-5.19,8.38-.08,16.76.15,25.13-.14,6.03-.21,12.04-1.01,18.05-1.62,6.91-.69,13.57-2.55,20.02-4.96,4.92-1.85,9.65-4.27,14.33-6.69,3.11-1.6,6.09-3.49,8.94-5.52,2.67-1.9,5.21-4.03,7.6-6.28,3.59-3.37,7.01-6.93,10.53-10.44v121.96Z"/>
      <path class="cls-2" d="M262.51,250.95c0,23.23-.08,46.45.05,69.68.04,7.12-6.47,12.69-14.19,10.56-4.68-1.29-7.58-5.14-7.6-10.18-.03-5.5.09-11,.09-16.5,0-38.12-.02-76.24-.04-114.36,0-3.09.06-6.18,0-9.26-.11-5.37,4.4-10.27,10.37-10.22,4.28.03,7.64,1.45,9.96,5.15,1.12,1.78,1.36,3.7,1.36,5.71.01,13.07.02,26.15.02,39.22,0,10.07,0,20.14,0,30.21h-.01Z"/>
      <path class="cls-2" d="M136.25,289.02h18.71c0,.86.02,1.65,0,2.43-.1,4.04.91,7.9,2.13,11.67,2.71,8.31,5.61,16.55,8.44,24.82.45,1.32.98,2.62,1.33,3.96.19.73.53.84,1.21.94,1.39.2,2.85.38,4.11.94,2.13.93,2.89,2.86,2.87,5.09-.03,2.37-1.13,4.22-3.25,5.18-1.43.64-3.06.96-4.64,1.11-2.17.21-4.41.42-6.54.1-2.97-.44-5.08-2.45-6.48-5.04-.88-1.62-1.52-3.39-2.13-5.14-2.43-6.9-4.82-13.81-7.19-20.73-2.81-8.19-5.59-16.4-8.38-24.6-.07-.19-.1-.4-.18-.73Z"/>
      <path class="cls-2" d="M120.27,277.45c-7.65-1.16-16.43-9.35-17.17-20.74-.75-11.59,7.06-21.61,17.17-24.34v45.08Z"/>
      <path class="cls-2" d="M352.12,254.86c-10.62,0-21.24,0-31.85,0-.8,0-1.61,0-2.41-.11-1.29-.17-2.18-1.3-2.21-2.7-.03-1.12.92-2.35,2.05-2.58.49-.1,1.01-.12,1.51-.12,21.7,0,43.4,0,65.1,0,.55,0,1.1.02,1.65.06,1.94.14,2.85,1.08,2.78,2.87-.06,1.56-1.28,2.58-3.12,2.58-7.78,0-15.57,0-23.35,0-3.38,0-6.77,0-10.15,0Z"/>
      <path class="cls-2" d="M267.85,267.52v-33.54c5.54.35,13.13,7.1,13.72,15.4.68,9.5-6.78,17.24-13.72,18.14Z"/>
      <path class="cls-2" d="M282.81,201.2c.64-1.82,1.27-3.6,1.91-5.38,1.88-5.25,3.75-10.49,5.64-15.74,2.36-6.55,4.74-13.1,7.11-19.65,1.46-4.05,2.91-8.11,4.37-12.16.62-1.71,2.18-2.59,3.64-2.06,1.69.62,2.24,2.17,1.55,4.04-2.09,5.71-4.17,11.42-6.21,17.15-2.21,6.2-4.32,12.44-6.55,18.64-1.93,5.36-3.92,10.7-5.96,16.02-.95,2.47-3.21,2.87-4.8.92-.37-.45-.46-1.12-.71-1.77Z"/>
      <path class="cls-2" d="M279.04,302.11c-.02-1.61.88-2.74,2.05-3.01,1.27-.29,2.66.29,3.14,1.55.82,2.12,1.53,4.29,2.22,6.46,3.05,9.57,6.08,19.15,9.12,28.73,1.85,5.83,3.72,11.66,5.51,17.51.29.95.94,1.97.1,3-.75.93-1.73,1.4-2.9,1.21-1.25-.2-1.94-1.07-2.32-2.25-1.38-4.39-2.8-8.78-4.19-13.17-3.37-10.63-6.73-21.27-10.11-31.9-.63-1.97-1.34-3.92-1.99-5.88-.29-.88-.5-1.78-.64-2.26Z"/>
      <path class="cls-2" d="M328.68,191.44c-.41.65-.71,1.43-1.25,1.93-4.58,4.2-9.2,8.34-13.8,12.52-3.13,2.84-6.24,5.7-9.36,8.55-1.29,1.17-2.12,1.33-3.42.67-1.81-.92-2.13-3.16-.61-4.53,4.48-4.06,8.99-8.08,13.46-12.14,3.22-2.92,6.39-5.91,9.65-8.79.64-.57,1.57-1.09,2.39-1.14,1.67-.11,2.73,1.13,2.95,2.94Z"/>
      <path class="cls-2" d="M295.65,290.51c.2-1.36.86-2.17,1.97-2.63,1.13-.48,2.17-.23,3.04.6,2.34,2.26,4.66,4.54,7,6.8,5.06,4.91,10.15,9.79,15.17,14.75.67.66,1.26,1.61,1.43,2.52.22,1.21-.51,2.19-1.7,2.66-1.3.51-2.42.05-3.36-.84-1.53-1.45-3.02-2.95-4.53-4.42-3.99-3.89-7.99-7.76-11.98-11.66-2.05-2-4.1-4.02-6.09-6.08-.43-.45-.63-1.12-.94-1.69Z"/>
      <path class="cls-2" d="M337.88,283.23c-.05,1.69-1.49,2.96-3.17,2.57-1.39-.32-2.72-.91-4.06-1.42-6.91-2.63-13.82-5.26-20.72-7.9-1.03-.4-2.1-.85-2.38-2.07-.24-1.02-.16-2.01.68-2.82.92-.87,2.01-.93,3.08-.53,8.11,3.05,16.2,6.13,24.29,9.23,1.74.66,2.33,1.49,2.29,2.94Z"/>
      <path class="cls-2" d="M336.12,220.11c1.8,0,2.97.9,3.24,2.22.25,1.21-.5,2.55-1.9,3.07-1.74.64-3.54,1.14-5.32,1.67-6.27,1.87-12.54,3.74-18.82,5.6-1.75.52-2.83.22-3.61-.93-1.13-1.67-.43-3.56,1.55-4.16,7.55-2.3,15.1-4.61,22.65-6.91.84-.26,1.71-.43,2.21-.55Z"/>
    </g>
  </g>
</svg>