<?xml version="1.0" encoding="UTF-8"?>
<svg id="Layer_2" xmlns="http://www.w3.org/2000/svg" viewBox="0 0 543.53 543.44">
  <defs>
    <style>
      .cls-1 {
        fill: #7460e6;
      }

      .cls-2 {
        fill: #bfef4b;
      }
    </style>
  </defs>
  <g id="Layer_1-2" data-name="Layer_1">
    <g>
      <path class="cls-2" d="M392.35,185.18c0,4.59.3,9.07-.06,13.5-1,12.49-1.78,25.03-3.58,37.41-1.62,11.13-4.1,22.17-6.95,33.06-2.47,9.45-5.66,18.75-9.16,27.87-3.46,9.03-7.36,17.92-12.33,26.27-4.37,7.34-8.6,14.78-13.3,21.91-5.62,8.52-12.37,16.18-19.38,23.59-10.79,11.42-22.77,21.45-35.83,30.14-5.92,3.94-12.32,7.18-18.45,10.81-1.21.72-2.15.61-3.31-.04-7.86-4.35-15.63-8.85-23.01-14.02-12.33-8.64-23.44-18.62-33.66-29.64-7.28-7.85-13.77-16.29-19.74-25.17-6.98-10.39-12.88-21.37-18-32.74-3.55-7.88-6.6-16.02-9.39-24.2-3.91-11.45-7-23.13-9.38-35.02-4.07-20.34-5.74-40.89-5.87-61.59-.01-2.32-.03-2.29,2.29-2.4,10.75-.52,21.32-2.28,31.89-4.27,9.77-1.84,19.38-4.27,28.73-7.56,7.89-2.78,15.62-6.05,23.26-9.46,9.06-4.04,17.64-9.01,25.81-14.65,2.64-1.82,5.28-3.65,7.86-5.55.78-.57,1.31-.43,2.03.05,6.83,4.56,13.56,9.31,20.58,13.57,4.63,2.81,9.63,5.06,14.6,7.26,6.6,2.92,13.25,5.79,20.03,8.25,9.53,3.45,19.34,5.96,29.3,7.88,11.41,2.2,22.85,4.1,34.48,4.6.26.01.51.13.53.14ZM254.94,323.28c.91-.42,1.75-.62,2.33-1.12,1.57-1.35,3.05-2.79,4.51-4.26,4.34-4.36,8.64-8.76,12.97-13.13,4.72-4.75,9.47-9.47,14.21-14.21,3.93-3.93,7.84-7.87,11.77-11.8,4.51-4.5,9.04-8.98,13.55-13.48,4.4-4.38,8.78-8.77,13.17-13.16,3.93-3.93,7.9-7.81,11.76-11.8,1.65-1.7,1.54-3.03-.08-4.65-4.67-4.66-9.33-9.32-14.06-13.92-3.72-3.62-4.43-3.59-8.09.06-13.27,13.25-26.52,26.52-39.78,39.78-6.47,6.48-12.94,12.96-19.43,19.43-2.12,2.11-2.8,2.2-4.6.43-5.3-5.18-10.56-10.4-15.83-15.61-4.3-4.25-8.56-8.55-12.89-12.77-2.44-2.38-4.01-2.39-6.3-.11-4.72,4.69-9.41,9.4-14.06,14.15-2.59,2.64-2.4,4.3.28,6.88,4.47,4.31,8.87,8.69,13.28,13.07,4.13,4.11,8.22,8.26,12.34,12.39,4.77,4.78,9.53,9.57,14.32,14.33,2.78,2.76,5.59,5.49,8.45,8.18.59.56,1.42.88,2.18,1.33Z"/>
      <path class="cls-1" d="M68.14,264.9c.75,0,1.55,0,2.35,0,23.77-.02,47.54-.04,71.31-.05,1.47,0,2.95.01,4.41.14.44.04,1.14.41,1.22.76,1.04,4.15,1.99,8.32,3.01,12.69h-82.36c-1.97,9.56-7.06,16.88-15.05,22.03-7.99,5.16-16.8,6.97-26.14,4.8C10.66,301.5-.57,287.22.02,270.46c.64-18.17,15.02-32.02,32.6-33.06,15.76-.93,31.9,10.16,35.52,27.5Z"/>
      <path class="cls-1" d="M475.31,278.4h-82.53c.85-3.13,1.66-6.1,2.46-9.07.24-.89.58-1.78.64-2.69.1-1.47.93-1.78,2.19-1.78,24.91,0,49.83-.01,74.74-.02.86,0,1.72,0,2.54,0,3.68-17.59,20.42-29.32,37.9-27.26,16.64,1.96,30.3,16.48,30.26,34.27-.04,17.1-13.63,32.3-30.61,34.07-16.99,1.77-33.85-9.51-37.6-27.53Z"/>
      <path class="cls-1" d="M408.31,418.09c-18.87-18.98-37.75-37.95-56.7-57.01,2.67-3.52,5.38-7.08,8.12-10.69.28.16.49.22.63.36,6.18,6.14,12.36,12.29,18.52,18.45,8.82,8.81,17.64,17.63,26.45,26.46,3.92,3.93,7.82,7.88,11.68,11.87.7.73,1.15.64,1.92.15,6.24-3.98,13.13-5.44,20.44-4.99,10.95.68,19.44,5.82,25.74,14.67,7.97,11.19,8.29,26.32.87,37.88-9.88,15.4-29.93,20.66-45.84,11.65-13.05-7.4-19.52-21.47-16.89-36.21.81-4.55,2.35-8.81,5.05-12.58Z"/>
      <path class="cls-1" d="M125.67,408.13c19.23-19.27,38.47-38.55,57.86-57.98.58.75,1.01,1.29,1.42,1.84,2.06,2.74,4.11,5.5,6.19,8.22.54.71.7,1.19-.05,1.93-9.34,9.22-18.67,18.46-27.96,27.73-8.52,8.5-16.99,17.06-25.48,25.59-.79.8-2.09,1.56-2.19,2.44-.1.91,1.05,1.92,1.55,2.94,4.08,8.38,5.01,17.04,2.34,26.04-6.29,21.24-31.45,31.06-50.4,19.47-12.29-7.51-18.34-20.18-16.26-34.75,1.43-10.08,6.58-18.2,15.37-23.61,11.55-7.12,23.43-7.2,35.44-1.09.71.36,1.39.78,2.18,1.23Z"/>
      <path class="cls-1" d="M278.53,132.02c-1.13-.76-2.01-1.33-2.86-1.94-3.96-2.84-4.16-2.84-8.02.22-.7.56-1.44,1.06-2.51,1.84v-63.81c-2.51-.86-4.89-1.49-7.11-2.47-9.16-4.04-15.26-10.93-18.69-20.29-2.53-6.91-2.64-13.97-.56-20.88,2.45-8.17,7.31-14.71,14.68-19.35,8.87-5.58,18.3-6.62,28.23-3.91,4.73,1.29,8.94,3.77,12.59,7.04,7.87,7.03,11.84,15.9,11.76,26.46-.12,14.56-10.68,28.52-24.25,32.28-3.3.91-3.25.97-3.25,4.42.01,17.82,0,35.65,0,53.47,0,2.16,0,4.31,0,6.93Z"/>
      <path class="cls-1" d="M135.2,125.53c14.38,14.45,28.69,28.82,43.25,43.45-4.02.56-7.77,1.1-11.53,1.6-1.13.15-2.32.09-3.41.39-1.52.42-2.47-.24-3.44-1.22-9.93-10.02-19.89-20.01-29.83-30.02-1.49-1.5-2.92-3.07-4.4-4.63-10.27,6.3-20.95,7.35-31.99,3.32-7.21-2.63-12.62-7.61-16.68-14.08-8.48-13.53-5.58-32.77,6.34-43.31,12.94-11.44,32.18-11.85,45.23-.72,12.23,10.44,16.63,29.12,6.47,45.23Z"/>
      <path class="cls-1" d="M365.1,168.98c14.5-14.56,28.83-28.94,42.9-43.06-1.42-3.55-3.12-6.87-4.08-10.39-4.01-14.79,1.57-29.3,14.38-37.76,13.83-9.13,32.79-7.17,44.23,5.91,9.68,11.08,11.88,25.66,4.74,38.79-6.89,12.66-17.93,18.78-32.44,18.19-5.86-.24-11.36-1.84-16.3-5.14-.26-.18-1.03.02-1.31.3-8.4,8.31-16.77,16.65-25.14,24.99-3.12,3.11-6.19,6.29-9.38,9.33-.56.53-1.62.85-2.4.77-4.44-.43-8.88-1.01-13.31-1.55-.57-.07-1.13-.23-1.89-.39Z"/>
      <path class="cls-1" d="M265.01,422.51c1.55.86,3,1.47,4.22,2.38,1.65,1.23,3.12,1.2,4.79.12,1.35-.88,2.81-1.58,4.45-2.49.05.74.11,1.15.11,1.55-.03,16.68-.07,33.36-.05,50.04,0,.44.57,1.15,1.01,1.27,8.47,2.31,15.49,6.84,20.34,14.16,7.08,10.67,8.37,22.09,2.9,33.83-5.83,12.53-15.92,19.11-29.66,20.02-13.32.88-26.62-7.32-32.25-19.38-3.62-7.76-4.5-15.69-2.2-23.86,2.08-7.41,6.12-13.58,12.28-18.41,4.01-3.15,8.67-4.68,13.28-6.44.36-.14.79-.71.79-1.08-.02-16.79-.08-33.57-.14-50.36,0-.31.05-.62.12-1.33Z"/>
    </g>
  </g>
</svg>